o hipPitchLeft
usemtl hipPitchLeft:phong1SG
v -0.10849999636411667 0.07946097105741501 0.005981980822980404
v -0.10750000178813934 0.08047497272491455 0.006534993182867765
v -0.10849999636411667 0.0834999606013298 0.005269944202154875
v -0.10849999636411667 0.07380998134613037 -0.03284597024321556
v -0.10849999636411667 0.05908900126814842 -0.011822990141808987
v -0.10849999636411667 0.06289798021316528 -0.012206969782710075
v -0.10849999636411667 0.08866798132658005 -0.026245949789881706
v -0.10849999636411667 0.06289798021316528 -0.012206969782710075
v -0.10849999636411667 0.09313397854566574 -0.025209959596395493
v -0.10849999636411667 0.09313397854566574 -0.025209959596395493
v -0.10849999636411667 0.06289798021316528 -0.012206969782710075
v -0.10849999636411667 0.0834999606013298 0.005269944202154875
v -0.10849999636411667 0.09313397854566574 -0.025209959596395493
v -0.10849999636411667 0.0834999606013298 0.005269944202154875
v -0.10849999636411667 0.09821999073028564 -0.015753980726003647
v -0.10869999974966049 0.05847597122192383 -0.010420969687402248
v -0.10849999636411667 0.05980097874999046 -0.007783948909491301
v -0.10849999636411667 0.05908900126814842 -0.011822990141808987
v -0.10849999636411667 0.09821999073028564 -0.015753980726003647
v -0.10869999974966049 0.09879601001739502 -0.017953990027308464
v -0.10849999636411667 0.09313397854566574 -0.025209959596395493
v -0.10849999636411667 0.08866798132658005 -0.026245949789881706
v -0.10849999636411667 0.08693598955869675 -0.0274579506367445
v -0.10849999636411667 0.06289798021316528 -0.012206969782710075
v -0.10849999636411667 0.06289798021316528 -0.012206969782710075
v -0.10849999636411667 0.08693598955869675 -0.0274579506367445
v -0.10849999636411667 0.07380998134613037 -0.03284597024321556
v -0.10849999636411667 0.07380998134613037 -0.03284597024321556
v -0.10849999636411667 0.08693598955869675 -0.0274579506367445
v -0.10849999636411667 0.08443599194288254 -0.03130095824599266
v -0.10849999636411667 0.07380998134613037 -0.03284597024321556
v -0.10849999636411667 0.08443599194288254 -0.03130095824599266
v -0.10869999974966049 0.07568097114562988 -0.03413999080657959
v -0.10849999636411667 0.05908900126814842 -0.011822990141808987
v -0.10849999636411667 0.05980097874999046 -0.007783948909491301
v -0.10849999636411667 0.07946097105741501 0.005981980822980404
v -0.10849999636411667 0.05908900126814842 -0.011822990141808987
v -0.10849999636411667 0.07946097105741501 0.005981980822980404
v -0.10849999636411667 0.06289798021316528 -0.012206969782710075
v -0.10849999636411667 0.06289798021316528 -0.012206969782710075
v -0.10849999636411667 0.07946097105741501 0.005981980822980404
v -0.10849999636411667 0.0834999606013298 0.005269944202154875
vt 0.1961349993944168 0.019882969558238983
vt 0.2036910057067871 0.020704979076981544
vt 0.21540600061416626 0.038841959089040756
vt 0.02130698971450329 0.20756499469280243
vt 0.019486960023641586 0.03934698924422264
vt 0.03873097151517868 0.05568397045135498
vt 0.12643499672412872 0.22771400213241577
vt 0.03873097151517868 0.05568397045135498
vt 0.15451499819755554 0.23887300491333008
vt 0.15451499819755554 0.23887300491333008
vt 0.03873097151517868 0.05568397045135498
vt 0.21540600061416626 0.038841959089040756
vt 0.15451499819755554 0.23887300491333008
vt 0.21540600061416626 0.038841959089040756
vt 0.21722500026226044 0.20705899596214294
vt 0.021366000175476074 0.029509959742426872
vt 0.03834794834256172 0.02028995007276535
vt 0.019486960023641586 0.03934698924422264
vt 0.21722500026226044 0.20705899596214294
vt 0.2121800035238266 0.22105400264263153
vt 0.15451499819755554 0.23887300491333008
vt 0.12643499672412872 0.22771400213241577
vt 0.11253900080919266 0.2277500033378601
vt 0.03873097151517868 0.05568397045135498
vt 0.03873097151517868 0.05568397045135498
vt 0.11253900080919266 0.2277500033378601
vt 0.02130698971450329 0.20756499469280243
vt 0.02130698971450329 0.20756499469280243
vt 0.11253900080919266 0.2277500033378601
vt 0.08470296114683151 0.23905299603939056
vt 0.02130698971450329 0.20756499469280243
vt 0.08470296114683151 0.23905299603939056
vt 0.02665494941174984 0.22153200209140778
vt 0.019486960023641586 0.03934698924422264
vt 0.03834794834256172 0.02028995007276535
vt 0.1961349993944168 0.019882969558238983
vt 0.019486960023641586 0.03934698924422264
vt 0.1961349993944168 0.019882969558238983
vt 0.03873097151517868 0.05568397045135498
vt 0.03873097151517868 0.05568397045135498
vt 0.1961349993944168 0.019882969558238983
vt 0.21540600061416626 0.038841959089040756
vn -0.5846480722043325 0.1408433018873668 0.7989679567925247
vn -0.5846480722043325 0.1408433018873668 0.7989679567925247
vn -0.5846480722043325 0.1408433018873668 0.7989679567925247
vn -0.999999999985544 0.000005377009983853473 0
vn -0.999999999985544 0.000005377009983853473 0
vn -0.999999999985544 0.000005377009983853473 0
vn -1 0 0
vn -1 0 0
vn -1 0 0
vn -0.9999999999999574 2.923819977240658e-7 0
vn -0.9999999999999574 2.923819977240658e-7 0
vn -0.9999999999999574 2.923819977240658e-7 0
vn -0.9999999999982101 -0.0000018920100046637131 0
vn -0.9999999999982101 -0.0000018920100046637131 0
vn -0.9999999999982101 -0.0000018920100046637131 0
vn -0.9732408503444997 0.22629816783387785 -0.03989218539695488
vn -0.9732408503444997 0.22629816783387785 -0.03989218539695488
vn -0.9732408503444997 0.22629816783387785 -0.03989218539695488
vn -0.9917724792143993 -0.1127377010656339 0.06064289102079453
vn -0.9917724792143993 -0.1127377010656339 0.06064289102079453
vn -0.9917724792143993 -0.1127377010656339 0.06064289102079453
vn -1 0 0
vn -1 0 0
vn -1 0 0
vn -0.9999999999999378 -3.530929859607348e-7 0
vn -0.9999999999999378 -3.530929859607348e-7 0
vn -0.9999999999999378 -3.530929859607348e-7 0
vn -0.9999999999987608 -0.0000015743199810438954 0
vn -0.9999999999987608 -0.0000015743199810438954 0
vn -0.9999999999987608 -0.0000015743199810438954 0
vn -0.9917749913751238 -0.0184175300426037 0.12666160061361567
vn -0.9917749913751238 -0.0184175300426037 0.12666160061361567
vn -0.9917749913751238 -0.0184175300426037 0.12666160061361567
vn -0.9999999999944056 -0.0000033450101000011494 0
vn -0.9999999999944056 -0.0000033450101000011494 0
vn -0.9999999999944056 -0.0000033450101000011494 0
vn -1 0 0
vn -1 0 0
vn -1 0 0
vn -0.9999999999988203 0.0000015361299574560757 0
vn -0.9999999999988203 0.0000015361299574560757 0
vn -0.9999999999988203 0.0000015361299574560757 0
f 1/1/1 2/2/2 3/3/3
f 4/4/4 5/5/5 6/6/6
f 7/7/7 8/8/8 9/9/9
f 10/10/10 11/11/11 12/12/12
f 13/13/13 14/14/14 15/15/15
f 16/16/16 17/17/17 18/18/18
f 19/19/19 20/20/20 21/21/21
f 22/22/22 23/23/23 24/24/24
f 25/25/25 26/26/26 27/27/27
f 28/28/28 29/29/29 30/30/30
f 31/31/31 32/32/32 33/33/33
f 34/34/34 35/35/35 36/36/36
f 37/37/37 38/38/38 39/39/39
f 40/40/40 41/41/41 42/42/42
