o hipPitchRight
usemtl 灰色
v 0.07099997252225876 -0.06613200157880783 0.004095971118658781
v 0.07099997252225876 -0.06455694884061813 0.0022939438931643963
v 0.06079994887113571 -0.06613200157880783 0.004095971118658781
v 0.07099997252225876 -0.06455694884061813 0.0022939438931643963
v 0.06079994887113571 -0.06455694884061813 0.0022939438931643963
v 0.06079994887113571 -0.06613200157880783 0.004095971118658781
v 0.07099997252225876 -0.06455694884061813 0.0022939438931643963
v 0.07099997252225876 -0.06400001049041748 -0.00003400000059627928
v 0.06079994887113571 -0.06455694884061813 0.0022939438931643963
v 0.07099997252225876 -0.06400001049041748 -0.00003400000059627928
v 0.06079994887113571 -0.06415294855833054 -0.0012289880542084575
v 0.06079994887113571 -0.06455694884061813 0.0022939438931643963
v 0.07099997252225876 -0.06400001049041748 -0.00003400000059627928
v 0.07099997252225876 -0.06458801031112671 -0.0023529520258307457
v 0.06079994887113571 -0.06415294855833054 -0.0012289880542084575
v 0.07099997252225876 -0.06458801031112671 -0.0023529520258307457
v 0.06079994887113571 -0.06527996063232422 -0.003340959083288908
v 0.06079994887113571 -0.06415294855833054 -0.0012289880542084575
v 0.07099997252225876 -0.06458801031112671 -0.0023529520258307457
v 0.07099997252225876 -0.06618695706129074 -0.00413399888202548
v 0.06079994887113571 -0.06527996063232422 -0.003340959083288908
v 0.07099997252225876 -0.06618695706129074 -0.00413399888202548
v 0.06079994887113571 -0.06725800037384033 -0.004686951171606779
v 0.06079994887113571 -0.06527996063232422 -0.003340959083288908
v 0.07099997252225876 -0.06618695706129074 -0.00413399888202548
v 0.07099997252225876 -0.06843096017837524 -0.004966973792761564
v 0.06079994887113571 -0.06725800037384033 -0.004686951171606779
v 0.07099997252225876 -0.06843096017837524 -0.004966973792761564
v 0.06079994887113571 -0.06963597983121872 -0.004958986770361662
v 0.06079994887113571 -0.06725800037384033 -0.004686951171606779
v 0.07099997252225876 -0.06843096017837524 -0.004966973792761564
v 0.07099997252225876 -0.07080399245023727 -0.004662990104407072
v 0.06079994887113571 -0.06963597983121872 -0.004958986770361662
v 0.07099997252225876 -0.07080399245023727 -0.004662990104407072
v 0.06079994887113571 -0.07186800241470337 -0.004095971118658781
v 0.06079994887113571 -0.06963597983121872 -0.004958986770361662
v 0.07099997252225876 -0.06618695706129074 -0.00413399888202548
v 0.07199995964765549 -0.06344199180603027 -0.002260982058942318
v 0.07199995964765549 -0.06606494635343552 -0.005232988856732845
v 0.07099997252225876 -0.06618695706129074 -0.00413399888202548
v 0.07099997252225876 -0.06458801031112671 -0.0023529520258307457
v 0.07199995964765549 -0.06344199180603027 -0.002260982058942318
v 0.07099997252225876 -0.06458801031112671 -0.0023529520258307457
v 0.07199995964765549 -0.06301199644804001 0.00037399999564513564
v 0.07199995964765549 -0.06344199180603027 -0.002260982058942318
v 0.07099997252225876 -0.06458801031112671 -0.0023529520258307457
v 0.07099997252225876 -0.06400001049041748 -0.00003400000059627928
v 0.07199995964765549 -0.06301199644804001 0.00037399999564513564
v 0.07099997252225876 -0.06400001049041748 -0.00003400000059627928
v 0.07099997252225876 -0.06455694884061813 0.0022939438931643963
v 0.07199995964765549 -0.06301199644804001 0.00037399999564513564
v 0.07099997252225876 -0.06455694884061813 0.0022939438931643963
v 0.07199995964765549 -0.0645509883761406 0.004025994800031185
v 0.07199995964765549 -0.06301199644804001 0.00037399999564513564
v 0.07099997252225876 -0.06455694884061813 0.0022939438931643963
v 0.07099997252225876 -0.06613200157880783 0.004095971118658781
v 0.07199995964765549 -0.0645509883761406 0.004025994800031185
v 0.07099997252225876 -0.06613200157880783 0.004095971118658781
v 0.07199995964765549 -0.06673896312713623 0.005557000171393156
v 0.07199995964765549 -0.0645509883761406 0.004025994800031185
v 0.07099997252225876 -0.06613200157880783 0.004095971118658781
v 0.07099997252225876 -0.06836395710706711 0.004958986770361662
v 0.07199995964765549 -0.06673896312713623 0.005557000171393156
v 0.07099997252225876 -0.06836395710706711 0.004958986770361662
v 0.07099997252225876 -0.07074201107025146 0.004686951171606779
v 0.07199995964765549 -0.06673896312713623 0.005557000171393156
v 0.07099997252225876 -0.07074201107025146 0.004686951171606779
v 0.07199995964765549 -0.07193499058485031 0.005232988856732845
v 0.07199995964765549 -0.06673896312713623 0.005557000171393156
v 0.07099997252225876 -0.07074201107025146 0.004686951171606779
v 0.07099997252225876 -0.0727199912071228 0.003340959083288908
v 0.07199995964765549 -0.07193499058485031 0.005232988856732845
v 0.07099997252225876 -0.0727199912071228 0.003340959083288908
v 0.07199995964765549 -0.07492095232009888 0.0009679999784566462
v 0.07199995964765549 -0.07193499058485031 0.005232988856732845
v 0.07099997252225876 -0.0727199912071228 0.003340959083288908
v 0.07099997252225876 -0.07384698837995529 0.0012289880542084575
v 0.07199995964765549 -0.07492095232009888 0.0009679999784566462
v 0.07099997252225876 -0.07384698837995529 0.0012289880542084575
v 0.07199995964765549 -0.07475495338439941 -0.0016969440039247274
v 0.07199995964765549 -0.07492095232009888 0.0009679999784566462
v 0.07099997252225876 -0.07384698837995529 0.0012289880542084575
v 0.07099997252225876 -0.0734429880976677 -0.0022939438931643963
v 0.07199995964765549 -0.07475495338439941 -0.0016969440039247274
v 0.07099997252225876 -0.0734429880976677 -0.0022939438931643963
v 0.07199995964765549 -0.07244198769330978 -0.004914999008178711
v 0.07199995964765549 -0.07475495338439941 -0.0016969440039247274
v 0.07099997252225876 -0.0734429880976677 -0.0022939438931643963
v 0.07099997252225876 -0.07080399245023727 -0.004662990104407072
v 0.07199995964765549 -0.07244198769330978 -0.004914999008178711
v 0.07099997252225876 -0.07080399245023727 -0.004662990104407072
v 0.0712999701499939 -0.06996797770261765 -0.005920946132391691
v 0.07199995964765549 -0.07244198769330978 -0.004914999008178711
v 0.07099997252225876 -0.07080399245023727 -0.004662990104407072
v 0.07099997252225876 -0.06843096017837524 -0.004966973792761564
v 0.0712999701499939 -0.06996797770261765 -0.005920946132391691
v 0.07099997252225876 -0.06843096017837524 -0.004966973792761564
v 0.07099997252225876 -0.06618695706129074 -0.00413399888202548
v 0.0712999701499939 -0.06996797770261765 -0.005920946132391691
v 0.07099997252225876 -0.07080399245023727 -0.004662990104407072
v 0.07099997252225876 -0.0734429880976677 -0.0022939438931643963
v 0.06079994887113571 -0.07186800241470337 -0.004095971118658781
v 0.07099997252225876 -0.0734429880976677 -0.0022939438931643963
v 0.06079994887113571 -0.0734429880976677 -0.0022939438931643963
v 0.06079994887113571 -0.07186800241470337 -0.004095971118658781
v 0.07099997252225876 -0.0734429880976677 -0.0022939438931643963
v 0.06079994887113571 -0.07400000095367432 0.00003400000059627928
v 0.06079994887113571 -0.0734429880976677 -0.0022939438931643963
v 0.07099997252225876 -0.0734429880976677 -0.0022939438931643963
v 0.07099997252225876 -0.07384698837995529 0.0012289880542084575
v 0.06079994887113571 -0.07400000095367432 0.00003400000059627928
v 0.07099997252225876 -0.07384698837995529 0.0012289880542084575
v 0.06079994887113571 -0.07341200113296509 0.0023529520258307457
v 0.06079994887113571 -0.07400000095367432 0.00003400000059627928
v 0.07099997252225876 -0.07384698837995529 0.0012289880542084575
v 0.07099997252225876 -0.0727199912071228 0.003340959083288908
v 0.06079994887113571 -0.07341200113296509 0.0023529520258307457
v 0.07099997252225876 -0.0727199912071228 0.003340959083288908
v 0.06079994887113571 -0.07074201107025146 0.004686951171606779
v 0.06079994887113571 -0.07341200113296509 0.0023529520258307457
v 0.07099997252225876 -0.0727199912071228 0.003340959083288908
v 0.07099997252225876 -0.07074201107025146 0.004686951171606779
v 0.06079994887113571 -0.07074201107025146 0.004686951171606779
v 0.07099997252225876 -0.07074201107025146 0.004686951171606779
v 0.07099997252225876 -0.06836395710706711 0.004958986770361662
v 0.06079994887113571 -0.07074201107025146 0.004686951171606779
v 0.07099997252225876 -0.06836395710706711 0.004958986770361662
v 0.06079994887113571 -0.06836395710706711 0.004958986770361662
v 0.06079994887113571 -0.07074201107025146 0.004686951171606779
v 0.07099997252225876 -0.06836395710706711 0.004958986770361662
v 0.07099997252225876 -0.06613200157880783 0.004095971118658781
v 0.06079994887113571 -0.06836395710706711 0.004958986770361662
v 0.07099997252225876 -0.06613200157880783 0.004095971118658781
v 0.06079994887113571 -0.06613200157880783 0.004095971118658781
v 0.06079994887113571 -0.06836395710706711 0.004958986770361662
v 0.06079994887113571 -0.06455694884061813 0.0022939438931643963
v 0.06079994887113571 -0.06836395710706711 0.004958986770361662
v 0.06079994887113571 -0.06613200157880783 0.004095971118658781
v 0.06079994887113571 -0.06836395710706711 0.004958986770361662
v 0.06079994887113571 -0.07341200113296509 0.0023529520258307457
v 0.06079994887113571 -0.07074201107025146 0.004686951171606779
v 0.06079994887113571 -0.07341200113296509 0.0023529520258307457
v 0.06079994887113571 -0.0734429880976677 -0.0022939438931643963
v 0.06079994887113571 -0.07400000095367432 0.00003400000059627928
v 0.06079994887113571 -0.06963597983121872 -0.004958986770361662
v 0.06079994887113571 -0.07186800241470337 -0.004095971118658781
v 0.06079994887113571 -0.0734429880976677 -0.0022939438931643963
v 0.06079994887113571 -0.06963597983121872 -0.004958986770361662
v 0.06079994887113571 -0.06527996063232422 -0.003340959083288908
v 0.06079994887113571 -0.06725800037384033 -0.004686951171606779
v 0.06079994887113571 -0.06527996063232422 -0.003340959083288908
v 0.06079994887113571 -0.06455694884061813 0.0022939438931643963
v 0.06079994887113571 -0.06415294855833054 -0.0012289880542084575
v 0.06049995869398117 -0.06685799360275269 0.00018699999782256782
v 0.06049995869398117 -0.06809096783399582 0.0019489519763737917
v 0.06079994887113571 -0.06455694884061813 0.0022939438931643963
v 0.06049995869398117 -0.0677669569849968 -0.0017609590431675315
v 0.06049995869398117 -0.06685799360275269 0.00018699999782256782
v 0.06079994887113571 -0.06527996063232422 -0.003340959083288908
v 0.06049995869398117 -0.06685799360275269 0.00018699999782256782
v 0.06079994887113571 -0.06455694884061813 0.0022939438931643963
v 0.06079994887113571 -0.06527996063232422 -0.003340959083288908
v 0.06049995869398117 -0.0691869780421257 -0.00214195204898715
v 0.06079994887113571 -0.06527996063232422 -0.003340959083288908
v 0.06079994887113571 -0.06963597983121872 -0.004958986770361662
v 0.06049995869398117 -0.0691869780421257 -0.00214195204898715
v 0.06049995869398117 -0.0677669569849968 -0.0017609590431675315
v 0.06079994887113571 -0.06527996063232422 -0.003340959083288908
v 0.06049995869398117 -0.07114195078611374 -0.00018699999782256782
v 0.06049995869398117 -0.07051997631788254 -0.0015199780464172363
v 0.06079994887113571 -0.0734429880976677 -0.0022939438931643963
v 0.06049995869398117 -0.07051997631788254 -0.0015199780464172363
v 0.06079994887113571 -0.06963597983121872 -0.004958986770361662
v 0.06079994887113571 -0.0734429880976677 -0.0022939438931643963
v 0.06049995869398117 -0.06809096783399582 0.0019489519763737917
v 0.06049995869398117 -0.06955599039793015 0.0020769829861819744
v 0.06079994887113571 -0.06836395710706711 0.004958986770361662
v 0.06049995869398117 -0.06809096783399582 0.0019489519763737917
v 0.06079994887113571 -0.06836395710706711 0.004958986770361662
v 0.06079994887113571 -0.06455694884061813 0.0022939438931643963
v 0.06049995869398117 -0.07051997631788254 -0.0015199780464172363
v 0.06049995869398117 -0.0691869780421257 -0.00214195204898715
v 0.06079994887113571 -0.06963597983121872 -0.004958986770361662
v 0.06079994887113571 -0.06836395710706711 0.004958986770361662
v 0.06049995869398117 -0.06955599039793015 0.0020769829861819744
v 0.06079994887113571 -0.07341200113296509 0.0023529520258307457
v 0.06049995869398117 -0.06955599039793015 0.0020769829861819744
v 0.06049995869398117 -0.07076095789670944 0.0012329809833317995
v 0.06079994887113571 -0.07341200113296509 0.0023529520258307457
v 0.06049995869398117 -0.07076095789670944 0.0012329809833317995
v 0.06049995869398117 -0.07114195078611374 -0.00018699999782256782
v 0.06079994887113571 -0.07341200113296509 0.0023529520258307457
v 0.06049995869398117 -0.07114195078611374 -0.00018699999782256782
v 0.06079994887113571 -0.0734429880976677 -0.0022939438931643963
v 0.06079994887113571 -0.07341200113296509 0.0023529520258307457
v 0.06049995869398117 -0.0677669569849968 -0.0017609590431675315
v 0.0688999816775322 -0.06962894648313522 -0.002055943012237549
v 0.0688999816775322 -0.06723897904157639 -0.0012329809833317995
v 0.06049995869398117 -0.0677669569849968 -0.0017609590431675315
v 0.06049995869398117 -0.0691869780421257 -0.00214195204898715
v 0.0688999816775322 -0.06962894648313522 -0.002055943012237549
v 0.06049995869398117 -0.0691869780421257 -0.00214195204898715
v 0.06049995869398117 -0.07051997631788254 -0.0015199780464172363
v 0.0688999816775322 -0.06962894648313522 -0.002055943012237549
v 0.0688999816775322 -0.06962894648313522 -0.002055943012237549
v 0.06049995869398117 -0.07051997631788254 -0.0015199780464172363
v 0.0688999816775322 -0.07103300094604492 -0.000699999975040555
v 0.06049995869398117 -0.07051997631788254 -0.0015199780464172363
v 0.06049995869398117 -0.07114195078611374 -0.00018699999782256782
v 0.0688999816775322 -0.07103300094604492 -0.000699999975040555
v 0.06049995869398117 -0.07114195078611374 -0.00018699999782256782
v 0.06049995869398117 -0.07076095789670944 0.0012329809833317995
v 0.0688999816775322 -0.07103300094604492 -0.000699999975040555
v 0.06049995869398117 -0.07076095789670944 0.0012329809833317995
v 0.0688999816775322 -0.07076095789670944 0.0012329809833317995
v 0.0688999816775322 -0.07103300094604492 -0.000699999975040555
v 0.0688999816775322 -0.06723897904157639 -0.0012329809833317995
v 0.06049995869398117 -0.06685799360275269 0.00018699999782256782
v 0.06049995869398117 -0.0677669569849968 -0.0017609590431675315
v 0.06049995869398117 -0.07076095789670944 0.0012329809833317995
v 0.06049995869398117 -0.06955599039793015 0.0020769829861819744
v 0.0688999816775322 -0.07076095789670944 0.0012329809833317995
v 0.06049995869398117 -0.06955599039793015 0.0020769829861819744
v 0.0688999816775322 -0.06903696060180664 0.0021499989088624716
v 0.0688999816775322 -0.07076095789670944 0.0012329809833317995
v 0.06049995869398117 -0.06955599039793015 0.0020769829861819744
v 0.06049995869398117 -0.06809096783399582 0.0019489519763737917
v 0.0688999816775322 -0.06903696060180664 0.0021499989088624716
v 0.06049995869398117 -0.06809096783399582 0.0019489519763737917
v 0.06939995288848877 -0.06747996062040329 0.002170979045331478
v 0.0688999816775322 -0.06903696060180664 0.0021499989088624716
v 0.06939995288848877 -0.06747996062040329 0.002170979045331478
v 0.06049995869398117 -0.06809096783399582 0.0019489519763737917
v 0.0688999816775322 -0.06696701049804688 0.000699999975040555
v 0.06049995869398117 -0.06809096783399582 0.0019489519763737917
v 0.06049995869398117 -0.06685799360275269 0.00018699999782256782
v 0.0688999816775322 -0.06696701049804688 0.000699999975040555
v 0.06049995869398117 -0.06685799360275269 0.00018699999782256782
v 0.0688999816775322 -0.06723897904157639 -0.0012329809833317995
v 0.0688999816775322 -0.06696701049804688 0.000699999975040555
v 0.0688999816775322 -0.06723897904157639 -0.0012329809833317995
v 0.06939995288848877 -0.06747996062040329 0.002170979045331478
v 0.0688999816775322 -0.06696701049804688 0.000699999975040555
v 0.06939995288848877 -0.06747996062040329 0.002170979045331478
v 0.06939995288848877 -0.0722770020365715 0.0022939438931643963
v 0.0688999816775322 -0.06903696060180664 0.0021499989088624716
v 0.0688999816775322 -0.07076095789670944 0.0012329809833317995
v 0.0688999816775322 -0.06903696060180664 0.0021499989088624716
v 0.06939995288848877 -0.0722770020365715 0.0022939438931643963
v 0.06939995288848877 -0.0722770020365715 0.0022939438931643963
v 0.0688999816775322 -0.07103300094604492 -0.000699999975040555
v 0.0688999816775322 -0.07076095789670944 0.0012329809833317995
v 0.06939995288848877 -0.06934899091720581 -0.003984986804425716
v 0.0688999816775322 -0.06962894648313522 -0.002055943012237549
v 0.0688999816775322 -0.07103300094604492 -0.000699999975040555
v 0.0688999816775322 -0.06723897904157639 -0.0012329809833317995
v 0.0688999816775322 -0.06962894648313522 -0.002055943012237549
v 0.06939995288848877 -0.06934899091720581 -0.003984986804425716
v 0.06939995288848877 -0.0722770020365715 0.0022939438931643963
v 0.06939995288848877 -0.07068996876478195 0.0036249749828130007
v 0.07400000095367432 -0.0708169937133789 0.003896950976923108
v 0.06939995288848877 -0.07068996876478195 0.0036249749828130007
v 0.07400000095367432 -0.06862497329711914 0.004283964168280363
v 0.07400000095367432 -0.0708169937133789 0.003896950976923108
v 0.06939995288848877 -0.07068996876478195 0.0036249749828130007
v 0.06939995288848877 -0.06763195246458054 0.003758965991437435
v 0.07400000095367432 -0.06862497329711914 0.004283964168280363
v 0.06939995288848877 -0.06763195246458054 0.003758965991437435
v 0.07400000095367432 -0.06653398275375366 0.003521977923810482
v 0.07400000095367432 -0.06862497329711914 0.004283964168280363
v 0.06939995288848877 -0.06763195246458054 0.003758965991437435
v 0.07400000095367432 -0.06510298699140549 0.0018169869435951114
v 0.07400000095367432 -0.06653398275375366 0.003521977923810482
v 0.06939995288848877 -0.06763195246458054 0.003758965991437435
v 0.06939995288848877 -0.06593596190214157 0.0025709860492497683
v 0.07400000095367432 -0.06510298699140549 0.0018169869435951114
v 0.06939995288848877 -0.06593596190214157 0.0025709860492497683
v 0.07400000095367432 -0.06471598148345947 -0.000375000003259629
v 0.07400000095367432 -0.06510298699140549 0.0018169869435951114
v 0.06939995288848877 -0.06593596190214157 0.0025709860492497683
v 0.06939995288848877 -0.06506097316741943 0.0006949999951757491
v 0.07400000095367432 -0.06471598148345947 -0.000375000003259629
v 0.06939995288848877 -0.06506097316741943 0.0006949999951757491
v 0.07400000095367432 -0.06547795981168747 -0.0024659628979861736
v 0.07400000095367432 -0.06471598148345947 -0.000375000003259629
v 0.06939995288848877 -0.06506097316741943 0.0006949999951757491
v 0.06939995288848877 -0.06524097174406052 -0.0013679859694093466
v 0.07400000095367432 -0.06547795981168747 -0.0024659628979861736
v 0.06939995288848877 -0.06934899091720581 -0.003984986804425716
v 0.0688999816775322 -0.07103300094604492 -0.000699999975040555
v 0.06939995288848877 -0.07129400223493576 -0.003276943927630782
v 0.06939995288848877 -0.0722770020365715 0.0022939438931643963
v 0.06939995288848877 -0.06763195246458054 0.003758965991437435
v 0.06939995288848877 -0.07068996876478195 0.0036249749828130007
v 0.06939995288848877 -0.0722770020365715 0.0022939438931643963
v 0.06939995288848877 -0.06747996062040329 0.002170979045331478
v 0.06939995288848877 -0.06763195246458054 0.003758965991437435
v 0.06939995288848877 -0.06747996062040329 0.002170979045331478
v 0.06939995288848877 -0.06593596190214157 0.0025709860492497683
v 0.06939995288848877 -0.06763195246458054 0.003758965991437435
v 0.06939995288848877 -0.06747996062040329 0.002170979045331478
v 0.06939995288848877 -0.06506097316741943 0.0006949999951757491
v 0.06939995288848877 -0.06593596190214157 0.0025709860492497683
v 0.06939995288848877 -0.06747996062040329 0.002170979045331478
v 0.0688999816775322 -0.06723897904157639 -0.0012329809833317995
v 0.06939995288848877 -0.06506097316741943 0.0006949999951757491
v 0.0688999816775322 -0.06723897904157639 -0.0012329809833317995
v 0.06939995288848877 -0.06524097174406052 -0.0013679859694093466
v 0.06939995288848877 -0.06506097316741943 0.0006949999951757491
v 0.0688999816775322 -0.06723897904157639 -0.0012329809833317995
v 0.06939995288848877 -0.06934899091720581 -0.003984986804425716
v 0.06939995288848877 -0.06524097174406052 -0.0013679859694093466
v 0.06939995288848877 -0.06934899091720581 -0.003984986804425716
v 0.06939995288848877 -0.06642895191907883 -0.003063976066187024
v 0.06939995288848877 -0.06524097174406052 -0.0013679859694093466
v 0.06939995288848877 -0.07129400223493576 -0.003276943927630782
v 0.0688999816775322 -0.07103300094604492 -0.000699999975040555
v 0.06939995288848877 -0.07262498140335083 -0.001689970027655363
v 0.0688999816775322 -0.07103300094604492 -0.000699999975040555
v 0.06939995288848877 -0.07298499345779419 0.0003490000090096146
v 0.06939995288848877 -0.07262498140335083 -0.001689970027655363
v 0.0688999816775322 -0.07103300094604492 -0.000699999975040555
v 0.06939995288848877 -0.0722770020365715 0.0022939438931643963
v 0.06939995288848877 -0.07298499345779419 0.0003490000090096146
v 0.06939995288848877 -0.06524097174406052 -0.0013679859694093466
v 0.06939995288848877 -0.06642895191907883 -0.003063976066187024
v 0.07400000095367432 -0.06547795981168747 -0.0024659628979861736
v 0.06939995288848877 -0.06642895191907883 -0.003063976066187024
v 0.07400000095367432 -0.06825298070907593 -0.004234969150274992
v 0.07400000095367432 -0.06547795981168747 -0.0024659628979861736
v 0.06939995288848877 -0.06642895191907883 -0.003063976066187024
v 0.06939995288848877 -0.06934899091720581 -0.003984986804425716
v 0.07400000095367432 -0.06825298070907593 -0.004234969150274992
v 0.06939995288848877 -0.06934899091720581 -0.003984986804425716
v 0.07400000095367432 -0.07047098129987717 -0.0040409560315310955
v 0.07400000095367432 -0.06825298070907593 -0.004234969150274992
v 0.06939995288848877 -0.06934899091720581 -0.003984986804425716
v 0.07400000095367432 -0.07229398936033249 -0.002763985889032483
v 0.07400000095367432 -0.07047098129987717 -0.0040409560315310955
v 0.06939995288848877 -0.06934899091720581 -0.003984986804425716
v 0.06939995288848877 -0.07129400223493576 -0.003276943927630782
v 0.07400000095367432 -0.07229398936033249 -0.002763985889032483
v 0.06939995288848877 -0.07129400223493576 -0.003276943927630782
v 0.06939995288848877 -0.07262498140335083 -0.001689970027655363
v 0.07400000095367432 -0.07229398936033249 -0.002763985889032483
v 0.06939995288848877 -0.07262498140335083 -0.001689970027655363
v 0.07400000095367432 -0.07328397035598755 0.000375000003259629
v 0.07400000095367432 -0.07229398936033249 -0.002763985889032483
v 0.06939995288848877 -0.07262498140335083 -0.001689970027655363
v 0.06939995288848877 -0.07298499345779419 0.0003490000090096146
v 0.07400000095367432 -0.07328397035598755 0.000375000003259629
v 0.06939995288848877 -0.07298499345779419 0.0003490000090096146
v 0.06939995288848877 -0.0722770020365715 0.0022939438931643963
v 0.07400000095367432 -0.07328397035598755 0.000375000003259629
v 0.06939995288848877 -0.0722770020365715 0.0022939438931643963
v 0.07400000095367432 -0.0708169937133789 0.003896950976923108
v 0.07400000095367432 -0.07328397035598755 0.000375000003259629
v 0.07370001077651978 -0.06434594839811325 0.009745954535901546
v 0.07199995964765549 -0.060510989278554916 0.006179987918585539
v 0.07199995964765549 -0.06297694891691208 0.008600950241088867
v 0.07370001077651978 -0.06434594839811325 0.009745954535901546
v 0.07400000095367432 -0.060510989278554916 0.006179987918585539
v 0.07199995964765549 -0.060510989278554916 0.006179987918585539
v 0.07400000095367432 -0.060510989278554916 0.006179987918585539
v 0.07400000095367432 -0.05896395072340965 0.00308799697086215
v 0.07199995964765549 -0.060510989278554916 0.006179987918585539
v 0.07400000095367432 -0.05896395072340965 0.00308799697086215
v 0.07199995964765549 -0.058504991233348846 -0.0003380000125616789
v 0.07199995964765549 -0.060510989278554916 0.006179987918585539
v 0.07400000095367432 -0.05896395072340965 0.00308799697086215
v 0.07370001077651978 -0.058409981429576874 -0.002118944888934493
v 0.07199995964765549 -0.058504991233348846 -0.0003380000125616789
v 0.07400000095367432 -0.060925960540771484 -0.006711958907544613
v 0.07199995964765549 -0.060925960540771484 -0.006711958907544613
v 0.07370001077651978 -0.058409981429576874 -0.002118944888934493
v 0.07400000095367432 -0.060925960540771484 -0.006711958907544613
v 0.07199995964765549 -0.0650939866900444 -0.009745954535901546
v 0.07199995964765549 -0.060925960540771484 -0.006711958907544613
v 0.07400000095367432 -0.060925960540771484 -0.006711958907544613
v 0.07400000095367432 -0.06354296207427979 -0.008969961665570736
v 0.07199995964765549 -0.0650939866900444 -0.009745954535901546
v 0.07400000095367432 -0.06354296207427979 -0.008969961665570736
v 0.07370001077651978 -0.06668698042631149 -0.010548939928412437
v 0.07199995964765549 -0.0650939866900444 -0.009745954535901546
v 0.07400000095367432 -0.06847000122070312 -0.010486960411071777
v 0.07199995964765549 -0.07190299034118652 -0.010090939700603485
v 0.07370001077651978 -0.06668698042631149 -0.010548939928412437
v 0.07400000095367432 -0.06847000122070312 -0.010486960411071777
v 0.07370001077651978 -0.07198596000671387 -0.010378950275480747
v 0.07199995964765549 -0.07190299034118652 -0.010090939700603485
v 0.07370001077651978 -0.07198596000671387 -0.010378950275480747
v 0.07199995964765549 -0.07635598629713058 -0.007491946220397949
v 0.07199995964765549 -0.07190299034118652 -0.010090939700603485
v 0.07400000095367432 -0.05896395072340965 0.00308799697086215
v 0.07400000095367432 -0.060925960540771484 -0.006711958907544613
v 0.07370001077651978 -0.058409981429576874 -0.002118944888934493
v 0.07400000095367432 -0.06354296207427979 -0.008969961665570736
v 0.07400000095367432 -0.06847000122070312 -0.010486960411071777
v 0.07370001077651978 -0.06668698042631149 -0.010548939928412437
v 0.07400000095367432 -0.06847000122070312 -0.010486960411071777
v 0.07400000095367432 -0.07635598629713058 -0.007491946220397949
v 0.07370001077651978 -0.07198596000671387 -0.010378950275480747
v 0.07400000095367432 -0.07328397035598755 0.000375000003259629
v 0.07400000095367432 -0.0708169937133789 0.003896950976923108
v 0.07400000095367432 -0.07585995644330978 0.00794994831085205
v 0.07400000095367432 -0.07328397035598755 0.000375000003259629
v 0.07400000095367432 -0.07585995644330978 0.00794994831085205
v 0.07400000095367432 -0.0794069692492485 -0.0013939730124548078
v 0.07400000095367432 -0.06547795981168747 -0.0024659628979861736
v 0.07400000095367432 -0.06825298070907593 -0.004234969150274992
v 0.07400000095367432 -0.06354296207427979 -0.008969961665570736
v 0.07400000095367432 -0.0708169937133789 0.003896950976923108
v 0.07400000095367432 -0.06862497329711914 0.004283964168280363
v 0.07400000095367432 -0.07585995644330978 0.00794994831085205
v 0.07400000095367432 -0.07229398936033249 -0.002763985889032483
v 0.07400000095367432 -0.0794069692492485 -0.0013939730124548078
v 0.07400000095367432 -0.07635598629713058 -0.007491946220397949
v 0.07400000095367432 -0.07229398936033249 -0.002763985889032483
v 0.07400000095367432 -0.07328397035598755 0.000375000003259629
v 0.07400000095367432 -0.0794069692492485 -0.0013939730124548078
v 0.07400000095367432 -0.06354296207427979 -0.008969961665570736
v 0.07400000095367432 -0.06825298070907593 -0.004234969150274992
v 0.07400000095367432 -0.06847000122070312 -0.010486960411071777
v 0.07400000095367432 -0.06825298070907593 -0.004234969150274992
v 0.07400000095367432 -0.07047098129987717 -0.0040409560315310955
v 0.07400000095367432 -0.06847000122070312 -0.010486960411071777
v 0.07400000095367432 -0.06547795981168747 -0.0024659628979861736
v 0.07400000095367432 -0.06354296207427979 -0.008969961665570736
v 0.07400000095367432 -0.060925960540771484 -0.006711958907544613
v 0.07400000095367432 -0.06653398275375366 0.003521977923810482
v 0.07400000095367432 -0.06510298699140549 0.0018169869435951114
v 0.07400000095367432 -0.060510989278554916 0.006179987918585539
v 0.07400000095367432 -0.06847000122070312 -0.010486960411071777
v 0.07400000095367432 -0.07047098129987717 -0.0040409560315310955
v 0.07400000095367432 -0.07635598629713058 -0.007491946220397949
v 0.07400000095367432 -0.07047098129987717 -0.0040409560315310955
v 0.07400000095367432 -0.07229398936033249 -0.002763985889032483
v 0.07400000095367432 -0.07635598629713058 -0.007491946220397949
v 0.07400000095367432 -0.06471598148345947 -0.000375000003259629
v 0.07400000095367432 -0.06547795981168747 -0.0024659628979861736
v 0.07400000095367432 -0.060925960540771484 -0.006711958907544613
v 0.07400000095367432 -0.060510989278554916 0.006179987918585539
v 0.07400000095367432 -0.06510298699140549 0.0018169869435951114
v 0.07400000095367432 -0.05896395072340965 0.00308799697086215
v 0.07400000095367432 -0.06510298699140549 0.0018169869435951114
v 0.07400000095367432 -0.06471598148345947 -0.000375000003259629
v 0.07400000095367432 -0.05896395072340965 0.00308799697086215
v 0.07400000095367432 -0.06471598148345947 -0.000375000003259629
v 0.07400000095367432 -0.060925960540771484 -0.006711958907544613
v 0.07400000095367432 -0.05896395072340965 0.00308799697086215
v 0.07400000095367432 -0.07585995644330978 0.00794994831085205
v 0.07400000095367432 -0.06862497329711914 0.004283964168280363
v 0.07400000095367432 -0.06953001022338867 0.010486960411071777
v 0.07400000095367432 -0.06862497329711914 0.004283964168280363
v 0.07400000095367432 -0.06653398275375366 0.003521977923810482
v 0.07400000095367432 -0.06953001022338867 0.010486960411071777
v 0.07400000095367432 -0.06653398275375366 0.003521977923810482
v 0.07400000095367432 -0.060510989278554916 0.006179987918585539
v 0.07400000095367432 -0.06953001022338867 0.010486960411071777
v 0.07400000095367432 -0.0794069692492485 -0.0013939730124548078
v 0.07400000095367432 -0.07585995644330978 0.00794994831085205
v 0.07370001077651978 -0.0790969729423523 0.0038329949602484703
v 0.07400000095367432 -0.06953001022338867 0.010486960411071777
v 0.07400000095367432 -0.060510989278554916 0.006179987918585539
v 0.07370001077651978 -0.06434594839811325 0.009745954535901546
v 0.07370001077651978 -0.07198596000671387 -0.010378950275480747
v 0.07400000095367432 -0.07635598629713058 -0.007491946220397949
v 0.07199995964765549 -0.07635598629713058 -0.007491946220397949
v 0.07400000095367432 -0.07635598629713058 -0.007491946220397949
v 0.07400000095367432 -0.0794069692492485 -0.0013939730124548078
v 0.07199995964765549 -0.07635598629713058 -0.007491946220397949
v 0.07400000095367432 -0.0794069692492485 -0.0013939730124548078
v 0.07199995964765549 -0.0794069692492485 -0.0013939730124548078
v 0.07199995964765549 -0.07635598629713058 -0.007491946220397949
v 0.07400000095367432 -0.0794069692492485 -0.0013939730124548078
v 0.07229994982481003 -0.0790969729423523 0.0038329949602484703
v 0.07199995964765549 -0.0794069692492485 -0.0013939730124548078
v 0.07400000095367432 -0.0794069692492485 -0.0013939730124548078
v 0.07370001077651978 -0.0790969729423523 0.0038329949602484703
v 0.07229994982481003 -0.0790969729423523 0.0038329949602484703
v 0.07370001077651978 -0.0790969729423523 0.0038329949602484703
v 0.07199995964765549 -0.07585995644330978 0.00794994831085205
v 0.07229994982481003 -0.0790969729423523 0.0038329949602484703
v 0.07370001077651978 -0.0790969729423523 0.0038329949602484703
v 0.07400000095367432 -0.07585995644330978 0.00794994831085205
v 0.07199995964765549 -0.07585995644330978 0.00794994831085205
v 0.07400000095367432 -0.07585995644330978 0.00794994831085205
v 0.07400000095367432 -0.06953001022338867 0.010486960411071777
v 0.07199995964765549 -0.07585995644330978 0.00794994831085205
v 0.07400000095367432 -0.06953001022338867 0.010486960411071777
v 0.07199995964765549 -0.06953001022338867 0.010486960411071777
v 0.07199995964765549 -0.07585995644330978 0.00794994831085205
v 0.07400000095367432 -0.06953001022338867 0.010486960411071777
v 0.07370001077651978 -0.06434594839811325 0.009745954535901546
v 0.07199995964765549 -0.06953001022338867 0.010486960411071777
v 0.07370001077651978 -0.06434594839811325 0.009745954535901546
v 0.07199995964765549 -0.06297694891691208 0.008600950241088867
v 0.07199995964765549 -0.06953001022338867 0.010486960411071777
v 0.07199995964765549 -0.07585995644330978 0.00794994831085205
v 0.07199995964765549 -0.0794069692492485 -0.0013939730124548078
v 0.07229994982481003 -0.0790969729423523 0.0038329949602484703
v 0.07199995964765549 -0.0650939866900444 -0.009745954535901546
v 0.07370001077651978 -0.06668698042631149 -0.010548939928412437
v 0.07199995964765549 -0.07190299034118652 -0.010090939700603485
v 0.07199995964765549 -0.058504991233348846 -0.0003380000125616789
v 0.07370001077651978 -0.058409981429576874 -0.002118944888934493
v 0.07199995964765549 -0.060925960540771484 -0.006711958907544613
v 0.07199995964765549 -0.06344199180603027 -0.002260982058942318
v 0.07199995964765549 -0.06301199644804001 0.00037399999564513564
v 0.07199995964765549 -0.058504991233348846 -0.0003380000125616789
v 0.07199995964765549 -0.06301199644804001 0.00037399999564513564
v 0.07199995964765549 -0.060510989278554916 0.006179987918585539
v 0.07199995964765549 -0.058504991233348846 -0.0003380000125616789
v 0.07199995964765549 -0.06301199644804001 0.00037399999564513564
v 0.07199995964765549 -0.0645509883761406 0.004025994800031185
v 0.07199995964765549 -0.060510989278554916 0.006179987918585539
v 0.07199995964765549 -0.07475495338439941 -0.0016969440039247274
v 0.07199995964765549 -0.07244198769330978 -0.004914999008178711
v 0.07199995964765549 -0.07635598629713058 -0.007491946220397949
v 0.07199995964765549 -0.07492095232009888 0.0009679999784566462
v 0.07199995964765549 -0.07475495338439941 -0.0016969440039247274
v 0.07199995964765549 -0.0794069692492485 -0.0013939730124548078
v 0.07199995964765549 -0.07475495338439941 -0.0016969440039247274
v 0.07199995964765549 -0.07635598629713058 -0.007491946220397949
v 0.07199995964765549 -0.0794069692492485 -0.0013939730124548078
v 0.07199995964765549 -0.07492095232009888 0.0009679999784566462
v 0.07199995964765549 -0.0794069692492485 -0.0013939730124548078
v 0.07199995964765549 -0.07585995644330978 0.00794994831085205
v 0.07199995964765549 -0.0645509883761406 0.004025994800031185
v 0.07199995964765549 -0.06297694891691208 0.008600950241088867
v 0.07199995964765549 -0.060510989278554916 0.006179987918585539
v 0.07199995964765549 -0.0645509883761406 0.004025994800031185
v 0.07199995964765549 -0.06673896312713623 0.005557000171393156
v 0.07199995964765549 -0.06297694891691208 0.008600950241088867
v 0.07199995964765549 -0.06606494635343552 -0.005232988856732845
v 0.07199995964765549 -0.060925960540771484 -0.006711958907544613
v 0.07199995964765549 -0.0650939866900444 -0.009745954535901546
v 0.07199995964765549 -0.06606494635343552 -0.005232988856732845
v 0.07199995964765549 -0.06344199180603027 -0.002260982058942318
v 0.07199995964765549 -0.060925960540771484 -0.006711958907544613
v 0.07199995964765549 -0.06344199180603027 -0.002260982058942318
v 0.07199995964765549 -0.058504991233348846 -0.0003380000125616789
v 0.07199995964765549 -0.060925960540771484 -0.006711958907544613
v 0.07199995964765549 -0.07635598629713058 -0.007491946220397949
v 0.07199995964765549 -0.07244198769330978 -0.004914999008178711
v 0.07199995964765549 -0.07190299034118652 -0.010090939700603485
v 0.07199995964765549 -0.07244198769330978 -0.004914999008178711
v 0.07199995964765549 -0.06606494635343552 -0.005232988856732845
v 0.07199995964765549 -0.07190299034118652 -0.010090939700603485
v 0.07199995964765549 -0.06606494635343552 -0.005232988856732845
v 0.07199995964765549 -0.0650939866900444 -0.009745954535901546
v 0.07199995964765549 -0.07190299034118652 -0.010090939700603485
v 0.07199995964765549 -0.07193499058485031 0.005232988856732845
v 0.07199995964765549 -0.07492095232009888 0.0009679999784566462
v 0.07199995964765549 -0.07585995644330978 0.00794994831085205
v 0.07199995964765549 -0.06673896312713623 0.005557000171393156
v 0.07199995964765549 -0.06953001022338867 0.010486960411071777
v 0.07199995964765549 -0.06297694891691208 0.008600950241088867
v 0.07199995964765549 -0.06673896312713623 0.005557000171393156
v 0.07199995964765549 -0.07193499058485031 0.005232988856732845
v 0.07199995964765549 -0.06953001022338867 0.010486960411071777
v 0.07199995964765549 -0.07193499058485031 0.005232988856732845
v 0.07199995964765549 -0.07585995644330978 0.00794994831085205
v 0.07199995964765549 -0.06953001022338867 0.010486960411071777
v 0.07199995964765549 -0.06606494635343552 -0.005232988856732845
v 0.0712999701499939 -0.06996797770261765 -0.005920946132391691
v 0.07099997252225876 -0.06618695706129074 -0.00413399888202548
v 0.07199995964765549 -0.06606494635343552 -0.005232988856732845
v 0.07199995964765549 -0.07244198769330978 -0.004914999008178711
v 0.0712999701499939 -0.06996797770261765 -0.005920946132391691
vt 0 0
vt 0 0
vt 0 0
vt 0 0
vt 0 0
vt 0 0
vt 0 0
vt 0 0
vt 0 0
vt 0 0
vt 0 0
vt 0 0
vt 0 0
vt 0 0
vt 0 0
vt 0 0
vt 0 0
vt 0 0
vt 0 0
vt 0 0
vt 0 0
vt 0 0
vt 0 0
vt 0 0
vt 0 0
vt 0 0
vt 0 0
vt 0 0
vt 0 0
vt 0 0
vt 0 0
vt 0 0
vt 0 0
vt 0 0
vt 0 0
vt 0 0
vt 0 0
vt 0 0
vt 0 0
vt 0 0
vt 0 0
vt 0 0
vt 0 0
vt 0 0
vt 0 0
vt 0 0
vt 0 0
vt 0 0
vt 0 0
vt 0 0
vt 0 0
vt 0 0
vt 0 0
vt 0 0
vt 0 0
vt 0 0
vt 0 0
vt 0 0
vt 0 0
vt 0 0
vt 0 0
vt 0 0
vt 0 0
vt 0 0
vt 0 0
vt 0 0
vt 0 0
vt 0 0
vt 0 0
vt 0 0
vt 0 0
vt 0 0
vt 0 0
vt 0 0
vt 0 0
vt 0 0
vt 0 0
vt 0 0
vt 0 0
vt 0 0
vt 0 0
vt 0 0
vt 0 0
vt 0 0
vt 0 0
vt 0 0
vt 0 0
vt 0 0
vt 0 0
vt 0 0
vt 0 0
vt 0 0
vt 0 0
vt 0 0
vt 0 0
vt 0 0
vt 0 0
vt 0 0
vt 0 0
vt 0 0
vt 0 0
vt 0 0
vt 0 0
vt 0 0
vt 0 0
vt 0 0
vt 0 0
vt 0 0
vt 0 0
vt 0 0
vt 0 0
vt 0 0
vt 0 0
vt 0 0
vt 0 0
vt 0 0
vt 0 0
vt 0 0
vt 0 0
vt 0 0
vt 0 0
vt 0 0
vt 0 0
vt 0 0
vt 0 0
vt 0 0
vt 0 0
vt 0 0
vt 0 0
vt 0 0
vt 0 0
vt 0 0
vt 0 0
vt 0 0
vt 0 0
vt 0 0
vt 0 0
vt 0 0
vt 0 0
vt 0 0
vt 0 0
vt 0 0
vt 0 0
vt 0 0
vt 0 0
vt 0 0
vt 0 0
vt 0 0
vt 0 0
vt 0 0
vt 0 0
vt 0 0
vt 0 0
vt 0 0
vt 0 0
vt 0 0
vt 0 0
vt 0 0
vt 0 0
vt 0 0
vt 0 0
vt 0 0
vt 0 0
vt 0 0
vt 0 0
vt 0 0
vt 0 0
vt 0 0
vt 0 0
vt 0 0
vt 0 0
vt 0 0
vt 0 0
vt 0 0
vt 0 0
vt 0 0
vt 0 0
vt 0 0
vt 0 0
vt 0 0
vt 0 0
vt 0 0
vt 0 0
vt 0 0
vt 0 0
vt 0 0
vt 0 0
vt 0 0
vt 0 0
vt 0 0
vt 0 0
vt 0 0
vt 0 0
vt 0 0
vt 0 0
vt 0 0
vt 0 0
vt 0 0
vt 0 0
vt 0 0
vt 0 0
vt 0 0
vt 0 0
vt 0 0
vt 0 0
vt 0 0
vt 0 0
vt 0 0
vt 0 0
vt 0 0
vt 0 0
vt 0 0
vt 0 0
vt 0 0
vt 0 0
vt 0 0
vt 0 0
vt 0 0
vt 0 0
vt 0 0
vt 0 0
vt 0 0
vt 0 0
vt 0 0
vt 0 0
vt 0 0
vt 0 0
vt 0 0
vt 0 0
vt 0 0
vt 0 0
vt 0 0
vt 0 0
vt 0 0
vt 0 0
vt 0 0
vt 0 0
vt 0 0
vt 0 0
vt 0 0
vt 0 0
vt 0 0
vt 0 0
vt 0 0
vt 0 0
vt 0 0
vt 0 0
vt 0 0
vt 0 0
vt 0 0
vt 0 0
vt 0 0
vt 0 0
vt 0 0
vt 0 0
vt 0 0
vt 0 0
vt 0 0
vt 0 0
vt 0 0
vt 0 0
vt 0 0
vt 0 0
vt 0 0
vt 0 0
vt 0 0
vt 0 0
vt 0 0
vt 0 0
vt 0 0
vt 0 0
vt 0 0
vt 0 0
vt 0 0
vt 0 0
vt 0 0
vt 0 0
vt 0 0
vt 0 0
vt 0 0
vt 0 0
vt 0 0
vt 0 0
vt 0 0
vt 0 0
vt 0 0
vt 0 0
vt 0 0
vt 0 0
vt 0 0
vt 0 0
vt 0 0
vt 0 0
vt 0 0
vt 0 0
vt 0 0
vt 0 0
vt 0 0
vt 0 0
vt 0 0
vt 0 0
vt 0 0
vt 0 0
vt 0 0
vt 0 0
vt 0 0
vt 0 0
vt 0 0
vt 0 0
vt 0 0
vt 0 0
vt 0 0
vt 0 0
vt 0 0
vt 0 0
vt 0 0
vt 0 0
vt 0 0
vt 0 0
vt 0 0
vt 0 0
vt 0 0
vt 0 0
vt 0 0
vt 0 0
vt 0 0
vt 0 0
vt 0 0
vt 0 0
vt 0 0
vt 0 0
vt 0 0
vt 0 0
vt 0 0
vt 0 0
vt 0 0
vt 0 0
vt 0 0
vt 0 0
vt 0 0
vt 0 0
vt 0 0
vt 0 0
vt 0 0
vt 0 0
vt 0 0
vt 0 0
vt 0 0
vt 0 0
vt 0 0
vt 0 0
vt 0 0
vt 0 0
vt 0 0
vt 0 0
vt 0 0
vt 0 0
vt 0 0
vt 0 0
vt 0 0
vt 0 0
vt 0 0
vt 0 0
vt 0 0
vt 0 0
vt 0 0
vt 0 0
vt 0 0
vt 0 0
vt 0 0
vt 0 0
vt 0 0
vt 0 0
vt 0 0
vt 0 0
vt 0 0
vt 0 0
vt 0 0
vt 0 0
vt 0 0
vt 0 0
vt 0 0
vt 0 0
vt 0 0
vt 0 0
vt 0 0
vt 0 0
vt 0 0
vt 0 0
vt 0 0
vt 0 0
vt 0 0
vt 0 0
vt 0 0
vt 0 0
vt 0 0
vt 0 0
vt 0 0
vt 0 0
vt 0 0
vt 0 0
vt 0 0
vt 0 0
vt 0 0
vt 0 0
vt 0 0
vt 0 0
vt 0 0
vt 0 0
vt 0 0
vt 0 0
vt 0 0
vt 0 0
vt 0 0
vt 0 0
vt 0 0
vt 0 0
vt 0 0
vt 0 0
vt 0 0
vt 0 0
vt 0 0
vt 0 0
vt 0 0
vt 0 0
vt 0 0
vt 0 0
vt 0 0
vt 0 0
vt 0 0
vt 0 0
vt 0 0
vt 0 0
vt 0 0
vt 0 0
vt 0 0
vt 0 0
vt 0 0
vt 0 0
vt 0 0
vt 0 0
vt 0 0
vt 0 0
vt 0 0
vt 0 0
vt 0 0
vt 0 0
vt 0 0
vt 0 0
vt 0 0
vt 0 0
vt 0 0
vt 0 0
vt 0 0
vt 0 0
vt 0 0
vt 0 0
vt 0 0
vt 0 0
vt 0 0
vt 0 0
vt 0 0
vt 0 0
vt 0 0
vt 0 0
vt 0 0
vt 0 0
vt 0 0
vt 0 0
vt 0 0
vt 0 0
vt 0 0
vt 0 0
vt 0 0
vt 0 0
vt 0 0
vt 0 0
vt 0 0
vt 0 0
vt 0 0
vt 0 0
vt 0 0
vt 0 0
vt 0 0
vt 0 0
vt 0 0
vt 0 0
vt 0 0
vt 0 0
vt 0 0
vt 0 0
vt 0 0
vt 0 0
vt 0 0
vt 0 0
vt 0 0
vt 0 0
vt 0 0
vt 0 0
vt 0 0
vt 0 0
vt 0 0
vt 0 0
vt 0 0
vt 0 0
vt 0 0
vt 0 0
vt 0 0
vt 0 0
vt 0 0
vt 0 0
vt 0 0
vt 0 0
vt 0 0
vt 0 0
vt 0 0
vt 0 0
vt 0 0
vt 0 0
vt 0 0
vt 0 0
vt 0 0
vt 0 0
vt 0 0
vt 0 0
vt 0 0
vt 0 0
vt 0 0
vt 0 0
vt 0 0
vt 0 0
vt 0 0
vt 0 0
vt 0 0
vt 0 0
vt 0 0
vt 0 0
vt 0 0
vt 0 0
vt 0 0
vt 0 0
vt 0 0
vt 0 0
vt 0 0
vt 0 0
vt 0 0
vt 0 0
vt 0 0
vt 0 0
vt 0 0
vt 0 0
vt 0 0
vt 0 0
vt 0 0
vt 0 0
vt 0 0
vt 0 0
vt 0 0
vt 0 0
vt 0 0
vt 0 0
vt 0 0
vt 0 0
vt 0 0
vt 0 0
vt 0 0
vt 0 0
vt 0 0
vt 0 0
vt 0 0
vn 0 0.7529379195357446 0.6580915508690142
vn 0 0.7529379195357446 0.6580915508690142
vn 0 0.7529379195357446 0.6580915508690142
vn 0 0.7529392811424795 0.6580899930196829
vn 0 0.7529392811424795 0.6580899930196829
vn 0 0.7529392811424795 0.6580899930196829
vn 0 0.972549998574489 0.23269400566572732
vn 0 0.972549998574489 0.23269400566572732
vn 0 0.972549998574489 0.23269400566572732
vn -0.028238290160629963 0.9930925697951433 0.11388479611643916
vn -0.028238290160629963 0.9930925697951433 0.11388479611643916
vn -0.028238290160629963 0.9930925697951433 0.11388479611643916
vn 0.014253669383470047 0.9692272520159039 -0.24575468837604397
vn 0.014253669383470047 0.9692272520159039 -0.24575468837604397
vn 0.014253669383470047 0.9692272520159039 -0.24575468837604397
vn -0.014251347381518105 0.8821586811951511 -0.47073661456258464
vn -0.014251347381518105 0.8821586811951511 -0.47073661456258464
vn -0.014251347381518105 0.8821586811951511 -0.47073661456258464
vn 0.014227029409834027 0.7440289506679985 -0.6679958923541736
vn 0.014227029409834027 0.7440289506679985 -0.6679958923541736
vn 0.014227029409834027 0.7440289506679985 -0.6679958923541736
vn -0.0142474081411608 0.5625272394977833 -0.8266559841822128
vn -0.0142474081411608 0.5625272394977833 -0.8266559841822128
vn -0.0142474081411608 0.5625272394977833 -0.8266559841822128
vn 0.014284369485312238 0.34797358390023947 -0.9373955097481692
vn 0.014284369485312238 0.34797358390023947 -0.9373955097481692
vn 0.014284369485312238 0.34797358390023947 -0.9373955097481692
vn -0.014202948901332047 0.11362879171600151 -0.9934217502831653
vn -0.014202948901332047 0.11362879171600151 -0.9934217502831653
vn -0.014202948901332047 0.11362879171600151 -0.9934217502831653
vn 0.014232209562593775 -0.12705649148918352 -0.9917933717168237
vn 0.014232209562593775 -0.12705649148918352 -0.9917933717168237
vn 0.014232209562593775 -0.12705649148918352 -0.9917933717168237
vn -0.014246217618028396 -0.36090602740067 -0.932493369772379
vn -0.0142560604594678 -0.3610397960408312 -0.932441435380781
vn -0.01425611074066697 -0.36103979578198053 -0.9324414347122587
vn -0.6334791848631034 0.5801305238120116 -0.5120084937642922
vn -0.6334791848631034 0.5801305238120116 -0.5120084937642922
vn -0.6334791848631034 0.5801305238120116 -0.5120084937642922
vn -0.6205173652538012 0.5835242197779841 -0.5238870912238395
vn -0.6205173652538012 0.5835242197779841 -0.5238870912238395
vn -0.6205173652538012 0.5835242197779841 -0.5238870912238395
vn -0.7447528375290118 0.6585769174199219 -0.10779450280120388
vn -0.7447528375290118 0.6585769174199219 -0.10779450280120388
vn -0.7447528375290118 0.6585769174199219 -0.10779450280120388
vn -0.6512701646167878 0.7355566773055214 -0.18655708818290243
vn -0.6512701646167878 0.7355566773055214 -0.18655708818290243
vn -0.6512701646167878 0.7355566773055214 -0.18655708818290243
vn -0.7260384595726147 0.6687790188658929 0.16000868459617604
vn -0.7260384595726147 0.6687790188658929 0.16000868459617604
vn -0.7260384595726147 0.6687790188658929 0.16000868459617604
vn -0.5615093775495503 0.7624707313584617 0.32147410898174844
vn -0.5615093520307481 0.7624707563112525 0.3214740943717801
vn -0.5615093735492981 0.7624707855311845 0.3214739874822427
vn -0.7529978092664178 0.495453740953478 0.43303566806347416
vn -0.7529978092664178 0.495453740953478 0.43303566806347416
vn -0.7529978092664178 0.495453740953478 0.43303566806347416
vn -0.6472321413590658 0.43702949855109313 0.6245764745713196
vn -0.6472321413590658 0.43702949855109313 0.6245764745713196
vn -0.6472321413590658 0.43702949855109313 0.6245764745713196
vn -0.7530303961361138 0.2374568806403858 0.6136444021838912
vn -0.7530303961361138 0.2374568806403858 0.6136444021838912
vn -0.7530303703305665 0.23745689129842634 0.6136444297267735
vn -0.3789287889953139 -0.10516839708673084 0.9194305743908848
vn -0.3789287889953139 -0.10516839708673084 0.9194305743908848
vn -0.3789287889953139 -0.10516839708673084 0.9194305743908848
vn -0.5264412821834848 -0.052910861241988315 0.8485635021467984
vn -0.5264412821834848 -0.052910861241988315 0.8485635021467984
vn -0.5264412821834848 -0.052910861241988315 0.8485635021467984
vn -0.7466961209232866 -0.37421447358550497 0.5499167489331814
vn -0.7466961209232866 -0.37421447358550497 0.5499167489331814
vn -0.7466961209232866 -0.37421447358550497 0.5499167489331814
vn -0.40431264533976663 -0.7492418976242133 0.5245644513907018
vn -0.40431264533976663 -0.7492418976242133 0.5245644513907018
vn -0.40431264533976663 -0.7492418976242133 0.5245644513907018
vn -0.6362227405861413 -0.6806602696703433 0.36321098779270866
vn -0.6362227405861413 -0.6806602696703433 0.36321098779270866
vn -0.6362227405861413 -0.6806602696703433 0.36321098779270866
vn -0.736614988091358 -0.6749980916847811 -0.04214185023314032
vn -0.7366149862410902 -0.674998089989286 -0.04214190973192972
vn -0.736614988091358 -0.6749980916847811 -0.04214185023314032
vn -0.777282663857586 -0.6250549624130687 -0.07167952587212285
vn -0.777282663857586 -0.6250549624130687 -0.07167952587212285
vn -0.777282663857586 -0.6250549624130687 -0.07167952587212285
vn -0.582656464113853 -0.6599321603149162 -0.47434269110889676
vn -0.582656464113853 -0.6599321603149162 -0.47434269110889676
vn -0.582656464113853 -0.6599321603149162 -0.47434269110889676
vn -0.7882421435239833 -0.41117986110792654 -0.45782687229124336
vn -0.7882421435239833 -0.41117986110792654 -0.45782687229124336
vn -0.7882421435239833 -0.41117986110792654 -0.45782687229124336
vn -0.787487263576637 -0.40995156511396275 -0.4602211685322531
vn -0.787487263576637 -0.40995156511396275 -0.4602211685322531
vn -0.787487263576637 -0.40995156511396275 -0.4602211685322531
vn -0.9671611783560145 -0.03230065106567914 -0.25210300081859166
vn -0.9671611783560145 -0.03230065106567914 -0.25210300081859166
vn -0.9671611783560145 -0.03230065106567914 -0.25210300081859166
vn -0.767004729093869 0.22348789893367596 -0.6014623052011256
vn -0.7670047997640261 0.22348827468695232 -0.601462075459788
vn -0.7670047112137544 0.22348799803193942 -0.6014622911800713
vn 0.028305760329590285 -0.6677469174626527 -0.7438500105204605
vn 0.028305760329590285 -0.6677469174626527 -0.7438500105204605
vn 0.028305760329590285 -0.6677469174626527 -0.7438500105204605
vn 0 -0.7529369748973334 -0.6580926316503265
vn 0 -0.7529369748973334 -0.6580926316503265
vn 0 -0.7529369748973334 -0.6580926316503265
vn 0 -0.9725510278602163 -0.23268970370009243
vn 0 -0.9725510278602163 -0.23268970370009243
vn 0 -0.9725510278602163 -0.23268970370009243
vn 0.028238288908693465 -0.9930929489005929 -0.11388149052165467
vn 0.028238288908693465 -0.9930929489005929 -0.11388149052165467
vn 0.028238288908693465 -0.9930929489005929 -0.11388149052165467
vn -0.014253670041898779 -0.9692271738549068 0.24575499659532254
vn -0.014253670041898779 -0.9692271738549068 0.24575499659532254
vn -0.014253670041898779 -0.9692271738549068 0.24575499659532254
vn 0.014251699250776293 -0.8821587898402931 0.47073640030910635
vn 0.014251699250776293 -0.8821587898402931 0.47073640030910635
vn 0.014251699250776293 -0.8821587898402931 0.47073640030910635
vn -0.028264987200011624 -0.6578840973451678 0.7525886027298827
vn -0.028264987200011624 -0.6578840973451678 0.7525886027298827
vn -0.028264987200011624 -0.6578840973451678 0.7525886027298827
vn 0 -0.5625851840709579 0.8267393244934261
vn 0 -0.5625851840709579 0.8267393244934261
vn 0 -0.5625851840709579 0.8267393244934261
vn 0 -0.11397429291554956 0.993483699189071
vn 0 -0.11397430026934588 0.9934836983454297
vn 0 -0.11397429291554956 0.993483699189071
vn 0 -0.11397399140988367 0.9934837337783141
vn 0 -0.11397399140988367 0.9934837337783141
vn 0 -0.11397397670228937 0.9934837354655918
vn 0 0.3606308705804756 0.9327086228744582
vn 0 0.3606308705804756 0.9327086228744582
vn 0 0.3606308705804756 0.9327086228744582
vn 0 0.36107728220918145 0.9325358954337527
vn 2.986919610548876e-7 0.36107728220916535 0.9325358954337111
vn 0 0.36107728220918145 0.9325358954337527
vn -0.999999999996267 -0.000002732399934747068 0
vn -0.999999999996267 -0.000002732399934747068 0
vn -0.999999999996267 -0.000002732399934747068 0
vn -1 0 0
vn -1 0 0
vn -1 0 0
vn -1 0 0
vn -1 0 0
vn -1 0 0
vn -1 0 0
vn -1 0 0
vn -1 0 0
vn -0.9999999999850673 -0.000005464939931617003 0
vn -0.9999999999850673 -0.000005464939931617003 0
vn -0.9999999999850673 -0.000005464939931617003 0
vn -0.9999999999817981 0.00000603356011186338 0
vn -0.9999999999817981 0.00000603356011186338 0
vn -0.9999999999817981 0.00000603356011186338 0
vn -0.9953298833500792 0.07909113379112719 0.055344519746330124
vn -0.9953298833500792 0.07909113379112719 0.055344519746330124
vn -0.9953298833500792 0.07909113379112719 0.055344519746330124
vn -0.9947705333907533 0.09255348951540199 -0.043190710528985383
vn -0.9947705333907533 0.09255348951540199 -0.043190710528985383
vn -0.9947705333907533 0.09255348951540199 -0.043190710528985383
vn -0.9890884383905152 0.1461252007037895 -0.018747980197592114
vn -0.9890884383905152 0.1461252007037895 -0.018747980197592114
vn -0.9890884383905152 0.1461252007037895 -0.018747980197592114
vn -0.9927878586345416 0.04174387541823825 -0.11238201196324972
vn -0.9927878586345416 0.04174387541823825 -0.11238201196324972
vn -0.9927878586345416 0.04174387541823825 -0.11238201196324972
vn -0.9905826838910132 0.03548215628197929 -0.13223828099630633
vn -0.9905826838910132 0.03548215628197929 -0.13223828099630633
vn -0.9905826838910132 0.03548215628197929 -0.13223828099630633
vn -0.9949577640746597 -0.0908870118330565 -0.04240989020985269
vn -0.9949577640746597 -0.0908870118330565 -0.04240989020985269
vn -0.9949577640746597 -0.0908870118330565 -0.04240989020985269
vn -0.9916744463217594 -0.07384715401321605 -0.10549118615590618
vn -0.9916744463217594 -0.07384715401321605 -0.10549118615590618
vn -0.9916744463217594 -0.07384715401321605 -0.10549118615590618
vn -0.9949534497733105 0.00873064805241549 0.09995703361331627
vn -0.9949534497733105 0.00873064805241549 0.09995703361331627
vn -0.9949534497733105 0.00873064805241549 0.09995703361331627
vn -0.9916667266290602 0.07388305607517474 0.10553860583595663
vn -0.9916667266290602 0.07388305607517474 0.10553860583595663
vn -0.9916667266290602 0.07388305607517474 0.10553860583595663
vn -0.9940705091548326 -0.04598205440469805 -0.09853666069730269
vn -0.9940705091548326 -0.04598205440469805 -0.09853666069730269
vn -0.9940705091548326 -0.04598205440469805 -0.09853666069730269
vn -0.9890879369319172 -0.06758242829611617 0.13091091780811934
vn -0.9890879369319172 -0.06758242829611617 0.13091091780811934
vn -0.9890879369319172 -0.06758242829611617 0.13091091780811934
vn -0.9925155158766227 -0.07005590281711938 0.10002560284567105
vn -0.9925155158766227 -0.07005590281711938 0.10002560284567105
vn -0.9925155158766227 -0.07005590281711938 0.10002560284567105
vn -0.9945075218018474 -0.10108989178399427 0.027122368234511765
vn -0.9945075218018474 -0.10108989178399427 0.027122368234511765
vn -0.9945075218018474 -0.10108989178399427 0.027122368234511765
vn -0.991505406294394 -0.13006258297475287 0.0008682159432612384
vn -0.991505406294394 -0.13006258297475287 0.0008682159432612384
vn -0.991505406294394 -0.13006258297475287 0.0008682159432612384
vn -0.03893708842509586 -0.3253419724272687 0.9447944242649352
vn -0.03893708842509586 -0.3253419724272687 0.9447944242649352
vn -0.03893708842509586 -0.3253419724272687 0.9447944242649352
vn -0.023452039775669672 -0.2587567862277542 0.9656577693010318
vn -0.023452039775669672 -0.2587567862277542 0.9656577693010318
vn -0.023452039775669672 -0.2587567862277542 0.9656577693010318
vn 0.01293396020541635 0.4225113994770103 0.9062653198624468
vn 0.012933960763645514 0.4225113276845912 0.9062653533249347
vn 0.012933959437111668 0.42251137499996466 0.9062653312848938
vn -0.027779447821225094 0.6944332479814379 0.7190206995467509
vn -0.027779447821225094 0.6944332479814379 0.7190206995467509
vn -0.027779447821225094 0.6944332479814379 0.7190206995467509
vn 0.014009348690316233 0.9063117272633194 0.4223775457742178
vn 0.014009348690316233 0.9063117272633194 0.4223775457742178
vn 0.014009348690316233 0.9063117272633194 0.4223775457742178
vn -0.02829652780372293 0.9655735294665546 -0.25858666962500915
vn -0.02829652780372293 0.9655735294665546 -0.25858666962500915
vn -0.02829652780372293 0.9655735294665546 -0.25858666962500915
vn 0 0.9902446845080619 -0.13933938712197966
vn 0 0.9902446845080619 -0.13933938712197966
vn 0 0.9902446845080619 -0.13933938712197966
vn 0.03036706857388371 -0.9057776220800249 0.42266386228927183
vn 0.03036706857388371 -0.9057776220800249 0.42266386228927183
vn 0.03036706857388371 -0.9057776220800249 0.42266386228927183
vn 0 0.5736873162695193 -0.8190743941495647
vn 0 0.5736873162695193 -0.8190743941495647
vn 0 0.5736873162695193 -0.8190743941495647
vn -0.021337329768732316 0.4694973104368034 -0.8826760412806889
vn -0.021337329768732316 0.4694973104368034 -0.8826760412806889
vn -0.021337329768732316 0.4694973104368034 -0.8826760412806889
vn 0.014034088733274126 -0.08703236301880539 -0.996106626893321
vn 0.014034088733274126 -0.08703236301880539 -0.996106626893321
vn 0.014034088733274126 -0.08703236301880539 -0.996106626893321
vn 0.024551445254451708 0.005599019966005835 -0.9996828884758096
vn 0.024551445254451708 0.005599019966005835 -0.9996828884758096
vn 0.024551445254451708 0.005599019966005835 -0.9996828884758096
vn 0.07284466788744376 -0.9337629504687812 -0.35040035201495495
vn 0.07284466788744376 -0.9337629504687812 -0.35040035201495495
vn 0.07284466788744376 -0.9337629504687812 -0.35040035201495495
vn 0.02437536745549029 -0.8190779533357555 -0.5731641543403774
vn 0.02437536745549029 -0.8190779533357555 -0.5731641543403774
vn 0.02437536745549029 -0.8190779533357555 -0.5731641543403774
vn -0.021354667824103557 -0.9900178900824886 0.13931459176532712
vn -0.021354667824103557 -0.9900178900824886 0.13931459176532712
vn -0.021354667824103557 -0.9900178900824886 0.13931459176532712
vn -0.8187326044533034 -0.5685739414208224 0.08000372205279994
vn -0.8187326044533034 -0.5685739414208224 0.08000372205279994
vn -0.8187326044533034 -0.5685739414208224 0.08000372205279994
vn 0.12137570142479435 -0.025543739830482692 -0.9922779129150823
vn 0.12137570123999655 -0.0255437993962359 -0.9922779114043122
vn 0.12137569390495336 -0.025543797557905867 -0.9922779123488599
vn 0.9569580958137812 0.1362929763742818 -0.2562331505631174
vn 0.9569580958137812 0.1362929763742818 -0.2562331505631174
vn 0.9569580958137812 0.1362929763742818 -0.2562331505631174
vn 0.9569748852095705 0.287340110946471 -0.040431790949684694
vn 0.9569748852095705 0.287340110946471 -0.040431790949684694
vn 0.9569748852095705 0.287340110946471 -0.040431790949684694
vn 0.922274884048435 0.26852807300316267 0.2780318547624602
vn 0.922274884048435 0.26852807300316267 0.2780318547624602
vn 0.922274884048435 0.26852807300316267 0.2780318547624602
vn 0.9675647696263947 -0.08225594528870789 0.2388563920904834
vn 0.9675647696263947 -0.08225594528870789 0.2388563920904834
vn 0.9675647696263947 -0.08225594528870789 0.2388563920904834
vn 0.06285393264199815 0.6415832069368592 -0.7644739182784789
vn 0.06285393264199815 0.6415832069368592 -0.7644739182784789
vn 0.06285387040881603 0.6415831801059707 -0.7644739459129665
vn 0.06290559471124187 0.1735189855228549 -0.9828194380541853
vn 0.06290559471124187 0.1735189855228549 -0.9828194380541853
vn 0.06290559471124187 0.1735189855228549 -0.9828194380541853
vn 0.12254019335051233 0.043447610889493296 -0.991512080673561
vn 0.12254019335051233 0.043447610889493296 -0.991512080673561
vn 0.12254019335051233 0.043447610889493296 -0.991512080673561
vn 0.0333014084252054 -0.3422029819090385 -0.9390357476525908
vn 0.0333014084252054 -0.3422029819090385 -0.9390357476525908
vn 0.0333014084252054 -0.3422029819090385 -0.9390357476525908
vn 0.1480608880120874 -0.7575264571055853 -0.635792136020989
vn 0.1480608880120874 -0.7575264571055853 -0.635792136020989
vn 0.1480608880120874 -0.7575264571055853 -0.635792136020989
vn -0.030428230993659454 -0.5730679078725467 -0.8189427914849601
vn -0.030428284960356218 -0.5730679069306326 -0.8189427901389176
vn -0.030428230993659454 -0.5730679078725467 -0.8189427914849601
vn 0.14817580589177443 -0.9738997226557453 -0.17193970094014205
vn 0.14817580589177443 -0.9738997226557453 -0.17193970094014205
vn 0.14817580589177443 -0.9738997226557453 -0.17193970094014205
vn -0.030337750651885823 -0.9058526676797772 -0.4225051068837098
vn -0.030337750651885823 -0.9058526676797772 -0.4225051068837098
vn -0.030337750651885823 -0.9058526676797772 -0.4225051068837098
vn 0.14819939095941842 -0.929321565853805 0.33822827758525703
vn 0.14819937937322827 -0.9293215866411649 0.3382282255462098
vn 0.14819939095941842 -0.929321565853805 0.33822827758525703
vn -0.030355385645290164 -0.9957331755669512 0.08714352321131441
vn -0.030355389327730024 -0.995733174161352 0.08714353798946145
vn -0.030355389327730024 -0.995733174161352 0.08714353798946145
vn 0.9807429096120186 0.06680171788576911 0.18352350185538063
vn 0.9807429096120186 0.06680171788576911 0.18352350185538063
vn 0.9807429096120186 0.06680171788576911 0.18352350185538063
vn 0.999999999999889 4.715410000243923e-7 0
vn 0.999999999999889 4.715410000243923e-7 0
vn 0.999999999999889 4.715410000243923e-7 0
vn 0.9999999999981664 -0.0000019149899799196093 0
vn 0.9999999999981664 -0.0000019149899799196093 0
vn 0.9999999999981664 -0.0000019149899799196093 0
vn 1 0 0
vn 1 0 0
vn 1 0 0
vn 1 0 0
vn 1 0 0
vn 1 0 0
vn 0.9842102715996927 -0.09219849286118204 -0.15109460345024198
vn 0.9842102715996927 -0.09219849286118204 -0.15109460345024198
vn 0.9842102715996927 -0.09219849286118204 -0.15109460345024198
vn 0.9702045349353727 -0.24137041042093219 0.02105909219477308
vn 0.9702045349353727 -0.24137041042093219 0.02105909219477308
vn 0.9702045349353727 -0.24137041042093219 0.02105909219477308
vn 0.9216199332136672 -0.20851140795561932 0.3273219996511096
vn 0.9216199332136672 -0.20851140795561932 0.3273219996511096
vn 0.9216199332136672 -0.20851140795561932 0.3273219996511096
vn 1 0 0
vn 1 0 0
vn 1 0 0
vn 0.9655752562545479 0.1993067965131441 0.1671562902574482
vn 0.9655752562545479 0.1993067965131441 0.1671562902574482
vn 0.9655752562545479 0.1993067965131441 0.1671562902574482
vn 0.9611024114456483 0.2719853777081359 0.048021963999013886
vn 0.9611024114456483 0.2719853777081359 0.048021963999013886
vn 0.9611024114456483 0.2719853777081359 0.048021963999013886
vn 0.9749812759553338 0.20887958104131865 -0.07603178388353536
vn 0.9749812759553338 0.20887958104131865 -0.07603178388353536
vn 0.9749812759553338 0.20887958104131865 -0.07603178388353536
vn 0.0943237397777763 -0.815400663222094 0.5711609147440883
vn 0.0943237397777763 -0.815400663222094 0.5711609147440883
vn 0.0943237397777763 -0.815400663222094 0.5711609147440883
vn 0.0015104998732963421 -0.5375416325587228 0.843235857667495
vn 0.0015104998732963421 -0.5375416325587228 0.843235857667495
vn 0.0015104998732963421 -0.5375416325587228 0.843235857667495
vn 0.1225690022907578 -0.298535585597476 0.9464952951860989
vn 0.1225690022907578 -0.298535585597476 0.9464952951860989
vn 0.1225690022907578 -0.298535585597476 0.9464952951860989
vn 0.03336172933321187 0.08708471085577348 0.9956421285537609
vn 0.03336172933321187 0.08708471085577348 0.9956421285537609
vn 0.03336172933321187 0.08708471085577348 0.9956421285537609
vn 0.14814178956528795 0.5670266270435005 0.8102683595007674
vn 0.14814178956528795 0.5670266270435005 0.8102683595007674
vn 0.14814179698480814 0.5670265984068178 0.8102683781842318
vn -0.03042172898968474 0.3418915948881444 0.9392468555976747
vn -0.03042172898968474 0.3418915948881444 0.9392468555976747
vn -0.03042172898968474 0.3418915948881444 0.9392468555976747
vn 0.09447621786632142 0.7627771684484068 0.6397227802349282
vn 0.09447621786632142 0.7627771684484068 0.6397227802349282
vn 0.09447621786632142 0.7627771684484068 0.6397227802349282
vn 0.0016020528732119746 0.9536907945801746 0.30078447725842944
vn 0.0016020528732119746 0.9536907945801746 0.30078447725842944
vn 0.0016020528732119746 0.9536907945801746 0.30078447725842944
vn 0.06290239085048671 0.9828196747369078 0.17351880640245157
vn 0.06290239085048671 0.9828196747369078 0.17351880640245157
vn 0.06290239085048671 0.9828196747369078 0.17351880640245157
vn 0.06288796039751847 0.9378230752973116 -0.3413692778750507
vn 0.06288796039751847 0.9378230752973116 -0.3413692778750507
vn 0.06288796039751847 0.9378230752973116 -0.3413692778750507
vn -0.05992762803543769 0.8175849399156955 -0.5726810154187886
vn -0.05992762803543769 0.8175849399156955 -0.5726810154187886
vn -0.05992762803543769 0.8175849399156955 -0.5726810154187886
vn 0.08324885446814842 0.6981343096733444 0.7111104793818352
vn 0.08324885446814842 0.6981343096733444 0.7111104793818352
vn 0.08324885446814842 0.6981343096733444 0.7111104793818352
vn 0 0.6809563878444065 0.7323239705580437
vn 0 0.6809563878444065 0.7323239705580437
vn 0 0.6809563878444065 0.7323239705580437
vn 0 0.8943110032988482 0.4474458954763219
vn 0 0.8943110032988482 0.4474458954763219
vn 0 0.8943110032988482 0.4474458954763219
vn -0.27366596345177946 0.9192736110149238 0.2829186606422275
vn -0.27366596345177946 0.9192736110149238 0.2829186606422275
vn -0.27366596345177946 0.9192736110149238 0.2829186606422275
vn 0.05206989529221713 0.9933500351489515 0.10268609289399656
vn 0.05206989529221713 0.9933500351489515 0.10268609289399656
vn 0.05206989529221713 0.9933500351489515 0.10268609289399656
vn 0 0.8770336446828186 -0.48042896050755646
vn 0 0.8770336446828186 -0.48042896050755646
vn 0 0.8770336446828186 -0.48042896050755646
vn 0 0.5885176185389074 -0.8084843923473681
vn 0 0.5885176185389074 -0.8084843923473681
vn 0 0.5885176185389074 -0.8084843923473681
vn -0.20817857255965544 0.6389551536317343 -0.7405389885579767
vn -0.20817857255965544 0.6389551536317343 -0.7405389885579767
vn -0.20817857255965544 0.6389551536317343 -0.7405389885579767
vn -0.0014247287456715153 0.4489113293850742 -0.8935751722702051
vn -0.0014247287456715153 0.4489113293850742 -0.8935751722702051
vn -0.0014247287456715153 0.4489113293850742 -0.8935751722702051
vn -0.10614549523385751 -0.0526958078378732 -0.9929533149538667
vn -0.10614539210095165 -0.05269580842131238 -0.9929533259476799
vn -0.10614549523385751 -0.0526958078378732 -0.9929533149538667
vn -0.1680512862627899 -0.015793798372089676 -0.9856517240478018
vn -0.1680512862627899 -0.015793798372089676 -0.9856517240478018
vn -0.1680512862627899 -0.015793798372089676 -0.9856517240478018
vn -0.16848080323876133 -0.496871693695388 -0.8513123627343245
vn -0.16848080323876133 -0.496871693695388 -0.8513123627343245
vn -0.16848080323876133 -0.496871693695388 -0.8513123627343245
vn 0.9821289368602714 0.18454689138642327 -0.03694856237150565
vn 0.9821289368602714 0.18454689138642327 -0.03694856237150565
vn 0.9821289368602714 0.18454689138642327 -0.03694856237150565
vn 0.8894785229294014 0.1344672916139633 -0.43674535456411606
vn 0.8894785229294014 0.1344672916139633 -0.43674535456411606
vn 0.8894785229294014 0.1344672916139633 -0.43674535456411606
vn 0.9674763475182645 -0.08980975855462064 -0.2364819744950534
vn 0.9674763475182645 -0.08980975855462064 -0.2364819744950534
vn 0.9674763475182645 -0.08980975855462064 -0.2364819744950534
vn 0.9999999999978018 0.000002096800017165999 0
vn 0.9999999999978018 0.000002096800017165999 0
vn 0.9999999999978018 0.000002096800017165999 0
vn 0.9999999999973885 -0.000002285399887108213 0
vn 0.9999999999973885 -0.000002285399887108213 0
vn 0.9999999999973885 -0.000002285399887108213 0
vn 1 0 0
vn 1 0 0
vn 1 0 0
vn 1 0 0
vn 1 0 0
vn 1 0 0
vn 0.9999999999988973 0.0000014850700154040164 0
vn 0.9999999999988973 0.0000014850700154040164 0
vn 0.9999999999988973 0.0000014850700154040164 0
vn 1 0 0
vn 1 0 0
vn 1 0 0
vn 1 0 0
vn 1 0 0
vn 1 0 0
vn 1 0 0
vn 1 0 0
vn 1 0 0
vn 0.9999999999990745 -0.0000013606199900083223 0
vn 0.9999999999990745 -0.0000013606199900083223 0
vn 0.9999999999990745 -0.0000013606199900083223 0
vn 1 0 0
vn 1 0 0
vn 1 0 0
vn 1 0 0
vn 1 0 0
vn 1 0 0
vn 1 0 0
vn 1 0 0
vn 1 0 0
vn 1 0 0
vn 1 0 0
vn 1 0 0
vn 1 0 0
vn 1 0 0
vn 1 0 0
vn 1 0 0
vn 1 0 0
vn 1 0 0
vn 0.9999999999972429 0.0000023482600681680937 0
vn 0.9999999999972429 0.0000023482600681680937 0
vn 0.9999999999972429 0.0000023482600681680937 0
vn 0.9999999999990192 0.0000014005399862057762 0
vn 0.9999999999990192 0.0000014005399862057762 0
vn 0.9999999999990192 0.0000014005399862057762 0
vn 1 0 0
vn 1 0 0
vn 1 0 0
vn 1 0 0
vn 1 0 0
vn 1 0 0
vn 0.9821237399791632 -0.1759828938414614 0.06680554201954822
vn 0.9821237399791632 -0.1759828938414614 0.06680554201954822
vn 0.9821237399791632 -0.1759828938414614 0.06680554201954822
vn 0.9821249924763062 0.08111143180003068 0.1698571010725322
vn 0.9821249924763062 0.08111143180003068 0.1698571010725322
vn 0.9821249924763062 0.08111143180003068 0.1698571010725322
vn 0 -0.5512145089855066 -0.8343635688858106
vn 0 -0.5512145089855066 -0.8343635688858106
vn 0 -0.5512145089855066 -0.8343635688858106
vn 0 -0.8943102161090616 -0.44744746883065895
vn 0 -0.8943102161090616 -0.44744746883065895
vn 0 -0.8943102161090616 -0.44744746883065895
vn 0 -0.8943102161090616 -0.44744746883065895
vn 0 -0.8943102161090616 -0.44744746883065895
vn 0 -0.8943102161090616 -0.44744746883065895
vn 0 -0.9982460442227468 0.05920164857196091
vn 0 -0.9982460442227468 0.05920164857196091
vn 0 -0.9982460442227468 0.05920164857196091
vn 0 -0.9982459766565525 0.05920278784825557
vn 0 -0.9982459766565525 0.05920278784825557
vn 0 -0.9982459766565525 0.05920278784825557
vn 0 -0.7861127124804013 0.6180831685758045
vn 0 -0.7861127124804013 0.6180831685758045
vn 0 -0.7861127124804013 0.6180831685758045
vn 0 -0.7861127931727385 0.6180830659467664
vn 0 -0.7861127931727385 0.6180830659467664
vn 0 -0.7861127931727385 0.6180830659467664
vn 0 -0.37202158282473796 0.9282240795802362
vn 0 -0.37202158282473796 0.9282240795802362
vn 0 -0.37202158282473796 0.9282240795802362
vn 0 -0.37202339615410096 0.9282233528165347
vn 0 -0.37202339615410096 0.9282233528165347
vn 0 -0.37202339615410096 0.9282233528165347
vn 0 0.14150139348621305 0.9899380564668981
vn 0 0.14150139348621305 0.9899380564668981
vn 0 0.14150139348621305 0.9899380564668981
vn -0.3907722030424888 0.2545894147421236 0.8845797393285599
vn -0.3907722030424888 0.2545894147421236 0.8845797393285599
vn -0.3907722030424888 0.2545894147421236 0.8845797393285599
vn -0.9821217574293966 -0.1759934857723054 0.06680678520559966
vn -0.9821217574293966 -0.1759934857723054 0.06680678520559966
vn -0.9821217574293966 -0.1759934857723054 0.06680678520559966
vn -0.3906174341911316 0.04658346298129286 -0.9193737004518931
vn -0.3906174341911316 0.04658346298129286 -0.9193737004518931
vn -0.3906174341911316 0.04658346298129286 -0.9193737004518931
vn -0.39053861358101527 0.8606003158507083 -0.3268741159221384
vn -0.39053861358101527 0.8606003158507083 -0.3268741159221384
vn -0.39053861358101527 0.8606003158507083 -0.3268741159221384
vn -0.9999999999983948 -0.000001791799945746641 0
vn -0.9999999999983948 -0.000001791799945746641 0
vn -0.9999999999983948 -0.000001791799945746641 0
vn -1 0 0
vn -1 0 0
vn -1 0 0
vn -1 0 0
vn -1 0 0
vn -1 0 0
vn -0.9999999999987701 -0.000001568449988551837 0
vn -0.9999999999987701 -0.000001568449988551837 0
vn -0.9999999999987701 -0.000001568449988551837 0
vn -0.9999999999999567 2.9463799933181324e-7 0
vn -0.9999999999999567 2.9463799933181324e-7 0
vn -0.9999999999999567 2.9463799933181324e-7 0
vn -1 0 0
vn -1 0 0
vn -1 0 0
vn -1 0 0
vn -1 0 0
vn -1 0 0
vn -0.9999999999981408 -0.000001928350002341229 0
vn -0.9999999999981408 -0.000001928350002341229 0
vn -0.9999999999981408 -0.000001928350002341229 0
vn -0.9999999999972544 0.0000023433299247634988 0
vn -0.9999999999972544 0.0000023433299247634988 0
vn -0.9999999999972544 0.0000023433299247634988 0
vn -0.9999999999991054 -0.0000013377300547278392 0
vn -0.9999999999991054 -0.0000013377300547278392 0
vn -0.9999999999991054 -0.0000013377300547278392 0
vn -0.9999999999953817 0.000003039169996540811 0
vn -0.9999999999953817 0.000003039169996540811 0
vn -0.9999999999953817 0.000003039169996540811 0
vn -0.9999999999905747 -0.000004341769908892279 0
vn -0.9999999999905747 -0.000004341769908892279 0
vn -0.9999999999905747 -0.000004341769908892279 0
vn -0.9999999999963851 0.0000026888399133798094 0
vn -0.9999999999963851 0.0000026888399133798094 0
vn -0.9999999999963851 0.0000026888399133798094 0
vn -1 0 0
vn -1 0 0
vn -1 0 0
vn -1 0 0
vn -1 0 0
vn -1 0 0
vn -1 0 0
vn -1 0 0
vn -1 0 0
vn -1 0 0
vn -1 0 0
vn -1 0 0
vn -1 0 0
vn -1 0 0
vn -1 0 0
vn -1 0 0
vn -1 0 0
vn -1 0 0
vn -0.7306818303531568 0.24347370654638 -0.6378280465864822
vn -0.7306818303531568 0.24347370654638 -0.6378280465864822
vn -0.7306818303531568 0.24347370654638 -0.6378280465864822
vn 0.7831300260748357 -0.03096966538260667 -0.6210863402829887
vn 0.7831300260748357 -0.03096966538260667 -0.6210863402829887
vn 0.7831300260748357 -0.03096966538260667 -0.6210863402829887
f 1/1/1 2/2/2 3/3/3
f 4/4/4 5/5/5 6/6/6
f 7/7/7 8/8/8 9/9/9
f 10/10/10 11/11/11 12/12/12
f 13/13/13 14/14/14 15/15/15
f 16/16/16 17/17/17 18/18/18
f 19/19/19 20/20/20 21/21/21
f 22/22/22 23/23/23 24/24/24
f 25/25/25 26/26/26 27/27/27
f 28/28/28 29/29/29 30/30/30
f 31/31/31 32/32/32 33/33/33
f 34/34/34 35/35/35 36/36/36
f 37/37/37 38/38/38 39/39/39
f 40/40/40 41/41/41 42/42/42
f 43/43/43 44/44/44 45/45/45
f 46/46/46 47/47/47 48/48/48
f 49/49/49 50/50/50 51/51/51
f 52/52/52 53/53/53 54/54/54
f 55/55/55 56/56/56 57/57/57
f 58/58/58 59/59/59 60/60/60
f 61/61/61 62/62/62 63/63/63
f 64/64/64 65/65/65 66/66/66
f 67/67/67 68/68/68 69/69/69
f 70/70/70 71/71/71 72/72/72
f 73/73/73 74/74/74 75/75/75
f 76/76/76 77/77/77 78/78/78
f 79/79/79 80/80/80 81/81/81
f 82/82/82 83/83/83 84/84/84
f 85/85/85 86/86/86 87/87/87
f 88/88/88 89/89/89 90/90/90
f 91/91/91 92/92/92 93/93/93
f 94/94/94 95/95/95 96/96/96
f 97/97/97 98/98/98 99/99/99
f 100/100/100 101/101/101 102/102/102
f 103/103/103 104/104/104 105/105/105
f 106/106/106 107/107/107 108/108/108
f 109/109/109 110/110/110 111/111/111
f 112/112/112 113/113/113 114/114/114
f 115/115/115 116/116/116 117/117/117
f 118/118/118 119/119/119 120/120/120
f 121/121/121 122/122/122 123/123/123
f 124/124/124 125/125/125 126/126/126
f 127/127/127 128/128/128 129/129/129
f 130/130/130 131/131/131 132/132/132
f 133/133/133 134/134/134 135/135/135
f 136/136/136 137/137/137 138/138/138
f 139/139/139 140/140/140 141/141/141
f 142/142/142 143/143/143 144/144/144
f 145/145/145 146/146/146 147/147/147
f 148/148/148 149/149/149 150/150/150
f 151/151/151 152/152/152 153/153/153
f 154/154/154 155/155/155 156/156/156
f 157/157/157 158/158/158 159/159/159
f 160/160/160 161/161/161 162/162/162
f 163/163/163 164/164/164 165/165/165
f 166/166/166 167/167/167 168/168/168
f 169/169/169 170/170/170 171/171/171
f 172/172/172 173/173/173 174/174/174
f 175/175/175 176/176/176 177/177/177
f 178/178/178 179/179/179 180/180/180
f 181/181/181 182/182/182 183/183/183
f 184/184/184 185/185/185 186/186/186
f 187/187/187 188/188/188 189/189/189
f 190/190/190 191/191/191 192/192/192
f 193/193/193 194/194/194 195/195/195
f 196/196/196 197/197/197 198/198/198
f 199/199/199 200/200/200 201/201/201
f 202/202/202 203/203/203 204/204/204
f 205/205/205 206/206/206 207/207/207
f 208/208/208 209/209/209 210/210/210
f 211/211/211 212/212/212 213/213/213
f 214/214/214 215/215/215 216/216/216
f 217/217/217 218/218/218 219/219/219
f 220/220/220 221/221/221 222/222/222
f 223/223/223 224/224/224 225/225/225
f 226/226/226 227/227/227 228/228/228
f 229/229/229 230/230/230 231/231/231
f 232/232/232 233/233/233 234/234/234
f 235/235/235 236/236/236 237/237/237
f 238/238/238 239/239/239 240/240/240
f 241/241/241 242/242/242 243/243/243
f 244/244/244 245/245/245 246/246/246
f 247/247/247 248/248/248 249/249/249
f 250/250/250 251/251/251 252/252/252
f 253/253/253 254/254/254 255/255/255
f 256/256/256 257/257/257 258/258/258
f 259/259/259 260/260/260 261/261/261
f 262/262/262 263/263/263 264/264/264
f 265/265/265 266/266/266 267/267/267
f 268/268/268 269/269/269 270/270/270
f 271/271/271 272/272/272 273/273/273
f 274/274/274 275/275/275 276/276/276
f 277/277/277 278/278/278 279/279/279
f 280/280/280 281/281/281 282/282/282
f 283/283/283 284/284/284 285/285/285
f 286/286/286 287/287/287 288/288/288
f 289/289/289 290/290/290 291/291/291
f 292/292/292 293/293/293 294/294/294
f 295/295/295 296/296/296 297/297/297
f 298/298/298 299/299/299 300/300/300
f 301/301/301 302/302/302 303/303/303
f 304/304/304 305/305/305 306/306/306
f 307/307/307 308/308/308 309/309/309
f 310/310/310 311/311/311 312/312/312
f 313/313/313 314/314/314 315/315/315
f 316/316/316 317/317/317 318/318/318
f 319/319/319 320/320/320 321/321/321
f 322/322/322 323/323/323 324/324/324
f 325/325/325 326/326/326 327/327/327
f 328/328/328 329/329/329 330/330/330
f 331/331/331 332/332/332 333/333/333
f 334/334/334 335/335/335 336/336/336
f 337/337/337 338/338/338 339/339/339
f 340/340/340 341/341/341 342/342/342
f 343/343/343 344/344/344 345/345/345
f 346/346/346 347/347/347 348/348/348
f 349/349/349 350/350/350 351/351/351
f 352/352/352 353/353/353 354/354/354
f 355/355/355 356/356/356 357/357/357
f 358/358/358 359/359/359 360/360/360
f 361/361/361 362/362/362 363/363/363
f 364/364/364 365/365/365 366/366/366
f 367/367/367 368/368/368 369/369/369
f 370/370/370 371/371/371 372/372/372
f 373/373/373 374/374/374 375/375/375
f 376/376/376 377/377/377 378/378/378
f 379/379/379 380/380/380 381/381/381
f 382/382/382 383/383/383 384/384/384
f 385/385/385 386/386/386 387/387/387
f 388/388/388 389/389/389 390/390/390
f 391/391/391 392/392/392 393/393/393
f 394/394/394 395/395/395 396/396/396
f 397/397/397 398/398/398 399/399/399
f 400/400/400 401/401/401 402/402/402
f 403/403/403 404/404/404 405/405/405
f 406/406/406 407/407/407 408/408/408
f 409/409/409 410/410/410 411/411/411
f 412/412/412 413/413/413 414/414/414
f 415/415/415 416/416/416 417/417/417
f 418/418/418 419/419/419 420/420/420
f 421/421/421 422/422/422 423/423/423
f 424/424/424 425/425/425 426/426/426
f 427/427/427 428/428/428 429/429/429
f 430/430/430 431/431/431 432/432/432
f 433/433/433 434/434/434 435/435/435
f 436/436/436 437/437/437 438/438/438
f 439/439/439 440/440/440 441/441/441
f 442/442/442 443/443/443 444/444/444
f 445/445/445 446/446/446 447/447/447
f 448/448/448 449/449/449 450/450/450
f 451/451/451 452/452/452 453/453/453
f 454/454/454 455/455/455 456/456/456
f 457/457/457 458/458/458 459/459/459
f 460/460/460 461/461/461 462/462/462
f 463/463/463 464/464/464 465/465/465
f 466/466/466 467/467/467 468/468/468
f 469/469/469 470/470/470 471/471/471
f 472/472/472 473/473/473 474/474/474
f 475/475/475 476/476/476 477/477/477
f 478/478/478 479/479/479 480/480/480
f 481/481/481 482/482/482 483/483/483
f 484/484/484 485/485/485 486/486/486
f 487/487/487 488/488/488 489/489/489
f 490/490/490 491/491/491 492/492/492
f 493/493/493 494/494/494 495/495/495
f 496/496/496 497/497/497 498/498/498
f 499/499/499 500/500/500 501/501/501
f 502/502/502 503/503/503 504/504/504
f 505/505/505 506/506/506 507/507/507
f 508/508/508 509/509/509 510/510/510
f 511/511/511 512/512/512 513/513/513
f 514/514/514 515/515/515 516/516/516
f 517/517/517 518/518/518 519/519/519
f 520/520/520 521/521/521 522/522/522
f 523/523/523 524/524/524 525/525/525
f 526/526/526 527/527/527 528/528/528
f 529/529/529 530/530/530 531/531/531
f 532/532/532 533/533/533 534/534/534
f 535/535/535 536/536/536 537/537/537
f 538/538/538 539/539/539 540/540/540
f 541/541/541 542/542/542 543/543/543
f 544/544/544 545/545/545 546/546/546
f 547/547/547 548/548/548 549/549/549
f 550/550/550 551/551/551 552/552/552
f 553/553/553 554/554/554 555/555/555
f 556/556/556 557/557/557 558/558/558
f 559/559/559 560/560/560 561/561/561
f 562/562/562 563/563/563 564/564/564
f 565/565/565 566/566/566 567/567/567
f 568/568/568 569/569/569 570/570/570
