o hipPitchRight
usemtl hipPitchLeft:phong2SG
v -0.10750000178813934 -0.09320300072431564 -0.0252829696983099
v -0.10750000178813934 -0.09836196154356003 -0.019050000235438347
v -0.10869999974966049 -0.09879601001739502 -0.017953990027308464
v -0.10849999636411667 -0.07946097105741501 0.005981980822980404
v -0.10849999636411667 -0.0834999606013298 0.005269944202154875
v -0.10750000178813934 -0.08047497272491455 0.006534993182867765
v -0.10849999636411667 -0.07380998134613037 -0.03284597024321556
v -0.10849999636411667 -0.06289798021316528 -0.012206969782710075
v -0.10849999636411667 -0.05908900126814842 -0.011822990141808987
v -0.10849999636411667 -0.08866798132658005 -0.026245949789881706
v -0.10849999636411667 -0.09313397854566574 -0.025209959596395493
v -0.10849999636411667 -0.06289798021316528 -0.012206969782710075
v -0.10849999636411667 -0.09313397854566574 -0.025209959596395493
v -0.10849999636411667 -0.0834999606013298 0.005269944202154875
v -0.10849999636411667 -0.06289798021316528 -0.012206969782710075
v -0.10849999636411667 -0.09313397854566574 -0.025209959596395493
v -0.10849999636411667 -0.09821999073028564 -0.015753980726003647
v -0.10849999636411667 -0.0834999606013298 0.005269944202154875
v -0.10869999974966049 -0.05847597122192383 -0.010420969687402248
v -0.10849999636411667 -0.05908900126814842 -0.011822990141808987
v -0.10849999636411667 -0.05980097874999046 -0.007783948909491301
v -0.10849999636411667 -0.09821999073028564 -0.015753980726003647
v -0.10849999636411667 -0.09313397854566574 -0.025209959596395493
v -0.10869999974966049 -0.09879601001739502 -0.017953990027308464
v -0.10849999636411667 -0.08866798132658005 -0.026245949789881706
v -0.10849999636411667 -0.06289798021316528 -0.012206969782710075
v -0.10849999636411667 -0.08693598955869675 -0.0274579506367445
v -0.10849999636411667 -0.06289798021316528 -0.012206969782710075
v -0.10849999636411667 -0.07380998134613037 -0.03284597024321556
v -0.10849999636411667 -0.08693598955869675 -0.0274579506367445
v -0.10849999636411667 -0.07380998134613037 -0.03284597024321556
v -0.10849999636411667 -0.08443599194288254 -0.03130095824599266
v -0.10849999636411667 -0.08693598955869675 -0.0274579506367445
v -0.10849999636411667 -0.07380998134613037 -0.03284597024321556
v -0.10869999974966049 -0.07568097114562988 -0.03413999080657959
v -0.10849999636411667 -0.08443599194288254 -0.03130095824599266
v -0.10849999636411667 -0.05908900126814842 -0.011822990141808987
v -0.10849999636411667 -0.07946097105741501 0.005981980822980404
v -0.10849999636411667 -0.05980097874999046 -0.007783948909491301
v -0.10849999636411667 -0.05908900126814842 -0.011822990141808987
v -0.10849999636411667 -0.06289798021316528 -0.012206969782710075
v -0.10849999636411667 -0.07946097105741501 0.005981980822980404
v -0.10849999636411667 -0.06289798021316528 -0.012206969782710075
v -0.10849999636411667 -0.0834999606013298 0.005269944202154875
v -0.10849999636411667 -0.07946097105741501 0.005981980822980404
vt 0.29142698645591736 0.2366899996995926
vt 0.24074499309062958 0.22274699807167053
vt 0.2343679964542389 0.21853889524936676
vt 0.2497708946466446 0.019233999773859978
vt 0.23072800040245056 0.038059938699007034
vt 0.24228790402412415 0.02006595954298973
vt 0.42340099811553955 0.20471200346946716
vt 0.40577200055122375 0.05431199073791504
vt 0.424793004989624 0.038082949817180634
vt 0.3193179965019226 0.22492699325084686
vt 0.2915309965610504 0.23604890704154968
vt 0.40577200055122375 0.05431199073791504
vt 0.2915309965610504 0.23604890704154968
vt 0.23072800040245056 0.038059938699007034
vt 0.40577200055122375 0.05431199073791504
vt 0.2915309965610504 0.23604890704154968
vt 0.2293359935283661 0.20468899607658386
vt 0.23072800040245056 0.038059938699007034
vt 0.4229080080986023 0.028343969956040382
vt 0.424793004989624 0.038082949817180634
vt 0.4060649871826172 0.019252950325608253
vt 0.2293359935283661 0.20468899607658386
vt 0.2915309965610504 0.23604890704154968
vt 0.2343679964542389 0.21853889524936676
vt 0.3193179965019226 0.22492699325084686
vt 0.40577200055122375 0.05431199073791504
vt 0.333081990480423 0.22492900490760803
vt 0.40577200055122375 0.05431199073791504
vt 0.42340099811553955 0.20471200346946716
vt 0.333081990480423 0.22492900490760803
vt 0.42340099811553955 0.20471200346946716
vt 0.36068299412727356 0.23605699837207794
vt 0.333081990480423 0.22492900490760803
vt 0.42340099811553955 0.20471200346946716
vt 0.4181379973888397 0.21855999529361725
vt 0.36068299412727356 0.23605699837207794
vt 0.424793004989624 0.038082949817180634
vt 0.2497708946466446 0.019233999773859978
vt 0.4060649871826172 0.019252950325608253
vt 0.424793004989624 0.038082949817180634
vt 0.40577200055122375 0.05431199073791504
vt 0.2497708946466446 0.019233999773859978
vt 0.40577200055122375 0.05431199073791504
vt 0.23072800040245056 0.038059938699007034
vt 0.2497708946466446 0.019233999773859978
vn -0.28998950917495153 -0.7372679316133733 -0.6101983952642034
vn -0.28998950917495153 -0.7372679316133733 -0.6101983952642034
vn -0.28998949643148053 -0.7372679588190778 -0.6101983684492831
vn -0.5846480722043325 -0.1408433018873668 0.7989679567925247
vn -0.5846480722043325 -0.1408433018873668 0.7989679567925247
vn -0.5846480722043325 -0.1408433018873668 0.7989679567925247
vn -0.999999999985544 -0.000005377009983853473 0
vn -0.999999999985544 -0.000005377009983853473 0
vn -0.999999999985544 -0.000005377009983853473 0
vn -1 0 0
vn -1 0 0
vn -1 0 0
vn -0.9999999999999574 -2.923819977240658e-7 0
vn -0.9999999999999574 -2.923819977240658e-7 0
vn -0.9999999999999574 -2.923819977240658e-7 0
vn -0.9999999999982101 0.0000018920100046637131 0
vn -0.9999999999982101 0.0000018920100046637131 0
vn -0.9999999999982101 0.0000018920100046637131 0
vn -0.9732408503444997 -0.22629816783387785 -0.03989218539695488
vn -0.9732408503444997 -0.22629816783387785 -0.03989218539695488
vn -0.9732408503444997 -0.22629816783387785 -0.03989218539695488
vn -0.9917724792143993 0.1127377010656339 0.06064289102079453
vn -0.9917724792143993 0.1127377010656339 0.06064289102079453
vn -0.9917724792143993 0.1127377010656339 0.06064289102079453
vn -1 0 0
vn -1 0 0
vn -1 0 0
vn -0.9999999999999378 3.530929859607348e-7 0
vn -0.9999999999999378 3.530929859607348e-7 0
vn -0.9999999999999378 3.530929859607348e-7 0
vn -0.9999999999987608 0.0000015743199810438954 0
vn -0.9999999999987608 0.0000015743199810438954 0
vn -0.9999999999987608 0.0000015743199810438954 0
vn -0.9917749913751238 0.0184175300426037 0.12666160061361567
vn -0.9917749913751238 0.0184175300426037 0.12666160061361567
vn -0.9917749913751238 0.0184175300426037 0.12666160061361567
vn -0.9999999999944056 0.0000033450101000011494 0
vn -0.9999999999944056 0.0000033450101000011494 0
vn -0.9999999999944056 0.0000033450101000011494 0
vn -1 0 0
vn -1 0 0
vn -1 0 0
vn -0.9999999999988203 -0.0000015361299574560757 0
vn -0.9999999999988203 -0.0000015361299574560757 0
vn -0.9999999999988203 -0.0000015361299574560757 0
f 1/1/1 2/2/2 3/3/3
f 4/4/4 5/5/5 6/6/6
f 7/7/7 8/8/8 9/9/9
f 10/10/10 11/11/11 12/12/12
f 13/13/13 14/14/14 15/15/15
f 16/16/16 17/17/17 18/18/18
f 19/19/19 20/20/20 21/21/21
f 22/22/22 23/23/23 24/24/24
f 25/25/25 26/26/26 27/27/27
f 28/28/28 29/29/29 30/30/30
f 31/31/31 32/32/32 33/33/33
f 34/34/34 35/35/35 36/36/36
f 37/37/37 38/38/38 39/39/39
f 40/40/40 41/41/41 42/42/42
f 43/43/43 44/44/44 45/45/45
