o hipRollRight
usemtl hipRollLeft:phong1SG
v 0.05889999121427536 -0.003999948035925627 0.021199999377131462
v 0.057500001043081284 -0.00140196003485471 0.021199999377131462
v 0.029100000858306885 -0.003999948035925627 0.021199999377131462
v 0.029100000858306885 -0.003999948035925627 0.021199999377131462
v 0.057500001043081284 -0.00140196003485471 0.021199999377131462
v 0.03200000151991844 -0.0010999439982697368 0.021199999377131462
v 0.029100000858306885 -0.003999948035925627 0.021199999377131462
v 0.03200000151991844 -0.0010999439982697368 0.021199999377131462
v 0.029488980770111084 -0.0025499460753053427 0.021199999377131462
v 0.05889999121427536 -0.003999948035925627 0.021199999377131462
v 0.029100000858306885 -0.003999948035925627 0.021199999377131462
v 0.03869098052382469 -0.034493979066610336 0.021199999377131462
v 0.029100000858306885 -0.003999948035925627 0.021199999377131462
v 0.029100000858306885 -0.020711949095129967 0.021199999377131462
v 0.031008949503302574 -0.023873979225754738 0.021199999377131462
v 0.029100000858306885 -0.003999948035925627 0.021199999377131462
v 0.031008949503302574 -0.023873979225754738 0.021199999377131462
v 0.03869098052382469 -0.034493979066610336 0.021199999377131462
v 0.031008949503302574 -0.023873979225754738 0.021199999377131462
v 0.034443970769643784 -0.03366994112730026 0.021199999377131462
v 0.03869098052382469 -0.034493979066610336 0.021199999377131462
v 0.05889999121427536 -0.003999948035925627 0.021199999377131462
v 0.03869098052382469 -0.034493979066610336 0.021199999377131462
v 0.045056991279125214 -0.0327799916267395 0.021199999377131462
v 0.05889999121427536 -0.003999948035925627 0.021199999377131462
v 0.045056991279125214 -0.0327799916267395 0.021199999377131462
v 0.05889999121427536 -0.020711949095129967 0.021199999377131462
v 0.05889999121427536 -0.020711949095129967 0.021199999377131462
v 0.045056991279125214 -0.0327799916267395 0.021199999377131462
v 0.053555961698293686 -0.03366994112730026 0.021199999377131462
v 0.053555961698293686 -0.03366994112730026 0.021199999377131462
v 0.045056991279125214 -0.0327799916267395 0.021199999377131462
v 0.04930894821882248 -0.034493979066610336 0.021199999377131462
vt 0.6723020076751709 0.03745393827557564
vt 0.6820420026779175 0.021344950422644615
vt 0.8794329762458801 0.03757094964385033
vt 0.8794329762458801 0.03757094964385033
vt 0.6820420026779175 0.021344950422644615
vt 0.8592860102653503 0.019571950659155846
vt 0.8794329762458801 0.03757094964385033
vt 0.8592860102653503 0.019571950659155846
vt 0.8767340183258057 0.028575949370861053
vt 0.6723020076751709 0.03745393827557564
vt 0.8794329762458801 0.03757094964385033
vt 0.8126620054244995 0.22667700052261353
vt 0.8794329762458801 0.03757094964385033
vt 0.8793740272521973 0.1412300020456314
vt 0.8660939931869507 0.16083499789237976
vt 0.8794329762458801 0.03757094964385033
vt 0.8660939931869507 0.16083499789237976
vt 0.8126620054244995 0.22667700052261353
vt 0.8660939931869507 0.16083499789237976
vt 0.8421840071678162 0.22158190608024597
vt 0.8126620054244995 0.22667700052261353
vt 0.6723020076751709 0.03745393827557564
vt 0.8126620054244995 0.22667700052261353
vt 0.7684199810028076 0.21602000296115875
vt 0.6723020076751709 0.03745393827557564
vt 0.7684199810028076 0.21602000296115875
vt 0.6722429990768433 0.14111299812793732
vt 0.6722429990768433 0.14111299812793732
vt 0.7684199810028076 0.21602000296115875
vt 0.7093420028686523 0.2215069979429245
vt 0.7093420028686523 0.2215069979429245
vt 0.7684199810028076 0.21602000296115875
vt 0.7388589978218079 0.22663499414920807
vn 0 0 1
vn 0 0 1
vn 0 0 1
vn 0 0 1
vn 0 0 1
vn 0 0 1
vn 0 0 1
vn 0 0 1
vn 0 0 1
vn 0 0 1
vn 0 0 1
vn 0 0 1
vn 9.122550181924295e-7 0 0.9999999999995839
vn 9.122550181924295e-7 0 0.9999999999995839
vn 9.122550181924295e-7 0 0.9999999999995839
vn 0 0 1
vn 0 0 1
vn 0 0 1
vn -1.87653995453726e-7 0 0.9999999999999825
vn -1.87653995453726e-7 0 0.9999999999999825
vn -1.87653995453726e-7 0 0.9999999999999825
vn -2.2810600341926464e-7 0 0.999999999999974
vn -2.2810600341926464e-7 0 0.999999999999974
vn -2.2810600341926464e-7 0 0.999999999999974
vn 0 0 1
vn 0 0 1
vn 0 0 1
vn -1.266640055064262e-7 0 0.999999999999992
vn -1.266640055064262e-7 0 0.999999999999992
vn -1.266640055064262e-7 0 0.999999999999992
vn 0 0 1
vn 0 0 1
vn 0 0 1
f 1/1/1 2/2/2 3/3/3
f 4/4/4 5/5/5 6/6/6
f 7/7/7 8/8/8 9/9/9
f 10/10/10 11/11/11 12/12/12
f 13/13/13 14/14/14 15/15/15
f 16/16/16 17/17/17 18/18/18
f 19/19/19 20/20/20 21/21/21
f 22/22/22 23/23/23 24/24/24
f 25/25/25 26/26/26 27/27/27
f 28/28/28 29/29/29 30/30/30
f 31/31/31 32/32/32 33/33/33
