o shinRight
usemtl shinLeft:phong1SG
v -0.029313979670405388 0.03249996155500412 -0.09903597086668015
v -0.028509970754384995 0.03249996155500412 -0.10384400188922882
v -0.0295219998806715 0.03269999846816063 -0.10033699870109558
v -0.002649961970746517 0.03249996155500412 -0.10324999690055847
v -0.0009999870089814067 0.03249996155500412 -0.10585000365972519
v -0.025787940248847008 0.03249996155500412 -0.10585000365972519
v -0.029313979670405388 0.03249996155500412 -0.09903597086668015
v -0.002649961970746517 0.03249996155500412 -0.10324999690055847
v -0.028509970754384995 0.03249996155500412 -0.10384400188922882
v -0.002649961970746517 0.03249996155500412 -0.10324999690055847
v -0.02772694081068039 0.03249996155500412 -0.09394799917936325
v -0.0009999870089814067 0.03249996155500412 -0.08414994925260544
v -0.028509970754384995 0.03249996155500412 -0.10384400188922882
v -0.025787940248847008 0.03249996155500412 -0.10585000365972519
v -0.02701997011899948 0.03269999846816063 -0.10573499649763107
v -0.028509970754384995 0.03249996155500412 -0.10384400188922882
v -0.002649961970746517 0.03249996155500412 -0.10324999690055847
v -0.025787940248847008 0.03249996155500412 -0.10585000365972519
v -0.029313979670405388 0.03249996155500412 -0.0909639522433281
v -0.0009999870089814067 0.03249996155500412 -0.08414994925260544
v -0.02772694081068039 0.03249996155500412 -0.09394799917936325
v -0.029313979670405388 0.03249996155500412 -0.0909639522433281
v -0.025787940248847008 0.03249996155500412 -0.08414994925260544
v -0.0009999870089814067 0.03249996155500412 -0.08414994925260544
v -0.029313979670405388 0.03249996155500412 -0.0909639522433281
v -0.028034979477524757 0.03269999846816063 -0.08501297235488892
v -0.025787940248847008 0.03249996155500412 -0.08414994925260544
v -0.028034979477524757 0.03269999846816063 -0.08501297235488892
v -0.02701997011899948 0.03269999846816063 -0.08426499366760254
v -0.025787940248847008 0.03249996155500412 -0.08414994925260544
v -0.002649961970746517 0.03249996155500412 -0.10324999690055847
v -0.02772694081068039 0.03249996155500412 -0.09605199098587036
v -0.02772694081068039 0.03249996155500412 -0.09394799917936325
v -0.002649961970746517 0.03249996155500412 -0.10324999690055847
v -0.029313979670405388 0.03249996155500412 -0.09903597086668015
v -0.02772694081068039 0.03249996155500412 -0.09605199098587036
v 0.0014679429586976767 0.03249996155500412 -0.08557497709989548
v 0.0018499490106478333 0.03249996155500412 -0.08699995279312134
v -0.0009999870089814067 0.03249996155500412 -0.08414994925260544
v 0.0018499490106478333 0.03249996155500412 -0.10300000011920929
v -0.0009999870089814067 0.03249996155500412 -0.10585000365972519
v 0.0018499490106478333 0.03249996155500412 -0.08699995279312134
v 0.0018499490106478333 0.03249996155500412 -0.10300000011920929
v 0.0015979399904608727 0.03269999846816063 -0.10450000315904617
v -0.0009999870089814067 0.03249996155500412 -0.10585000365972519
v -0.002649961970746517 0.03249996155500412 -0.10324999690055847
v -0.0009999870089814067 0.03249996155500412 -0.08414994925260544
v -0.0009999870089814067 0.03249996155500412 -0.10585000365972519
v -0.0009999870089814067 0.03249996155500412 -0.10585000365972519
v -0.0009999870089814067 0.03249996155500412 -0.08414994925260544
v 0.0018499490106478333 0.03249996155500412 -0.08699995279312134
v -0.029313979670405388 -0.03249996155500412 -0.16396400332450867
v -0.028509970754384995 -0.03249996155500412 -0.15915599465370178
v -0.0295219998806715 -0.03269999846816063 -0.16266299784183502
v -0.002649961970746517 -0.03249996155500412 -0.15974999964237213
v -0.029313979670405388 -0.03249996155500412 -0.16396400332450867
v -0.02772694081068039 -0.03249996155500412 -0.16694800555706024
v -0.025787940248847008 -0.03249996155500412 -0.157150000333786
v -0.002649961970746517 -0.03249996155500412 -0.15974999964237213
v -0.0009999870089814067 -0.03249996155500412 -0.157150000333786
v -0.002649961970746517 -0.03249996155500412 -0.15974999964237213
v -0.028509970754384995 -0.03249996155500412 -0.15915599465370178
v -0.029313979670405388 -0.03249996155500412 -0.16396400332450867
v -0.028509970754384995 -0.03249996155500412 -0.15915599465370178
v -0.025787940248847008 -0.03249996155500412 -0.157150000333786
v -0.02701997011899948 -0.03269999846816063 -0.15726499259471893
v -0.028509970754384995 -0.03249996155500412 -0.15915599465370178
v -0.002649961970746517 -0.03249996155500412 -0.15974999964237213
v -0.025787940248847008 -0.03249996155500412 -0.157150000333786
v -0.02701997011899948 -0.03269999846816063 -0.17873500287532806
v -0.025787940248847008 -0.03249996155500412 -0.17884990572929382
v -0.028034979477524757 -0.03269999846816063 -0.1779869943857193
v -0.025787940248847008 -0.03249996155500412 -0.17884990572929382
v -0.029313979670405388 -0.03249996155500412 -0.17203600704669952
v -0.028034979477524757 -0.03269999846816063 -0.1779869943857193
v -0.025787940248847008 -0.03249996155500412 -0.17884990572929382
v -0.0009999870089814067 -0.03249996155500412 -0.17884990572929382
v -0.029313979670405388 -0.03249996155500412 -0.17203600704669952
v -0.02772694081068039 -0.03249996155500412 -0.16694800555706024
v -0.02772694081068039 -0.03249996155500412 -0.16905200481414795
v -0.002649961970746517 -0.03249996155500412 -0.15974999964237213
v -0.02772694081068039 -0.03249996155500412 -0.16905200481414795
v -0.0009999870089814067 -0.03249996155500412 -0.17884990572929382
v -0.002649961970746517 -0.03249996155500412 -0.15974999964237213
v -0.02772694081068039 -0.03249996155500412 -0.16905200481414795
v -0.029313979670405388 -0.03249996155500412 -0.17203600704669952
v -0.0009999870089814067 -0.03249996155500412 -0.17884990572929382
v -0.0009999870089814067 -0.03249996155500412 -0.17884990572929382
v 0.0015979399904608727 -0.03269999846816063 -0.17749999463558197
v 0.0018499490106478333 -0.03249996155500412 -0.17599989473819733
v 0.0005000000237487257 -0.03269999846816063 -0.15740199387073517
v -0.0009999870089814067 -0.03249996155500412 -0.157150000333786
v 0.0018499490106478333 -0.03249996155500412 -0.1599999964237213
v -0.002649961970746517 -0.03249996155500412 -0.15974999964237213
v -0.0009999870089814067 -0.03249996155500412 -0.17884990572929382
v -0.0009999870089814067 -0.03249996155500412 -0.157150000333786
v 0.0018499490106478333 -0.03249996155500412 -0.17599989473819733
v 0.0018499490106478333 -0.03249996155500412 -0.1599999964237213
v -0.0009999870089814067 -0.03249996155500412 -0.17884990572929382
v 0.0018499490106478333 -0.03249996155500412 -0.1599999964237213
v -0.0009999870089814067 -0.03249996155500412 -0.157150000333786
v -0.0009999870089814067 -0.03249996155500412 -0.17884990572929382
vt 0.6835600137710571 0.4725329875946045
vt 0.7211560010910034 0.4670819938182831
vt 0.6936990022659302 0.47411099076271057
vt 0.7186949849128723 0.28137099742889404
vt 0.7391260266304016 0.26969900727272034
vt 0.7370409965515137 0.4476740062236786
vt 0.6835600137710571 0.4725329875946045
vt 0.7186949849128723 0.28137099742889404
vt 0.7211560010910034 0.4670819938182831
vt 0.7186949849128723 0.28137099742889404
vt 0.6439859867095947 0.4607979953289032
vt 0.5697609782218933 0.2682340145111084
vt 0.7211560010910034 0.4670819938182831
vt 0.7370409965515137 0.4476740062236786
vt 0.7360399961471558 0.45651501417160034
vt 0.7211560010910034 0.4670819938182831
vt 0.7186949849128723 0.28137099742889404
vt 0.7370409965515137 0.4476740062236786
vt 0.6205639839172363 0.4719879925251007
vt 0.5697609782218933 0.2682340145111084
vt 0.6439859867095947 0.4607979953289032
vt 0.6205639839172363 0.4719879925251007
vt 0.5676760077476501 0.44620800018310547
vt 0.5697609782218933 0.2682340145111084
vt 0.6205639839172363 0.4719879925251007
vt 0.5742189884185791 0.46240100264549255
vt 0.5676760077476501 0.44620800018310547
vt 0.5742189884185791 0.46240100264549255
vt 0.5684689879417419 0.4550650119781494
vt 0.5676760077476501 0.44620800018310547
vt 0.7186949849128723 0.28137099742889404
vt 0.6604049801826477 0.46094000339508057
vt 0.6439859867095947 0.4607979953289032
vt 0.7186949849128723 0.28137099742889404
vt 0.6835600137710571 0.4725329875946045
vt 0.6604049801826477 0.46094000339508057
vt 0.581089973449707 0.25060901045799255
vt 0.592244029045105 0.24796299636363983
vt 0.5697609782218933 0.2682340145111084
vt 0.7171220183372498 0.2490440011024475
vt 0.7391260266304016 0.26969900727272034
vt 0.592244029045105 0.24796299636363983
vt 0.7171220183372498 0.2490440011024475
vt 0.7288079857826233 0.2509540021419525
vt 0.7391260266304016 0.26969900727272034
vt 0.7186949849128723 0.28137099742889404
vt 0.5697609782218933 0.2682340145111084
vt 0.7391260266304016 0.26969900727272034
vt 0.7391260266304016 0.26969900727272034
vt 0.5697609782218933 0.2682340145111084
vt 0.592244029045105 0.24796299636363983
vt 0.5091850161552429 0.4735279977321625
vt 0.5469670295715332 0.4674279987812042
vt 0.5194439888000488 0.4749299883842468
vt 0.5400969982147217 0.28179600834846497
vt 0.5091850161552429 0.4735279977321625
vt 0.48555898666381836 0.46233800053596497
vt 0.5625280141830444 0.44774800539016724
vt 0.5400969982147217 0.28179600834846497
vt 0.5604259967803955 0.2697739899158478
vt 0.5400969982147217 0.28179600834846497
vt 0.5469670295715332 0.4674279987812042
vt 0.5091850161552429 0.4735279977321625
vt 0.5469670295715332 0.4674279987812042
vt 0.5625280141830444 0.44774800539016724
vt 0.561726987361908 0.45660400390625
vt 0.5469670295715332 0.4674279987812042
vt 0.5400969982147217 0.28179600834846497
vt 0.5625280141830444 0.44774800539016724
vt 0.3927069902420044 0.4580540060997009
vt 0.3916969895362854 0.44921401143074036
vt 0.39868101477622986 0.46529000997543335
vt 0.3916969895362854 0.44921401143074036
vt 0.4456380009651184 0.47407299280166626
vt 0.39868101477622986 0.46529000997543335
vt 0.3916969895362854 0.44921401143074036
vt 0.38959500193595886 0.2712390124797821
vt 0.4456380009651184 0.47407299280166626
vt 0.48555898666381836 0.46233800053596497
vt 0.46899500489234924 0.46248000860214233
vt 0.5400969982147217 0.28179600834846497
vt 0.46899500489234924 0.46248000860214233
vt 0.38959500193595886 0.2712390124797821
vt 0.5400969982147217 0.28179600834846497
vt 0.46899500489234924 0.46248000860214233
vt 0.4456380009651184 0.47407299280166626
vt 0.38959500193595886 0.2712390124797821
vt 0.38959500193595886 0.2712390124797821
vt 0.40000200271606445 0.2524940073490143
vt 0.4117890000343323 0.2505840063095093
vt 0.5583149790763855 0.25902101397514343
vt 0.5604259967803955 0.2697739899158478
vt 0.5377479791641235 0.2495030015707016
vt 0.5400969982147217 0.28179600834846497
vt 0.38959500193595886 0.2712390124797821
vt 0.5604259967803955 0.2697739899158478
vt 0.4117890000343323 0.2505840063095093
vt 0.5377479791641235 0.2495030015707016
vt 0.38959500193595886 0.2712390124797821
vt 0.5377479791641235 0.2495030015707016
vt 0.5604259967803955 0.2697739899158478
vt 0.38959500193595886 0.2712390124797821
vn 0.4242714874832895 0.902751491189348 0.07094681151486325
vn 0.4242714874832895 0.902751491189348 0.07094681151486325
vn 0.4242714874832895 0.902751491189348 0.07094681151486325
vn 0 0.9999999999983686 0.000001806320028660375
vn 0 0.9999999999983686 0.000001806320028660375
vn 0 0.9999999999983686 0.000001806320028660375
vn 0 0.999999999999565 9.32722002744007e-7
vn 0 0.999999999999565 9.32722002744007e-7
vn 0 0.999999999999565 9.32722002744007e-7
vn 0 1 0
vn 0 1 0
vn 0 1 0
vn 0.17738089150403089 0.9542554120399122 0.2406919772692324
vn 0.17738089150403089 0.9542554120399122 0.2406919772692324
vn 0.17738089150403089 0.9542554120399122 0.2406919772692324
vn 0 0.9999999999976319 -0.0000021763100903575226
vn 0 0.9999999999976319 -0.0000021763100903575226
vn 0 0.9999999999976319 -0.0000021763100903575226
vn 0 1 0
vn 0 1 0
vn 0 1 0
vn 0 1 0
vn 0 1 0
vn 0 1 0
vn 0.11022530005256952 0.992268644804606 -0.0570378800969283
vn 0.11022530005256952 0.992268644804606 -0.0570378800969283
vn 0.11022530005256952 0.992268644804606 -0.0570378800969283
vn 0.17738040179342 0.9542549461112584 -0.24069418539259352
vn 0.17738040179342 0.9542549461112584 -0.24069418539259352
vn 0.17738040179342 0.9542549461112584 -0.24069418539259352
vn 0 1 0
vn 0 1 0
vn 0 1 0
vn 0 0.9999999999997724 -6.748470013916004e-7
vn 0 0.9999999999997724 -6.748470013916004e-7
vn 0 0.9999999999997724 -6.748470013916004e-7
vn 0 0.9999999999880174 -0.000004895439815241391
vn 0 0.9999999999880174 -0.000004895439815241391
vn 0 0.9999999999880174 -0.000004895439815241391
vn 0 1 0
vn 0 1 0
vn 0 1 0
vn -0.15629191666976663 0.9752663355434742 0.156295910180959
vn -0.15629191666976663 0.9752663355434742 0.156295910180959
vn -0.15629191666976663 0.9752663355434742 0.156295910180959
vn 0 1 0
vn 0 1 0
vn 0 1 0
vn 0 1 0
vn 0 1 0
vn 0 1 0
vn 0.4245683582313325 -0.9026061959431173 -0.0710194637676582
vn 0.42456835643409574 -0.9026061921223026 -0.07101952307167127
vn 0.42456835643409574 -0.9026061921223026 -0.07101952307167127
vn 0 -0.9999999999997724 6.748470013916004e-7
vn 0 -0.9999999999997724 6.748470013916004e-7
vn 0 -0.9999999999997724 6.748470013916004e-7
vn 0 -0.9999999999993627 -0.0000011289499752812927
vn 0 -0.9999999999993627 -0.0000011289499752812927
vn 0 -0.9999999999993627 -0.0000011289499752812927
vn 0 -0.9999999999997553 -6.995400099183933e-7
vn 0 -0.9999999999997553 -6.995400099183933e-7
vn 0 -0.9999999999997553 -6.995400099183933e-7
vn 0.17737881586800608 -0.9542565209938653 -0.24068911031026874
vn 0.17737881586800608 -0.9542565209938653 -0.24068911031026874
vn 0.17737881586800608 -0.9542565209938653 -0.24068911031026874
vn 0 -0.9999999999976319 0.000002176320094799242
vn 0 -0.9999999999976319 0.000002176320094799242
vn 0 -0.9999999999976319 0.000002176320094799242
vn 0.17738531577187702 -0.9542552854225633 0.24068921868586843
vn 0.17738531577187702 -0.9542552854225633 0.24068921868586843
vn 0.17738531577187702 -0.9542552854225633 0.24068921868586843
vn 0.1102249030755566 -0.9922686855385117 0.05703793861683989
vn 0.1102249030755566 -0.9922686855385117 0.05703793861683989
vn 0.1102249030755566 -0.9922686855385117 0.05703793861683989
vn 0 -1 0
vn 0 -1 0
vn 0 -1 0
vn 0 -1 0
vn 0 -1 0
vn 0 -1 0
vn 0 -1 0
vn 0 -1 0
vn 0 -1 0
vn 0 -0.9999999999992539 0.0000012215300557718346
vn 0 -0.9999999999992539 0.0000012215300557718346
vn 0 -0.9999999999992539 0.0000012215300557718346
vn -0.1562927104062992 -0.9752662411381203 0.15629570553976962
vn -0.1562927104062992 -0.9752662411381203 0.15629570553976962
vn -0.1562927104062992 -0.9752662411381203 0.15629570553976962
vn -0.15629169462295733 -0.9752664043247724 -0.15629570303534857
vn -0.15629169462295733 -0.9752664043247724 -0.15629570303534857
vn -0.15629169462295733 -0.9752664043247724 -0.15629570303534857
vn 0 -1 0
vn 0 -1 0
vn 0 -1 0
vn 0 -1 0
vn 0 -1 0
vn 0 -1 0
vn 0 -1 0
vn 0 -1 0
vn 0 -1 0
f 1/1/1 2/2/2 3/3/3
f 4/4/4 5/5/5 6/6/6
f 7/7/7 8/8/8 9/9/9
f 10/10/10 11/11/11 12/12/12
f 13/13/13 14/14/14 15/15/15
f 16/16/16 17/17/17 18/18/18
f 19/19/19 20/20/20 21/21/21
f 22/22/22 23/23/23 24/24/24
f 25/25/25 26/26/26 27/27/27
f 28/28/28 29/29/29 30/30/30
f 31/31/31 32/32/32 33/33/33
f 34/34/34 35/35/35 36/36/36
f 37/37/37 38/38/38 39/39/39
f 40/40/40 41/41/41 42/42/42
f 43/43/43 44/44/44 45/45/45
f 46/46/46 47/47/47 48/48/48
f 49/49/49 50/50/50 51/51/51
f 52/52/52 53/53/53 54/54/54
f 55/55/55 56/56/56 57/57/57
f 58/58/58 59/59/59 60/60/60
f 61/61/61 62/62/62 63/63/63
f 64/64/64 65/65/65 66/66/66
f 67/67/67 68/68/68 69/69/69
f 70/70/70 71/71/71 72/72/72
f 73/73/73 74/74/74 75/75/75
f 76/76/76 77/77/77 78/78/78
f 79/79/79 80/80/80 81/81/81
f 82/82/82 83/83/83 84/84/84
f 85/85/85 86/86/86 87/87/87
f 88/88/88 89/89/89 90/90/90
f 91/91/91 92/92/92 93/93/93
f 94/94/94 95/95/95 96/96/96
f 97/97/97 98/98/98 99/99/99
f 100/100/100 101/101/101 102/102/102
