o shinLeft
usemtl hipRollRight1:phong1SG
v -0.029313979670405388 -0.03249996155500412 -0.09903597086668015
v -0.0295219998806715 -0.03269999846816063 -0.10033699870109558
v -0.028509970754384995 -0.03249996155500412 -0.10384400188922882
v -0.002649961970746517 -0.03249996155500412 -0.10324999690055847
v -0.025787940248847008 -0.03249996155500412 -0.10585000365972519
v -0.0009999870089814067 -0.03249996155500412 -0.10585000365972519
v -0.029313979670405388 -0.03249996155500412 -0.09903597086668015
v -0.028509970754384995 -0.03249996155500412 -0.10384400188922882
v -0.002649961970746517 -0.03249996155500412 -0.10324999690055847
v -0.002649961970746517 -0.03249996155500412 -0.10324999690055847
v -0.0009999870089814067 -0.03249996155500412 -0.08414994925260544
v -0.02772694081068039 -0.03249996155500412 -0.09394799917936325
v -0.028509970754384995 -0.03249996155500412 -0.10384400188922882
v -0.02701997011899948 -0.03269999846816063 -0.10573499649763107
v -0.025787940248847008 -0.03249996155500412 -0.10585000365972519
v -0.028509970754384995 -0.03249996155500412 -0.10384400188922882
v -0.025787940248847008 -0.03249996155500412 -0.10585000365972519
v -0.002649961970746517 -0.03249996155500412 -0.10324999690055847
v -0.029313979670405388 -0.03249996155500412 -0.0909639522433281
v -0.02772694081068039 -0.03249996155500412 -0.09394799917936325
v -0.0009999870089814067 -0.03249996155500412 -0.08414994925260544
v -0.029313979670405388 -0.03249996155500412 -0.0909639522433281
v -0.0009999870089814067 -0.03249996155500412 -0.08414994925260544
v -0.025787940248847008 -0.03249996155500412 -0.08414994925260544
v -0.029313979670405388 -0.03249996155500412 -0.0909639522433281
v -0.025787940248847008 -0.03249996155500412 -0.08414994925260544
v -0.028034979477524757 -0.03269999846816063 -0.08501195162534714
v -0.028034979477524757 -0.03269999846816063 -0.08501195162534714
v -0.025787940248847008 -0.03249996155500412 -0.08414994925260544
v -0.02701997011899948 -0.03269999846816063 -0.08426499366760254
v -0.002649961970746517 -0.03249996155500412 -0.10324999690055847
v -0.02772694081068039 -0.03249996155500412 -0.09394799917936325
v -0.02772694081068039 -0.03249996155500412 -0.09605199098587036
v -0.002649961970746517 -0.03249996155500412 -0.10324999690055847
v -0.02772694081068039 -0.03249996155500412 -0.09605199098587036
v -0.029313979670405388 -0.03249996155500412 -0.09903597086668015
v 0.0014679429586976767 -0.03249996155500412 -0.08557497709989548
v -0.0009999870089814067 -0.03249996155500412 -0.08414994925260544
v 0.0018499490106478333 -0.03249996155500412 -0.08699995279312134
v 0.0018499490106478333 -0.03249996155500412 -0.10300000011920929
v 0.0018499490106478333 -0.03249996155500412 -0.08699995279312134
v -0.0009999870089814067 -0.03249996155500412 -0.10585000365972519
v 0.0018499490106478333 -0.03249996155500412 -0.10300000011920929
v -0.0009999870089814067 -0.03249996155500412 -0.10585000365972519
v 0.0015979399904608727 -0.03269999846816063 -0.10450000315904617
v -0.002649961970746517 -0.03249996155500412 -0.10324999690055847
v -0.0009999870089814067 -0.03249996155500412 -0.10585000365972519
v -0.0009999870089814067 -0.03249996155500412 -0.08414994925260544
v -0.0009999870089814067 -0.03249996155500412 -0.10585000365972519
v 0.0018499490106478333 -0.03249996155500412 -0.08699995279312134
v -0.0009999870089814067 -0.03249996155500412 -0.08414994925260544
v -0.029313979670405388 0.03249996155500412 -0.16396400332450867
v -0.0295219998806715 0.03269999846816063 -0.16266299784183502
v -0.028509970754384995 0.03249996155500412 -0.15915599465370178
v -0.002649961970746517 0.03249996155500412 -0.15974999964237213
v -0.02772694081068039 0.03249996155500412 -0.16694800555706024
v -0.029313979670405388 0.03249996155500412 -0.16396400332450867
v -0.025787940248847008 0.03249996155500412 -0.157150000333786
v -0.0009999870089814067 0.03249996155500412 -0.157150000333786
v -0.002649961970746517 0.03249996155500412 -0.15974999964237213
v -0.002649961970746517 0.03249996155500412 -0.15974999964237213
v -0.029313979670405388 0.03249996155500412 -0.16396400332450867
v -0.028509970754384995 0.03249996155500412 -0.15915599465370178
v -0.028509970754384995 0.03249996155500412 -0.15915599465370178
v -0.02701997011899948 0.03269999846816063 -0.15726499259471893
v -0.025787940248847008 0.03249996155500412 -0.157150000333786
v -0.028509970754384995 0.03249996155500412 -0.15915599465370178
v -0.025787940248847008 0.03249996155500412 -0.157150000333786
v -0.002649961970746517 0.03249996155500412 -0.15974999964237213
v -0.02701997011899948 0.03269999846816063 -0.17873500287532806
v -0.028034979477524757 0.03269999846816063 -0.1779869943857193
v -0.025787940248847008 0.03249996155500412 -0.17884990572929382
v -0.025787940248847008 0.03249996155500412 -0.17884990572929382
v -0.028034979477524757 0.03269999846816063 -0.1779869943857193
v -0.029313979670405388 0.03249996155500412 -0.17203600704669952
v -0.025787940248847008 0.03249996155500412 -0.17884990572929382
v -0.029313979670405388 0.03249996155500412 -0.17203600704669952
v -0.0009999870089814067 0.03249996155500412 -0.17884990572929382
v -0.02772694081068039 0.03249996155500412 -0.16694800555706024
v -0.002649961970746517 0.03249996155500412 -0.15974999964237213
v -0.02772694081068039 0.03249996155500412 -0.16905200481414795
v -0.02772694081068039 0.03249996155500412 -0.16905200481414795
v -0.002649961970746517 0.03249996155500412 -0.15974999964237213
v -0.0009999870089814067 0.03249996155500412 -0.17884990572929382
v -0.02772694081068039 0.03249996155500412 -0.16905200481414795
v -0.0009999870089814067 0.03249996155500412 -0.17884990572929382
v -0.029313979670405388 0.03249996155500412 -0.17203600704669952
v -0.0009999870089814067 0.03249996155500412 -0.17884990572929382
v 0.0018499490106478333 0.03249996155500412 -0.17599989473819733
v 0.0015979399904608727 0.03269999846816063 -0.17749999463558197
v 0.0005000000237487257 0.03269999846816063 -0.15740199387073517
v 0.0018499490106478333 0.03249996155500412 -0.1599999964237213
v -0.0009999870089814067 0.03249996155500412 -0.157150000333786
v -0.002649961970746517 0.03249996155500412 -0.15974999964237213
v -0.0009999870089814067 0.03249996155500412 -0.157150000333786
v -0.0009999870089814067 0.03249996155500412 -0.17884990572929382
v 0.0018499490106478333 0.03249996155500412 -0.17599989473819733
v -0.0009999870089814067 0.03249996155500412 -0.17884990572929382
v 0.0018499490106478333 0.03249996155500412 -0.1599999964237213
v 0.0018499490106478333 0.03249996155500412 -0.1599999964237213
v -0.0009999870089814067 0.03249996155500412 -0.17884990572929382
v -0.0009999870089814067 0.03249996155500412 -0.157150000333786
vt 0.09157799929380417 0.47471699118614197
vt 0.08146195858716965 0.47618401050567627
vt 0.054219961166381836 0.4689129889011383
vt 0.05917996168136597 0.2841799855232239
vt 0.03866695985198021 0.4494430124759674
vt 0.038994960486888885 0.27236101031303406
vt 0.09157799929380417 0.47471699118614197
vt 0.054219961166381836 0.4689129889011383
vt 0.05917996168136597 0.2841799855232239
vt 0.05917996168136597 0.2841799855232239
vt 0.20763899385929108 0.2726210057735443
vt 0.13113699853420258 0.4634439945220947
vt 0.054219961166381836 0.4689129889011383
vt 0.03954397886991501 0.4582490026950836
vt 0.03866695985198021 0.4494430124759674
vt 0.054219961166381836 0.4689129889011383
vt 0.03866695985198021 0.4494430124759674
vt 0.05917996168136597 0.2841799855232239
vt 0.15430590510368347 0.4748139977455139
vt 0.13113699853420258 0.4634439945220947
vt 0.20763899385929108 0.2726210057735443
vt 0.15430590510368347 0.4748139977455139
vt 0.20763899385929108 0.2726210057735443
vt 0.2073110044002533 0.44970300793647766
vt 0.15430590510368347 0.4748139977455139
vt 0.2073110044002533 0.44970300793647766
vt 0.2005780041217804 0.46574699878692627
vt 0.2005780041217804 0.46574699878692627
vt 0.2073110044002533 0.44970300793647766
vt 0.2064020037651062 0.4585059881210327
vt 0.05917996168136597 0.2841799855232239
vt 0.13113699853420258 0.4634439945220947
vt 0.11478900164365768 0.46341899037361145
vt 0.05917996168136597 0.2841799855232239
vt 0.11478900164365768 0.46341899037361145
vt 0.09157799929380417 0.47471699118614197
vt 0.1965979039669037 0.2549709975719452
vt 0.20763899385929108 0.2726210057735443
vt 0.1855279952287674 0.2522270083427429
vt 0.06118195876479149 0.252034991979599
vt 0.1855279952287674 0.2522270083427429
vt 0.038994960486888885 0.27236101031303406
vt 0.06118195876479149 0.252034991979599
vt 0.038994960486888885 0.27236101031303406
vt 0.049520958214998245 0.25381699204444885
vt 0.05917996168136597 0.2841799855232239
vt 0.038994960486888885 0.27236101031303406
vt 0.20763899385929108 0.2726210057735443
vt 0.038994960486888885 0.27236101031303406
vt 0.1855279952287674 0.2522270083427429
vt 0.20763899385929108 0.2726210057735443
vt 0.2667100131511688 0.4745439887046814
vt 0.2566019892692566 0.4760420024394989
vt 0.22933390736579895 0.46885499358177185
vt 0.23360690474510193 0.2841080129146576
vt 0.28988000750541687 0.4631749987602234
vt 0.2667100131511688 0.4745439887046814
vt 0.21370799839496613 0.44943299889564514
vt 0.21337899565696716 0.272352010011673
vt 0.23360690474510193 0.2841080129146576
vt 0.23360690474510193 0.2841080129146576
vt 0.2667100131511688 0.4745439887046814
vt 0.22933390736579895 0.46885499358177185
vt 0.22933390736579895 0.46885499358177185
vt 0.2146179974079132 0.4582360088825226
vt 0.21370799839496613 0.44943299889564514
vt 0.22933390736579895 0.46885499358177185
vt 0.21370799839496613 0.44943299889564514
vt 0.23360690474510193 0.2841080129146576
vt 0.3814750015735626 0.4579789936542511
vt 0.3756749927997589 0.4652380049228668
vt 0.38235199451446533 0.4491730034351349
vt 0.38235199451446533 0.4491730034351349
vt 0.3756749927997589 0.4652380049228668
vt 0.3294430077075958 0.47444799542427063
vt 0.38235199451446533 0.4491730034351349
vt 0.3294430077075958 0.47444799542427063
vt 0.38202300667762756 0.27209100127220154
vt 0.28988000750541687 0.4631749987602234
vt 0.23360690474510193 0.2841080129146576
vt 0.30623099207878113 0.4631490111351013
vt 0.30623099207878113 0.4631490111351013
vt 0.23360690474510193 0.2841080129146576
vt 0.38202300667762756 0.27209100127220154
vt 0.30623099207878113 0.4631490111351013
vt 0.38202300667762756 0.27209100127220154
vt 0.3294430077075958 0.47444799542427063
vt 0.38202300667762756 0.27209100127220154
vt 0.35983699560165405 0.25176501274108887
vt 0.3714970052242279 0.2535470128059387
vt 0.2153179943561554 0.2616330087184906
vt 0.23549099266529083 0.2519569993019104
vt 0.21337899565696716 0.272352010011673
vt 0.23360690474510193 0.2841080129146576
vt 0.21337899565696716 0.272352010011673
vt 0.38202300667762756 0.27209100127220154
vt 0.35983699560165405 0.25176501274108887
vt 0.38202300667762756 0.27209100127220154
vt 0.23549099266529083 0.2519569993019104
vt 0.23549099266529083 0.2519569993019104
vt 0.38202300667762756 0.27209100127220154
vt 0.21337899565696716 0.272352010011673
vn 0.42456438984339484 -0.9026076165071627 0.07102513287678215
vn 0.4245643916407568 -0.9026076203282853 0.07102507357281698
vn 0.4245643916407568 -0.9026076203282853 0.07102507357281698
vn 0 -0.9999999999983686 0.000001806320028660375
vn 0 -0.9999999999983686 0.000001806320028660375
vn 0 -0.9999999999983686 0.000001806320028660375
vn 0 -0.999999999999565 9.32722002744007e-7
vn 0 -0.999999999999565 9.32722002744007e-7
vn 0 -0.999999999999565 9.32722002744007e-7
vn 0 -1 0
vn 0 -1 0
vn 0 -1 0
vn 0.17738089150403089 -0.9542554120399122 0.2406919772692324
vn 0.17738089150403089 -0.9542554120399122 0.2406919772692324
vn 0.17738089150403089 -0.9542554120399122 0.2406919772692324
vn 0 -0.9999999999976319 -0.0000021763100903575226
vn 0 -0.9999999999976319 -0.0000021763100903575226
vn 0 -0.9999999999976319 -0.0000021763100903575226
vn 0 -1 0
vn 0 -1 0
vn 0 -1 0
vn 0 -1 0
vn 0 -1 0
vn 0 -1 0
vn 0.11019390500077184 -0.9922730633303255 -0.05702167210572584
vn 0.11019390500077184 -0.9922730633303255 -0.05702167210572584
vn 0.11019390500077184 -0.9922730633303255 -0.05702167210572584
vn 0.1773143884590411 -0.9542579795501555 -0.24073079593240945
vn 0.1773143884590411 -0.9542579795501555 -0.24073079593240945
vn 0.1773143884590411 -0.9542579795501555 -0.24073079593240945
vn 0 -1 0
vn 0 -1 0
vn 0 -1 0
vn 0 -0.9999999999997724 -6.748470013916004e-7
vn 0 -0.9999999999997724 -6.748470013916004e-7
vn 0 -0.9999999999997724 -6.748470013916004e-7
vn 0 -0.9999999999880174 -0.000004895439815241391
vn 0 -0.9999999999880174 -0.000004895439815241391
vn 0 -0.9999999999880174 -0.000004895439815241391
vn 0 -1 0
vn 0 -1 0
vn 0 -1 0
vn -0.15629191666976663 -0.9752663355434742 0.156295910180959
vn -0.15629191666976663 -0.9752663355434742 0.156295910180959
vn -0.15629191666976663 -0.9752663355434742 0.156295910180959
vn 0 -1 0
vn 0 -1 0
vn 0 -1 0
vn 0 -1 0
vn 0 -1 0
vn 0 -1 0
vn 0.42456835643409574 0.9026061921223026 -0.07101952307167127
vn 0.4245683073490256 0.9026062144862743 -0.07101953228191052
vn 0.4245683582313325 0.9026061959431173 -0.0710194637676582
vn 0 0.9999999999997724 6.748470013916004e-7
vn 0 0.9999999999997724 6.748470013916004e-7
vn 0 0.9999999999997724 6.748470013916004e-7
vn 0 0.9999999999993627 -0.0000011289499752812927
vn 0 0.9999999999993627 -0.0000011289499752812927
vn 0 0.9999999999993627 -0.0000011289499752812927
vn 0 0.9999999999997553 -6.995400099183933e-7
vn 0 0.9999999999997553 -6.995400099183933e-7
vn 0 0.9999999999997553 -6.995400099183933e-7
vn 0.17737881586800608 0.9542565209938653 -0.24068911031026874
vn 0.17737881586800608 0.9542565209938653 -0.24068911031026874
vn 0.17737881586800608 0.9542565209938653 -0.24068911031026874
vn 0 0.9999999999976319 0.000002176320094799242
vn 0 0.9999999999976319 0.000002176320094799242
vn 0 0.9999999999976319 0.000002176320094799242
vn 0.17738531577187702 0.9542552854225633 0.24068921868586843
vn 0.17738531577187702 0.9542552854225633 0.24068921868586843
vn 0.17738531577187702 0.9542552854225633 0.24068921868586843
vn 0.1102249030755566 0.9922686855385117 0.05703793861683989
vn 0.1102249030755566 0.9922686855385117 0.05703793861683989
vn 0.1102249030755566 0.9922686855385117 0.05703793861683989
vn 0 1 0
vn 0 1 0
vn 0 1 0
vn 0 1 0
vn 0 1 0
vn 0 1 0
vn 0 1 0
vn 0 1 0
vn 0 1 0
vn 0 0.9999999999992539 0.0000012215300557718346
vn 0 0.9999999999992539 0.0000012215300557718346
vn 0 0.9999999999992539 0.0000012215300557718346
vn -0.1562927104062992 0.9752662411381203 0.15629570553976962
vn -0.1562927104062992 0.9752662411381203 0.15629570553976962
vn -0.1562927104062992 0.9752662411381203 0.15629570553976962
vn -0.15629169462295733 0.9752664043247724 -0.15629570303534857
vn -0.15629169462295733 0.9752664043247724 -0.15629570303534857
vn -0.15629169462295733 0.9752664043247724 -0.15629570303534857
vn 0 1 0
vn 0 1 0
vn 0 1 0
vn 0 1 0
vn 0 1 0
vn 0 1 0
vn 0 1 0
vn 0 1 0
vn 0 1 0
f 1/1/1 2/2/2 3/3/3
f 4/4/4 5/5/5 6/6/6
f 7/7/7 8/8/8 9/9/9
f 10/10/10 11/11/11 12/12/12
f 13/13/13 14/14/14 15/15/15
f 16/16/16 17/17/17 18/18/18
f 19/19/19 20/20/20 21/21/21
f 22/22/22 23/23/23 24/24/24
f 25/25/25 26/26/26 27/27/27
f 28/28/28 29/29/29 30/30/30
f 31/31/31 32/32/32 33/33/33
f 34/34/34 35/35/35 36/36/36
f 37/37/37 38/38/38 39/39/39
f 40/40/40 41/41/41 42/42/42
f 43/43/43 44/44/44 45/45/45
f 46/46/46 47/47/47 48/48/48
f 49/49/49 50/50/50 51/51/51
f 52/52/52 53/53/53 54/54/54
f 55/55/55 56/56/56 57/57/57
f 58/58/58 59/59/59 60/60/60
f 61/61/61 62/62/62 63/63/63
f 64/64/64 65/65/65 66/66/66
f 67/67/67 68/68/68 69/69/69
f 70/70/70 71/71/71 72/72/72
f 73/73/73 74/74/74 75/75/75
f 76/76/76 77/77/77 78/78/78
f 79/79/79 80/80/80 81/81/81
f 82/82/82 83/83/83 84/84/84
f 85/85/85 86/86/86 87/87/87
f 88/88/88 89/89/89 90/90/90
f 91/91/91 92/92/92 93/93/93
f 94/94/94 95/95/95 96/96/96
f 97/97/97 98/98/98 99/99/99
f 100/100/100 101/101/101 102/102/102
