o shoulderRollLeft
usemtl shoulderRollLeft:set2
v -0.005299984943121672 -0.011836940422654152 0.022488949820399284
v -0.005399941932410002 -0.011399979703128338 0.021045979112386703
v -0.005299984943121672 -0.010342950001358986 0.020878970623016357
v -0.005299984943121672 -0.010342950001358986 0.020878970623016357
v -0.005399941932410002 -0.011399979703128338 0.021045979112386703
v -0.005399941932410002 -0.009105980396270752 0.0203859806060791
v -0.0030999770388007164 -0.007216989062726498 -0.023096969351172447
v -0.005399941932410002 -0.006820975802838802 -0.022942960262298584
v -0.0029999609105288982 -0.008404970169067383 -0.02108496055006981
v -0.0029999609105288982 -0.008404970169067383 -0.02108496055006981
v -0.005399941932410002 -0.006820975802838802 -0.022942960262298584
v -0.005399941932410002 -0.007975994609296322 -0.02085399068892002
v -0.0029999609105288982 -0.008404970169067383 -0.02108496055006981
v -0.005399941932410002 -0.007975994609296322 -0.02085399068892002
v -0.0029999609105288982 -0.010728949680924416 -0.02108496055006981
v -0.0029999609105288982 -0.010728949680924416 -0.02108496055006981
v -0.005399941932410002 -0.007975994609296322 -0.02085399068892002
v -0.005399941932410002 -0.011399979703128338 -0.021045979112386703
v -0.0029999609105288982 -0.010728949680924416 -0.02108496055006981
v -0.005399941932410002 -0.011399979703128338 -0.021045979112386703
v -0.0030999770388007164 -0.011916990391910076 -0.023096969351172447
v -0.0030999770388007164 -0.011916990391910076 -0.023096969351172447
v -0.005399941932410002 -0.011399979703128338 -0.021045979112386703
v -0.005299984943121672 -0.011916990391910076 -0.023096969351172447
v -0.0030999770388007164 -0.011916990391910076 -0.023096969351172447
v -0.005299984943121672 -0.011916990391910076 -0.023096969351172447
v -0.005299984943121672 -0.011031979694962502 -0.024933990091085434
v -0.0030999770388007164 -0.011916990391910076 -0.023096969351172447
v -0.005299984943121672 -0.011031979694962502 -0.024933990091085434
v -0.0030229680705815554 -0.010086949914693832 -0.025372980162501335
v -0.0030229680705815554 -0.010086949914693832 -0.025372980162501335
v -0.005299984943121672 -0.011031979694962502 -0.024933990091085434
v -0.005299984943121672 -0.008101998828351498 -0.024933990091085434
v -0.0030229680705815554 -0.010086949914693832 -0.025372980162501335
v -0.005299984943121672 -0.008101998828351498 -0.024933990091085434
v -0.0030229680705815554 -0.008111000061035156 -0.024921949952840805
v -0.0030229680705815554 -0.008111000061035156 -0.024921949952840805
v -0.005299984943121672 -0.008101998828351498 -0.024933990091085434
v -0.0030999770388007164 -0.007216989062726498 -0.023096969351172447
v -0.0030999770388007164 -0.007216989062726498 -0.023096969351172447
v -0.005299984943121672 -0.008101998828351498 -0.024933990091085434
v -0.005399941932410002 -0.006820975802838802 -0.022942960262298584
v -0.0030229680705815554 -0.010086949914693832 -0.025372980162501335
v -0.0030229680705815554 -0.008111000061035156 -0.024921949952840805
v -0.002899944083765149 -0.010666959919035435 -0.023616960272192955
v -0.0029999609105288982 -0.008404970169067383 -0.02108496055006981
v -0.002899944083765149 -0.008466958068311214 -0.023616960272192955
v -0.0030999770388007164 -0.007216989062726498 -0.023096969351172447
v -0.0030999770388007164 -0.007216989062726498 -0.023096969351172447
v -0.002899944083765149 -0.008466958068311214 -0.023616960272192955
v -0.0030229680705815554 -0.008111000061035156 -0.024921949952840805
v -0.0030229680705815554 -0.008111000061035156 -0.024921949952840805
v -0.002899944083765149 -0.008466958068311214 -0.023616960272192955
v -0.002899944083765149 -0.010666959919035435 -0.023616960272192955
v -0.002899944083765149 -0.008466958068311214 -0.023616960272192955
v -0.0029999609105288982 -0.008404970169067383 -0.02108496055006981
v -0.002899944083765149 -0.009666979312896729 -0.021884970366954803
v -0.002899944083765149 -0.009666979312896729 -0.021884970366954803
v -0.0029999609105288982 -0.008404970169067383 -0.02108496055006981
v -0.0029999609105288982 -0.010728949680924416 -0.02108496055006981
v -0.002899944083765149 -0.010666959919035435 -0.023616960272192955
v -0.0030999770388007164 -0.011916990391910076 -0.023096969351172447
v -0.0030229680705815554 -0.010086949914693832 -0.025372980162501335
v -0.0030999770388007164 -0.011916990391910076 -0.023096969351172447
v -0.002899944083765149 -0.009666979312896729 -0.021884970366954803
v -0.0029999609105288982 -0.010728949680924416 -0.02108496055006981
v -0.0030999770388007164 -0.011916990391910076 -0.023096969351172447
v -0.002899944083765149 -0.010666959919035435 -0.023616960272192955
v -0.002899944083765149 -0.009666979312896729 -0.021884970366954803
v -0.0030999770388007164 0.007231949828565121 -0.02283399924635887
v -0.005399941932410002 0.006820975802838802 -0.022942960262298584
v -0.0030999770388007164 0.007904945872724056 -0.024758990854024887
v -0.0030999770388007164 0.007904945872724056 -0.024758990854024887
v -0.005399941932410002 0.006820975802838802 -0.022942960262298584
v -0.005299984943121672 0.008958995342254639 -0.02536696009337902
v -0.0030999770388007164 0.007904945872724056 -0.024758990854024887
v -0.005299984943121672 0.008958995342254639 -0.02536696009337902
v -0.0029999609105288982 0.00896596908569336 -0.0253409706056118
v -0.0029999609105288982 0.00896596908569336 -0.0253409706056118
v -0.005299984943121672 0.008958995342254639 -0.02536696009337902
v -0.0029999609105288982 0.011209960095584393 -0.024739980697631836
v -0.0029999609105288982 0.011209960095584393 -0.024739980697631836
v -0.005299984943121672 0.008958995342254639 -0.02536696009337902
v -0.005399941932410002 0.010523970238864422 -0.02540694922208786
v -0.0029999609105288982 0.00896596908569336 -0.0253409706056118
v -0.0030999770388007164 0.007231949828565121 -0.02283399924635887
v -0.0030999770388007164 0.007904945872724056 -0.024758990854024887
v -0.0030999770388007164 0.0093039870262146 -0.02076195925474167
v -0.0030999770388007164 0.011836940422654152 -0.023705000057816505
v -0.0030999770388007164 0.011228970251977444 -0.021434960886836052
v -0.002899944083765149 0.009349942207336426 -0.024293949827551842
v -0.0029999609105288982 0.008466958068311214 -0.023339979350566864
v -0.0030999770388007164 0.007231949828565121 -0.02283399924635887
v -0.0030999770388007164 0.011836940422654152 -0.023705000057816505
v -0.002899944083765149 0.00978398323059082 -0.021899990737438202
v -0.002899944083765149 0.009349942207336426 -0.024293949827551842
v -0.0030999770388007164 0.011836940422654152 -0.023705000057816505
v -0.002899944083765149 0.009349942207336426 -0.024293949827551842
v -0.0029999609105288982 0.011209960095584393 -0.024739980697631836
v -0.0030999770388007164 0.011836940422654152 -0.023705000057816505
v -0.0030999770388007164 0.0093039870262146 -0.02076195925474167
v -0.002899944083765149 0.00978398323059082 -0.021899990737438202
v -0.002899944083765149 0.009349942207336426 -0.024293949827551842
v -0.0029999609105288982 0.00896596908569336 -0.0253409706056118
v -0.0029999609105288982 0.011209960095584393 -0.024739980697631836
v -0.0029999609105288982 0.00896596908569336 -0.0253409706056118
v -0.002899944083765149 0.009349942207336426 -0.024293949827551842
v -0.0030999770388007164 0.007231949828565121 -0.02283399924635887
v -0.0029999609105288982 0.008466958068311214 -0.023339979350566864
v -0.002899944083765149 0.00978398323059082 -0.021899990737438202
v -0.0030999770388007164 0.007231949828565121 -0.02283399924635887
v -0.0030999770388007164 0.007231949828565121 -0.02283399924635887
v -0.002899944083765149 0.00978398323059082 -0.021899990737438202
v -0.0030999770388007164 0.0093039870262146 -0.02076195925474167
v -0.0029999609105288982 0.008466958068311214 -0.023339979350566864
v -0.003999948035925627 0.009835957549512386 -0.022092990577220917
v -0.002899944083765149 0.00978398323059082 -0.021899990737438202
v -0.002899944083765149 0.009349942207336426 -0.024293949827551842
v -0.003999948035925627 0.010301940143108368 -0.023831959813833237
v -0.0029999609105288982 0.008466958068311214 -0.023339979350566864
v -0.0029999609105288982 0.008466958068311214 -0.023339979350566864
v -0.003999948035925627 0.010301940143108368 -0.023831959813833237
v -0.003999948035925627 0.009835957549512386 -0.022092990577220917
v -0.0030999770388007164 0.022076960653066635 -0.007449984084814787
v -0.005299984943121672 0.023096969351172447 -0.007216989062726498
v -0.005399941932410002 0.0203859806060791 -0.009105980396270752
v -0.0030999770388007164 0.022076960653066635 -0.007449984084814787
v -0.005399941932410002 0.0203859806060791 -0.009105980396270752
v -0.0030229680705815554 0.020820969715714455 -0.009047985076904297
v -0.0030229680705815554 0.020820969715714455 -0.009047985076904297
v -0.005399941932410002 0.0203859806060791 -0.009105980396270752
v -0.0030229680705815554 0.021271999925374985 -0.011022980324923992
v -0.0030229680705815554 0.021271999925374985 -0.011022980324923992
v -0.005399941932410002 0.0203859806060791 -0.009105980396270752
v -0.005399941932410002 0.020453980192542076 -0.010327990166842937
v -0.0030229680705815554 0.021271999925374985 -0.011022980324923992
v -0.005399941932410002 0.020453980192542076 -0.010327990166842937
v -0.005299984943121672 0.023096969351172447 -0.011916990391910076
v -0.0030229680705815554 0.021271999925374985 -0.011022980324923992
v -0.005299984943121672 0.023096969351172447 -0.011916990391910076
v -0.0030999770388007164 0.024116989225149155 -0.011683999560773373
v -0.0030999770388007164 0.024116989225149155 -0.011683999560773373
v -0.005299984943121672 0.023096969351172447 -0.011916990391910076
v -0.005299984943121672 0.02427195943892002 -0.011601979844272137
v -0.0030999770388007164 0.024116989225149155 -0.011683999560773373
v -0.005299984943121672 0.02427195943892002 -0.011601979844272137
v -0.005299984943121672 0.025446949526667595 -0.009566961787641048
v -0.0030999770388007164 0.024116989225149155 -0.011683999560773373
v -0.005299984943121672 0.025446949526667595 -0.009566961787641048
v -0.0030999770388007164 0.025388000532984734 -0.009043990634381771
v -0.0030999770388007164 0.025388000532984734 -0.009043990634381771
v -0.005299984943121672 0.025446949526667595 -0.009566961787641048
v -0.0030229680705815554 0.02410995028913021 -0.007463991176337004
v -0.0030229680705815554 0.02410995028913021 -0.007463991176337004
v -0.005299984943121672 0.025446949526667595 -0.009566961787641048
v -0.005299984943121672 0.023096969351172447 -0.007216989062726498
v -0.0030229680705815554 0.02410995028913021 -0.007463991176337004
v -0.005299984943121672 0.023096969351172447 -0.007216989062726498
v -0.0030999770388007164 0.022076960653066635 -0.007449984084814787
v -0.002899944083765149 0.02240394987165928 -0.00856697466224432
v -0.0030999770388007164 0.022076960653066635 -0.007449984084814787
v -0.0030229680705815554 0.020820969715714455 -0.009047985076904297
v -0.002899944083765149 0.02240394987165928 -0.00856697466224432
v -0.0030229680705815554 0.020820969715714455 -0.009047985076904297
v -0.002899944083765149 0.021884970366954803 -0.009666979312896729
v -0.0030229680705815554 0.02410995028913021 -0.007463991176337004
v -0.002899944083765149 0.023616960272192955 -0.008466958068311214
v -0.0030999770388007164 0.025388000532984734 -0.009043990634381771
v -0.002899944083765149 0.023616960272192955 -0.010666959919035435
v -0.0030999770388007164 0.024116989225149155 -0.011683999560773373
v -0.002899944083765149 0.023616960272192955 -0.008466958068311214
v -0.002899944083765149 0.023616960272192955 -0.008466958068311214
v -0.0030999770388007164 0.024116989225149155 -0.011683999560773373
v -0.0030999770388007164 0.025388000532984734 -0.009043990634381771
v -0.002899944083765149 0.021884970366954803 -0.009666979312896729
v -0.0030229680705815554 0.020820969715714455 -0.009047985076904297
v -0.0030229680705815554 0.021271999925374985 -0.011022980324923992
v -0.002899944083765149 0.021884970366954803 -0.009666979312896729
v -0.0030229680705815554 0.021271999925374985 -0.011022980324923992
v -0.0030999770388007164 0.024116989225149155 -0.011683999560773373
v -0.0030229680705815554 0.02410995028913021 -0.007463991176337004
v -0.002899944083765149 0.02240394987165928 -0.00856697466224432
v -0.002899944083765149 0.023616960272192955 -0.008466958068311214
v -0.0030999770388007164 0.022076960653066635 -0.007449984084814787
v -0.002899944083765149 0.02240394987165928 -0.00856697466224432
v -0.0030229680705815554 0.02410995028913021 -0.007463991176337004
v -0.0030999770388007164 0.024116989225149155 -0.011683999560773373
v -0.002899944083765149 0.023616960272192955 -0.010666959919035435
v -0.002899944083765149 0.021884970366954803 -0.009666979312896729
v -0.0030999770388007164 0.021434960886836052 0.011228970251977444
v -0.005399941932410002 0.020453980192542076 0.010327990166842937
v -0.0030999770388007164 0.02076195925474167 0.0093039870262146
v -0.0030999770388007164 0.02076195925474167 0.0093039870262146
v -0.005399941932410002 0.020453980192542076 0.010327990166842937
v -0.005399941932410002 0.02085399068892002 0.007975994609296322
v -0.0030999770388007164 0.02076195925474167 0.0093039870262146
v -0.005399941932410002 0.02085399068892002 0.007975994609296322
v -0.005299984943121672 0.0218469500541687 0.007576941978186369
v -0.0030999770388007164 0.02076195925474167 0.0093039870262146
v -0.005299984943121672 0.0218469500541687 0.007576941978186369
v -0.0030999770388007164 0.022488949820399284 0.007296978961676359
v -0.0030999770388007164 0.022488949820399284 0.007296978961676359
v -0.005299984943121672 0.0218469500541687 0.007576941978186369
v -0.005299984943121672 0.024758990854024887 0.007904945872724056
v -0.0030999770388007164 0.022488949820399284 0.007296978961676359
v -0.005299984943121672 0.024758990854024887 0.007904945872724056
v -0.0030999770388007164 0.024728000164031982 0.007874964736402035
v -0.0030999770388007164 0.024728000164031982 0.007874964736402035
v -0.005299984943121672 0.024758990854024887 0.007904945872724056
v -0.005399941932410002 0.02540694922208786 0.010523970238864422
v -0.0030999770388007164 0.024728000164031982 0.007874964736402035
v -0.005399941932410002 0.02540694922208786 0.010523970238864422
v -0.0030999770388007164 0.025086989626288414 0.01081699039787054
v -0.0030999770388007164 0.025086989626288414 0.01081699039787054
v -0.005399941932410002 0.02540694922208786 0.010523970238864422
v -0.005299984943121672 0.024346940219402313 0.011556980200111866
v -0.0030999770388007164 0.025086989626288414 0.01081699039787054
v -0.005299984943121672 0.024346940219402313 0.011556980200111866
v -0.0030999770388007164 0.023705000057816505 0.011836940422654152
v -0.0030999770388007164 0.023705000057816505 0.011836940422654152
v -0.005299984943121672 0.024346940219402313 0.011556980200111866
v -0.005299984943121672 0.022320980206131935 0.011784969829022884
v -0.0030999770388007164 0.023705000057816505 0.011836940422654152
v -0.005299984943121672 0.022320980206131935 0.011784969829022884
v -0.0030999770388007164 0.021434960886836052 0.011228970251977444
v -0.0030999770388007164 0.021434960886836052 0.011228970251977444
v -0.005299984943121672 0.022320980206131935 0.011784969829022884
v -0.005399941932410002 0.020453980192542076 0.010327990166842937
v -0.0030999770388007164 0.021434960886836052 0.011228970251977444
v -0.002899944083765149 0.021899990737438202 0.00978398323059082
v -0.0030999770388007164 0.023705000057816505 0.011836940422654152
v -0.0030999770388007164 0.023705000057816505 0.011836940422654152
v -0.002899944083765149 0.021899990737438202 0.00978398323059082
v -0.002899944083765149 0.024293949827551842 0.009349942207336426
v -0.002899944083765149 0.024293949827551842 0.009349942207336426
v -0.0030999770388007164 0.024728000164031982 0.007874964736402035
v -0.0030999770388007164 0.025086989626288414 0.01081699039787054
v -0.002899944083765149 0.024293949827551842 0.009349942207336426
v -0.0030999770388007164 0.025086989626288414 0.01081699039787054
v -0.0030999770388007164 0.023705000057816505 0.011836940422654152
v -0.002899944083765149 0.021899990737438202 0.00978398323059082
v -0.0030999770388007164 0.02076195925474167 0.0093039870262146
v -0.0030999770388007164 0.022488949820399284 0.007296978961676359
v -0.0030999770388007164 0.02076195925474167 0.0093039870262146
v -0.002899944083765149 0.021899990737438202 0.00978398323059082
v -0.0030999770388007164 0.021434960886836052 0.011228970251977444
v -0.0030999770388007164 0.024728000164031982 0.007874964736402035
v -0.002899944083765149 0.024293949827551842 0.009349942207336426
v -0.002899944083765149 0.023313989862799644 0.008369982242584229
v -0.0030999770388007164 0.024728000164031982 0.007874964736402035
v -0.002899944083765149 0.023313989862799644 0.008369982242584229
v -0.0030999770388007164 0.022488949820399284 0.007296978961676359
v -0.0030999770388007164 0.022488949820399284 0.007296978961676359
v -0.002899944083765149 0.023313989862799644 0.008369982242584229
v -0.002899944083765149 0.021899990737438202 0.00978398323059082
v -0.0030999770388007164 0.007449984084814787 0.022076960653066635
v -0.005399941932410002 0.006820975802838802 0.022942960262298584
v -0.005399941932410002 0.009105980396270752 0.0203859806060791
v -0.0030999770388007164 0.007449984084814787 0.022076960653066635
v -0.005399941932410002 0.009105980396270752 0.0203859806060791
v -0.0030999770388007164 0.009043990634381771 0.020805949345231056
v -0.0030999770388007164 0.009043990634381771 0.020805949345231056
v -0.005399941932410002 0.009105980396270752 0.0203859806060791
v -0.0030999770388007164 0.010741939768195152 0.02106194943189621
v -0.0030999770388007164 0.010741939768195152 0.02106194943189621
v -0.005399941932410002 0.009105980396270752 0.0203859806060791
v -0.005399941932410002 0.011399979703128338 0.021045979112386703
v -0.0030999770388007164 0.010741939768195152 0.02106194943189621
v -0.005399941932410002 0.011399979703128338 0.021045979112386703
v -0.0030999770388007164 0.011916990391910076 0.023096969351172447
v -0.0030999770388007164 0.011916990391910076 0.023096969351172447
v -0.005399941932410002 0.011399979703128338 0.021045979112386703
v -0.005299984943121672 0.011031979694962502 0.024933990091085434
v -0.0030999770388007164 0.011916990391910076 0.023096969351172447
v -0.005299984943121672 0.011031979694962502 0.024933990091085434
v -0.0030229680705815554 0.011022980324923992 0.024921949952840805
v -0.0030229680705815554 0.011022980324923992 0.024921949952840805
v -0.005299984943121672 0.011031979694962502 0.024933990091085434
v -0.0030229680705815554 0.009047985076904297 0.025372980162501335
v -0.0030229680705815554 0.009047985076904297 0.025372980162501335
v -0.005299984943121672 0.011031979694962502 0.024933990091085434
v -0.005299984943121672 0.009043990634381771 0.025388000532984734
v -0.0030229680705815554 0.009047985076904297 0.025372980162501335
v -0.005299984943121672 0.009043990634381771 0.025388000532984734
v -0.0030229680705815554 0.007463991176337004 0.02410995028913021
v -0.0030229680705815554 0.007463991176337004 0.02410995028913021
v -0.005299984943121672 0.009043990634381771 0.025388000532984734
v -0.005399941932410002 0.006820975802838802 0.022942960262298584
v -0.0030229680705815554 0.007463991176337004 0.02410995028913021
v -0.005399941932410002 0.006820975802838802 0.022942960262298584
v -0.0030999770388007164 0.007449984084814787 0.022076960653066635
v -0.0030229680705815554 0.007463991176337004 0.02410995028913021
v -0.002899944083765149 0.009466946125030518 0.02430897019803524
v -0.0030229680705815554 0.009047985076904297 0.025372980162501335
v -0.002899944083765149 0.01056693959981203 0.02240394987165928
v -0.0030229680705815554 0.011022980324923992 0.024921949952840805
v -0.002899944083765149 0.009466946125030518 0.02430897019803524
v -0.002899944083765149 0.009466946125030518 0.02430897019803524
v -0.0030229680705815554 0.011022980324923992 0.024921949952840805
v -0.0030229680705815554 0.009047985076904297 0.025372980162501335
v -0.0030999770388007164 0.007449984084814787 0.022076960653066635
v -0.0030999770388007164 0.009043990634381771 0.020805949345231056
v -0.002899944083765149 0.01056693959981203 0.02240394987165928
v -0.002899944083765149 0.01056693959981203 0.02240394987165928
v -0.0030999770388007164 0.009043990634381771 0.020805949345231056
v -0.0030999770388007164 0.011916990391910076 0.023096969351172447
v -0.0030229680705815554 0.007463991176337004 0.02410995028913021
v -0.0030999770388007164 0.007449984084814787 0.022076960653066635
v -0.002899944083765149 0.009466946125030518 0.02430897019803524
v -0.0030229680705815554 0.011022980324923992 0.024921949952840805
v -0.002899944083765149 0.01056693959981203 0.02240394987165928
v -0.0030999770388007164 0.011916990391910076 0.023096969351172447
v -0.0030999770388007164 0.009043990634381771 0.020805949345231056
v -0.0030999770388007164 0.010741939768195152 0.02106194943189621
v -0.0030999770388007164 0.011916990391910076 0.023096969351172447
v -0.0030999770388007164 0.007449984084814787 0.022076960653066635
v -0.003999948035925627 0.009566961787641048 0.022057950496673584
v -0.002899944083765149 0.009466946125030518 0.02430897019803524
v -0.003999948035925627 0.009566961787641048 0.022057950496673584
v -0.003999948035925627 0.009566961787641048 0.02413593977689743
v -0.002899944083765149 0.009466946125030518 0.02430897019803524
v -0.0030999770388007164 -0.01125895045697689 0.021465949714183807
v -0.005299984943121672 -0.011836940422654152 0.022488949820399284
v -0.005299984943121672 -0.010342950001358986 0.020878970623016357
v -0.0030999770388007164 -0.01125895045697689 0.021465949714183807
v -0.005299984943121672 -0.010342950001358986 0.020878970623016357
v -0.0029999609105288982 -0.008330999873578548 0.02112996019423008
v -0.0029999609105288982 -0.008330999873578548 0.02112996019423008
v -0.005299984943121672 -0.010342950001358986 0.020878970623016357
v -0.005399941932410002 -0.009105980396270752 0.0203859806060791
v -0.0029999609105288982 -0.008330999873578548 0.02112996019423008
v -0.005399941932410002 -0.009105980396270752 0.0203859806060791
v -0.0029999609105288982 -0.007257997058331966 0.02283697947859764
v -0.0029999609105288982 -0.007257997058331966 0.02283697947859764
v -0.005399941932410002 -0.009105980396270752 0.0203859806060791
v -0.005399941932410002 -0.007159947883337736 0.021766960620880127
v -0.0029999609105288982 -0.007257997058331966 0.02283697947859764
v -0.005399941932410002 -0.007159947883337736 0.021766960620880127
v -0.005399941932410002 -0.006820975802838802 0.022942960262298584
v -0.0029999609105288982 -0.007257997058331966 0.02283697947859764
v -0.005399941932410002 -0.006820975802838802 0.022942960262298584
v -0.0030999770388007164 -0.007904945872724056 0.024758990854024887
v -0.0030999770388007164 -0.007904945872724056 0.024758990854024887
v -0.005399941932410002 -0.006820975802838802 0.022942960262298584
v -0.005299984943121672 -0.008958995342254639 0.02536696009337902
v -0.0030999770388007164 -0.007904945872724056 0.024758990854024887
v -0.005299984943121672 -0.008958995342254639 0.02536696009337902
v -0.0030229680705815554 -0.01017098966985941 0.025351999327540398
v -0.0030229680705815554 -0.01017098966985941 0.025351999327540398
v -0.005299984943121672 -0.008958995342254639 0.02536696009337902
v -0.005399941932410002 -0.010523970238864422 0.02540694922208786
v -0.0030229680705815554 -0.01017098966985941 0.025351999327540398
v -0.005399941932410002 -0.010523970238864422 0.02540694922208786
v -0.002914964919909835 -0.011717969551682472 0.02367299050092697
v -0.002914964919909835 -0.011717969551682472 0.02367299050092697
v -0.005399941932410002 -0.010523970238864422 0.02540694922208786
v -0.005299984943121672 -0.011836940422654152 0.023705000057816505
v -0.002914964919909835 -0.011717969551682472 0.02367299050092697
v -0.005299984943121672 -0.011836940422654152 0.023705000057816505
v -0.005299984943121672 -0.011836940422654152 0.022488949820399284
v -0.002914964919909835 -0.011717969551682472 0.02367299050092697
v -0.005299984943121672 -0.011836940422654152 0.022488949820399284
v -0.0030999770388007164 -0.01125895045697689 0.021465949714183807
v -0.002899944083765149 -0.010353979654610157 0.02402495965361595
v -0.002899944083765149 -0.009156942367553711 0.02424198016524315
v -0.0030229680705815554 -0.01017098966985941 0.025351999327540398
v -0.0029999609105288982 -0.007257997058331966 0.02283697947859764
v -0.002899944083765149 -0.00978398323059082 0.021899990737438202
v -0.0029999609105288982 -0.008330999873578548 0.02112996019423008
v -0.002899944083765149 -0.00978398323059082 0.021899990737438202
v -0.0029999609105288982 -0.007257997058331966 0.02283697947859764
v -0.002899944083765149 -0.009156942367553711 0.02424198016524315
v -0.002914964919909835 -0.011717969551682472 0.02367299050092697
v -0.002899944083765149 -0.010353979654610157 0.02402495965361595
v -0.0030229680705815554 -0.01017098966985941 0.025351999327540398
v -0.0030999770388007164 -0.007904945872724056 0.024758990854024887
v -0.002899944083765149 -0.009156942367553711 0.02424198016524315
v -0.0029999609105288982 -0.007257997058331966 0.02283697947859764
v -0.0030229680705815554 -0.01017098966985941 0.025351999327540398
v -0.002899944083765149 -0.009156942367553711 0.02424198016524315
v -0.0030999770388007164 -0.007904945872724056 0.024758990854024887
v -0.002899944083765149 -0.00978398323059082 0.021899990737438202
v -0.0030999770388007164 -0.01125895045697689 0.021465949714183807
v -0.0029999609105288982 -0.008330999873578548 0.02112996019423008
v -0.0030999770388007164 -0.01125895045697689 0.021465949714183807
v -0.002899944083765149 -0.00978398323059082 0.021899990737438202
v -0.002899944083765149 -0.010353979654610157 0.02402495965361595
v -0.0030999770388007164 -0.01125895045697689 0.021465949714183807
v -0.002899944083765149 -0.010353979654610157 0.02402495965361595
v -0.002914964919909835 -0.011717969551682472 0.02367299050092697
v -0.0030999770388007164 -0.022076960653066635 0.007449984084814787
v -0.005299984943121672 -0.023096969351172447 0.007216989062726498
v -0.005399941932410002 -0.0203859806060791 0.009105980396270752
v -0.0030999770388007164 -0.022076960653066635 0.007449984084814787
v -0.005399941932410002 -0.0203859806060791 0.009105980396270752
v -0.0030229680705815554 -0.020820969715714455 0.009047985076904297
v -0.0030229680705815554 -0.020820969715714455 0.009047985076904297
v -0.005399941932410002 -0.0203859806060791 0.009105980396270752
v -0.0030229680705815554 -0.021271999925374985 0.011022980324923992
v -0.0030229680705815554 -0.021271999925374985 0.011022980324923992
v -0.005399941932410002 -0.0203859806060791 0.009105980396270752
v -0.005299984943121672 -0.021259959787130356 0.011031979694962502
v -0.0030229680705815554 -0.021271999925374985 0.011022980324923992
v -0.005299984943121672 -0.021259959787130356 0.011031979694962502
v -0.0030999770388007164 -0.023096969351172447 0.011916990391910076
v -0.0030999770388007164 -0.023096969351172447 0.011916990391910076
v -0.005299984943121672 -0.021259959787130356 0.011031979694962502
v -0.005299984943121672 -0.023096969351172447 0.011916990391910076
v -0.0030999770388007164 -0.023096969351172447 0.011916990391910076
v -0.005299984943121672 -0.023096969351172447 0.011916990391910076
v -0.0030999770388007164 -0.02427195943892002 0.011601979844272137
v -0.0030999770388007164 -0.02427195943892002 0.011601979844272137
v -0.005299984943121672 -0.023096969351172447 0.011916990391910076
v -0.005299984943121672 -0.02513200044631958 0.010741939768195152
v -0.0030999770388007164 -0.02427195943892002 0.011601979844272137
v -0.005299984943121672 -0.02513200044631958 0.010741939768195152
v -0.0030999770388007164 -0.025446949526667595 0.009566961787641048
v -0.0030999770388007164 -0.025446949526667595 0.009566961787641048
v -0.005299984943121672 -0.02513200044631958 0.010741939768195152
v -0.005299984943121672 -0.025446949526667595 0.009566961787641048
v -0.0030999770388007164 -0.025446949526667595 0.009566961787641048
v -0.005299984943121672 -0.025446949526667595 0.009566961787641048
v -0.0030229680705815554 -0.02426397055387497 0.00754499388858676
v -0.0030229680705815554 -0.02426397055387497 0.00754499388858676
v -0.005299984943121672 -0.025446949526667595 0.009566961787641048
v -0.005299984943121672 -0.02427195943892002 0.007532000076025724
v -0.0030229680705815554 -0.02426397055387497 0.00754499388858676
v -0.005299984943121672 -0.02427195943892002 0.007532000076025724
v -0.005299984943121672 -0.023096969351172447 0.007216989062726498
v -0.0030229680705815554 -0.02426397055387497 0.00754499388858676
v -0.005299984943121672 -0.023096969351172447 0.007216989062726498
v -0.0030999770388007164 -0.022076960653066635 0.007449984084814787
v -0.0030999770388007164 -0.023096969351172447 0.011916990391910076
v -0.0030999770388007164 -0.02427195943892002 0.011601979844272137
v -0.0030999770388007164 -0.025446949526667595 0.009566961787641048
v -0.0030229680705815554 -0.020820969715714455 0.009047985076904297
v -0.0030229680705815554 -0.021271999925374985 0.011022980324923992
v -0.002899944083765149 -0.02240394987165928 0.00856697466224432
v -0.0030229680705815554 -0.02426397055387497 0.00754499388858676
v -0.0030999770388007164 -0.022076960653066635 0.007449984084814787
v -0.0029079909436404705 -0.02429497055709362 0.009594975970685482
v -0.0029079909436404705 -0.02429497055709362 0.009594975970685482
v -0.0030999770388007164 -0.022076960653066635 0.007449984084814787
v -0.002899944083765149 -0.02240394987165928 0.00856697466224432
v -0.0030999770388007164 -0.023096969351172447 0.011916990391910076
v -0.002899944083765149 -0.02257698029279709 0.010666959919035435
v -0.0030229680705815554 -0.021271999925374985 0.011022980324923992
v -0.0030229680705815554 -0.021271999925374985 0.011022980324923992
v -0.002899944083765149 -0.02257698029279709 0.010666959919035435
v -0.002899944083765149 -0.02240394987165928 0.00856697466224432
v -0.0030229680705815554 -0.020820969715714455 0.009047985076904297
v -0.002899944083765149 -0.02240394987165928 0.00856697466224432
v -0.0030999770388007164 -0.022076960653066635 0.007449984084814787
v -0.0030229680705815554 -0.02426397055387497 0.00754499388858676
v -0.0029079909436404705 -0.02429497055709362 0.009594975970685482
v -0.0030999770388007164 -0.025446949526667595 0.009566961787641048
v -0.0030999770388007164 -0.025446949526667595 0.009566961787641048
v -0.0029079909436404705 -0.02429497055709362 0.009594975970685482
v -0.002899944083765149 -0.02257698029279709 0.010666959919035435
v -0.0030999770388007164 -0.025446949526667595 0.009566961787641048
v -0.002899944083765149 -0.02257698029279709 0.010666959919035435
v -0.0030999770388007164 -0.023096969351172447 0.011916990391910076
v -0.002899944083765149 -0.02240394987165928 0.00856697466224432
v -0.003999948035925627 -0.022057950496673584 0.009566961787641048
v -0.0029079909436404705 -0.02429497055709362 0.009594975970685482
v -0.003999948035925627 -0.022057950496673584 0.009566961787641048
v -0.003999948035925627 -0.02413593977689743 0.009566961787641048
v -0.0029079909436404705 -0.02429497055709362 0.009594975970685482
v -0.005399941932410002 -0.021045979112386703 -0.011399979703128338
v -0.005299984943121672 -0.022320980206131935 -0.011784969829022884
v -0.005386948119848967 -0.02432096004486084 -0.01151495985686779
v -0.0030999770388007164 -0.022320980206131935 -0.011784969829022884
v -0.005399941932410002 -0.021045979112386703 -0.011399979703128338
v -0.0030229680705815554 -0.020841950550675392 -0.008962987922132015
v -0.0030229680705815554 -0.020841950550675392 -0.008962987922132015
v -0.005399941932410002 -0.021045979112386703 -0.011399979703128338
v -0.005399941932410002 -0.0203859806060791 -0.009105980396270752
v -0.0030229680705815554 -0.020841950550675392 -0.008962987922132015
v -0.005399941932410002 -0.0203859806060791 -0.009105980396270752
v -0.0030229680705815554 -0.021445980295538902 -0.007915972732007504
v -0.005399941932410002 -0.0203859806060791 -0.009105980396270752
v -0.005399941932410002 -0.022942960262298584 -0.006820975802838802
v -0.0030229680705815554 -0.021445980295538902 -0.007915972732007504
v -0.0030229680705815554 -0.021445980295538902 -0.007915972732007504
v -0.005399941932410002 -0.022942960262298584 -0.006820975802838802
v -0.0030999770388007164 -0.023705000057816505 -0.007296978961676359
v -0.0030999770388007164 -0.023705000057816505 -0.007296978961676359
v -0.005399941932410002 -0.022942960262298584 -0.006820975802838802
v -0.0030229680705815554 -0.025300970301032066 -0.00879597570747137
v -0.0030229680705815554 -0.025300970301032066 -0.00879597570747137
v -0.005399941932410002 -0.022942960262298584 -0.006820975802838802
v -0.005299984943121672 -0.025314979255199432 -0.008790968917310238
v -0.0030229680705815554 -0.025300970301032066 -0.00879597570747137
v -0.005299984943121672 -0.025314979255199432 -0.008790968917310238
v -0.0030229680705815554 -0.025073999539017677 -0.01080899965018034
v -0.0030229680705815554 -0.025073999539017677 -0.01080899965018034
v -0.005299984943121672 -0.025314979255199432 -0.008790968917310238
v -0.005386948119848967 -0.02432096004486084 -0.01151495985686779
v -0.0030229680705815554 -0.025073999539017677 -0.01080899965018034
v -0.005386948119848967 -0.02432096004486084 -0.01151495985686779
v -0.0030999770388007164 -0.022320980206131935 -0.011784969829022884
v -0.0030999770388007164 -0.022320980206131935 -0.011784969829022884
v -0.005386948119848967 -0.02432096004486084 -0.01151495985686779
v -0.005299984943121672 -0.022320980206131935 -0.011784969829022884
v -0.0030999770388007164 -0.022320980206131935 -0.011784969829022884
v -0.005299984943121672 -0.022320980206131935 -0.011784969829022884
v -0.005399941932410002 -0.021045979112386703 -0.011399979703128338
v -0.0030999770388007164 -0.022320980206131935 -0.011784969829022884
v -0.002899944083765149 -0.0228799507021904 -0.010764000006020069
v -0.0030229680705815554 -0.025073999539017677 -0.01080899965018034
v -0.0030229680705815554 -0.025073999539017677 -0.01080899965018034
v -0.002899944083765149 -0.0228799507021904 -0.010764000006020069
v -0.002899944083765149 -0.02424198016524315 -0.009156942367553711
v -0.002899944083765149 -0.02424198016524315 -0.009156942367553711
v -0.0030229680705815554 -0.025300970301032066 -0.00879597570747137
v -0.0030229680705815554 -0.025073999539017677 -0.01080899965018034
v -0.0030229680705815554 -0.025300970301032066 -0.00879597570747137
v -0.002899944083765149 -0.02424198016524315 -0.009156942367553711
v -0.0030999770388007164 -0.023705000057816505 -0.007296978961676359
v -0.0030999770388007164 -0.023705000057816505 -0.007296978961676359
v -0.002899944083765149 -0.02424198016524315 -0.009156942367553711
v -0.002899944083765149 -0.023313989862799644 -0.008369982242584229
v -0.002899944083765149 -0.023313989862799644 -0.008369982242584229
v -0.0030229680705815554 -0.021445980295538902 -0.007915972732007504
v -0.0030999770388007164 -0.023705000057816505 -0.007296978961676359
v -0.002899944083765149 -0.023313989862799644 -0.008369982242584229
v -0.0030229680705815554 -0.020841950550675392 -0.008962987922132015
v -0.0030229680705815554 -0.021445980295538902 -0.007915972732007504
v -0.002899944083765149 -0.023313989862799644 -0.008369982242584229
v -0.002899944083765149 -0.0228799507021904 -0.010764000006020069
v -0.0030229680705815554 -0.020841950550675392 -0.008962987922132015
v -0.0030229680705815554 -0.020841950550675392 -0.008962987922132015
v -0.002899944083765149 -0.0228799507021904 -0.010764000006020069
v -0.0030999770388007164 -0.022320980206131935 -0.011784969829022884
vt 0 0
vt 0 0
vt 0 0
vt 0 0
vt 0 0
vt 0 0
vt 0 0
vt 0 0
vt 0 0
vt 0 0
vt 0 0
vt 0 0
vt 0 0
vt 0 0
vt 0 0
vt 0 0
vt 0 0
vt 0 0
vt 0 0
vt 0 0
vt 0 0
vt 0 0
vt 0 0
vt 0 0
vt 0 0
vt 0 0
vt 0 0
vt 0 0
vt 0 0
vt 0 0
vt 0 0
vt 0 0
vt 0 0
vt 0 0
vt 0 0
vt 0 0
vt 0 0
vt 0 0
vt 0 0
vt 0 0
vt 0 0
vt 0 0
vt 0 0
vt 0 0
vt 0 0
vt 0 0
vt 0 0
vt 0 0
vt 0 0
vt 0 0
vt 0 0
vt 0 0
vt 0 0
vt 0 0
vt 0 0
vt 0 0
vt 0 0
vt 0 0
vt 0 0
vt 0 0
vt 0 0
vt 0 0
vt 0 0
vt 0 0
vt 0 0
vt 0 0
vt 0 0
vt 0 0
vt 0 0
vt 0 0
vt 0 0
vt 0 0
vt 0 0
vt 0 0
vt 0 0
vt 0 0
vt 0 0
vt 0 0
vt 0 0
vt 0 0
vt 0 0
vt 0 0
vt 0 0
vt 0 0
vt 0 0
vt 0 0
vt 0 0
vt 0 0
vt 0 0
vt 0 0
vt 0 0
vt 0 0
vt 0 0
vt 0 0
vt 0 0
vt 0 0
vt 0 0
vt 0 0
vt 0 0
vt 0 0
vt 0 0
vt 0 0
vt 0 0
vt 0 0
vt 0 0
vt 0 0
vt 0 0
vt 0 0
vt 0 0
vt 0 0
vt 0 0
vt 0 0
vt 0 0
vt 0 0
vt 0 0
vt 0 0
vt 0 0
vt 0 0
vt 0 0
vt 0 0
vt 0 0
vt 0 0
vt 0 0
vt 0 0
vt 0 0
vt 0 0
vt 0 0
vt 0 0
vt 0 0
vt 0 0
vt 0 0
vt 0 0
vt 0 0
vt 0 0
vt 0 0
vt 0 0
vt 0 0
vt 0 0
vt 0 0
vt 0 0
vt 0 0
vt 0 0
vt 0 0
vt 0 0
vt 0 0
vt 0 0
vt 0 0
vt 0 0
vt 0 0
vt 0 0
vt 0 0
vt 0 0
vt 0 0
vt 0 0
vt 0 0
vt 0 0
vt 0 0
vt 0 0
vt 0 0
vt 0 0
vt 0 0
vt 0 0
vt 0 0
vt 0 0
vt 0 0
vt 0 0
vt 0 0
vt 0 0
vt 0 0
vt 0 0
vt 0 0
vt 0 0
vt 0 0
vt 0 0
vt 0 0
vt 0 0
vt 0 0
vt 0 0
vt 0 0
vt 0 0
vt 0 0
vt 0 0
vt 0 0
vt 0 0
vt 0 0
vt 0 0
vt 0 0
vt 0 0
vt 0 0
vt 0 0
vt 0 0
vt 0 0
vt 0 0
vt 0 0
vt 0 0
vt 0 0
vt 0 0
vt 0 0
vt 0 0
vt 0 0
vt 0 0
vt 0 0
vt 0 0
vt 0 0
vt 0 0
vt 0 0
vt 0 0
vt 0 0
vt 0 0
vt 0 0
vt 0 0
vt 0 0
vt 0 0
vt 0 0
vt 0 0
vt 0 0
vt 0 0
vt 0 0
vt 0 0
vt 0 0
vt 0 0
vt 0 0
vt 0 0
vt 0 0
vt 0 0
vt 0 0
vt 0 0
vt 0 0
vt 0 0
vt 0 0
vt 0 0
vt 0 0
vt 0 0
vt 0 0
vt 0 0
vt 0 0
vt 0 0
vt 0 0
vt 0 0
vt 0 0
vt 0 0
vt 0 0
vt 0 0
vt 0 0
vt 0 0
vt 0 0
vt 0 0
vt 0 0
vt 0 0
vt 0 0
vt 0 0
vt 0 0
vt 0 0
vt 0 0
vt 0 0
vt 0 0
vt 0 0
vt 0 0
vt 0 0
vt 0 0
vt 0 0
vt 0 0
vt 0 0
vt 0 0
vt 0 0
vt 0 0
vt 0 0
vt 0 0
vt 0 0
vt 0 0
vt 0 0
vt 0 0
vt 0 0
vt 0 0
vt 0 0
vt 0 0
vt 0 0
vt 0 0
vt 0 0
vt 0 0
vt 0 0
vt 0 0
vt 0 0
vt 0 0
vt 0 0
vt 0 0
vt 0 0
vt 0 0
vt 0 0
vt 0 0
vt 0 0
vt 0 0
vt 0 0
vt 0 0
vt 0 0
vt 0 0
vt 0 0
vt 0 0
vt 0 0
vt 0 0
vt 0 0
vt 0 0
vt 0 0
vt 0 0
vt 0 0
vt 0 0
vt 0 0
vt 0 0
vt 0 0
vt 0 0
vt 0 0
vt 0 0
vt 0 0
vt 0 0
vt 0 0
vt 0 0
vt 0 0
vt 0 0
vt 0 0
vt 0 0
vt 0 0
vt 0 0
vt 0 0
vt 0 0
vt 0 0
vt 0 0
vt 0 0
vt 0 0
vt 0 0
vt 0 0
vt 0 0
vt 0 0
vt 0 0
vt 0 0
vt 0 0
vt 0 0
vt 0 0
vt 0 0
vt 0 0
vt 0 0
vt 0 0
vt 0 0
vt 0 0
vt 0 0
vt 0 0
vt 0 0
vt 0 0
vt 0 0
vt 0 0
vt 0 0
vt 0 0
vt 0 0
vt 0 0
vt 0 0
vt 0 0
vt 0 0
vt 0 0
vt 0 0
vt 0 0
vt 0 0
vt 0 0
vt 0 0
vt 0 0
vt 0 0
vt 0 0
vt 0 0
vt 0 0
vt 0 0
vt 0 0
vt 0 0
vt 0 0
vt 0 0
vt 0 0
vt 0 0
vt 0 0
vt 0 0
vt 0 0
vt 0 0
vt 0 0
vt 0 0
vt 0 0
vt 0 0
vt 0 0
vt 0 0
vt 0 0
vt 0 0
vt 0 0
vt 0 0
vt 0 0
vt 0 0
vt 0 0
vt 0 0
vt 0 0
vt 0 0
vt 0 0
vt 0 0
vt 0 0
vt 0 0
vt 0 0
vt 0 0
vt 0 0
vt 0 0
vt 0 0
vt 0 0
vt 0 0
vt 0 0
vt 0 0
vt 0 0
vt 0 0
vt 0 0
vt 0 0
vt 0 0
vt 0 0
vt 0 0
vt 0 0
vt 0 0
vt 0 0
vt 0 0
vt 0 0
vt 0 0
vt 0 0
vt 0 0
vt 0 0
vt 0 0
vt 0 0
vt 0 0
vt 0 0
vt 0 0
vt 0 0
vt 0 0
vt 0 0
vt 0 0
vt 0 0
vt 0 0
vt 0 0
vt 0 0
vt 0 0
vt 0 0
vt 0 0
vt 0 0
vt 0 0
vt 0 0
vt 0 0
vt 0 0
vt 0 0
vt 0 0
vt 0 0
vt 0 0
vt 0 0
vt 0 0
vt 0 0
vt 0 0
vt 0 0
vt 0 0
vt 0 0
vt 0 0
vt 0 0
vt 0 0
vt 0 0
vt 0 0
vt 0 0
vt 0 0
vt 0 0
vt 0 0
vt 0 0
vt 0 0
vt 0 0
vt 0 0
vt 0 0
vt 0 0
vt 0 0
vt 0 0
vt 0 0
vt 0 0
vt 0 0
vt 0 0
vt 0 0
vt 0 0
vt 0 0
vt 0 0
vt 0 0
vt 0 0
vt 0 0
vt 0 0
vt 0 0
vt 0 0
vt 0 0
vt 0 0
vt 0 0
vt 0 0
vt 0 0
vt 0 0
vt 0 0
vt 0 0
vt 0 0
vt 0 0
vt 0 0
vt 0 0
vt 0 0
vt 0 0
vt 0 0
vt 0 0
vt 0 0
vt 0 0
vt 0 0
vt 0 0
vt 0 0
vt 0 0
vt 0 0
vt 0 0
vt 0 0
vt 0 0
vt 0 0
vt 0 0
vt 0 0
vt 0 0
vt 0 0
vt 0 0
vt 0 0
vt 0 0
vt 0 0
vt 0 0
vt 0 0
vt 0 0
vt 0 0
vt 0 0
vt 0 0
vt 0 0
vt 0 0
vt 0 0
vt 0 0
vt 0 0
vt 0 0
vt 0 0
vn 0.9887560400941504 -0.1096140868580334 -0.10171649394082664
vn 0.9887560400941504 -0.1096140868580334 -0.10171649394082664
vn 0.9887560400941504 -0.1096140868580334 -0.10171649394082664
vn 0.9999999998326159 0.000005912039795395634 0.000017315200236055987
vn 0.9999999992340567 0.000038206599099634146 0.000008493660054998099
vn 0.9999999996193787 -0.000013306699651758371 0.000024169699818126027
vn 0.00002462179946372879 0.9659195234273812 0.2588425653859656
vn 0.000006943939243085078 0.9659163876399041 0.2588542679587498
vn 0.000023260698380776723 0.965919269045778 0.2588435147825995
vn 0.00003592669507066479 0.7071209366912735 0.7070926244857378
vn -0.0000037848898416655827 0.7071415596354796 0.7070720010168526
vn 0.00003756249764557024 0.707120161803497 0.7070933993186864
vn 0.00002780179985098579 0.2587541061471738 0.9659432238900157
vn 0.00001067670038373694 0.25874761227897886 0.9659449637665365
vn 0.00003317739476504879 0.2587559771234315 0.9659427225266304
vn 0 -0.2587670106982976 0.9659397673635075
vn 0.000022919798808178148 -0.2587706970391786 0.9659387795448222
vn 0.000009320679070670139 -0.25876858873302044 0.9659393445751374
vn 0.000029981100426885025 -0.7071291322576316 0.7070844287733274
vn 0.00003271739531679959 -0.7071272249060306 0.7070863361190539
vn 0.00002242619971887468 -0.7071344072211768 0.7070791537169092
vn -4.386529926268859e-7 -0.96592862105301 0.2588086146758605
vn -1.6728898919291527e-7 -0.9659286210530894 0.2588086146758818
vn 0 -0.965928621053103 0.2588086146758854
vn -0.000011134398654409679 -0.7818554504945135 -0.623459745619592
vn 0 -0.7818554505429788 -0.6234597456582388
vn -0.0000010058299644077363 -0.7818553983195271 -0.6234598111487236
vn 0.000038608898615602984 -0.7818242488923037 -0.623498871172465
vn 0.00003865179609057375 -0.7818256476043814 -0.6234971172780419
vn 0.000038787697645558686 -0.7818050490103657 -0.6235229457184507
vn -0.000047547699014883605 -0.0000013262000478338554 -0.9999999988687287
vn -0.000047892299279567364 -0.000005502839933769368 -0.9999999988380233
vn -0.00004784759943394388 0.0000061318300978707055 -0.999999998836504
vn 0.000011101399645546653 0.00002679230054819683 -0.9999999995794657
vn -0.000004454169809996491 0.000026896599582878153 -0.9999999996283666
vn -0.0000023166599012704092 0.000027224399663124842 -0.9999999996267326
vn 0.000011774699665380975 0.7818426011941827 -0.6234758590509104
vn 0.0000011697399312651362 0.7818427869762703 -0.6234756261890356
vn 0.000004527159558638658 0.7818426012403695 -0.6234758590877417
vn 0.000033736195180904964 0.9749301377170357 -0.22251118046720914
vn 0.0000159367973843951 0.9749288577683592 -0.22251679045973308
vn 0.000008229168925090718 0.974928310841762 -0.222519187153624
vn 0.9999999995883595 0.000006563030180613668 -0.000027932199361528353
vn 0.9999999995842204 0.000009203329678523601 -0.000027328700514323428
vn 0.9999999995866629 0.000008130909915330225 -0.000027578300421252168
vn 0.9999999998797398 0.000015437599356990835 0.0000014836000444154953
vn 0.9999999998799052 0.000014365699824432405 0.000005815179974190079
vn 0.9999999998790008 0.000014372199983052198 0.0000059530098034956715
vn 0.9999999994467621 0.000033114098168750366 -0.000003151599910855028
vn 0.9999999993635298 0.00003527100122966397 0.000005375589804532982
vn 0.9999999994348416 0.000033602100283241924 -0.00000110269002044769
vn 0.9999999998708233 -4.1164500425250803e-7 -0.00001606809928281821
vn 0.9999999998642042 0.000003583089891858446 -0.000016085799868595355
vn 0.9999999998706102 -1.63913000484791e-7 -0.0000160857998686984
vn 0.9999999999706404 0.000007022169938657785 0.0000030673099899113214
vn 0.9999999999717866 0.000006274899987879822 0.000004129480203002367
vn 0.999999999963946 0.000003948809989964012 0.000007517639914751259
vn 0.9999999987152128 -0.000002551819985815383 0.000050626698729031685
vn 0.9999999987170849 0.0000011218099856865567 0.000050641599890301196
vn 0.9999999986928929 0.000006992369881073237 0.00005064899953796002
vn 0.9999999981914542 -0.00005771960048625587 -0.000016897900392357983
vn 0.9999999978088332 -0.0000660865988182043 -0.000003859399831255252
vn 0.9999999983164658 -0.00005243720070478531 -0.00002484770080082424
vn 0.9999999993618793 -0.000035716198885839514 7.711349776027014e-7
vn 0.9999999993355606 -0.00003526169891687391 0.000009246169605144249
vn 0.9999999993228221 -0.00003524130076926718 0.000010602199829105279
vn 0.9999999990551416 -0.000039023798271463284 0.00001915360006032793
vn 0.9999999990506951 -0.000035762801383199805 0.000024892400664628453
vn 0.9999999990510369 -0.00003917520003517416 0.000019058599700760472
vn 0.01714067880397344 -0.8704385030666896 -0.49197866773790083
vn 0.017142047929354778 -0.8704378515396498 -0.49197977275476096
vn 0.01711845075521138 -0.8704492704516754 -0.49196039089939714
vn -0.00003285709727950129 -0.5000369619910657 -0.8660040620939121
vn -0.000028640001451100762 -0.500038812389615 -0.8660029938076045
vn -5.215409798650307e-7 -0.5000522704161068 -0.8659952233421527
vn 0.000004635189730869344 -0.5000009542667649 -0.8660248528251596
vn 0.000006169999674158736 -0.5000016008577691 -0.8660244795048229
vn 0.000006463380011996974 -0.5000017865862417 -0.8660243722718151
vn 0.000005961980146422534 0.000036314100700986935 -0.9999999993228705
vn 0.000027537300383780652 0.00003542010013989444 -0.9999999989935568
vn 0.0000028582298890859805 0.0000363848994069082 -0.9999999993339848
vn 0.00004771349981816028 0.5000429735377787 -0.8660005902647633
vn -0.00002211329730169686 0.5000093478870884 -0.866020006429719
vn -0.000014111398915584558 0.5000131192051536 -0.8660178291603479
vn 0.7829986968500079 -0.3109738889429484 -0.5387098301747317
vn 0.7829921973522806 -0.31103557872216087 -0.5386836619523723
vn 0.78299476954752 -0.31100968415605956 -0.5386948739521978
vn 0.5954453879680173 0.6957892699021261 0.4016492024599122
vn 0.5954453834317703 0.6957473625369383 0.4017217978560365
vn 0.5954453884973488 0.6957468916186533 0.4017226059362643
vn 0.9999999994378128 -0.000028624199314714573 0.00001746509950790303
vn 0.9999999994152498 -0.00002144370044899278 0.00002663960002143753
vn 0.9999999994445135 -0.000025797400652885587 0.00002110609965448853
vn 0.9999999999973117 0.000002311539901705298 1.8253899725046762e-7
vn 0.999999999996344 0.0000024735900296855623 0.0000010924400157779097
vn 0.9999999999936318 0.0000027143400984468776 0.0000023171301108812035
vn 0.999999999462293 0.000024233000645538673 0.000022094700386275945
vn 0.999999999456683 0.000027576499618159014 0.000018060200081173333
vn 0.9999999994636948 0.00002535249949237395 0.000020733099506991706
vn 0.9999999997387867 0.000017583399307977675 -0.000014603099767378706
vn 0.9999999996572926 0.000019669500027328758 -0.0000172779000363239
vn 0.9999999998386329 0.000014364700289162413 -0.00001078839977534323
vn 0.9999999999654183 -0.000001251700041350347 -0.000008221720235894633
vn 0.9999999999413425 -0.000005453829998849194 -0.000009357930138682117
vn 0.9999999999639146 -0.0000015534500334418816 -0.000008352099939355522
vn 0.9999999989801414 -0.00003965940045921168 -0.000021606700079947955
vn 0.9999999989867432 -0.000043682801289227 -0.00001087780036676229
vn 0.9999999989963972 -0.00004203620115150824 -0.000015497200350090916
vn 0.9999999998290066 -0.000018332200849320885 -0.0000024326100170061605
vn 0.999999999798326 -0.000017823700542110346 0.000009255480106683229
vn 0.99999999983142 -0.000018298600477108493 -0.0000015236399801484227
vn 0.9999999984259604 -0.000021640200395766305 0.000051766601164134815
vn 0.999999998648762 -0.00003898140125064425 0.00003439369897832986
vn 0.9999999985725228 -0.00004567209901171406 0.00002773109914094245
vn -0.00001422319920250022 0.9659208598115349 -0.25883757914693434
vn 0.00004532929931301265 0.9659258660000257 -0.258818892929699
vn -0.0000042915295434588 0.9659216082173665 -0.2588347866117677
vn -0.000059763000705733286 0.7071346445454085 0.7070789142040814
vn -0.00006163120101208062 0.707127253742115 0.7070863053522743
vn -0.00005897879788048891 0.7071625975016418 0.707050958005314
vn 0.0000365375953551425 0.7071310095869066 0.7070825510119779
vn 0.000029832098434088017 0.7071477578766892 0.7070658014923487
vn 0.00003092739924153845 0.7071449565917373 0.7070686030438391
vn -0.00004717540345473896 -0.6234890895947329 0.7818320490558139
vn -0.00005799529902122055 -0.6235103766576925 0.7818150720194179
vn -0.00004547090219231017 -0.6234857054194273 0.7818347479295329
vn 0.000018805298176789338 -0.6235402229214847 0.7817912701261036
vn 0.000011961898233466742 -0.6235429738441419 0.7817890761749726
vn 0.00002197179890853043 -0.6235385636024068 0.7817925934785308
vn 0.00005445819978884912 -0.9999999982562395 -0.000022843500079218305
vn 0.00003118070158308738 -0.9999999986237742 -0.00004219260148252502
vn 0.000027820500651105566 -0.9999999985759684 -0.00004554209947736394
vn -0.000018835098773167154 -0.9009915042708857 -0.4338367306682617
vn 0.000007867809619303758 -0.9009818006926783 -0.4338568828066194
vn 3.5017695015296333e-7 -0.9009844145967436 -0.43385145459435803
vn -0.000033050801366600815 -0.2225486065217629 -0.9749215951259188
vn -0.00002371520050278945 -0.22255088993073996 -0.9749210741535055
vn -0.000013500499445879317 -0.22255358282142484 -0.9749204596227753
vn 0.0000605135999422022 -0.22251060195391478 -0.9749302684583193
vn 0.000060193195585582856 -0.22251088399279093 -0.9749302041077227
vn 0.00006055829571664362 -0.2225244733460039 -0.9749271024516533
vn -0.01775424754007912 0.25890007801735176 -0.9657409260753606
vn -0.01775424754007912 0.25890007801735176 -0.9657409260753606
vn -0.01775424754007912 0.25890007801735176 -0.9657409260753606
vn -0.029682508860786067 0.7068385749094691 -0.7067518501480418
vn -0.029678699968417415 0.7068378800676267 -0.7067527050317447
vn -0.029694189213689017 0.7068404752295782 -0.7067494589344697
vn 0.000007554889384787981 0.9937083990485284 0.11199829285901741
vn 0.000041998899844606475 0.9937074507807294 0.11200669845574761
vn 0.000003412369859972395 0.9937084553751873 0.1119977933006521
vn -0.000018395501469627958 0.9308820258531401 0.3653199332162962
vn -0.00002636010015309742 0.9308832489383537 0.3653168161351458
vn -0.000010415899072548916 0.9308806774845181 0.36532336932842613
vn -0.029745276603466455 0.7067938348652276 0.7067939540745156
vn -0.029745390123661883 0.7067984816237997 0.7067893025086632
vn -0.02974528032517499 0.7067907949432798 0.7067969938262494
vn 0.00003725290005575391 0.2224811953932518 0.9749369806857319
vn 0.000018246497826888753 0.22247228610623776 0.9749390142884476
vn 0.00002252309928425484 0.22247430283840502 0.9749385539967509
vn 0.9999999984511996 -0.000034801698294118385 0.000043433199540264976
vn 0.9999999984491679 -0.00003394489971662423 0.00004415210053113123
vn 0.9999999984374319 -0.00003281980020220868 0.00004525480100914998
vn 0.9999999999551914 -0.000009348619641550082 -0.000001490119984670478
vn 0.9999999999675904 -0.000007924620149167466 0.0000014211999541197254
vn 0.9999999999432985 -0.000003956260115731631 0.000009886920451557316
vn 0.9999999993009894 0.00003408639893114215 0.000015366800642540996
vn 0.9999999992987301 0.00003398770056609795 0.000015728199275938733
vn 0.9999999992928279 0.000035673401700716895 0.000011905999591128932
vn 0.9999999994577631 0.000018060200081192838 0.00002753730039656364
vn 0.9999999996897011 0.000018238999467737147 -0.000016968699123218052
vn 0.999999999741978 0.000018090000589716418 0.000013740300342853426
vn 0.9999999999111329 0.000013172600118844365 -0.0000020535699148234423
vn 0.9999999999052793 0.000013738899723256638 -8.270150146143981e-7
vn 0.9999999999153588 0.000010331200427607235 -0.000007908790393470532
vn 0.999999999059106 -0.00004207339948741179 -0.00001056489962963529
vn 0.9999999990528241 -0.000041469898821389474 -0.000013213600128655297
vn 0.9999999990543587 -0.00004152210017930671 -0.000012930499894133022
vn 0.9999999989405108 0.0000017285300354946226 -0.00004599989910858655
vn 0.9999999989386827 0.000004731120038267465 -0.00004582849937516705
vn 0.9999999989166404 0.000009484589999103514 -0.00004557150163756592
vn 0.999999999429267 -0.000011011999952724788 0.00003194059898301602
vn 0.9999999994166582 0.00000689736998135785 0.000033453099584715785
vn 0.9999999994419275 0.0000037476399917981518 0.000033197899010364864
vn 0.9999999996653508 0.000009025449796062347 0.000024245400701219193
vn 0.9999999997143547 -0.000014424300384662051 0.00001905859971340238
vn 0.9999999997380842 -0.000011576100402331867 0.000019744000377899405
vn 0.9999999979120733 -0.000028967899137113274 -0.000057764300315639515
vn 0.9999999979153309 -0.000032737898368360105 -0.000055655800563208995
vn 0.9999999979056793 -0.00003533070041034347 -0.0000542253000049948
vn 0.00003062190102726308 -0.8467505635610855 0.5319901147307939
vn 0.00002621489910540751 -0.8467533702207559 0.5319856476753583
vn 0.000025734295517735365 -0.846753571953531 0.531985326603735
vn 0.000018335900363553163 -0.9972091146759936 0.07465910038914204
vn 0.00003093479576180072 -0.9972088828317481 0.07466219287226465
vn 0.0000207275008076395 -0.9972090787961845 0.07465957900253561
vn -0.000009082259228188874 -0.7818299836633904 -0.6234916812295216
vn -0.000015109798731181752 -0.7818257525520587 -0.6234969866952854
vn -0.000011056698841365153 -0.7818281612534327 -0.6234939664093195
vn 0.000020485398976171363 -0.6235438688798975 -0.7817883621304668
vn 0.000005424018963057695 -0.6235524927492069 -0.7817814840202025
vn 0.000010430800001048358 -0.6235495744932988 -0.7817838115748014
vn -0.0000176503996343461 0.0747124464086647 -0.9972051193410992
vn -0.000017613199482769498 0.07471244640871369 -0.997205119341753
vn -0.00001886859868984616 0.0747068437587201 -0.9972055390638312
vn 0.000019848300068217466 0.5242698960791644 -0.8515521567532942
vn -0.000021685802437543123 0.524271009983402 -0.8515514709168844
vn -0.000001243320077828541 0.5242704182283493 -0.8515518355150941
vn 0.000009446869343290506 0.8467578038384806 -0.5319785912509919
vn 0.000010911399513716217 0.8467578038258574 -0.5319785912430613
vn -0.0000223367993055381 0.846758385067514 -0.5319776657143821
vn 0.000021286296549307353 0.997204566371717 -0.07471982571104901
vn 0.00002416689801097915 0.9972052933903878 -0.07471012147059782
vn 0.00002372259921750703 0.9972051856044974 -0.07471156028847066
vn -0.00002203879941794683 0.9165567243719422 0.3999047018014002
vn 0.000007798898919811606 0.9165569593201804 0.3999041638454424
vn 0.000013470599353940328 0.9165569906442517 0.3999040919016658
vn 0.000021556398256730598 0.6234985731047344 0.7818244872550884
vn 0.000023843699690488367 0.6235019936852253 0.7818217592917374
vn 0.000025071198843429438 0.6235038785278924 0.7818202560896658
vn -0.000006698069629897535 0.39983355682614136 0.916587762732458
vn -0.000032029999407633787 0.3998408704867723 0.9165845718003655
vn -0.000029727799084731715 0.3998401854250299 0.9165848707214926
vn 0.000010363800438244807 -0.07471925079101013 0.9972046096232315
vn 0.0000032782598769069298 -0.07472454226069651 0.9972042131746046
vn 0.000006958839967015648 -0.0747218128070319 0.9972044176809515
vn -0.004200576301067068 -0.5320421409350161 0.8467074556350755
vn -0.004219113473227853 -0.5320351237030615 0.8467117728175086
vn -0.004215359227778049 -0.5320366032082098 0.8467108618609135
vn 0.9999999988166437 -0.00001887049982128458 0.000044839900457789714
vn 0.9999999988392152 -0.000013083200413622724 0.0000463723990295103
vn 0.9999999988365826 -0.000009987499640577954 0.00004719199927388438
vn 0.9999999999970326 -2.4959399524885673e-7 0.0000024232999749002316
vn 0.9999999999960136 -0.0000011520500038340748 0.000002577899977030666
vn 0.9999999999932032 -0.0000023767399852497313 0.0000028186500457913424
vn 0.9999999997568805 0.00002047419911334781 0.000008188189893017982
vn 0.9999999997890261 0.00002002720065807291 0.000004567209997676903
vn 0.9999999998034887 0.000018596600053553537 -0.000006869439856487356
vn 0.9999999998214975 0.000016784300893692324 0.000008677129697659418
vn 0.999999999853803 0.000008158390299912368 0.0000150278001434202
vn 0.9999999998436508 0.000006012619905019514 0.000016629699527712753
vn 0.9999999988541619 -0.000023135900820172492 -0.0000419095012577598
vn 0.9999999989926913 -0.00003439189819065117 -0.000028841199280629552
vn 0.9999999989398807 -0.00004079940113337549 -0.00002134590065463174
vn 0.9999999984345738 -0.000055625998269766834 -0.00000604987007098947
vn 0.9999999985405497 -0.00004149970112248971 0.00003459299836730608
vn 0.9999999985623012 -0.00004184250058993418 0.00003353509959832885
vn 0.9999999998361242 0.000012561699802733156 -0.000013036699781560859
vn 0.9999999997984497 0.000018924500178223933 -0.0000067055198073958405
vn 0.9999999998265343 0.000015797100783845104 -0.000009868290360934994
vn 0.9999999989106778 0.000020101699170412524 -0.00004212560083901301
vn 0.9999999987289709 -0.000008851289737895262 -0.00004963580061542726
vn 0.9999999989347013 0.00001673030054044253 -0.00004301969961453384
vn 0.9999999990771693 -0.000031858700792940136 -0.000028821599672260878
vn 0.9999999990287674 -0.000023037200640282207 -0.00003757329974166729
vn 0.9999999990609061 -0.000034987900984445724 -0.000025574099685030524
vn 0.000007557678807130169 -0.7579801430036266 -0.6522776270539128
vn 0.000005770470173272512 -0.7579830948547 -0.6522741968537408
vn 0.00000770855896162755 -0.7579800079847855 -0.6522777839509504
vn 0.000008791679805808836 -0.36534628930331053 -0.9308716822500338
vn 0.000012453598280972142 -0.365344944753258 -0.930872209912911
vn 0.000023931299906310095 -0.36534021019431673 -0.9308740678751694
vn 0.00004471650105259124 0.11200630115863001 -0.9937074954438035
vn 0.00004772100231384841 0.11199360540019924 -0.9937089262315049
vn 0.00004279609891094471 0.11201590389123123 -0.993706413103953
vn 0.000038832399463958375 0.36526878594642387 -0.9309020960902764
vn 0.000035889396175110724 0.3652665652884505 -0.930902967550501
vn 0.00003068150152793596 0.3652622069865192 -0.930904677830111
vn 0.00002006809912403999 0.9749300031525336 -0.22251177171168354
vn -0.000013098100493894965 0.9749237160064315 -0.22253931741750843
vn 0.000004574659614667736 0.9749270560193732 -0.22252468496881453
vn -0.000018060198633479226 0.9749407963388235 -0.2224644765081603
vn -0.00000834465018527021 0.974942912861664 -0.22245520131293992
vn -0.00002141299776594945 0.9749400627784944 -0.22246769098219396
vn -0.000009179119624914998 0.9749194748161912 0.22255789705122944
vn 0.0000159296977731638 0.9749196131990403 0.22255729048062778
vn -0.002954124731679816 0.974894293720882 0.2226485778475408
vn 0.00001897100137779311 0.4338647849129335 0.9009779953209484
vn -0.000004135069422163954 0.43386425721882566 0.9009782496214089
vn 1.2852298366623928e-7 0.43386435309927995 0.9009782034598434
vn 0.00001133230032737417 0.00005637849962795631 0.999999998346522
vn 0.0000020270199424082372 0.00005670919917939617 0.999999998389979
vn 0.000018928800239664954 0.00005623700043647267 0.9999999982395502
vn -0.0000059262997514740225 -0.43393576054813987 0.9009438138321316
vn 0.000003375109719584768 -0.4339355688049788 0.9009439061975546
vn 0.000006027519355862532 -0.4339353519726776 0.9009440106199815
vn -0.00001877729910655632 -0.781815972832607 0.6235092495474447
vn -0.00001908839868449106 -0.7818163152487735 0.6235088201833743
vn -0.000015065099903978493 -0.7818113934008446 0.6235149917377071
vn 0.000009343030018555636 -0.9749424594272953 0.22245718850728194
vn 0.00003538650062053896 -0.9749354945279017 0.2224877081041357
vn 0.000027984399524689697 -0.9749374603121912 0.22247909496599524
vn 0.9999999998557165 -0.000011854799593601764 0.000012166799932010546
vn 0.9999999998069122 -0.00001839730066066678 0.000006907619989336578
vn 0.999999999856747 -0.000011555899616887336 0.000012368000168909873
vn 0.9999999997933029 0.000013381200003058356 0.000015308100043076586
vn 0.999999999813699 0.000015844600053928288 0.000011025000274222873
vn 0.9999999998137075 0.000016033600328879243 0.000010747499798343216
vn 0.9999999994114217 0.00000174716001208192 0.00003426519831721209
vn 0.9999999994000031 4.6566100281124976e-7 0.0000346378001060196
vn 0.9999999993671764 -0.0000031217900849040856 0.00003543870113875697
vn 0.999999999981876 -0.000005871059784006324 -0.000001333649947785874
vn 0.9999999999888609 -0.00000269990005105404 -0.000003871510216370174
vn 0.9999999999873506 -0.0000015781299680184484 -0.000004775819888831008
vn 0.9999999988771342 -0.00004732609881245572 -0.0000024437899782996164
vn 0.999999999614344 -0.00001737479942006076 0.000021666299281435177
vn 0.9999999989730468 -0.00004531439840214569 -7.152560207872473e-7
vn 0.9999999994146007 -0.000028945500145136188 -0.00001824709942252884
vn 0.9999999993760127 -0.000033474498174686024 -0.000011288600028142448
vn 0.999999999413312 -0.000027792799284790535 -0.00002002340078168663
vn 0.9999999998381504 0.000017583399309724823 0.0000038109699283466548
vn 0.9999999998296982 0.000017011499946251766 0.0000071562799336425045
vn 0.9999999998202331 0.000016666999724025727 0.000009041279552741743
vn 0.8248499750049376 0.44195816553977196 -0.3525556674442677
vn 0.824849794746241 0.44201854427158 -0.35248038615945343
vn 0.8248498390257599 0.4420098635834255 -0.35249116805125685
vn 0.000005245210096280577 0.9999999984374599 -0.000055655800592268506
vn 0.000042647101457924256 0.9999999988042589 0.000023931299409502367
vn -0.00002369280065539834 0.9999999929056786 -0.00011673600155465961
vn -0.00005119289541189112 0.500050304231538 -0.8659963571616417
vn -0.000032216299054656816 0.5000485695201552 -0.8659973597436406
vn -0.00001722569827989745 0.5000471355333357 -0.8659981881898953
vn -0.00002906469635910304 -0.5320309334732977 -0.8467249169492856
vn -0.000012375399757388305 -0.532037374683971 -0.8467208700547291
vn -0.00001836569949803175 -0.532035175946276 -0.8467222515196564
vn 0.00006626918803332814 -0.11201029087326364 -0.9937070445291617
vn 0.00006704779701652663 -0.11198999799033073 -0.9937093316733616
vn 0.00006611649654302053 -0.1120142873554776 -0.9937065940491958
vn -0.0000741779961235379 0.33030567084622564 -0.943874016118915
vn -0.00004936749818343763 0.3303213015256301 -0.9438685476915013
vn -0.00007492299514259253 0.33030638237884347 -0.9438737670612242
vn -0.00004883859813288076 0.7071403071601589 -0.7070732519366205
vn -0.00005021689729671344 0.7071396514915973 -0.7070739075702097
vn -0.000044949300584748145 0.7071414993244625 -0.7070720599151912
vn -0.000008583070516008601 0.9438897801681325 -0.330260628626068
vn -0.000022977601280070317 0.9438866296864357 -0.33026963192399544
vn -0.00003178419933235432 0.9438845716595831 -0.3302755128264435
vn 0.000024825297948411244 0.9937090189309474 0.11199279029919214
vn 0.000008866190177166303 0.993709762784794 0.11198619230770863
vn 0.000008013099571427102 0.9937098199190558 0.11198568538981914
vn 0.00005005440023411704 0.9937031102738046 0.1120451968034517
vn 0.00002873499952992739 0.9937011037239802 0.11206299849657612
vn 0.00003316999585117558 0.9937015211689203 0.11205929558196198
vn -0.00003285709727950129 0.5000369619910657 0.8660040620939121
vn -0.000028640001451100762 0.500038812389615 0.8660029938076045
vn -5.215409798650307e-7 0.5000522704161068 0.8659952233421527
vn 0.000015869698181450882 0.49997445023485376 0.8660401543003121
vn 0.00004895030341020577 0.499990222819439 0.8660310471852817
vn 0.000022992500159874942 0.4999778723862605 0.8660381784860601
vn 0.00004790719944478269 -0.5000066647443877 0.8660215545331963
vn -0.000003572549601275154 -0.500004539806372 0.8660227827027734
vn -0.000019334298482906677 -0.5000040530417029 0.8660230635312519
vn -0.000003950669988756974 -0.5000684365097693 0.8659858883325218
vn 0.000030227001791861022 -0.5000556698799492 0.865993259850932
vn 0.0000351146014248544 -0.5000538899988353 0.8659942874315035
vn 0.000029481897337261562 -0.8660045576666193 0.5000361039279673
vn 0.000022195300942889163 -0.8660033156682602 0.5000382552954807
vn 0.000005305979336728792 -0.8660003509460124 0.500043390250516
vn 0.000002339480069870697 -0.9999997770435579 0.0006677629529372157
vn -0.0000021196899524377146 -0.99999999999366 -0.000002861299890337299
vn -0.0000021206199107657657 -0.9999999999915352 -0.00000352598999594846
vn 0.000031292395187573534 -0.8705701921546352 -0.49204424552333476
vn 0.0000325143014048517 -0.8705699556723339 -0.4920446638502351
vn 0.000011943299058034898 -0.8705752616795168 -0.49203527679323794
vn 0.9999999999548297 -0.0000033862900180172973 0.000008881090252142638
vn 0.9999999999293137 -0.000008914619683589219 0.00000786781038131131
vn 0.9999999999427256 -0.000006793070042087687 0.000008270610123399062
vn 0.9999999997797517 0.000016260899425162434 -0.000013269500411103386
vn 0.9999999997831215 0.00001733520002368663 -0.000011543300385935599
vn 0.9999999997829592 0.000017326299708534198 -0.00001157069982331339
vn 0.9999999997049109 0.00002352149930845222 -0.0000060759498392404885
vn 0.9999999997035369 0.000023922000757195087 -0.0000045457900328240004
vn 0.9999999997049027 0.000023372500429483343 -0.0000066272900747659976
vn 0.9999999998646658 -0.000001924109937784751 0.000016339099599980472
vn 0.9999999998579292 -5.029140196906525e-7 0.000016849000528389335
vn 0.999999999859996 -0.00001018490001882326 0.000013276900061060775
vn 0.9999999988591777 0.000034259599448911616 0.00003328550152059362
vn 0.9999999988759094 0.00003708149957144005 0.000029549000795194746
vn 0.999999998718188 0.00004841389812260517 0.000014822900065254627
vn 0.9999999982693868 0.000039309299541128994 0.000043772200948941616
vn 0.9999999984329173 0.00002089520054505286 0.00005193800089774367
vn 0.999999998397628 0.00003065169944056563 0.00004759430150092802
vn 0.9999999985199957 -0.00000824034030901261 -0.00005377830158294049
vn 0.9999999984640977 -0.000024296299633506177 -0.00004981459998441639
vn 0.9999999983874994 -0.00002987680086064714 -0.00004829469973117309
vn 0.9999999985703616 -0.00004846770018394948 -0.00002258670061973669
vn 0.9999999986119408 -0.00005060429968831919 -0.000014673900275379202
vn 0.9999999986117261 -0.00005128229888370834 -0.000012110899644097699
vn 0.9999999991008504 0.000006597490022138621 -0.00004189000170170991
vn 0.9999999991011495 0.0000062286899209031676 -0.00004193929995249303
vn 0.9999999990761812 -0.000001857520031183617 -0.000042944000557672236
vn -0.00004717540345473896 0.6234890895947329 -0.7818320490558139
vn -0.00005799529902122055 0.6235103766576925 -0.7818150720194179
vn -0.00004547090219231017 0.6234857054194273 -0.7818347479295329
vn 0.000018805298176789338 0.6235402229214847 -0.7817912701261036
vn 0.000011961898233466742 0.6235429738441419 -0.7817890761749726
vn 0.00002197179890853043 0.6235385636024068 -0.7817925934785308
vn 0.00005445819978884912 0.9999999982562395 0.000022843500079218305
vn 0.00003118070158308738 0.9999999986237742 0.00004219260148252502
vn 0.000027820500651105566 0.9999999985759684 0.00004554209947736394
vn 0.000002404679956034381 0.900972987166575 0.4338751852668647
vn 0.000005484559856685749 0.9009726398026573 0.4338759065642514
vn 0.0000017750800184278024 0.9009730795087348 0.4338749935147174
vn 0.000011776498326463668 0.6234762593702026 0.7818422819616841
vn 0.0000011175899176936192 0.6234759610186129 0.7818425199684832
vn 0.000004527159561334326 0.6234761574822151 0.7818423632873298
vn -0.000023938701531188403 0.2225307880344013 0.9749256627065096
vn 0 0.22253066186082482 0.9749256918000383
vn 0.00001068720058317856 0.2225307880854549 0.9749256629301797
vn 0 -0.2589407554873154 0.9658932058709484
vn 0 -0.2589407554873154 0.9658932058709484
vn 0 -0.2589407554873154 0.9658932058709484
vn -0.000023961099319344998 -0.7070813591462585 0.7071322019069317
vn -0.000026911500054781973 -0.7070824916212213 0.7071310694054509
vn -0.00003612040076104225 -0.7070860380043268 0.7071275228377555
vn 0.00003638859830489475 -0.7071275526314524 0.7070860081951293
vn 0.000024333599235395736 -0.707132261503069 0.7070812995331098
vn 0.000027120099259172883 -0.7071309799985867 0.7070825810262469
vn 0 -0.9658931646052628 0.25894090941531606
vn 0 -0.9658931646052628 0.25894090941531606
vn 0 -0.9658931646052628 0.25894090941531606
vn 0.0000019024296525721648 -0.9659204593992557 -0.25883907377038623
vn 0.0000031590496199804426 -0.965920459396184 -0.2588390737695631
vn -0.000007549299337406261 -0.9659204370201283 -0.25883915718038586
vn 0.0000072419596056144015 -0.7071347053919639 -0.7070788558412524
vn -0.000006139739367041118 -0.7071348246017473 -0.7070787366324629
vn 0.0000024351800618417745 -0.7071347352107324 -0.7070788260530201
vn 0.000001359539856969646 -0.25880795823943514 -0.9659287969359266
vn 0.0000013466900602839056 -0.25880840513229647 -0.9659286771967504
vn 0.0000013619400296280932 -0.2588076930838043 -0.9659288679808594
vn 0.000019691899605212536 -0.2587466906355793 -0.9659452105049047
vn 0.00003343819789259761 -0.25875418952335505 -0.9659432013767676
vn 0.00003077090223404186 -0.25875270981171666 -0.96594359784526
vn 0.822375881762073 -0.4023204089937587 0.40228869932319433
vn 0.8223758912179097 -0.40227728965934595 0.4023317981068356
vn 0.822375881245668 -0.4023342072161828 0.40227490059552173
vn 0.9999999992180026 0.00003816929890234083 0.00001034890009678007
vn 0.9999999991905719 0.000036820798384024226 0.000016219899394459104
vn 0.9999999992190391 0.000038345598993213184 0.00000956748043953179
vn 0.9999999994571669 0.000015116799650948013 -0.000029277100095465287
vn 0.9999999994566355 0.00001503990005495746 -0.000029334800258288256
vn 0.999999999457243 0.000015113500004172923 -0.000029276199695713252
vn 0.9999999996243336 -0.000015437599353047978 -0.000022649799566938337
vn 0.9999999995825393 -0.00002184510048207179 -0.00001891330065638498
vn 0.9999999994581268 -0.000029489399805634398 -0.000014632900266662343
vn 0.9999999994406041 0.0000028535700932887962 0.00003332639969767314
vn 0.9999999993547031 -0.000005543230141544895 0.000035494598682649824
vn 0.9999999994264654 9.38772984143727e-7 0.000033855398195237756
vn 0.9999999989560575 0.00004568980143408773 5.718320033735252e-7
vn 0.9999999989409682 0.000045955199263052195 -0.000002486629907347855
vn 0.999999998934703 0.000046022199918383105 -0.0000035427499331948224
vn 0.9999999984322787 0.000033017298795209324 -0.00004522499868657579
vn 0.9999999984440433 0.000035025201159514065 -0.0000434182983787835
vn 0.9999999984437071 0.00003415350142091286 -0.00004411489855966671
vn 0.9999999997176181 -0.000023499100273242173 -0.000003543510046165287
vn 0.9999999995552074 -0.000015738100039291755 -0.000025335699308570345
vn 0.999999999683167 -0.00001880529998147627 -0.000016734000377410227
vn 0.9999999985776677 -0.000013254099921389116 0.00005166230031973722
vn 0.9999999986696002 -0.000018745700774687954 0.00004805620113047905
vn 0.9999999984116625 -0.000006645920155636845 0.000055968801372961334
vn 0.999999999742003 -0.000018224100126490483 0.000013560100338648588
vn 0.9999999997469198 -0.00001672280086072227 0.000015050200086818279
vn 0.9999999996805027 -0.000007666650160269251 0.000024087699777317728
vn -0.000022802500091927656 -0.0000018775499479121827 0.9999999997382605
vn -0.000027716199826849045 0.000007733699927921086 0.9999999995860012
vn -0.00005409120040132549 0.00006119909792282745 0.9999999966644062
vn -0.00006513670112328095 0.8660113249306169 0.5000243802547308
vn 0.00003898140038213084 0.8660097513588272 0.5000271082970131
vn 0.000027835398678484916 0.8660100843000136 0.500026532411905
vn -0.9642516999266599 0.029668975709559845 -0.2633218773077773
vn -0.9642516999266599 0.029668975709559845 -0.2633218773077773
vn -0.9642511641628785 0.02966945815551731 -0.2633237848415746
vn 0.017828995158452713 0.8659062882784921 -0.4998884144000586
vn 0.017828338353887353 0.8659103162333012 -0.4998814605406806
vn 0.017828997067322595 0.8659074230117444 -0.4998864487428454
vn 0.000014588199264864027 0.9972042267310866 -0.07472435999619041
vn 0.000022128199304583307 0.9972047388904679 -0.07471752300990937
vn 0.00001984580027859418 0.9972046094804082 -0.07471925078030857
vn 0.03560673783926845 0.8654767788101883 0.4996820044396096
vn 0.035606738678319066 0.8654703022982383 0.49969322188767956
vn 0.03560680166860671 0.8654727974377295 0.49968889578441017
vn -0.00001091509972647189 0.7817891284149827 0.6235429083655769
vn -0.00001579519997720957 0.7817905562335812 0.6235411180784309
vn -0.000011026900272798158 0.7817891284140238 0.6235429083648121
vn 0.02971290683682805 0.00003943969301389896 0.9995584733330094
vn 0.029725006528742312 0.000027596998454699756 0.999558113981009
vn 0.02972703492972097 0.000025406496769599323 0.9995580537161397
vn 0.017091632026709838 -0.4920558372943764 0.8703958462097539
vn 0.017070110706682785 -0.4920487053786357 0.8704003003536189
vn 0.017090378312484708 -0.492055683848037 0.8703959575744691
vn -0.0042068949051297655 -0.5320267091637509 0.8467171208683847
vn -0.004185973660983406 -0.5320254557136155 0.8467180121488082
vn -0.0041987892090324715 -0.532026181584851 0.8467174926015296
vn 0.000020275898611558677 -0.9937148222111831 0.11194128687255929
vn 0.000027395795499960342 -0.9937147996653111 0.11194148549845655
vn 0.000005647069479104186 -0.9937148778462258 0.11194079468706254
vn -0.000050194597828137825 -0.9438851469486439 -0.3302738664354772
vn -0.00004957619914041714 -0.9438798922473778 -0.3302888834842601
vn -0.000049652491605977936 -0.943880496141319 -0.3302871576956146
vn 0.00002812220020802796 -0.33028799431480743 -0.9438802042741672
vn 0.00002814829867847079 -0.33029126799841524 -0.9438790587208047
vn 0.000028178098762614623 -0.33030118726060637 -0.9438755876174721
vn 0.000008165840149141059 0.11197930071990746 -0.993710539414572
vn -0.000013134399818404507 0.11197929335682676 -0.9937105401910523
vn 8.034999335983287e-7 0.11197929336644953 -0.9937105402764453
vn -0.004213212969355454 0.5319926117546063 -0.8467385132819858
vn -0.004200576820431649 0.5319927950909783 -0.8467384608754136
vn -0.00421655043817633 0.5319925615356439 -0.8467385282205755
vn 0.9999999990222177 0.000010818200269904571 -0.0000428780985693288
vn 0.9999999992196882 -0.000011756599624198575 -0.000037714798934432234
vn 0.9999999992230315 -0.000008098780193069002 -0.00003857909902493923
vn 0.9999999999608069 -0.000007780739906288275 -0.000004224480107784942
vn 0.9999999999589961 -0.000004924830136385906 -0.000007599589934813938
vn 0.9999999999434981 -0.000010592900252360707 -8.912759880737485e-7
vn 0.9999999998948479 -0.00001437589980772638 -0.000001907349996853991
vn 0.9999999998899614 -0.000014759600160881977 0.0000014938400452767948
vn 0.9999999998948552 -0.00001448389957506656 -7.11529992184061e-7
vn 0.9999999988984241 -0.00002448260053856464 0.00004004689976818133
vn 0.9999999989003101 -0.000023253300216205322 0.000040726699763360066
vn 0.9999999988548018 -0.0000147893997394729 0.00004551560045246209
vn 0.999999998036549 -0.000026598599963634073 0.00005673990006244621
vn 0.9999999980553056 -0.0000502914007415404 0.000036880399348903494
vn 0.999999998165322 -0.00004015490041547085 0.00004535349936169101
vn 0.9999999987845523 -0.0000010468099832005867 0.0000492930011515681
vn 0.9999999986004418 -0.000015091200090662096 0.000050708698765418286
vn 0.9999999987962198 0.000006221239793163251 0.000048670899500921806
vn 0.9999999994520743 0.000031495499552898324 0.00001019239970797533
vn 0.9999999994755993 0.000028263799307481826 0.000015810099276572273
vn 0.9999999994729052 0.000026883999439105047 0.000018205499135955562
vn 0.9999999992632134 0.000037185800438124335 0.00000952836034437589
vn 0.9999999992613049 0.00003708530127358169 0.0000101030000148915
vn 0.9999999992648896 0.00003729810120590022 0.000008892269754881192
vn 0.999999999601016 0.000015541900205045715 -0.00002358849996167193
vn 0.9999999995601547 0.000029459599305257957 -0.0000034384399881101844
vn 0.9999999995551438 0.000013366299748178985 -0.00002666560065968697
f 1/1/1 2/2/2 3/3/3
f 4/4/4 5/5/5 6/6/6
f 7/7/7 8/8/8 9/9/9
f 10/10/10 11/11/11 12/12/12
f 13/13/13 14/14/14 15/15/15
f 16/16/16 17/17/17 18/18/18
f 19/19/19 20/20/20 21/21/21
f 22/22/22 23/23/23 24/24/24
f 25/25/25 26/26/26 27/27/27
f 28/28/28 29/29/29 30/30/30
f 31/31/31 32/32/32 33/33/33
f 34/34/34 35/35/35 36/36/36
f 37/37/37 38/38/38 39/39/39
f 40/40/40 41/41/41 42/42/42
f 43/43/43 44/44/44 45/45/45
f 46/46/46 47/47/47 48/48/48
f 49/49/49 50/50/50 51/51/51
f 52/52/52 53/53/53 54/54/54
f 55/55/55 56/56/56 57/57/57
f 58/58/58 59/59/59 60/60/60
f 61/61/61 62/62/62 63/63/63
f 64/64/64 65/65/65 66/66/66
f 67/67/67 68/68/68 69/69/69
f 70/70/70 71/71/71 72/72/72
f 73/73/73 74/74/74 75/75/75
f 76/76/76 77/77/77 78/78/78
f 79/79/79 80/80/80 81/81/81
f 82/82/82 83/83/83 84/84/84
f 85/85/85 86/86/86 87/87/87
f 88/88/88 89/89/89 90/90/90
f 91/91/91 92/92/92 93/93/93
f 94/94/94 95/95/95 96/96/96
f 97/97/97 98/98/98 99/99/99
f 100/100/100 101/101/101 102/102/102
f 103/103/103 104/104/104 105/105/105
f 106/106/106 107/107/107 108/108/108
f 109/109/109 110/110/110 111/111/111
f 112/112/112 113/113/113 114/114/114
f 115/115/115 116/116/116 117/117/117
f 118/118/118 119/119/119 120/120/120
f 121/121/121 122/122/122 123/123/123
f 124/124/124 125/125/125 126/126/126
f 127/127/127 128/128/128 129/129/129
f 130/130/130 131/131/131 132/132/132
f 133/133/133 134/134/134 135/135/135
f 136/136/136 137/137/137 138/138/138
f 139/139/139 140/140/140 141/141/141
f 142/142/142 143/143/143 144/144/144
f 145/145/145 146/146/146 147/147/147
f 148/148/148 149/149/149 150/150/150
f 151/151/151 152/152/152 153/153/153
f 154/154/154 155/155/155 156/156/156
f 157/157/157 158/158/158 159/159/159
f 160/160/160 161/161/161 162/162/162
f 163/163/163 164/164/164 165/165/165
f 166/166/166 167/167/167 168/168/168
f 169/169/169 170/170/170 171/171/171
f 172/172/172 173/173/173 174/174/174
f 175/175/175 176/176/176 177/177/177
f 178/178/178 179/179/179 180/180/180
f 181/181/181 182/182/182 183/183/183
f 184/184/184 185/185/185 186/186/186
f 187/187/187 188/188/188 189/189/189
f 190/190/190 191/191/191 192/192/192
f 193/193/193 194/194/194 195/195/195
f 196/196/196 197/197/197 198/198/198
f 199/199/199 200/200/200 201/201/201
f 202/202/202 203/203/203 204/204/204
f 205/205/205 206/206/206 207/207/207
f 208/208/208 209/209/209 210/210/210
f 211/211/211 212/212/212 213/213/213
f 214/214/214 215/215/215 216/216/216
f 217/217/217 218/218/218 219/219/219
f 220/220/220 221/221/221 222/222/222
f 223/223/223 224/224/224 225/225/225
f 226/226/226 227/227/227 228/228/228
f 229/229/229 230/230/230 231/231/231
f 232/232/232 233/233/233 234/234/234
f 235/235/235 236/236/236 237/237/237
f 238/238/238 239/239/239 240/240/240
f 241/241/241 242/242/242 243/243/243
f 244/244/244 245/245/245 246/246/246
f 247/247/247 248/248/248 249/249/249
f 250/250/250 251/251/251 252/252/252
f 253/253/253 254/254/254 255/255/255
f 256/256/256 257/257/257 258/258/258
f 259/259/259 260/260/260 261/261/261
f 262/262/262 263/263/263 264/264/264
f 265/265/265 266/266/266 267/267/267
f 268/268/268 269/269/269 270/270/270
f 271/271/271 272/272/272 273/273/273
f 274/274/274 275/275/275 276/276/276
f 277/277/277 278/278/278 279/279/279
f 280/280/280 281/281/281 282/282/282
f 283/283/283 284/284/284 285/285/285
f 286/286/286 287/287/287 288/288/288
f 289/289/289 290/290/290 291/291/291
f 292/292/292 293/293/293 294/294/294
f 295/295/295 296/296/296 297/297/297
f 298/298/298 299/299/299 300/300/300
f 301/301/301 302/302/302 303/303/303
f 304/304/304 305/305/305 306/306/306
f 307/307/307 308/308/308 309/309/309
f 310/310/310 311/311/311 312/312/312
f 313/313/313 314/314/314 315/315/315
f 316/316/316 317/317/317 318/318/318
f 319/319/319 320/320/320 321/321/321
f 322/322/322 323/323/323 324/324/324
f 325/325/325 326/326/326 327/327/327
f 328/328/328 329/329/329 330/330/330
f 331/331/331 332/332/332 333/333/333
f 334/334/334 335/335/335 336/336/336
f 337/337/337 338/338/338 339/339/339
f 340/340/340 341/341/341 342/342/342
f 343/343/343 344/344/344 345/345/345
f 346/346/346 347/347/347 348/348/348
f 349/349/349 350/350/350 351/351/351
f 352/352/352 353/353/353 354/354/354
f 355/355/355 356/356/356 357/357/357
f 358/358/358 359/359/359 360/360/360
f 361/361/361 362/362/362 363/363/363
f 364/364/364 365/365/365 366/366/366
f 367/367/367 368/368/368 369/369/369
f 370/370/370 371/371/371 372/372/372
f 373/373/373 374/374/374 375/375/375
f 376/376/376 377/377/377 378/378/378
f 379/379/379 380/380/380 381/381/381
f 382/382/382 383/383/383 384/384/384
f 385/385/385 386/386/386 387/387/387
f 388/388/388 389/389/389 390/390/390
f 391/391/391 392/392/392 393/393/393
f 394/394/394 395/395/395 396/396/396
f 397/397/397 398/398/398 399/399/399
f 400/400/400 401/401/401 402/402/402
f 403/403/403 404/404/404 405/405/405
f 406/406/406 407/407/407 408/408/408
f 409/409/409 410/410/410 411/411/411
f 412/412/412 413/413/413 414/414/414
f 415/415/415 416/416/416 417/417/417
f 418/418/418 419/419/419 420/420/420
f 421/421/421 422/422/422 423/423/423
f 424/424/424 425/425/425 426/426/426
f 427/427/427 428/428/428 429/429/429
f 430/430/430 431/431/431 432/432/432
f 433/433/433 434/434/434 435/435/435
f 436/436/436 437/437/437 438/438/438
f 439/439/439 440/440/440 441/441/441
f 442/442/442 443/443/443 444/444/444
f 445/445/445 446/446/446 447/447/447
f 448/448/448 449/449/449 450/450/450
f 451/451/451 452/452/452 453/453/453
f 454/454/454 455/455/455 456/456/456
f 457/457/457 458/458/458 459/459/459
f 460/460/460 461/461/461 462/462/462
f 463/463/463 464/464/464 465/465/465
f 466/466/466 467/467/467 468/468/468
f 469/469/469 470/470/470 471/471/471
f 472/472/472 473/473/473 474/474/474
f 475/475/475 476/476/476 477/477/477
f 478/478/478 479/479/479 480/480/480
f 481/481/481 482/482/482 483/483/483
f 484/484/484 485/485/485 486/486/486
f 487/487/487 488/488/488 489/489/489
f 490/490/490 491/491/491 492/492/492
f 493/493/493 494/494/494 495/495/495
f 496/496/496 497/497/497 498/498/498
f 499/499/499 500/500/500 501/501/501
f 502/502/502 503/503/503 504/504/504
f 505/505/505 506/506/506 507/507/507
f 508/508/508 509/509/509 510/510/510
f 511/511/511 512/512/512 513/513/513
f 514/514/514 515/515/515 516/516/516
f 517/517/517 518/518/518 519/519/519
f 520/520/520 521/521/521 522/522/522
f 523/523/523 524/524/524 525/525/525
f 526/526/526 527/527/527 528/528/528
f 529/529/529 530/530/530 531/531/531
f 532/532/532 533/533/533 534/534/534
