o shoulderRollLeft
usemtl 灰色
v -0.00019999999494757503 0.014848940074443817 0.014848940074443817
v -0.004999995231628418 0.014848940074443817 0.014848940074443817
v -0.004999995231628418 0.01049994956701994 0.018186980858445168
v -0.00019999999494757503 0.014848940074443817 0.014848940074443817
v -0.004999995231628418 0.01049994956701994 0.018186980858445168
v -0.00019999999494757503 0.01049994956701994 0.018186980858445168
v -0.00019999999494757503 0.01049994956701994 0.018186980858445168
v -0.004999995231628418 0.01049994956701994 0.018186980858445168
v -0.004999995231628418 0.005434988997876644 0.02028398960828781
v -0.00019999999494757503 0.01049994956701994 0.018186980858445168
v -0.004999995231628418 0.005434988997876644 0.02028398960828781
v -0.00019999999494757503 0.005434988997876644 0.02028398960828781
v -0.00019999999494757503 0.005434988997876644 0.02028398960828781
v -0.004999995231628418 0.005434988997876644 0.02028398960828781
v -0.004999995231628418 0 0.020999960601329803
v -0.00019999999494757503 0.005434988997876644 0.02028398960828781
v -0.004999995231628418 0 0.020999960601329803
v -0.00019999999494757503 0 0.020999960601329803
v -0.00019999999494757503 0 0.020999960601329803
v -0.004999995231628418 0 0.020999960601329803
v -0.004999995231628418 -0.005434988997876644 0.02028398960828781
v -0.00019999999494757503 0 0.020999960601329803
v -0.004999995231628418 -0.005434988997876644 0.02028398960828781
v -0.00019999999494757503 -0.005434988997876644 0.02028398960828781
v -0.00019999999494757503 -0.005434988997876644 0.02028398960828781
v -0.004999995231628418 -0.005434988997876644 0.02028398960828781
v -0.004999995231628418 -0.01049994956701994 0.018186980858445168
v -0.00019999999494757503 -0.005434988997876644 0.02028398960828781
v -0.004999995231628418 -0.01049994956701994 0.018186980858445168
v -0.00019999999494757503 -0.01049994956701994 0.018186980858445168
v -0.00019999999494757503 -0.01049994956701994 0.018186980858445168
v -0.004999995231628418 -0.01049994956701994 0.018186980858445168
v -0.004999995231628418 -0.014848940074443817 0.014848940074443817
v -0.00019999999494757503 -0.01049994956701994 0.018186980858445168
v -0.004999995231628418 -0.014848940074443817 0.014848940074443817
v -0.00019999999494757503 -0.014848940074443817 0.014848940074443817
v -0.00019999999494757503 -0.014848940074443817 0.014848940074443817
v -0.004999995231628418 -0.014848940074443817 0.014848940074443817
v -0.004999995231628418 -0.018186980858445168 0.01049994956701994
v -0.00019999999494757503 -0.014848940074443817 0.014848940074443817
v -0.004999995231628418 -0.018186980858445168 0.01049994956701994
v -0.00019999999494757503 -0.018186980858445168 0.01049994956701994
v -0.00019999999494757503 -0.018186980858445168 0.01049994956701994
v -0.004999995231628418 -0.018186980858445168 0.01049994956701994
v -0.004999995231628418 -0.02028398960828781 0.005434988997876644
v -0.00019999999494757503 -0.018186980858445168 0.01049994956701994
v -0.004999995231628418 -0.02028398960828781 0.005434988997876644
v -0.00019999999494757503 -0.02028398960828781 0.005434988997876644
v -0.00019999999494757503 -0.02028398960828781 0.005434988997876644
v -0.004999995231628418 -0.02028398960828781 0.005434988997876644
v -0.004999995231628418 -0.020999960601329803 0
v -0.00019999999494757503 -0.02028398960828781 0.005434988997876644
v -0.004999995231628418 -0.020999960601329803 0
v -0.00019999999494757503 -0.020999960601329803 0
v -0.00019999999494757503 -0.020999960601329803 0
v -0.004999995231628418 -0.020999960601329803 0
v -0.004999995231628418 -0.02028398960828781 -0.005434988997876644
v -0.00019999999494757503 -0.020999960601329803 0
v -0.004999995231628418 -0.02028398960828781 -0.005434988997876644
v -0.00019999999494757503 -0.02028398960828781 -0.005434988997876644
v -0.00019999999494757503 -0.02028398960828781 -0.005434988997876644
v -0.004999995231628418 -0.02028398960828781 -0.005434988997876644
v -0.004999995231628418 -0.018186980858445168 -0.01049994956701994
v -0.00019999999494757503 -0.02028398960828781 -0.005434988997876644
v -0.004999995231628418 -0.018186980858445168 -0.01049994956701994
v -0.00019999999494757503 -0.018186980858445168 -0.01049994956701994
v -0.00019999999494757503 -0.018186980858445168 -0.01049994956701994
v -0.004999995231628418 -0.018186980858445168 -0.01049994956701994
v -0.004999995231628418 -0.014848940074443817 -0.014848940074443817
v -0.00019999999494757503 -0.018186980858445168 -0.01049994956701994
v -0.004999995231628418 -0.014848940074443817 -0.014848940074443817
v -0.00019999999494757503 -0.014848940074443817 -0.014848940074443817
v -0.00019999999494757503 -0.014848940074443817 -0.014848940074443817
v -0.004999995231628418 -0.014848940074443817 -0.014848940074443817
v -0.004999995231628418 -0.01049994956701994 -0.018186980858445168
v -0.00019999999494757503 -0.014848940074443817 -0.014848940074443817
v -0.004999995231628418 -0.01049994956701994 -0.018186980858445168
v -0.00019999999494757503 -0.01049994956701994 -0.018186980858445168
v -0.00019999999494757503 -0.01049994956701994 -0.018186980858445168
v -0.004999995231628418 -0.01049994956701994 -0.018186980858445168
v -0.004999995231628418 -0.005434988997876644 -0.02028398960828781
v -0.00019999999494757503 -0.01049994956701994 -0.018186980858445168
v -0.004999995231628418 -0.005434988997876644 -0.02028398960828781
v -0.00019999999494757503 -0.005434988997876644 -0.02028398960828781
v -0.00019999999494757503 -0.005434988997876644 -0.02028398960828781
v -0.004999995231628418 -0.005434988997876644 -0.02028398960828781
v -0.004999995231628418 0 -0.020999960601329803
v -0.00019999999494757503 -0.005434988997876644 -0.02028398960828781
v -0.004999995231628418 0 -0.020999960601329803
v -0.00019999999494757503 0 -0.020999960601329803
v -0.00019999999494757503 0 -0.020999960601329803
v -0.004999995231628418 0 -0.020999960601329803
v -0.004999995231628418 0.005434988997876644 -0.02028398960828781
v -0.00019999999494757503 0 -0.020999960601329803
v -0.004999995231628418 0.005434988997876644 -0.02028398960828781
v -0.00019999999494757503 0.005434988997876644 -0.02028398960828781
v -0.00019999999494757503 0.005434988997876644 -0.02028398960828781
v -0.004999995231628418 0.005434988997876644 -0.02028398960828781
v -0.004999995231628418 0.01049994956701994 -0.018186980858445168
v -0.00019999999494757503 0.005434988997876644 -0.02028398960828781
v -0.004999995231628418 0.01049994956701994 -0.018186980858445168
v -0.00019999999494757503 0.01049994956701994 -0.018186980858445168
v -0.00019999999494757503 0.01049994956701994 -0.018186980858445168
v -0.004999995231628418 0.01049994956701994 -0.018186980858445168
v -0.004999995231628418 0.014848940074443817 -0.014848940074443817
v -0.00019999999494757503 0.01049994956701994 -0.018186980858445168
v -0.004999995231628418 0.014848940074443817 -0.014848940074443817
v -0.00019999999494757503 0.014848940074443817 -0.014848940074443817
v -0.00019999999494757503 0.014848940074443817 -0.014848940074443817
v -0.004999995231628418 0.014848940074443817 -0.014848940074443817
v -0.004999995231628418 0.018186980858445168 -0.01049994956701994
v -0.00019999999494757503 0.014848940074443817 -0.014848940074443817
v -0.004999995231628418 0.018186980858445168 -0.01049994956701994
v -0.00019999999494757503 0.018186980858445168 -0.01049994956701994
v -0.00019999999494757503 0.018186980858445168 -0.01049994956701994
v -0.004999995231628418 0.018186980858445168 -0.01049994956701994
v -0.004999995231628418 0.02028398960828781 -0.005434988997876644
v -0.00019999999494757503 0.018186980858445168 -0.01049994956701994
v -0.004999995231628418 0.02028398960828781 -0.005434988997876644
v -0.00019999999494757503 0.02028398960828781 -0.005434988997876644
v -0.00019999999494757503 0.02028398960828781 -0.005434988997876644
v -0.004999995231628418 0.02028398960828781 -0.005434988997876644
v -0.004999995231628418 0.020999960601329803 0
v -0.00019999999494757503 0.02028398960828781 -0.005434988997876644
v -0.004999995231628418 0.020999960601329803 0
v -0.00019999999494757503 0.020999960601329803 0
v -0.00019999999494757503 0.020999960601329803 0
v -0.004999995231628418 0.020999960601329803 0
v -0.004999995231628418 0.02028398960828781 0.005434988997876644
v -0.00019999999494757503 0.020999960601329803 0
v -0.004999995231628418 0.02028398960828781 0.005434988997876644
v -0.00019999999494757503 0.02028398960828781 0.005434988997876644
v -0.00019999999494757503 0.02028398960828781 0.005434988997876644
v -0.004999995231628418 0.02028398960828781 0.005434988997876644
v -0.004999995231628418 0.018186980858445168 0.01049994956701994
v -0.00019999999494757503 0.02028398960828781 0.005434988997876644
v -0.004999995231628418 0.018186980858445168 0.01049994956701994
v -0.00019999999494757503 0.018186980858445168 0.01049994956701994
v -0.00019999999494757503 0.018186980858445168 0.01049994956701994
v -0.004999995231628418 0.018186980858445168 0.01049994956701994
v -0.004999995231628418 0.014848940074443817 0.014848940074443817
v -0.00019999999494757503 0.018186980858445168 0.01049994956701994
v -0.004999995231628418 0.014848940074443817 0.014848940074443817
v -0.00019999999494757503 0.014848940074443817 0.014848940074443817
v -0.00019999999494757503 0.02028398960828781 -0.005434988997876644
v 0 0.020600970834493637 -0.0028719899710267782
v -0.00019999999494757503 0.018186980858445168 -0.01049994956701994
v -0.00019999999494757503 0.020999960601329803 0
v 0 0.020600970834493637 -0.0028719899710267782
v -0.00019999999494757503 0.02028398960828781 -0.005434988997876644
v -0.00019999999494757503 0 0.020999960601329803
v 0 0.0028719899710267782 0.020600970834493637
v -0.00019999999494757503 0.005434988997876644 0.02028398960828781
v -0.00019999999494757503 0.005434988997876644 0.02028398960828781
v 0 0.0028719899710267782 0.020600970834493637
v -0.00019999999494757503 0.01049994956701994 0.018186980858445168
v -0.00019999999494757503 -0.005434988997876644 0.02028398960828781
v 0 0.0028719899710267782 0.020600970834493637
v -0.00019999999494757503 0 0.020999960601329803
v -0.00019999999494757503 -0.014848940074443817 0.014848940074443817
v 0 -0.0130459601059556 0.014176960103213787
v -0.00019999999494757503 -0.01049994956701994 0.018186980858445168
v -0.00019999999494757503 0.02028398960828781 0.005434988997876644
v 0 0.020600970834493637 -0.0028719899710267782
v -0.00019999999494757503 0.020999960601329803 0
v 0 -0.0076249828562140465 0.016819000244140625
v 0 -0.0130459601059556 0.014176960103213787
v -0.00019999999494757503 -0.010510980151593685 0.014040940441191196
v -0.00019999999494757503 0.014848940074443817 -0.014848940074443817
v -0.00019999999494757503 0.018186980858445168 -0.01049994956701994
v 0 0.014201990328729153 -0.010630959644913673
v 0 0.01701200008392334 -0.007573962211608887
v -0.00019999999494757503 0.016433950513601303 -0.0061299800872802734
v 0 0.014201990328729153 -0.010630959644913673
v 0 0.01701200008392334 -0.007573962211608887
v 0 0.014201990328729153 -0.010630959644913673
v 0 0.017991960048675537 -0.00813895370811224
v 0 0.017991960048675537 -0.00813895370811224
v 0 0.014201990328729153 -0.010630959644913673
v -0.00019999999494757503 0.018186980858445168 -0.01049994956701994
v -0.00019999999494757503 0.016433950513601303 -0.0061299800872802734
v 0 0.01701200008392334 -0.007573962211608887
v 0 0.01857995055615902 -0.007276951801031828
v -0.00019999999494757503 0.018186980858445168 -0.01049994956701994
v 0 0.01857995055615902 -0.007276951801031828
v 0 0.017991960048675537 -0.00813895370811224
v 0 0.008501945994794369 0.015569980256259441
v 0 0.00813895370811224 0.017991960048675537
v 0 0.007159947883337736 0.01701200008392334
v 0 0.007159947883337736 0.01701200008392334
v -0.00019999999494757503 0.0037279720418155193 0.017138950526714325
v 0 0.008501945994794369 0.015569980256259441
v 0 0.007159947883337736 0.01701200008392334
v 0 0.006688951980322599 0.018209990113973618
v 0 0.00020700000459328294 0.018476959317922592
v 0 0.0028719899710267782 0.020600970834493637
v 0 0.006688951980322599 0.018209990113973618
v -0.00019999999494757503 0.01049994956701994 0.018186980858445168
v -0.00019999999494757503 0.01049994956701994 0.018186980858445168
v 0 0.006688951980322599 0.018209990113973618
v 0 0.00813895370811224 0.017991960048675537
v 0 0.00020700000459328294 0.018476959317922592
v 0 -0.0005660000024363399 0.018683960661292076
v 0 -0.0012659430503845215 0.017694950103759766
v 0 -0.0005660000024363399 0.018683960661292076
v 0 -0.00042600001324899495 0.01992695964872837
v -0.00019999999494757503 -0.005434988997876644 0.02028398960828781
v -0.00019999999494757503 -0.005434988997876644 0.02028398960828781
v 0 -0.00042600001324899495 0.01992695964872837
v 0 0.0028719899710267782 0.020600970834493637
v 0 0.0028719899710267782 0.020600970834493637
v 0 -0.00042600001324899495 0.01992695964872837
v 0 0.0005660000024363399 0.019815979525446892
v 0 0.0005660000024363399 0.019815979525446892
v 0 0.00020700000459328294 0.018476959317922592
v 0 0.0028719899710267782 0.020600970834493637
v 0 0.0028719899710267782 0.020600970834493637
v 0 0.00020700000459328294 0.018476959317922592
v 0 0.006688951980322599 0.018209990113973618
v 0 0.019042959436774254 0.0007730000070296228
v -0.00019999999494757503 0.02028398960828781 0.005434988997876644
v 0 0.01849197968840599 0.00665998412296176
v 0 0.019042959436774254 0.0007730000070296228
v 0 0.020022980868816376 -0.00020700000459328294
v -0.00019999999494757503 0.02028398960828781 0.005434988997876644
v -0.00019999999494757503 0.02028398960828781 0.005434988997876644
v 0 0.020022980868816376 -0.00020700000459328294
v 0 0.020600970834493637 -0.0028719899710267782
v 0 0.017694950103759766 -0.0012659430503845215
v 0 0.019456980749964714 -0.0007730000070296228
v 0 0.019042959436774254 0.0007730000070296228
v 0 0.019042959436774254 0.0007730000070296228
v 0 0.01849197968840599 0.00665998412296176
v 0 0.017694950103759766 -0.0012659430503845215
v 0 -0.008073984645307064 0.01849197968840599
v -0.00019999999494757503 -0.005434988997876644 0.02028398960828781
v -0.00019999999494757503 -0.01049994956701994 0.018186980858445168
v -0.00019999999494757503 -0.0061299800872802734 0.016433950513601303
v 0 -0.00665998412296176 0.017077980563044548
v 0 -0.0076249828562140465 0.016819000244140625
v 0 -0.0130459601059556 0.014176960103213787
v 0 -0.0076249828562140465 0.016819000244140625
v 0 -0.008332966826856136 0.017525969073176384
v -0.00019999999494757503 -0.01049994956701994 0.018186980858445168
v 0 -0.0130459601059556 0.014176960103213787
v 0 -0.008332966826856136 0.017525969073176384
v -0.00019999999494757503 -0.01049994956701994 0.018186980858445168
v 0 -0.008332966826856136 0.017525969073176384
v 0 -0.008073984645307064 0.01849197968840599
v 0 -0.0012659430503845215 0.017694950103759766
v 0 -0.00665998412296176 0.01849197968840599
v 0 -0.00665998412296176 0.017077980563044548
v 0 -0.00665998412296176 0.01849197968840599
v 0 -0.0012659430503845215 0.017694950103759766
v -0.00019999999494757503 -0.005434988997876644 0.02028398960828781
v 0 0.017525969073176384 0.006400941871106625
v 0 0.016819000244140625 0.0076249828562140465
v 0 0.017334990203380585 0.003770946990698576
v 0 0.017334990203380585 0.003770946990698576
v 0 0.016819000244140625 0.0076249828562140465
v 0 0.015569980256259441 0.008501945994794369
v 0 0.017525969073176384 0.008332966826856136
v -0.00019999999494757503 0.018186980858445168 0.01049994956701994
v 0 0.015569980256259441 0.008501945994794369
v 0 0.017525969073176384 0.008332966826856136
v 0 0.015569980256259441 0.008501945994794369
v 0 0.016819000244140625 0.0076249828562140465
v 0 0.01849197968840599 0.00665998412296176
v -0.00019999999494757503 0.02028398960828781 0.005434988997876644
v 0 0.01849197968840599 0.008073984645307064
v 0 0.01849197968840599 0.008073984645307064
v -0.00019999999494757503 0.02028398960828781 0.005434988997876644
v -0.00019999999494757503 0.018186980858445168 0.01049994956701994
v 0 0.01849197968840599 0.008073984645307064
v -0.00019999999494757503 0.018186980858445168 0.01049994956701994
v 0 0.017525969073176384 0.008332966826856136
v 0 0.006400941871106625 -0.017525969073176384
v -0.00019999999494757503 0.0061299800872802734 -0.016433950513601303
v 0 0.0005660000024363399 -0.018683960661292076
v 0 0.006400941871106625 -0.017525969073176384
v 0 0.0005660000024363399 -0.018683960661292076
v 0 0.007107973098754883 -0.018750960007309914
v -0.00019999999494757503 0.01049994956701994 -0.018186980858445168
v 0 0.008073984645307064 -0.01849197968840599
v -0.00019999999494757503 0.005434988997876644 -0.02028398960828781
v -0.00019999999494757503 0.005434988997876644 -0.02028398960828781
v 0 0.008073984645307064 -0.01849197968840599
v 0 0.007107973098754883 -0.018750960007309914
v 0 0.008073984645307064 -0.01849197968840599
v -0.00019999999494757503 0.01049994956701994 -0.018186980858445168
v 0 0.008073984645307064 -0.017077980563044548
v 0 0.008073984645307064 -0.017077980563044548
v -0.00019999999494757503 0.01049994956701994 -0.018186980858445168
v 0 0.010630959644913673 -0.014201990328729153
v 0 0.008073984645307064 -0.017077980563044548
v 0 0.010630959644913673 -0.014201990328729153
v 0 0.007107973098754883 -0.016819000244140625
v 0 -0.0176729504019022 -0.008359967730939388
v 0 -0.018750960007309914 -0.0076249828562140465
v -0.00019999999494757503 -0.018186980858445168 -0.01049994956701994
v -0.00019999999494757503 -0.018186980858445168 -0.01049994956701994
v 0 -0.018750960007309914 -0.0076249828562140465
v -0.00019999999494757503 -0.02028398960828781 -0.005434988997876644
v 0 -0.0176729504019022 -0.008359967730939388
v -0.00019999999494757503 -0.018186980858445168 -0.01049994956701994
v 0 -0.016937969252467155 -0.007898986339569092
v 0 -0.018750960007309914 -0.0076249828562140465
v 0 -0.018042979761958122 -0.006400941871106625
v -0.00019999999494757503 -0.02028398960828781 -0.005434988997876644
v -0.00019999999494757503 -0.02028398960828781 -0.005434988997876644
v 0 -0.018042979761958122 -0.006400941871106625
v 0 -0.018476959317922592 -0.00020700000459328294
v 0 -0.018476959317922592 -0.00020700000459328294
v 0 -0.018042979761958122 -0.006400941871106625
v 0 -0.017077980563044548 -0.00665998412296176
v 0 -0.015569980256259441 -0.008501945994794369
v -0.00019999999494757503 -0.018186980858445168 -0.01049994956701994
v 0 -0.014176960103213787 -0.014176960103213787
v 0 -0.014176960103213787 -0.014176960103213787
v 0 -0.0130459601059556 -0.0130459601059556
v 0 -0.015569980256259441 -0.008501945994794369
v 0 -0.015569980256259441 -0.008501945994794369
v 0 -0.0130459601059556 -0.0130459601059556
v -0.00019999999494757503 -0.01240294985473156 -0.01240294985473156
v -0.00019999999494757503 -0.01240294985473156 -0.01240294985473156
v 0 -0.0130459601059556 -0.0130459601059556
v 0 -0.008501945994794369 -0.015569980256259441
v 0 -0.014176960103213787 -0.014176960103213787
v -0.00019999999494757503 -0.018186980858445168 -0.01049994956701994
v -0.00019999999494757503 -0.014848940074443817 -0.014848940074443817
v -0.00019999999494757503 -0.005434988997876644 -0.02028398960828781
v -0.00019999999494757503 0 -0.020999960601329803
v 0 0.00020700000459328294 -0.020022980868816376
v 0 0.0005660000024363399 -0.018683960661292076
v -0.00019999999494757503 0.005434988997876644 -0.02028398960828781
v 0 0.007107973098754883 -0.018750960007309914
v 0 0.00020700000459328294 -0.020022980868816376
v 0 -0.0005660000024363399 -0.019815979525446892
v -0.00019999999494757503 -0.005434988997876644 -0.02028398960828781
v 0 -0.0005660000024363399 -0.019815979525446892
v 0 -0.00042600001324899495 -0.018572980538010597
v 0 -0.003770946990698576 -0.017334990203380585
v 0 -0.003770946990698576 -0.017334990203380585
v 0 -0.00042600001324899495 -0.018572980538010597
v -0.00019999999494757503 0.0012509820517152548 -0.017494969069957733
v -0.00019999999494757503 0.0012509820517152548 -0.017494969069957733
v 0 -0.00042600001324899495 -0.018572980538010597
v 0 0.0005660000024363399 -0.018683960661292076
v -0.00019999999494757503 0.005434988997876644 -0.02028398960828781
v 0 0.0005660000024363399 -0.018683960661292076
v 0 0.00020700000459328294 -0.020022980868816376
v -0.00019999999494757503 0.005434988997876644 -0.02028398960828781
v 0 0.00020700000459328294 -0.020022980868816376
v -0.00019999999494757503 0 -0.020999960601329803
v 0 -0.0130459601059556 -0.0130459601059556
v 0 -0.012933960184454918 -0.014036949723958969
v 0 -0.008501945994794369 -0.015569980256259441
v 0 -0.003770946990698576 -0.017334990203380585
v -0.00019999999494757503 -0.005434988997876644 -0.02028398960828781
v 0 -0.0005660000024363399 -0.019815979525446892
v 0 0.006400941871106625 -0.017525969073176384
v 0 0.007107973098754883 -0.016819000244140625
v -0.00019999999494757503 0.0061299800872802734 -0.016433950513601303
v -0.00019999999494757503 0.0061299800872802734 -0.016433950513601303
v 0 0.007107973098754883 -0.016819000244140625
v 0 0.010630959644913673 -0.014201990328729153
v 0 0.010630959644913673 -0.014201990328729153
v 0 0.0130459601059556 -0.0130459601059556
v 0 0.014201990328729153 -0.010630959644913673
v 0 0.014201990328729153 -0.010630959644913673
v 0 0.0130459601059556 -0.0130459601059556
v 0 0.014176960103213787 -0.0130459601059556
v 0 0.014201990328729153 -0.010630959644913673
v 0 0.014176960103213787 -0.0130459601059556
v -0.00019999999494757503 0.014848940074443817 -0.014848940074443817
v -0.00019999999494757503 0.014848940074443817 -0.014848940074443817
v 0 0.014176960103213787 -0.0130459601059556
v 0 0.013700960204005241 -0.014406969770789146
v -0.00019999999494757503 0.014848940074443817 -0.014848940074443817
v 0 0.013700960204005241 -0.014406969770789146
v -0.00019999999494757503 0.01049994956701994 -0.018186980858445168
v 0 0.017694950103759766 -0.0012659430503845215
v 0 0.01849197968840599 0.00665998412296176
v 0 0.017334990203380585 0.003770946990698576
v 0 0.017334990203380585 0.003770946990698576
v 0 0.01849197968840599 0.00665998412296176
v 0 0.017525969073176384 0.006400941871106625
v -0.00019999999494757503 0.01049994956701994 0.018186980858445168
v 0 0.00813895370811224 0.017991960048675537
v 0 0.008501945994794369 0.015569980256259441
v -0.00019999999494757503 0.01049994956701994 0.018186980858445168
v 0 0.008501945994794369 0.015569980256259441
v 0 0.012838950380682945 0.013818969950079918
v -0.00019999999494757503 0.01049994956701994 0.018186980858445168
v 0 0.012838950380682945 0.013818969950079918
v 0 0.014406969770789146 0.013521960005164146
v -0.00019999999494757503 0.01049994956701994 0.018186980858445168
v 0 0.014406969770789146 0.013521960005164146
v -0.00019999999494757503 0.014848940074443817 0.014848940074443817
v -0.00019999999494757503 0.01240294985473156 0.01240294985473156
v 0 0.013700960204005241 0.012816959992051125
v 0 0.008501945994794369 0.015569980256259441
v 0 0.008501945994794369 0.015569980256259441
v 0 0.013700960204005241 0.012816959992051125
v 0 0.012838950380682945 0.013818969950079918
v -0.00019999999494757503 0.014848940074443817 0.014848940074443817
v 0 0.014406969770789146 0.013521960005164146
v 0 0.015569980256259441 0.008501945994794369
v -0.00019999999494757503 0.014848940074443817 0.014848940074443817
v 0 0.015569980256259441 0.008501945994794369
v -0.00019999999494757503 0.018186980858445168 0.01049994956701994
v 0 0.015569980256259441 0.008501945994794369
v 0 0.014406969770789146 0.013521960005164146
v 0 0.013700960204005241 0.012816959992051125
v 0 0.015569980256259441 0.008501945994794369
v 0 0.013700960204005241 0.012816959992051125
v -0.00019999999494757503 0.01240294985473156 0.01240294985473156
v -0.00019999999494757503 0.0037279720418155193 0.017138950526714325
v 0 0.007159947883337736 0.01701200008392334
v 0 0.00020700000459328294 0.018476959317922592
v -0.00019999999494757503 0.0037279720418155193 0.017138950526714325
v 0 0.00020700000459328294 0.018476959317922592
v 0 -0.0012659430503845215 0.017694950103759766
v -0.00019999999494757503 -0.0061299800872802734 0.016433950513601303
v 0 -0.0012659430503845215 0.017694950103759766
v 0 -0.00665998412296176 0.017077980563044548
v -0.00019999999494757503 -0.014848940074443817 0.014848940074443817
v -0.00019999999494757503 -0.018186980858445168 0.01049994956701994
v 0 -0.0143849803134799 0.013818969950079918
v 0 -0.0143849803134799 0.013818969950079918
v 0 -0.0130459601059556 0.014176960103213787
v -0.00019999999494757503 -0.014848940074443817 0.014848940074443817
v 0 -0.0130459601059556 0.014176960103213787
v 0 -0.012933960184454918 0.013185969553887844
v -0.00019999999494757503 -0.010510980151593685 0.014040940441191196
v -0.00019999999494757503 -0.010510980151593685 0.014040940441191196
v 0 -0.012933960184454918 0.013185969553887844
v 0 -0.014229949563741684 0.010591980069875717
v 0 -0.017991960048675537 0.006593942176550627
v 0 -0.01834999956190586 0.007931946776807308
v -0.00019999999494757503 -0.02028398960828781 0.005434988997876644
v -0.00019999999494757503 -0.02028398960828781 0.005434988997876644
v 0 -0.01834999956190586 0.007931946776807308
v -0.00019999999494757503 -0.018186980858445168 0.01049994956701994
v -0.00019999999494757503 -0.016433950513601303 0.0061299800872802734
v 0 -0.017106950283050537 0.007791996002197266
v 0 -0.018476959317922592 -0.00020700000459328294
v 0 -0.018476959317922592 -0.00020700000459328294
v 0 -0.017106950283050537 0.007791996002197266
v 0 -0.017991960048675537 0.006593942176550627
v 0 -0.018476959317922592 -0.00020700000459328294
v 0 -0.017991960048675537 0.006593942176550627
v -0.00019999999494757503 -0.02028398960828781 0.005434988997876644
v 0 -0.012933960184454918 0.013185969553887844
v 0 -0.013875960372388363 0.01285696029663086
v 0 -0.014229949563741684 0.010591980069875717
v -0.00019999999494757503 -0.016433950513601303 0.0061299800872802734
v 0 -0.014229949563741684 0.010591980069875717
v 0 -0.017106950283050537 0.007791996002197266
v 0 -0.019339969381690025 0.0007949999999254942
v 0 -0.018476959317922592 -0.00020700000459328294
v -0.00019999999494757503 -0.02028398960828781 0.005434988997876644
v -0.00019999999494757503 -0.020999960601329803 0
v -0.00019999999494757503 -0.02028398960828781 -0.005434988997876644
v 0 -0.020044980570673943 0.00009000000136438757
v 0 -0.018476959317922592 -0.00020700000459328294
v 0 -0.019042959436774254 -0.0007730000070296228
v -0.00019999999494757503 -0.02028398960828781 -0.005434988997876644
v -0.00019999999494757503 -0.02028398960828781 -0.005434988997876644
v 0 -0.019042959436774254 -0.0007730000070296228
v 0 -0.020044980570673943 0.00009000000136438757
v -0.00019999999494757503 -0.020999960601329803 0
v 0 -0.020044980570673943 0.00009000000136438757
v -0.00019999999494757503 -0.02028398960828781 0.005434988997876644
v -0.00019999999494757503 -0.02028398960828781 0.005434988997876644
v 0 -0.020044980570673943 0.00009000000136438757
v 0 -0.019339969381690025 0.0007949999999254942
v 0 0.01857995055615902 -0.007276951801031828
v -0.00019999999494757503 0.018186980858445168 -0.01049994956701994
v 0 0.020600970834493637 -0.0028719899710267782
v 0 0.010630959644913673 -0.014201990328729153
v -0.00019999999494757503 0.01049994956701994 -0.018186980858445168
v 0 0.013700960204005241 -0.014406969770789146
v 0 0.010630959644913673 -0.014201990328729153
v 0 0.013700960204005241 -0.014406969770789146
v 0 0.0130459601059556 -0.0130459601059556
v -0.00019999999494757503 -0.005434988997876644 -0.02028398960828781
v 0 -0.006593942176550627 -0.017991960048675537
v 0 -0.008161962032318115 -0.017694950103759766
v -0.00019999999494757503 -0.005434988997876644 -0.02028398960828781
v 0 -0.008161962032318115 -0.017694950103759766
v -0.00019999999494757503 -0.01049994956701994 -0.018186980858445168
v 0 -0.006593942176550627 -0.017991960048675537
v -0.00019999999494757503 -0.005434988997876644 -0.02028398960828781
v 0 -0.003770946990698576 -0.017334990203380585
v 0 -0.006593942176550627 -0.017991960048675537
v 0 -0.003770946990698576 -0.017334990203380585
v 0 -0.007101953029632568 -0.017030000686645508
v 0 -0.008161962032318115 -0.017694950103759766
v 0 -0.007101953029632568 -0.017030000686645508
v 0 -0.008501945994794369 -0.015569980256259441
v 0 -0.008501945994794369 -0.015569980256259441
v 0 -0.007101953029632568 -0.017030000686645508
v 0 -0.003770946990698576 -0.017334990203380585
v -0.00019999999494757503 -0.01049994956701994 -0.018186980858445168
v 0 -0.008161962032318115 -0.017694950103759766
v 0 -0.008501945994794369 -0.015569980256259441
v -0.00019999999494757503 -0.01049994956701994 -0.018186980858445168
v 0 -0.008501945994794369 -0.015569980256259441
v -0.00019999999494757503 -0.014848940074443817 -0.014848940074443817
v -0.00019999999494757503 -0.014848940074443817 -0.014848940074443817
v 0 -0.008501945994794369 -0.015569980256259441
v 0 -0.012933960184454918 -0.014036949723958969
v -0.00019999999494757503 -0.014848940074443817 -0.014848940074443817
v 0 -0.012933960184454918 -0.014036949723958969
v 0 -0.014176960103213787 -0.014176960103213787
v 0 -0.017077980563044548 -0.00665998412296176
v 0 -0.016937969252467155 -0.007898986339569092
v 0 -0.015569980256259441 -0.008501945994794369
v 0 -0.015569980256259441 -0.008501945994794369
v 0 -0.016937969252467155 -0.007898986339569092
v -0.00019999999494757503 -0.018186980858445168 -0.01049994956701994
v 0 -0.01834999956190586 0.007931946776807308
v 0 -0.017106950283050537 0.007791996002197266
v -0.00019999999494757503 -0.018186980858445168 0.01049994956701994
v -0.00019999999494757503 -0.018186980858445168 0.01049994956701994
v 0 -0.017106950283050537 0.007791996002197266
v 0 -0.014229949563741684 0.010591980069875717
v -0.00019999999494757503 -0.018186980858445168 0.01049994956701994
v 0 -0.014229949563741684 0.010591980069875717
v 0 -0.013875960372388363 0.01285696029663086
v -0.00019999999494757503 -0.018186980858445168 0.01049994956701994
v 0 -0.013875960372388363 0.01285696029663086
v 0 -0.0143849803134799 0.013818969950079918
v 0 -0.0005660000024363399 0.018683960661292076
v -0.00019999999494757503 -0.005434988997876644 0.02028398960828781
v 0 -0.0012659430503845215 0.017694950103759766
v -0.00019999999494757503 -0.005434988997876644 0.02028398960828781
v 0 -0.008073984645307064 0.01849197968840599
v 0 -0.00665998412296176 0.01849197968840599
v 0 0.020022980868816376 -0.00020700000459328294
v 0 0.019456980749964714 -0.0007730000070296228
v 0 0.020600970834493637 -0.0028719899710267782
v 0 0.020600970834493637 -0.0028719899710267782
v 0 0.019456980749964714 -0.0007730000070296228
v 0 0.017694950103759766 -0.0012659430503845215
v 0 0.020600970834493637 -0.0028719899710267782
v 0 0.017694950103759766 -0.0012659430503845215
v 0 0.01857995055615902 -0.007276951801031828
v 0 0.01857995055615902 -0.007276951801031828
v 0 0.017694950103759766 -0.0012659430503845215
v -0.00019999999494757503 0.016433950513601303 -0.0061299800872802734
v -0.00019999999494757503 0.0012509820517152548 -0.017494969069957733
v 0 0.0005660000024363399 -0.018683960661292076
v -0.00019999999494757503 0.0061299800872802734 -0.016433950513601303
v -0.0012909770011901855 0.01195198018103838 0.01283698994666338
v -0.0012909770011901855 0.015084980055689812 0.008949995040893555
v -0.00019999999494757503 0.01240294985473156 0.01240294985473156
v -0.00019999999494757503 0.01240294985473156 0.01240294985473156
v -0.0012909770011901855 0.015084980055689812 0.008949995040893555
v 0 0.015569980256259441 0.008501945994794369
v 0 0.015569980256259441 0.008501945994794369
v -0.0012909770011901855 0.015084980055689812 0.008949995040893555
v -0.0012909770011901855 0.01699494943022728 0.004337965976446867
v 0 0.015569980256259441 0.008501945994794369
v -0.0012909770011901855 0.01699494943022728 0.004337965976446867
v 0 0.017334990203380585 0.003770946990698576
v 0 0.017334990203380585 0.003770946990698576
v -0.0012909770011901855 0.01699494943022728 0.004337965976446867
v -0.0012909770011901855 0.017528949305415154 -0.0006259999936446548
v 0 0.017334990203380585 0.003770946990698576
v -0.0012909770011901855 0.017528949305415154 -0.0006259999936446548
v 0 0.017694950103759766 -0.0012659430503845215
v 0 0.017694950103759766 -0.0012659430503845215
v -0.0012909770011901855 0.017528949305415154 -0.0006259999936446548
v -0.0012909770011901855 0.016641970723867416 -0.005539000034332275
v 0 0.017694950103759766 -0.0012659430503845215
v -0.0012909770011901855 0.016641970723867416 -0.005539000034332275
v -0.00019999999494757503 0.016433950513601303 -0.0061299800872802734
v -0.00019999999494757503 0.016433950513601303 -0.0061299800872802734
v -0.0012909770011901855 0.016641970723867416 -0.005539000034332275
v -0.0012909770011901855 0.01440798956900835 -0.01000296976417303
v -0.00019999999494757503 0.016433950513601303 -0.0061299800872802734
v -0.0012909770011901855 0.01440798956900835 -0.01000296976417303
v 0 0.014201990328729153 -0.010630959644913673
v 0 0.014201990328729153 -0.010630959644913673
v -0.0012909770011901855 0.01440798956900835 -0.01000296976417303
v -0.0012909770011901855 0.011005990207195282 -0.013656970113515854
v 0 0.014201990328729153 -0.010630959644913673
v -0.0012909770011901855 0.011005990207195282 -0.013656970113515854
v 0 0.010630959644913673 -0.014201990328729153
v 0 0.010630959644913673 -0.014201990328729153
v -0.0012909770011901855 0.011005990207195282 -0.013656970113515854
v -0.0012909770011901855 0.006711958907544613 -0.016204949468374252
v 0 0.010630959644913673 -0.014201990328729153
v -0.0012909770011901855 0.006711958907544613 -0.016204949468374252
v -0.00019999999494757503 0.0061299800872802734 -0.016433950513601303
v -0.00019999999494757503 0.0061299800872802734 -0.016433950513601303
v -0.0012909770011901855 0.006711958907544613 -0.016204949468374252
v -0.0012909770011901855 0.0018749829614534974 -0.017439959570765495
v -0.00019999999494757503 0.0061299800872802734 -0.016433950513601303
v -0.0012909770011901855 0.0018749829614534974 -0.017439959570765495
v -0.00019999999494757503 0.0012509820517152548 -0.017494969069957733
v -0.00019999999494757503 0.0012509820517152548 -0.017494969069957733
v -0.0012909770011901855 0.0018749829614534974 -0.017439959570765495
v -0.0012909770011901855 -0.003113985061645508 -0.0172609593719244
v -0.00019999999494757503 0.0012509820517152548 -0.017494969069957733
v -0.0012909770011901855 -0.003113985061645508 -0.0172609593719244
v 0 -0.003770946990698576 -0.017334990203380585
v 0 -0.003770946990698576 -0.017334990203380585
v -0.0012909770011901855 -0.003113985061645508 -0.0172609593719244
v -0.0012909770011901855 -0.007850944064557552 -0.015684960409998894
v 0 -0.003770946990698576 -0.017334990203380585
v -0.0012909770011901855 -0.007850944064557552 -0.015684960409998894
v 0 -0.008501945994794369 -0.015569980256259441
v -0.0012909770011901855 -0.01195198018103838 -0.01283698994666338
v -0.00019999999494757503 -0.01240294985473156 -0.01240294985473156
v 0 -0.008501945994794369 -0.015569980256259441
v -0.0012909770011901855 -0.01195198018103838 -0.01283698994666338
v 0 -0.008501945994794369 -0.015569980256259441
v -0.0012909770011901855 -0.007850944064557552 -0.015684960409998894
v -0.0012909770011901855 -0.01195198018103838 -0.01283698994666338
v -0.0012909770011901855 -0.015084980055689812 -0.008949995040893555
v -0.00019999999494757503 -0.01240294985473156 -0.01240294985473156
v -0.00019999999494757503 -0.01240294985473156 -0.01240294985473156
v -0.0012909770011901855 -0.015084980055689812 -0.008949995040893555
v 0 -0.015569980256259441 -0.008501945994794369
v 0 -0.015569980256259441 -0.008501945994794369
v -0.0012909770011901855 -0.015084980055689812 -0.008949995040893555
v -0.0012909770011901855 -0.01699494943022728 -0.004337965976446867
v 0 -0.015569980256259441 -0.008501945994794369
v -0.0012909770011901855 -0.01699494943022728 -0.004337965976446867
v -0.00019999999494757503 -0.017138950526714325 -0.0037279720418155193
v -0.00019999999494757503 -0.017138950526714325 -0.0037279720418155193
v -0.0012909770011901855 -0.01699494943022728 -0.004337965976446867
v -0.0012909770011901855 -0.017528949305415154 0.0006259999936446548
v -0.00019999999494757503 -0.017138950526714325 -0.0037279720418155193
v -0.0012909770011901855 -0.017528949305415154 0.0006259999936446548
v -0.00019999999494757503 -0.017494969069957733 0.0012509820517152548
v -0.00019999999494757503 -0.017494969069957733 0.0012509820517152548
v -0.0012909770011901855 -0.017528949305415154 0.0006259999936446548
v -0.0012909770011901855 -0.016641970723867416 0.005539000034332275
v -0.00019999999494757503 -0.017494969069957733 0.0012509820517152548
v -0.0012909770011901855 -0.016641970723867416 0.005539000034332275
v -0.00019999999494757503 -0.016433950513601303 0.0061299800872802734
v -0.00019999999494757503 -0.016433950513601303 0.0061299800872802734
v -0.0012909770011901855 -0.016641970723867416 0.005539000034332275
v -0.0012909770011901855 -0.01440798956900835 0.01000296976417303
v -0.00019999999494757503 -0.016433950513601303 0.0061299800872802734
v -0.0012909770011901855 -0.01440798956900835 0.01000296976417303
v 0 -0.014229949563741684 0.010591980069875717
v 0 -0.014229949563741684 0.010591980069875717
v -0.0012909770011901855 -0.01440798956900835 0.01000296976417303
v -0.0012909770011901855 -0.011005990207195282 0.013656970113515854
v 0 -0.014229949563741684 0.010591980069875717
v -0.0012909770011901855 -0.011005990207195282 0.013656970113515854
v -0.00019999999494757503 -0.010510980151593685 0.014040940441191196
v -0.00019999999494757503 -0.010510980151593685 0.014040940441191196
v -0.0012909770011901855 -0.011005990207195282 0.013656970113515854
v -0.0012909770011901855 -0.006711958907544613 0.016204949468374252
v -0.00019999999494757503 -0.010510980151593685 0.014040940441191196
v -0.0012909770011901855 -0.006711958907544613 0.016204949468374252
v -0.00019999999494757503 -0.0061299800872802734 0.016433950513601303
v -0.00019999999494757503 -0.0061299800872802734 0.016433950513601303
v -0.0012909770011901855 -0.006711958907544613 0.016204949468374252
v -0.0012909770011901855 -0.0018749829614534974 0.017439959570765495
v -0.00019999999494757503 -0.0061299800872802734 0.016433950513601303
v -0.0012909770011901855 -0.0018749829614534974 0.017439959570765495
v 0 -0.0012659430503845215 0.017694950103759766
v 0 -0.0012659430503845215 0.017694950103759766
v -0.0012909770011901855 -0.0018749829614534974 0.017439959570765495
v -0.0012909770011901855 0.003113985061645508 0.0172609593719244
v 0 -0.0012659430503845215 0.017694950103759766
v -0.0012909770011901855 0.003113985061645508 0.0172609593719244
v -0.00019999999494757503 0.0037279720418155193 0.017138950526714325
v -0.00019999999494757503 0.0037279720418155193 0.017138950526714325
v -0.0012909770011901855 0.003113985061645508 0.0172609593719244
v -0.0012909770011901855 0.007850944064557552 0.015684960409998894
v -0.00019999999494757503 0.0037279720418155193 0.017138950526714325
v -0.0012909770011901855 0.007850944064557552 0.015684960409998894
v 0 0.008501945994794369 0.015569980256259441
v -0.0012909770011901855 0.01195198018103838 0.01283698994666338
v -0.00019999999494757503 0.01240294985473156 0.01240294985473156
v 0 0.008501945994794369 0.015569980256259441
v -0.0012909770011901855 0.01195198018103838 0.01283698994666338
v 0 0.008501945994794369 0.015569980256259441
v -0.0012909770011901855 0.007850944064557552 0.015684960409998894
v 0 -0.017077980563044548 -0.00665998412296176
v 0 -0.015569980256259441 -0.008501945994794369
v -0.00019999999494757503 -0.017138950526714325 -0.0037279720418155193
v -0.00019999999494757503 -0.016433950513601303 0.0061299800872802734
v 0 -0.018476959317922592 -0.00020700000459328294
v -0.00019999999494757503 -0.017494969069957733 0.0012509820517152548
v -0.00019999999494757503 -0.017138950526714325 -0.0037279720418155193
v -0.00019999999494757503 -0.017494969069957733 0.0012509820517152548
v 0 -0.018476959317922592 -0.00020700000459328294
v -0.00019999999494757503 -0.017138950526714325 -0.0037279720418155193
v 0 -0.018476959317922592 -0.00020700000459328294
v 0 -0.017077980563044548 -0.00665998412296176
v 0 -0.0076249828562140465 0.016819000244140625
v -0.00019999999494757503 -0.010510980151593685 0.014040940441191196
v -0.00019999999494757503 -0.0061299800872802734 0.016433950513601303
vt 0 0
vt 0 0
vt 0 0
vt 0 0
vt 0 0
vt 0 0
vt 0 0
vt 0 0
vt 0 0
vt 0 0
vt 0 0
vt 0 0
vt 0 0
vt 0 0
vt 0 0
vt 0 0
vt 0 0
vt 0 0
vt 0 0
vt 0 0
vt 0 0
vt 0 0
vt 0 0
vt 0 0
vt 0 0
vt 0 0
vt 0 0
vt 0 0
vt 0 0
vt 0 0
vt 0 0
vt 0 0
vt 0 0
vt 0 0
vt 0 0
vt 0 0
vt 0 0
vt 0 0
vt 0 0
vt 0 0
vt 0 0
vt 0 0
vt 0 0
vt 0 0
vt 0 0
vt 0 0
vt 0 0
vt 0 0
vt 0 0
vt 0 0
vt 0 0
vt 0 0
vt 0 0
vt 0 0
vt 0 0
vt 0 0
vt 0 0
vt 0 0
vt 0 0
vt 0 0
vt 0 0
vt 0 0
vt 0 0
vt 0 0
vt 0 0
vt 0 0
vt 0 0
vt 0 0
vt 0 0
vt 0 0
vt 0 0
vt 0 0
vt 0 0
vt 0 0
vt 0 0
vt 0 0
vt 0 0
vt 0 0
vt 0 0
vt 0 0
vt 0 0
vt 0 0
vt 0 0
vt 0 0
vt 0 0
vt 0 0
vt 0 0
vt 0 0
vt 0 0
vt 0 0
vt 0 0
vt 0 0
vt 0 0
vt 0 0
vt 0 0
vt 0 0
vt 0 0
vt 0 0
vt 0 0
vt 0 0
vt 0 0
vt 0 0
vt 0 0
vt 0 0
vt 0 0
vt 0 0
vt 0 0
vt 0 0
vt 0 0
vt 0 0
vt 0 0
vt 0 0
vt 0 0
vt 0 0
vt 0 0
vt 0 0
vt 0 0
vt 0 0
vt 0 0
vt 0 0
vt 0 0
vt 0 0
vt 0 0
vt 0 0
vt 0 0
vt 0 0
vt 0 0
vt 0 0
vt 0 0
vt 0 0
vt 0 0
vt 0 0
vt 0 0
vt 0 0
vt 0 0
vt 0 0
vt 0 0
vt 0 0
vt 0 0
vt 0 0
vt 0 0
vt 0 0
vt 0 0
vt 0 0
vt 0 0
vt 0 0
vt 0 0
vt 0 0
vt 0 0
vt 0 0
vt 0 0
vt 0 0
vt 0 0
vt 0 0
vt 0 0
vt 0 0
vt 0 0
vt 0 0
vt 0 0
vt 0 0
vt 0 0
vt 0 0
vt 0 0
vt 0 0
vt 0 0
vt 0 0
vt 0 0
vt 0 0
vt 0 0
vt 0 0
vt 0 0
vt 0 0
vt 0 0
vt 0 0
vt 0 0
vt 0 0
vt 0 0
vt 0 0
vt 0 0
vt 0 0
vt 0 0
vt 0 0
vt 0 0
vt 0 0
vt 0 0
vt 0 0
vt 0 0
vt 0 0
vt 0 0
vt 0 0
vt 0 0
vt 0 0
vt 0 0
vt 0 0
vt 0 0
vt 0 0
vt 0 0
vt 0 0
vt 0 0
vt 0 0
vt 0 0
vt 0 0
vt 0 0
vt 0 0
vt 0 0
vt 0 0
vt 0 0
vt 0 0
vt 0 0
vt 0 0
vt 0 0
vt 0 0
vt 0 0
vt 0 0
vt 0 0
vt 0 0
vt 0 0
vt 0 0
vt 0 0
vt 0 0
vt 0 0
vt 0 0
vt 0 0
vt 0 0
vt 0 0
vt 0 0
vt 0 0
vt 0 0
vt 0 0
vt 0 0
vt 0 0
vt 0 0
vt 0 0
vt 0 0
vt 0 0
vt 0 0
vt 0 0
vt 0 0
vt 0 0
vt 0 0
vt 0 0
vt 0 0
vt 0 0
vt 0 0
vt 0 0
vt 0 0
vt 0 0
vt 0 0
vt 0 0
vt 0 0
vt 0 0
vt 0 0
vt 0 0
vt 0 0
vt 0 0
vt 0 0
vt 0 0
vt 0 0
vt 0 0
vt 0 0
vt 0 0
vt 0 0
vt 0 0
vt 0 0
vt 0 0
vt 0 0
vt 0 0
vt 0 0
vt 0 0
vt 0 0
vt 0 0
vt 0 0
vt 0 0
vt 0 0
vt 0 0
vt 0 0
vt 0 0
vt 0 0
vt 0 0
vt 0 0
vt 0 0
vt 0 0
vt 0 0
vt 0 0
vt 0 0
vt 0 0
vt 0 0
vt 0 0
vt 0 0
vt 0 0
vt 0 0
vt 0 0
vt 0 0
vt 0 0
vt 0 0
vt 0 0
vt 0 0
vt 0 0
vt 0 0
vt 0 0
vt 0 0
vt 0 0
vt 0 0
vt 0 0
vt 0 0
vt 0 0
vt 0 0
vt 0 0
vt 0 0
vt 0 0
vt 0 0
vt 0 0
vt 0 0
vt 0 0
vt 0 0
vt 0 0
vt 0 0
vt 0 0
vt 0 0
vt 0 0
vt 0 0
vt 0 0
vt 0 0
vt 0 0
vt 0 0
vt 0 0
vt 0 0
vt 0 0
vt 0 0
vt 0 0
vt 0 0
vt 0 0
vt 0 0
vt 0 0
vt 0 0
vt 0 0
vt 0 0
vt 0 0
vt 0 0
vt 0 0
vt 0 0
vt 0 0
vt 0 0
vt 0 0
vt 0 0
vt 0 0
vt 0 0
vt 0 0
vt 0 0
vt 0 0
vt 0 0
vt 0 0
vt 0 0
vt 0 0
vt 0 0
vt 0 0
vt 0 0
vt 0 0
vt 0 0
vt 0 0
vt 0 0
vt 0 0
vt 0 0
vt 0 0
vt 0 0
vt 0 0
vt 0 0
vt 0 0
vt 0 0
vt 0 0
vt 0 0
vt 0 0
vt 0 0
vt 0 0
vt 0 0
vt 0 0
vt 0 0
vt 0 0
vt 0 0
vt 0 0
vt 0 0
vt 0 0
vt 0 0
vt 0 0
vt 0 0
vt 0 0
vt 0 0
vt 0 0
vt 0 0
vt 0 0
vt 0 0
vt 0 0
vt 0 0
vt 0 0
vt 0 0
vt 0 0
vt 0 0
vt 0 0
vt 0 0
vt 0 0
vt 0 0
vt 0 0
vt 0 0
vt 0 0
vt 0 0
vt 0 0
vt 0 0
vt 0 0
vt 0 0
vt 0 0
vt 0 0
vt 0 0
vt 0 0
vt 0 0
vt 0 0
vt 0 0
vt 0 0
vt 0 0
vt 0 0
vt 0 0
vt 0 0
vt 0 0
vt 0 0
vt 0 0
vt 0 0
vt 0 0
vt 0 0
vt 0 0
vt 0 0
vt 0 0
vt 0 0
vt 0 0
vt 0 0
vt 0 0
vt 0 0
vt 0 0
vt 0 0
vt 0 0
vt 0 0
vt 0 0
vt 0 0
vt 0 0
vt 0 0
vt 0 0
vt 0 0
vt 0 0
vt 0 0
vt 0 0
vt 0 0
vt 0 0
vt 0 0
vt 0 0
vt 0 0
vt 0 0
vt 0 0
vt 0 0
vt 0 0
vt 0 0
vt 0 0
vt 0 0
vt 0 0
vt 0 0
vt 0 0
vt 0 0
vt 0 0
vt 0 0
vt 0 0
vt 0 0
vt 0 0
vt 0 0
vt 0 0
vt 0 0
vt 0 0
vt 0 0
vt 0 0
vt 0 0
vt 0 0
vt 0 0
vt 0 0
vt 0 0
vt 0 0
vt 0 0
vt 0 0
vt 0 0
vt 0 0
vt 0 0
vt 0 0
vt 0 0
vt 0 0
vt 0 0
vt 0 0
vt 0 0
vt 0 0
vt 0 0
vt 0 0
vt 0 0
vt 0 0
vt 0 0
vt 0 0
vt 0 0
vt 0 0
vt 0 0
vt 0 0
vt 0 0
vt 0 0
vt 0 0
vt 0 0
vt 0 0
vt 0 0
vt 0 0
vt 0 0
vt 0 0
vt 0 0
vt 0 0
vt 0 0
vt 0 0
vt 0 0
vt 0 0
vt 0 0
vt 0 0
vt 0 0
vt 0 0
vt 0 0
vt 0 0
vt 0 0
vt 0 0
vt 0 0
vt 0 0
vt 0 0
vt 0 0
vt 0 0
vt 0 0
vt 0 0
vt 0 0
vt 0 0
vt 0 0
vt 0 0
vt 0 0
vt 0 0
vt 0 0
vt 0 0
vt 0 0
vt 0 0
vt 0 0
vt 0 0
vt 0 0
vt 0 0
vt 0 0
vt 0 0
vt 0 0
vt 0 0
vt 0 0
vt 0 0
vt 0 0
vt 0 0
vt 0 0
vt 0 0
vt 0 0
vt 0 0
vt 0 0
vt 0 0
vt 0 0
vt 0 0
vt 0 0
vt 0 0
vt 0 0
vt 0 0
vt 0 0
vt 0 0
vt 0 0
vt 0 0
vt 0 0
vt 0 0
vt 0 0
vt 0 0
vt 0 0
vt 0 0
vt 0 0
vt 0 0
vt 0 0
vt 0 0
vt 0 0
vt 0 0
vt 0 0
vt 0 0
vt 0 0
vt 0 0
vt 0 0
vt 0 0
vt 0 0
vt 0 0
vt 0 0
vt 0 0
vt 0 0
vt 0 0
vt 0 0
vt 0 0
vt 0 0
vt 0 0
vt 0 0
vt 0 0
vt 0 0
vt 0 0
vt 0 0
vt 0 0
vt 0 0
vt 0 0
vt 0 0
vt 0 0
vt 0 0
vt 0 0
vt 0 0
vt 0 0
vt 0 0
vt 0 0
vt 0 0
vt 0 0
vt 0 0
vt 0 0
vt 0 0
vt 0 0
vt 0 0
vt 0 0
vt 0 0
vt 0 0
vt 0 0
vt 0 0
vt 0 0
vt 0 0
vt 0 0
vt 0 0
vt 0 0
vt 0 0
vt 0 0
vt 0 0
vt 0 0
vt 0 0
vt 0 0
vt 0 0
vt 0 0
vt 0 0
vt 0 0
vt 0 0
vt 0 0
vt 0 0
vt 0 0
vt 0 0
vt 0 0
vt 0 0
vt 0 0
vt 0 0
vt 0 0
vt 0 0
vt 0 0
vt 0 0
vt 0 0
vt 0 0
vt 0 0
vt 0 0
vt 0 0
vt 0 0
vt 0 0
vt 0 0
vt 0 0
vt 0 0
vt 0 0
vt 0 0
vt 0 0
vt 0 0
vt 0 0
vt 0 0
vt 0 0
vt 0 0
vt 0 0
vt 0 0
vt 0 0
vt 0 0
vt 0 0
vt 0 0
vt 0 0
vt 0 0
vt 0 0
vt 0 0
vt 0 0
vt 0 0
vt 0 0
vt 0 0
vt 0 0
vt 0 0
vt 0 0
vt 0 0
vt 0 0
vt 0 0
vt 0 0
vt 0 0
vt 0 0
vt 0 0
vt 0 0
vt 0 0
vt 0 0
vt 0 0
vt 0 0
vn 0 0.6088641303966864 0.7932745241820682
vn 0 0.6088641303966864 0.7932745241820682
vn 0 0.6088641303966864 0.7932745241820682
vn 0 0.6088643667962559 0.7932743427376145
vn 0 0.6088643667962559 0.7932743427376145
vn 0 0.6088643667962559 0.7932743427376145
vn 0 0.3825291026330541 0.9239434428788108
vn 0 0.3825291026330541 0.9239434428788108
vn 0 0.3825291026330541 0.9239434428788108
vn 0 0.38252927634778167 0.9239433709577889
vn 0 0.38252927634778167 0.9239433709577889
vn 0 0.38252927634778167 0.9239433709577889
vn 0 0.1306099925883303 0.991433825243055
vn 0 0.1306099925883303 0.991433825243055
vn 0 0.1306099925883303 0.991433825243055
vn 0 0.1306099925883303 0.991433825243055
vn 0 0.1306099925883303 0.991433825243055
vn 0 0.1306099925883303 0.991433825243055
vn 0 -0.1306099925883303 0.991433825243055
vn 0 -0.1306099925883303 0.991433825243055
vn 0 -0.1306099925883303 0.991433825243055
vn 0 -0.1306099925883303 0.991433825243055
vn 0 -0.1306099925883303 0.991433825243055
vn 0 -0.1306099925883303 0.991433825243055
vn 0 -0.38252920002361357 0.9239434025573722
vn 0 -0.38252920002361357 0.9239434025573722
vn 0 -0.38252920002361357 0.9239434025573722
vn 0 -0.38252920002361357 0.9239434025573722
vn 0 -0.38252920002361357 0.9239434025573722
vn 0 -0.38252920002361357 0.9239434025573722
vn 0 -0.6088643667962559 0.7932743427376145
vn 0 -0.6088643667962559 0.7932743427376145
vn 0 -0.6088643667962559 0.7932743427376145
vn 0 -0.6088641303966864 0.7932745241820682
vn 0 -0.6088641303966864 0.7932745241820682
vn 0 -0.6088641303966864 0.7932745241820682
vn 0 -0.7932741900819299 0.6088645656875247
vn 0 -0.7932741900819299 0.6088645656875247
vn 0 -0.7932741900819299 0.6088645656875247
vn 0 -0.7932747565116244 0.6088638276999406
vn 0 -0.7932747565116244 0.6088638276999406
vn 0 -0.7932747565116244 0.6088638276999406
vn 0 -0.9239436270421503 0.3825286578129743
vn 0 -0.9239436270421503 0.3825286578129743
vn 0 -0.9239436270421503 0.3825286578129743
vn 0 -0.9239432394601768 0.3825295939608264
vn 0 -0.9239432394601768 0.3825295939608264
vn 0 -0.9239432394601768 0.3825295939608264
vn 0 -0.9914337316067087 0.13061070336077685
vn 0 -0.9914337316067087 0.13061070336077685
vn 0 -0.9914337316067087 0.13061070336077685
vn 0 -0.9914338764285601 0.13060960404900754
vn 0 -0.9914338764285601 0.13060960404900754
vn 0 -0.9914338764285601 0.13060960404900754
vn 0 -0.991477651224906 -0.13027688636724394
vn 1.6084098043118526e-7 -0.9914776512248933 -0.13027688636724225
vn 0 -0.991477651224906 -0.13027688636724394
vn 0 -0.9914775057592277 -0.1302779934350414
vn 0 -0.9914775057592277 -0.1302779934350414
vn 0 -0.9914775057592277 -0.1302779934350414
vn 0 -0.9239432078605659 -0.38252967028496876
vn 0 -0.9239432078605659 -0.38252967028496876
vn 0 -0.9239432078605659 -0.38252967028496876
vn 0 -0.9239436077871285 -0.3825287043207408
vn 0 -0.9239436077871285 -0.3825287043207408
vn 0 -0.9239436077871285 -0.3825287043207408
vn 0 -0.7932747056264526 -0.6088638939970614
vn 0 -0.7932747056264526 -0.6088638939970614
vn 0 -0.7932747056264526 -0.6088638939970614
vn 0 -0.7932741900819299 -0.6088645656875247
vn 0 -0.7932741900819299 -0.6088645656875247
vn 0 -0.7932741900819299 -0.6088645656875247
vn 0 -0.6088641303966864 -0.7932745241820682
vn 0 -0.6088641303966864 -0.7932745241820682
vn 0 -0.6088641303966864 -0.7932745241820682
vn 0 -0.6088643667962559 -0.7932743427376145
vn 0 -0.6088643667962559 -0.7932743427376145
vn 0 -0.6088643667962559 -0.7932743427376145
vn 0 -0.3825291026330541 -0.9239434428788108
vn 0 -0.3825291026330541 -0.9239434428788108
vn 0 -0.3825291026330541 -0.9239434428788108
vn 0 -0.38252927634778167 -0.9239433709577889
vn 0 -0.38252927634778167 -0.9239433709577889
vn 0 -0.38252927634778167 -0.9239433709577889
vn 0 -0.1306099925883303 -0.991433825243055
vn 0 -0.1306099925883303 -0.991433825243055
vn 0 -0.1306099925883303 -0.991433825243055
vn 0 -0.1306099925883303 -0.991433825243055
vn 0 -0.1306099925883303 -0.991433825243055
vn 0 -0.1306099925883303 -0.991433825243055
vn 0 0.1306099925883303 -0.991433825243055
vn 0 0.1306099925883303 -0.991433825243055
vn 0 0.1306099925883303 -0.991433825243055
vn 0 0.1306099925883303 -0.991433825243055
vn 0 0.1306099925883303 -0.991433825243055
vn 0 0.1306099925883303 -0.991433825243055
vn 0 0.38252920002361357 -0.9239434025573722
vn 0 0.38252920002361357 -0.9239434025573722
vn 0 0.38252920002361357 -0.9239434025573722
vn 0 0.38252920002361357 -0.9239434025573722
vn 0 0.38252920002361357 -0.9239434025573722
vn 0 0.38252920002361357 -0.9239434025573722
vn 0 0.6088643667962559 -0.7932743427376145
vn 0 0.6088643667962559 -0.7932743427376145
vn 0 0.6088643667962559 -0.7932743427376145
vn 0 0.6088641303966864 -0.7932745241820682
vn 0 0.6088641303966864 -0.7932745241820682
vn 0 0.6088641303966864 -0.7932745241820682
vn 0 0.7932741900819299 -0.6088645656875247
vn 0 0.7932741900819299 -0.6088645656875247
vn 0 0.7932741900819299 -0.6088645656875247
vn 0 0.7932747565116244 -0.6088638276999406
vn 0 0.7932747565116244 -0.6088638276999406
vn 0 0.7932747565116244 -0.6088638276999406
vn 0 0.9239436270421503 -0.3825286578129743
vn 0 0.9239436270421503 -0.3825286578129743
vn 0 0.9239436270421503 -0.3825286578129743
vn 0 0.9239432394601768 -0.3825295939608264
vn 0 0.9239432394601768 -0.3825295939608264
vn 0 0.9239432394601768 -0.3825295939608264
vn 0 0.9914337316067087 -0.13061070336077685
vn 0 0.9914337316067087 -0.13061070336077685
vn 0 0.9914337316067087 -0.13061070336077685
vn 0 0.9914338764285601 -0.13060960404900754
vn 0 0.9914338764285601 -0.13060960404900754
vn 0 0.9914338764285601 -0.13060960404900754
vn 0 0.991477651224906 0.13027688636724394
vn 1.6084098043118526e-7 0.9914776512248933 0.13027688636724225
vn 0 0.991477651224906 0.13027688636724394
vn 0 0.9914775057592277 0.1302779934350414
vn 0 0.9914775057592277 0.1302779934350414
vn 0 0.9914775057592277 0.1302779934350414
vn 0 0.9239432078605659 0.38252967028496876
vn 0 0.9239432078605659 0.38252967028496876
vn 0 0.9239432078605659 0.38252967028496876
vn 0 0.9239436077871285 0.3825287043207408
vn 0 0.9239436077871285 0.3825287043207408
vn 0 0.9239436077871285 0.3825287043207408
vn 0 0.7932747056264526 0.6088638939970614
vn 0 0.7932747056264526 0.6088638939970614
vn 0 0.7932747056264526 0.6088638939970614
vn 0 0.7932741900819299 0.6088645656875247
vn 0 0.7932741900819299 0.6088645656875247
vn 0 0.7932741900819299 0.6088645656875247
vn 0.4267668911032242 0.8403099556653284 -0.3342890950477188
vn 0.4267668771495425 0.8403068278253153 -0.33429697527525326
vn 0.42676649307789544 0.8402773301386013 -0.3343716029227645
vn 0.10414799279562455 0.9860564448274685 -0.12979169160950357
vn 0.10414799017707034 0.9860564200354184 -0.1297918820612896
vn 0.10414799158706152 0.986056433384988 -0.12979177951032966
vn 0.10409918911785268 0.12979478808982176 0.9860611907025466
vn 0.10409918911785268 0.12979478808982176 0.9860611907025466
vn 0.10409909660949346 0.12979500212881598 0.9860611722948368
vn 0.7056808943400814 0.24320129621715603 0.665482986169953
vn 0.7056805290544029 0.24321020447215472 0.6654801179254798
vn 0.7056812590213667 0.24317787402278263 0.6654911586578584
vn 0.9999999996770847 -0.000011669900228168092 0.00002257529921915617
vn 0.9999999996228 0.000010326500155967761 0.000025451199680396235
vn 0.9999999996698343 0.000006172810115239499 0.000024944500174519475
vn 0.9999999997324995 -0.000007802619618546573 0.00002177429996081241
vn 0.9999999997490747 -0.000016763800881903942 0.000014860200277235109
vn 0.9999999997095632 -0.000005640089964980599 0.000023432099617382142
vn 0.9999999996694571 0.00002287330061488958 0.000011742999955215212
vn 0.9999999996137086 0.00002583860076722478 -0.000010244500113593706
vn 0.999999999662081 0.000025272400299045462 -0.000006094569924003361
vn 0.9999999991135078 0.000005446369864049645 -0.000041753100921871823
vn 0.9999999990860216 0.000003776510080756336 -0.00004258750046319851
vn 0.9999999992012489 0.00001934919963151227 -0.00003497299982817408
vn 0.999999999987657 0.000003889199888314777 0.0000030919900381905226
vn 0.9999999999731051 0.000005355800112594463 0.000005010519998770025
vn 0.9999999999882361 -0.000001911070057735998 -0.000004458239800389796
vn 0.9999999999170679 -0.000009041279553617253 0.000009171660166579098
vn 0.9999999998147258 -0.000019162900567695307 -0.0000018253899721713856
vn 0.9999999999127125 -0.000011563300175921748 0.000006392599970592054
vn 1 0 0
vn 1 0 0
vn 1 0 0
vn 0.9999999993662421 0.00002368169951614438 -0.000026583700656807044
vn 0.9999999993771671 0.00001762670034434361 -0.00003057720094062494
vn 0.9999999993764073 0.00002139430033396916 -0.00002809750001755221
vn 0.9999999991305804 -0.000010857400402183893 0.000040261100331474993
vn 0.9999999991331858 -0.000005900859827648723 0.000041216600912519064
vn 0.9999999991035013 -0.00001551579951838531 0.00003939869926504278
vn 0.999999999686491 0.000018425300362331358 -0.00001695659920565499
vn 0.9999999996740141 0.000023908900394808776 -0.00000896305027416694
vn 0.9999999996576179 0.00001576539943386257 -0.00002088580003340892
vn 1 0 0
vn 1 0 0
vn 1 0 0
vn 0.9999999999980511 0.0000013487899650473172 0.0000014416899602992187
vn 0.999999999982415 0.000005250799858821188 -0.000002756710045966155
vn 0.9999999999980598 0.0000014863900332755557 0.0000012926800536636095
vn 1 0 0
vn 1 0 0
vn 1 0 0
vn 0.9999999998165998 0.000013716499777032422 0.000013366299751673685
vn 0.9999999998231184 0.000012141599652421664 0.000014364700288939552
vn 0.9999999998181064 0.000006284560184888619 0.000018008100593213827
vn 0.9999999982903518 0.000038114798306517186 0.000044345899292820424
vn 0.9999999984848413 0.00003101679971980779 0.00004547830023897052
vn 0.9999999985543984 -0.00001331790006482314 0.00005209449947615039
vn 1 0 0
vn 1 0 0
vn 1 0 0
vn 0.9999999999936422 -0.0000029914099286353017 -0.0000019408801108388
vn 0.9999999999962002 -0.0000027484200017975284 2.1443699438268968e-7
vn 0.9999999999948304 -0.00000292156005342203 -0.0000013429699947595204
vn 0.9999999988014818 0.0000022975700603386006 0.000048905600065657333
vn 0.9999999988500026 -0.0000165384007951509 0.00004501640063888741
vn 0.9999999988727142 -0.000011830100434360263 0.00004598500158226966
vn 1 0 0
vn 1 0 0
vn 1 0 0
vn 1 0 0
vn 1 0 0
vn 1 0 0
vn 1 0 0
vn 1 0 0
vn 1 0 0
vn 0.9999999998602669 0.00001539289951109373 -0.000006521120211799014
vn 0.9999999998759521 0.000015184299625551813 -0.000004187229932930582
vn 0.9999999998702955 0.00001526619962334995 -0.000005133450030614686
vn 0.9999999999282891 -0.000008363280357426066 -0.000008571890247662062
vn 0.999999999926986 -0.000009600070369951307 -0.000007339399871317068
vn 0.9999999999281259 -0.000008856880412440727 -0.000008081089617336494
vn 0.9999999997961702 0.000019922899805837926 -0.0000032768600697323674
vn 0.9999999998218585 0.000017940999893185943 0.000005865470028630751
vn 0.9999999997586009 0.000015973999321213488 0.000015087400239277016
vn 1 0 0
vn 1 0 0
vn 1 0 0
vn 1 0 0
vn 1 0 0
vn 1 0 0
vn 0.9999999985438544 -0.00003346800071668994 0.00004233419889007643
vn 0.9999999983041108 0.000004626810088095789 0.00005805489844692414
vn 0.9999999985850181 -0.000008873639659390835 0.0000524520982420614
vn 0.9999999986867372 0.0000016614800393662422 -0.00005122270151881557
vn 0.9999999987457575 0.000007905069641400114 -0.00004945700123407379
vn 0.9999999984419077 -0.00001141800019508024 -0.000054642601668446825
vn 1 0 0
vn 1 0 0
vn 1 0 0
vn 0.9999999989650943 -0.000031665000245965245 0.00003266709969723561
vn 0.9999999989893134 -0.000025585299200945917 0.00003696979907446519
vn 0.9999999989813702 -0.000029327300551043263 0.00003430989814803349
vn 0.9999999992715305 -0.00003690330047033231 0.000009751180179764277
vn 0.9999999992670363 -0.00003614279919099539 0.000012634300210100257
vn 0.999999999264515 -0.000037806599693273505 0.000006452200063706434
vn 1 0 0
vn 1 0 0
vn 1 0 0
vn 0.9999999999641831 0.00000800472025701744 0.000002749259920066589
vn 0.9999999999899465 -0.0000016801100173155901 0.000004157419880315541
vn 0.9999999999900981 -0.0000016018700534755772 0.0000041518401303208505
vn 1 0 0
vn 1 0 0
vn 1 0 0
vn 1 0 0
vn 1 0 0
vn 1 0 0
vn 0.9999999993985689 -0.0000015422699552619877 0.000034648000998538875
vn 0.9999999994005604 0.0000070109999754814585 0.0000339075995522324
vn 0.999999999406235 7.902269767183489e-7 0.00003445149921163491
vn 1 0 0
vn 1 0 0
vn 1 0 0
vn 0.9999999996599214 0.000026069599689664796 7.301570119370621e-7
vn 0.9999999996239053 0.000026047200653219033 -0.000008586789587251756
vn 0.9999999996409146 0.000026054700346970204 0.000006270860010339809
vn 0.9999999985786077 0.00004164869818388057 0.00003328920133569626
vn 0.9999999983379044 0.00005745889929584722 -0.00000476092008402652
vn 0.9999999986189305 0.00005182619854285969 0.000008728349700273596
vn 0.9999999992799735 0.000006362799917917723 0.00003741079851386777
vn 0.9999999992849888 0.000008580510432925001 0.00003682930034396683
vn 0.999999999282092 0.000012544899609654483 0.000035755299879180365
vn 0.9999999993549507 -0.000011423599964380569 0.0000340529004241474
vn 0.999999999353395 -0.000002600249898160976 0.00003586709860837827
vn 0.9999999993555697 -0.00001097099993078373 0.00003418330013644584
vn 1 0 0
vn 1 0 0
vn 1 0 0
vn 0.9999999985850676 0.000008868049904962089 -0.000052452098242064
vn 0.9999999985438544 0.00003346800071668994 -0.00004233419889007643
vn 0.9999999983040762 -0.0000046342602139325666 -0.000058054898446922135
vn 0.9999999992286399 0.000030808201676219115 -0.000024363400352137368
vn 0.9999999993941213 0.00002245600079280891 -0.000026598599999743596
vn 0.9999999995022295 0.0000064298501424499725 -0.000030890099863512395
vn 0.9999999991965192 0.00003992650087159515 -0.000003582799988030114
vn 0.9999999992011297 0.00003993140122922847 0.0000017955900361110368
vn 0.99999999920052 0.000039927701404760274 0.000002176899895936388
vn 0.9999999992509718 0.00002611240049963702 -0.000028569200345801984
vn 0.9999999992514268 0.000026181300180224833 -0.0000284900997726716
vn 0.9999999992523403 0.00002632289941026191 -0.000028327100132367748
vn 1 0 0
vn 1 0 0
vn 1 0 0
vn 0.9999999999613443 -0.000004842880116297388 -0.00000733882006869688
vn 0.9999999999460851 -3.6507799448223355e-7 -0.000010377700163539711
vn 0.9999999999513043 -0.000008631500349600044 -0.0000047841999728405855
vn 0.9999999995201121 -0.00002163650059499893 -0.000022172900560963754
vn 0.9999999995837834 -0.000024750799628848808 -0.000014826699946947685
vn 0.9999999993472832 -0.00001797080038805043 -0.000031344599826757013
vn 0.9999999997643101 -0.0000012442500289376406 -0.000021675599777502523
vn 0.9999999997674769 0.000019840899762973495 -0.000008448960213936447
vn 0.9999999998390621 0.00001195070035272264 -0.00001338120000367067
vn 0.9999999996053432 -0.000020764800857241004 0.00001892450017456949
vn 0.9999999996037856 -0.000020601599308997785 0.000019183400574222924
vn 0.9999999996220628 -0.00002458319976520628 0.00001231019995874207
vn 0.9999999989966772 -0.00004469979826416306 -0.0000029280799906426587
vn 0.9999999989878428 -0.00004440550033048754 -0.000007243359952498412
vn 0.9999999989922417 -0.00004447250098630557 -0.000006141140141330978
vn 1 0 0
vn 1 0 0
vn 1 0 0
vn 0.9999999997837683 -0.00001960810004251306 -0.000006927180036976158
vn 0.9999999997859286 -0.000020176199536991633 -0.000004589559920459339
vn 0.9999999997850695 -0.00002042199957502262 -0.0000035781399666615645
vn 1 0 0
vn 1 0 0
vn 1 0 0
vn 0.9999999988313131 0.00004737079865583768 0.00000966340029443261
vn 0.9999999989359369 0.000039961199903016137 0.000023048400155889368
vn 0.9999999989322199 0.000041976600142077526 0.000019326800590815428
vn 0.9999999988836517 0.000010348900093319905 0.00004610419995825392
vn 0.9999999989630501 0.000017337499212074226 0.00004211069968004083
vn 0.9999999986982389 0.000001356009986974769 0.00005100670016599364
vn 0.9999999987443631 -0.00003439189818211069 -0.000036448200216618784
vn 0.9999999987760417 -0.000039532798788785375 -0.000029750199209923705
vn 0.9999999987605859 -0.00004264710145606173 -0.00002569149907229885
vn 0.9999999984204506 0.000004462900044244757 -0.00005602839874217683
vn 0.9999999984698118 -0.000001044939948080292 -0.000055310800150384065
vn 0.9999999984799595 -0.0000026188799853326237 -0.000055074698964702775
vn 0.9999999993008839 -0.000010944900160745243 -0.00003575529987985227
vn 0.9999999993500197 -0.000004217029979359953 -0.00003580750123947817
vn 0.999999999302762 -0.000010746999570766202 -0.00003576280139221442
vn 0.9999999996211992 0.0000014714900083955678 -0.000027485199087598202
vn 0.9999999996553413 -0.000004738570167505067 -0.0000258236996071118
vn 0.9999999995999267 0.0000035255200131806993 -0.000028066300717595413
vn 1 0 0
vn 1 0 0
vn 1 0 0
vn 0.9999999998670925 0.000014632900272646699 0.000007189809820328564
vn 0.9999999999280798 0.000006042419954175951 0.000010359999577468225
vn 0.999999999926332 0.0000015401700464965399 0.000012040100044964463
vn 0.999999999719861 0.000016398700604394375 0.000017069300151654154
vn 0.9999999997349642 -0.00001109020012951824 0.000020176199535963366
vn 0.9999999998110782 0.000006925320120500565 0.000018162700140444224
vn 0.9999999999807001 -0.000005817620149061029 0.0000021806899894306524
vn 0.999999999979496 -0.0000064037699301985695 0
vn 0.9999999999727249 -0.000007023919806478587 -0.0000022835999970370873
vn 0.999999999037712 0.00000772998009035411 -0.000043183601478003515
vn 0.999999998902587 0.00002226979993168138 -0.000041217499483778924
vn 0.9999999990005466 0.000014465300395480815 -0.00004230440022503103
vn 1 0 0
vn 1 0 0
vn 1 0 0
vn 0.999999999417412 -0.00002322769977137906 -0.000025012999671141748
vn 0.999999999420661 -0.000022340600467731984 -0.000025682200415431632
vn 0.9999999994151187 -0.000023771099208455046 -0.00002459059940900823
vn 0.9999999983462349 -0.0000472218015730823 0.000032827301711503426
vn 0.9999999983227339 -0.00003143589851063257 0.00004864480061795852
vn 0.999999998381546 -0.00003800540064946203 0.00004233789870764606
vn 0.9999999991602309 -0.00003377719983183151 0.00002320860037668414
vn 0.9999999991582347 -0.00003381069834059159 0.000023245800528898414
vn 0.999999999051431 -0.00003902610111190118 0.000019341699935309707
vn 1 0 0
vn 1 0 0
vn 1 0 0
vn 1 0 0
vn 1 0 0
vn 1 0 0
vn 0.9999999985720567 0.000051349401400674986 -0.000014802900274625109
vn 0.999999998668865 0.000051528200787818974 0.00000266730989651126
vn 0.9999999982045731 0.00005111100099302543 -0.00003128129895980948
vn 0.9999999993969118 0.000024743399975334422 -0.000024370900049543337
vn 0.9999999994805824 0.0000272393008203321 -0.00001722950036324631
vn 0.999999999506868 0.00002992269945368733 -0.00000953395010113186
vn 0.9999999993184316 0.000024169699810852227 -0.000027909900362905806
vn 0.9999999992615323 0.00001372400037221882 -0.00003589690092744911
vn 0.9999999992982485 0.00001706930014445752 -0.00003334879872842848
vn 1 0 0
vn 1 0 0
vn 1 0 0
vn 1 0 0
vn 1 0 0
vn 1 0 0
vn 0.9999999993439128 0.00003543469936124737 0.0000075204297850859315
vn 0.9999999993398632 0.000036284298379235985 0.0000019296999185820546
vn 0.9999999993401816 0.000035304601601080583 0.000008556989990931554
vn 0.999999999797174 0.0000059008598315668245 0.000019257000527164113
vn 0.9999999997979394 0.00000640563985014239 0.000019054899890549323
vn 0.9999999997941336 0.0000102743997537567 0.00001749769944220984
vn 0.999999999979126 0.0000015124700211938826 -0.000006281769856155575
vn 0.9999999999803539 0.000001002100020721949 -0.00000618770991410778
vn 0.9999999999786389 -0.000003879889845765205 -0.00000526010990131586
vn 0.999999999606527 0.000021055300740855167 0.00001853700086210699
vn 0.9999999996141253 0.000013876699989953051 0.00002406629936539439
vn 0.9999999996207851 0.00001624230025593329 0.00002223999944428852
vn 0.999999999476987 -0.00001857059941296103 -0.000026479399807406286
vn 0.9999999993852768 -0.00002740320085784179 -0.00002187489916215314
vn 0.9999999994257773 -0.000024475199083596842 -0.000023439499259621818
vn 1 0 0
vn 1 0 0
vn 1 0 0
vn 0.9999999995486635 0.000028699600066609338 -0.000008888539919634299
vn 0.9999999995595905 0.000022098400212870887 0.000019811099255463675
vn 0.9999999991541146 0.000018149599766838735 0.0000369102017117905
vn 0.9999999996243452 0.000022787600747131254 0.000015232700201257406
vn 0.9999999996203888 0.0000196497003269528 0.00001931609948945853
vn 0.9999999996236046 0.000023018599668351934 0.000014930999890403464
vn 1 0 0
vn 1 0 0
vn 1 0 0
vn 0.9999999996693298 -0.000023946200591393557 -0.000009376560225601598
vn 0.9999999996569531 -0.000025596900732439515 -0.0000055581299401670205
vn 0.9999999996092799 -0.00001920760040934364 -0.00002031030088917275
vn 0.999999998065165 -0.000025291899825055845 -0.00005683299957954203
vn 0.9999999978537304 0.000011034299835919888 -0.00006458160337169576
vn 0.9999999980302052 -0.000027388299659543994 -0.00005647540081343767
vn 0.9999999998909272 0.000006994229806115258 -0.000013008700078389582
vn 0.9999999998873688 0.000009305779711983248 -0.000011775599885860826
vn 0.9999999998814433 0.0000030426299414133423 -0.00001509489993444032
vn 0.9999999990263815 0.0000031068900595292316 -0.000044018001019938777
vn 0.9999999988223838 0.000024937100504495333 -0.00004163380067083603
vn 0.9999999990134234 8.04662987891006e-7 -0.00004441289998050979
vn 0.9999999988324288 -0.000041201699738946433 0.000025249999423599647
vn 0.999999998836709 -0.00004056840038912097 0.00002609190047826551
vn 0.9999999988422896 -0.00003923480103372403 0.000027857700810763606
vn 0.9999999994457944 -0.000010419599669740601 0.00003162030041560865
vn 0.9999999994011937 -0.00001791489920670295 0.000029608599998487863
vn 0.9999999992254798 0.000011794299998615357 0.000037549099914052396
vn 0.9999999992176163 0.0000382735997546438 0.000009994950224974622
vn 0.9999999992185187 0.00003952300172935788 -9.462240192869641e-7
vn 0.9999999992288502 0.00003859740169652807 0.000007248479954663799
vn 0.9999999987462587 0.00004595700005361153 -0.0000198855995882583
vn 0.9999999987436823 0.00004637239902508021 -0.000019032500834973435
vn 0.9999999986713104 0.0000390931999780954 -0.00003360210025758567
vn 0.9999999999364733 -0.000010482999641015139 -0.000004142520083142383
vn 0.9999999999235891 -0.000009462240085854348 -0.000007955360160241646
vn 0.9999999999283087 -0.000011916699803860557 0.0000011725400098908484
vn 0.9999999994432349 -0.000020727500657186512 0.00002615149968186492
vn 0.9999999994104225 -0.00003387029935587968 -0.0000056531298435724
vn 0.9999999993799722 -0.00003446640037191473 -0.000007219609865458725
vn 0.9999999996759554 0.000024303799356258222 -0.0000075772400098688185
vn 0.9999999996818028 0.0000248699998258407 -0.000004228199939935362
vn 0.999999999673034 0.00002416969981942286 -0.000008352099936926057
vn 1 0 0
vn 1 0 0
vn 1 0 0
vn 0.999999998907791 -0.00004673749930941367 1.564619934125452e-7
vn 0.9999999989120676 -0.000046547498590662274 0.0000030323899376277698
vn 0.9999999989040518 -0.00004681200147714769 -7.301570113851586e-7
vn 1 0 0
vn 1 0 0
vn 1 0 0
vn 0.9999999995829914 0.000025562900180629422 -0.000013437100273075894
vn 0.9999999996199609 0.000021003199427672058 -0.000017858999847283015
vn 0.999999999565796 0.00002684070021785912 -0.000012164899994051963
vn 0.9999999997838729 0.000016048599715019283 0.000013217299962761096
vn 0.9999999997386255 0.000021971800373362977 0.0000063236798252389
vn 0.9999999997796398 0.000017650399964371453 0.000011365899806374884
vn 0.9999999993187969 -0.00003691020171786895 -2.0861600077637245e-7
vn 0.9999999992441027 -0.00003464519974950759 -0.000017649499555164935
vn 0.9999999992870245 -0.0000350986010493992 -0.000013929799924044423
vn 0.9999999993095721 0.000029519200304631327 -0.000022571499341998077
vn 0.9999999993220505 0.000026501700613376013 -0.000025564799198895032
vn 0.9999999993164046 0.00002370030050059209 -0.000028381100472568655
vn 0.9999999999861979 -0.000003013760078787768 -0.000004303639798249324
vn 0.9999999999853855 -0.0000023730099200855588 -0.0000048577799133653945
vn 0.9999999999796669 -6.463379804568378e-7 -0.000006344169832898994
vn 0.9999999996343867 -0.000023062599203266405 0.000014118900248217194
vn 0.9999999995934572 -0.000022649799566238993 0.000017322599880805523
vn 0.9999999996923146 -0.000024303799356655813 0.000004969539985103243
vn 0.9999999994120694 -0.000022862099272261824 0.00002555749959672421
vn 0.9999999994132756 -0.00002476199914237966 0.000023670499999507152
vn 0.9999999994115283 -0.00002279880026003271 0.000025635099503609383
vn 0.999999997874657 0.00006343419941164436 -0.000015059499641946212
vn 0.9999999977793079 0.00005024670088215662 -0.00004377960057636698
vn 0.9999999978061491 0.00006535650012879102 -0.000010781000104538593
vn 0.9999999999837412 -0.000004142869784051017 -0.000003918440142961073
vn 0.9999999999901032 -0.000001784409960219439 -0.000004075469860213754
vn 0.9999999999876765 0.0000023769700873961415 -0.0000043585901038940774
vn 1 0 0
vn 1 0 0
vn 1 0 0
vn 0.9999999998463853 0.000005967910054998368 -0.000016480700648768463
vn 0.9999999998738425 -0.000007642430317846361 -0.000013925099663600509
vn 0.9999999998856597 -0.0000032410000581808584 -0.000014770799678574838
vn 0.9999999996732578 -0.00002019850034479855 -0.000015668600094041675
vn 0.9999999997234847 -0.000015707699272047067 -0.00001750139926541944
vn 0.9999999997496654 -0.000005979090018039897 -0.000021562000250983284
vn 0.9999999996494773 0.000001866369984127863 -0.000026411400531124806
vn 0.9999999996531386 0.000002890830045450912 -0.000026179499391233286
vn 0.9999999996476829 0.000010434499923538095 -0.000024408100207933667
vn 1 0 0
vn 1 0 0
vn 1 0 0
vn 1 0 0
vn 1 0 0
vn 1 0 0
vn 1 0 0
vn 1 0 0
vn 1 0 0
vn 0.9999999999412754 -0.000008594240170573434 -0.000006602149823787577
vn 0.9999999999545155 -0.000009454790415045098 -0.00000125541998835362
vn 0.999999999952508 -0.000009100879651236728 -0.0000034868699002053497
vn 0.9999999876133329 -0.00013969499386571815 0.00007251650005162186
vn 0.9999999996233158 -0.000018657199682159236 -0.000020131499688124826
vn 0.9999999996254638 -0.000015489800710948832 -0.000022564099700237374
vn 0.999999999168059 -0.00001094680009372191 -0.00003929439841527372
vn 0.9999999991618043 -0.00000922754042357687 -0.0000398904012065366
vn 0.9999999991029018 -0.000024422999536827673 -0.000034608001411346515
vn 0.9999999981697849 0.000028982800305745216 -0.00005310769837990766
vn 0.9999999984186889 1.4901199539591955e-7 -0.0000562370004465469
vn 0.9999999982497585 -0.000012964000211515611 -0.000057727098363929454
vn 1 0 0
vn 1 0 0
vn 1 0 0
vn 0.9999999998220419 -0.000004822390109490168 -0.000018238999470150913
vn 0.9999999998248073 -0.000005886889993113099 -0.000017768799804414138
vn 0.9999999998257978 -0.000008473170053891474 -0.000016631600371342234
vn 0.9999999999986551 0.0000013448300251166178 9.387729846808832e-7
vn 0.9999999999993181 5.178150104253398e-7 0.0000010468099844722157
vn 0.9999999999931324 -0.000003404220024071305 0.0000014650599950882109
vn 0.9999999991394595 -0.000030122699146430637 0.000028525499122233584
vn 0.9999999991337274 -0.00003160160119468874 0.00002709030011301103
vn 0.999999999139134 -0.00002760439926884969 0.00003097949954342485
vn 0.9999999999883808 -0.000004646140041532493 -0.0000012852300414884492
vn 0.9999999999893785 -0.0000041313501241818375 0.0000020433199096952532
vn 0.9999999999890803 -0.000004095959866345604 0.0000022500798877199347
vn 0.9999998454039577 -0.00025258598063903595 0.0004953709550961024
vn 0.9999999999253355 0.000010646899681092644 0.00000599772010855997
vn 0.9999999999177032 0.000008942090061455804 0.00000919959984382109
vn 0.9999999999461207 -0.000005989099917901694 0.000008478759809347784
vn 0.9999999999519749 -0.000007701920366883593 0.000006060579835029763
vn 0.999999999948525 -0.000006441030108940553 0.000007839869794730734
vn 0.9999999996294437 0.000008638950017921365 0.00002581629995755215
vn 0.999999999647482 -0.000006270860010380993 0.000025801400615818635
vn 0.9999999996667792 -7.338820180221957e-7 0.00002580510044076211
vn 1 0 0
vn 1 0 0
vn 1 0 0
vn 1 0 0
vn 1 0 0
vn 1 0 0
vn 1 0 0
vn 1 0 0
vn 1 0 0
vn 0.9999999997029099 -0.00002435600071480077 -9.825449748669122e-7
vn 0.9999999996431046 -0.00002562259941436916 0.000007567929967108524
vn 0.9999999997059863 -0.000024052300425159572 -0.000003084539911472217
vn 0.8838638767026967 -0.09939079103295143 0.4570624881981944
vn 0.8838639311308828 -0.09940224199330168 0.457059892719288
vn 0.8838638935703605 -0.09939991989123845 0.457060470362793
vn 0.00001952800077074673 -0.7896934716306709 -0.6135016059331514
vn 0.000020168697918026052 -0.7896951393541041 -0.613499459228552
vn 0.00002002439983802788 -0.7896948026119412 -0.6134998926867963
vn -0.0713556343834017 -0.7985236750583508 -0.5977192600318713
vn -0.07135587421003409 -0.7985229755596861 -0.5977201658962383
vn -0.07135838309455952 -0.7985170527531628 -0.5977277788630311
vn 0.0000211614987851749 -0.9305817475043819 -0.36608415803457234
vn 0.000018790400094920703 -0.9305714692332739 -0.3661102843351259
vn 0.00002032519993102123 -0.9305776812547654 -0.3660944942735285
vn -0.07135444248799308 -0.9345533401498385 -0.3485951777520856
vn -0.07135444292652324 -0.9345548956142153 -0.3485910075692552
vn -0.07135449925344817 -0.9345576541029917 -0.3485836005806963
vn 0.00003899819795111588 -0.9960232402502169 -0.0890937896859226
vn 0.000038206594880448815 -0.9960223873256112 -0.08910332477773283
vn 0.00003857909811955995 -0.9960228559286903 -0.08909808628308744
vn -0.07138334044699304 -0.9949043156214472 -0.071202678772981
vn -0.07138322183172886 -0.9949045027145733 -0.07120018342103983
vn -0.07138316161043415 -0.9949041364921275 -0.07120536095935956
vn 0.0000613089938055811 -0.9807827411067083 0.1951030778548066
vn 0.00006003679636513743 -0.9807857230121795 0.19508808761956617
vn 0.00006012620064412212 -0.9807855000935295 0.19508920828975967
vn -0.07138781136710569 -0.9746570433135286 0.21200808547681585
vn -0.07138591856529165 -0.97465739610302 0.21200710094775188
vn -0.0713886611784383 -0.974656870577261 0.21200859343830955
vn 8.819629979762944e-7 -0.8860961877485313 0.46350139811735397
vn 9.760258327857153e-7 -0.8860960024529457 0.4635017523547853
vn 0.0000016316798519715437 -0.8860948533908768 0.4635039490571128
vn -0.07136844780176922 -0.8754452985180954 0.4780189054430054
vn -0.07136899068493105 -0.8754462994175084 0.4780169913348315
vn -0.07136546780176224 -0.8754396985299971 0.4780296060320357
vn 0.00004438869695063105 -0.7195929353596673 0.6943961444378137
vn 0.000042155396563348103 -0.7196107614639978 0.6943776711618309
vn 0.00004518029613543543 -0.7195859688647266 0.6944033635947868
vn -0.0713801289275337 -0.7053071656991169 0.7052989998630136
vn -0.07138018822586786 -0.7052957781856992 0.7053103813231935
vn -0.07138012892655382 -0.7052975693418974 0.7053085962008687
vn 0.000031013002045360296 -0.4948020927854136 0.8690056892871121
vn 0.00003033879745018791 -0.494809933999678 0.8690012245646098
vn 0.00003170970079056932 -0.49479548182563765 0.8690094534350186
vn -0.07139895931775865 -0.47801682857792777 0.8754439446387424
vn -0.07140135167703572 -0.47801558171989045 0.8754444303390634
vn -0.07139663468852638 -0.47801805015137505 0.8754434672122641
vn 0.000008088540350586649 -0.2299959851829506 0.9731915776116743
vn 0.000007160009253251052 -0.2299998828867818 0.9731906564598743
vn 0.000006325539580246526 -0.23000297846643547 0.9731899248638757
vn -0.07151543252985408 -0.21198287321555212 0.9746531713247266
vn -0.07151543949052423 -0.21198290156570354 0.9746531646479493
vn -0.07151543411116984 -0.2119827735946889 0.9746531928758012
vn 0.000021690498668756608 0.05349426976619382 0.9985681562275576
vn 0.000022560396902846514 0.05349778539666871 0.9985679678663244
vn 0.00002229959917565051 0.05349676811920729 0.9985680223718001
vn -0.07138282181554227 0.07120013357621073 0.9949045349823169
vn -0.07138054080167884 0.07120930410764435 0.9949040423092899
vn -0.07138381824290792 0.07119618282310307 0.9949047462166831
vn 0.00006139090090531651 0.33271271673068364 0.9430282309437217
vn 0.00006042419685610701 0.33269777414439533 0.9430335028132784
vn 0.0000616311954632801 0.33271276973230995 0.943028212228378
vn -0.0713554601740392 0.34858708645436487 0.9345562805206589
vn -0.07135551380198799 0.348579672876386 0.9345590416380583
vn -0.07135540103793059 0.34857349888452493 0.9345613530518563
vn -0.07140128320228555 0.5977171664269227 0.7985211617206132
vn -0.07140076175674563 0.5977169884091178 0.7985213415981385
vn -0.07139955662300473 0.5977164675408408 0.7985218392408171
vn 0.00006622079568517156 0.5849000719711406 0.8111053577821816
vn 0.00006699379310749237 0.584907102678326 0.8111002877254316
vn 0.00006587799759456305 0.584896329051345 0.811108056871802
vn 0.00001952800077074673 0.7896934716306709 0.6135016059331514
vn 0.000020168697918026052 0.7896951393541041 0.613499459228552
vn 0.00002002439983802788 0.7896948026119412 0.6134998926867963
vn -0.0713556343834017 0.7985236750583508 0.5977192600318713
vn -0.07135587421003409 0.7985229755596861 0.5977201658962383
vn -0.07135838309455952 0.7985170527531628 0.5977277788630311
vn 0.0000211614987851749 0.9305817475043819 0.36608415803457234
vn 0.000018790400094920703 0.9305714692332739 0.3661102843351259
vn 0.00002032519993102123 0.9305776812547654 0.3660944942735285
vn -0.07137779741284062 0.9345631998803974 0.3485639618001318
vn -0.07138185118709461 0.9345637449435003 0.34856167023682305
vn -0.07138293215267277 0.9345638724192982 0.3485611070758364
vn 0.00003824200022858205 0.9960218053162075 0.08910983039032373
vn 0.00003676120167948876 0.9960212879427436 0.08911561374693068
vn 0.0000369920936914757 0.9960213585073712 0.08911482496597209
vn -0.07175420775141937 0.9948824970343432 0.07113473669506752
vn -0.07175420775141937 0.9948824970343432 0.07113473669506752
vn -0.07175420775141937 0.9948824970343432 0.07113473669506752
vn 0.000019987998095136525 0.9807840729216566 -0.1950963913138485
vn 0.000018023000211605798 0.980785623143101 -0.19508859810601617
vn 0.000017479100200130802 0.9807860210896153 -0.1950865975142371
vn -0.0713397055284786 0.9746652441187877 -0.21198657580604946
vn -0.0713397055284786 0.9746652441187877 -0.21198657580604946
vn -0.07133971037414816 0.9746652681343285 -0.21198646375740662
vn 8.819629979762944e-7 0.8860961877485313 -0.46350139811735397
vn 9.760258327857153e-7 0.8860960024529457 -0.4635017523547853
vn 0.0000016316798519715437 0.8860948533908768 -0.4635039490571128
vn -0.07137159866492 0.8754412364185289 -0.4780258742808916
vn -0.0713713085196286 0.8754407052185674 -0.4780268904220904
vn -0.07137053649296746 0.8754393094657374 -0.47802956180853384
vn 0.00005988590197433165 0.719591412111593 -0.6943977217912816
vn 0.00005866589790105627 0.719600925905997 -0.694387862792506
vn 0.00005951519595498072 0.7195944564145063 -0.6943945670549654
vn -0.07139598699068227 0.7052946806131496 -0.7053098797978246
vn -0.07139598699068227 0.7052946806131496 -0.7053098797978246
vn -0.07139307065555081 0.7052959607166269 -0.7053088949241899
vn 0.000014709300217782386 0.49480371522777633 -0.8690047659135284
vn 0.000014849000296504676 0.49480320448206344 -0.8690050567250968
vn 0.0000152588002476309 0.4948017685139547 -0.8690058743429941
vn -0.07148211507437015 0.477882776565097 -0.8755103420787946
vn -0.07148211507437015 0.477882776565097 -0.8755103420787946
vn -0.07148211507437015 0.477882776565097 -0.8755103420787946
vn 0.000008088540350586649 0.2299959851829506 -0.9731915776116743
vn 0.000007160009253251052 0.2299998828867818 -0.9731906564598743
vn 0.000006325539580246526 0.23000297846643547 -0.9731899248638757
vn -0.07134847229124082 0.21199968118954454 -0.974661751931016
vn -0.07134865886058317 0.2120006953742425 -0.9746615176765899
vn -0.0713502087094914 0.21200619428347298 -0.9746602081251448
vn 0.000048916794521042196 -0.053503744671666444 -0.9985676476399866
vn 0.00004646179939916567 -0.05347691920767207 -0.9985690847174056
vn 0.000048786396899957 -0.05350433529753213 -0.998567616000167
vn -0.07137577203351479 -0.07123081353807799 -0.994902844688527
vn -0.07137929779428172 -0.0712327895747295 -0.9949024502612291
vn -0.07137714501766311 -0.07123153086689887 -0.9949026948297434
vn 0.000035631500117792236 -0.33270681494279186 -0.9430303144761671
vn 0.00003381819944329238 -0.33269929454906105 -0.9430329677497423
vn 0.00003533809981810865 -0.3327051967516262 -0.9430308853933049
vn -0.07135479749658281 -0.34857618087692155 -0.9345603987969324
vn -0.071351871443123 -0.34858757525522965 -0.934556372199796
vn -0.07135528229550278 -0.34857430582784577 -0.9345610611432323
vn -0.07140128320228555 -0.5977171664269227 -0.7985211617206132
vn -0.07140076175674563 -0.5977169884091178 -0.7985213415981385
vn -0.07139955662300473 -0.5977164675408408 -0.7985218392408171
vn 0.00006622079568517156 -0.5849000719711406 -0.8111053577821816
vn 0.00006699379310749237 -0.584907102678326 -0.8111002877254316
vn 0.00006587799759456305 -0.584896329051345 -0.811108056871802
vn 0.882391472394992 0.44087387110855747 0.16436398394524548
vn 0.8823887306753471 0.4408576884941433 0.16442209849272255
vn 0.8823896496069853 0.440862975949363 0.1644029887305374
vn 0.8838512831468944 0.45708244697551725 -0.09941099509843945
vn 0.8838512942006129 0.45708534351721836 -0.09939757784598158
vn 0.8838512890364548 0.45708593689301164 -0.0993948950562096
vn 0.7034630946875667 0.7089199000497284 0.0507173513314206
vn 0.7034632675490127 0.708922337841538 0.050680865408502265
vn 0.7034631220640711 0.7089229670130556 0.05067408348728037
vn 0.7068989598014896 0.6851939888552961 0.17550800058156976
vn 0.7068981638086206 0.6852032648662824 0.1754749891596743
vn 0.7068993295828307 0.6851892322641314 0.1755250803293784
vn 0.8819862225540274 0.2258575763357108 -0.4136286479883089
vn 0.8819861926598646 0.22585870116870316 -0.41362809752692437
vn 0.881986173161376 0.2258664894825974 -0.41362388625532615
f 1/1/1 2/2/2 3/3/3
f 4/4/4 5/5/5 6/6/6
f 7/7/7 8/8/8 9/9/9
f 10/10/10 11/11/11 12/12/12
f 13/13/13 14/14/14 15/15/15
f 16/16/16 17/17/17 18/18/18
f 19/19/19 20/20/20 21/21/21
f 22/22/22 23/23/23 24/24/24
f 25/25/25 26/26/26 27/27/27
f 28/28/28 29/29/29 30/30/30
f 31/31/31 32/32/32 33/33/33
f 34/34/34 35/35/35 36/36/36
f 37/37/37 38/38/38 39/39/39
f 40/40/40 41/41/41 42/42/42
f 43/43/43 44/44/44 45/45/45
f 46/46/46 47/47/47 48/48/48
f 49/49/49 50/50/50 51/51/51
f 52/52/52 53/53/53 54/54/54
f 55/55/55 56/56/56 57/57/57
f 58/58/58 59/59/59 60/60/60
f 61/61/61 62/62/62 63/63/63
f 64/64/64 65/65/65 66/66/66
f 67/67/67 68/68/68 69/69/69
f 70/70/70 71/71/71 72/72/72
f 73/73/73 74/74/74 75/75/75
f 76/76/76 77/77/77 78/78/78
f 79/79/79 80/80/80 81/81/81
f 82/82/82 83/83/83 84/84/84
f 85/85/85 86/86/86 87/87/87
f 88/88/88 89/89/89 90/90/90
f 91/91/91 92/92/92 93/93/93
f 94/94/94 95/95/95 96/96/96
f 97/97/97 98/98/98 99/99/99
f 100/100/100 101/101/101 102/102/102
f 103/103/103 104/104/104 105/105/105
f 106/106/106 107/107/107 108/108/108
f 109/109/109 110/110/110 111/111/111
f 112/112/112 113/113/113 114/114/114
f 115/115/115 116/116/116 117/117/117
f 118/118/118 119/119/119 120/120/120
f 121/121/121 122/122/122 123/123/123
f 124/124/124 125/125/125 126/126/126
f 127/127/127 128/128/128 129/129/129
f 130/130/130 131/131/131 132/132/132
f 133/133/133 134/134/134 135/135/135
f 136/136/136 137/137/137 138/138/138
f 139/139/139 140/140/140 141/141/141
f 142/142/142 143/143/143 144/144/144
f 145/145/145 146/146/146 147/147/147
f 148/148/148 149/149/149 150/150/150
f 151/151/151 152/152/152 153/153/153
f 154/154/154 155/155/155 156/156/156
f 157/157/157 158/158/158 159/159/159
f 160/160/160 161/161/161 162/162/162
f 163/163/163 164/164/164 165/165/165
f 166/166/166 167/167/167 168/168/168
f 169/169/169 170/170/170 171/171/171
f 172/172/172 173/173/173 174/174/174
f 175/175/175 176/176/176 177/177/177
f 178/178/178 179/179/179 180/180/180
f 181/181/181 182/182/182 183/183/183
f 184/184/184 185/185/185 186/186/186
f 187/187/187 188/188/188 189/189/189
f 190/190/190 191/191/191 192/192/192
f 193/193/193 194/194/194 195/195/195
f 196/196/196 197/197/197 198/198/198
f 199/199/199 200/200/200 201/201/201
f 202/202/202 203/203/203 204/204/204
f 205/205/205 206/206/206 207/207/207
f 208/208/208 209/209/209 210/210/210
f 211/211/211 212/212/212 213/213/213
f 214/214/214 215/215/215 216/216/216
f 217/217/217 218/218/218 219/219/219
f 220/220/220 221/221/221 222/222/222
f 223/223/223 224/224/224 225/225/225
f 226/226/226 227/227/227 228/228/228
f 229/229/229 230/230/230 231/231/231
f 232/232/232 233/233/233 234/234/234
f 235/235/235 236/236/236 237/237/237
f 238/238/238 239/239/239 240/240/240
f 241/241/241 242/242/242 243/243/243
f 244/244/244 245/245/245 246/246/246
f 247/247/247 248/248/248 249/249/249
f 250/250/250 251/251/251 252/252/252
f 253/253/253 254/254/254 255/255/255
f 256/256/256 257/257/257 258/258/258
f 259/259/259 260/260/260 261/261/261
f 262/262/262 263/263/263 264/264/264
f 265/265/265 266/266/266 267/267/267
f 268/268/268 269/269/269 270/270/270
f 271/271/271 272/272/272 273/273/273
f 274/274/274 275/275/275 276/276/276
f 277/277/277 278/278/278 279/279/279
f 280/280/280 281/281/281 282/282/282
f 283/283/283 284/284/284 285/285/285
f 286/286/286 287/287/287 288/288/288
f 289/289/289 290/290/290 291/291/291
f 292/292/292 293/293/293 294/294/294
f 295/295/295 296/296/296 297/297/297
f 298/298/298 299/299/299 300/300/300
f 301/301/301 302/302/302 303/303/303
f 304/304/304 305/305/305 306/306/306
f 307/307/307 308/308/308 309/309/309
f 310/310/310 311/311/311 312/312/312
f 313/313/313 314/314/314 315/315/315
f 316/316/316 317/317/317 318/318/318
f 319/319/319 320/320/320 321/321/321
f 322/322/322 323/323/323 324/324/324
f 325/325/325 326/326/326 327/327/327
f 328/328/328 329/329/329 330/330/330
f 331/331/331 332/332/332 333/333/333
f 334/334/334 335/335/335 336/336/336
f 337/337/337 338/338/338 339/339/339
f 340/340/340 341/341/341 342/342/342
f 343/343/343 344/344/344 345/345/345
f 346/346/346 347/347/347 348/348/348
f 349/349/349 350/350/350 351/351/351
f 352/352/352 353/353/353 354/354/354
f 355/355/355 356/356/356 357/357/357
f 358/358/358 359/359/359 360/360/360
f 361/361/361 362/362/362 363/363/363
f 364/364/364 365/365/365 366/366/366
f 367/367/367 368/368/368 369/369/369
f 370/370/370 371/371/371 372/372/372
f 373/373/373 374/374/374 375/375/375
f 376/376/376 377/377/377 378/378/378
f 379/379/379 380/380/380 381/381/381
f 382/382/382 383/383/383 384/384/384
f 385/385/385 386/386/386 387/387/387
f 388/388/388 389/389/389 390/390/390
f 391/391/391 392/392/392 393/393/393
f 394/394/394 395/395/395 396/396/396
f 397/397/397 398/398/398 399/399/399
f 400/400/400 401/401/401 402/402/402
f 403/403/403 404/404/404 405/405/405
f 406/406/406 407/407/407 408/408/408
f 409/409/409 410/410/410 411/411/411
f 412/412/412 413/413/413 414/414/414
f 415/415/415 416/416/416 417/417/417
f 418/418/418 419/419/419 420/420/420
f 421/421/421 422/422/422 423/423/423
f 424/424/424 425/425/425 426/426/426
f 427/427/427 428/428/428 429/429/429
f 430/430/430 431/431/431 432/432/432
f 433/433/433 434/434/434 435/435/435
f 436/436/436 437/437/437 438/438/438
f 439/439/439 440/440/440 441/441/441
f 442/442/442 443/443/443 444/444/444
f 445/445/445 446/446/446 447/447/447
f 448/448/448 449/449/449 450/450/450
f 451/451/451 452/452/452 453/453/453
f 454/454/454 455/455/455 456/456/456
f 457/457/457 458/458/458 459/459/459
f 460/460/460 461/461/461 462/462/462
f 463/463/463 464/464/464 465/465/465
f 466/466/466 467/467/467 468/468/468
f 469/469/469 470/470/470 471/471/471
f 472/472/472 473/473/473 474/474/474
f 475/475/475 476/476/476 477/477/477
f 478/478/478 479/479/479 480/480/480
f 481/481/481 482/482/482 483/483/483
f 484/484/484 485/485/485 486/486/486
f 487/487/487 488/488/488 489/489/489
f 490/490/490 491/491/491 492/492/492
f 493/493/493 494/494/494 495/495/495
f 496/496/496 497/497/497 498/498/498
f 499/499/499 500/500/500 501/501/501
f 502/502/502 503/503/503 504/504/504
f 505/505/505 506/506/506 507/507/507
f 508/508/508 509/509/509 510/510/510
f 511/511/511 512/512/512 513/513/513
f 514/514/514 515/515/515 516/516/516
f 517/517/517 518/518/518 519/519/519
f 520/520/520 521/521/521 522/522/522
f 523/523/523 524/524/524 525/525/525
f 526/526/526 527/527/527 528/528/528
f 529/529/529 530/530/530 531/531/531
f 532/532/532 533/533/533 534/534/534
f 535/535/535 536/536/536 537/537/537
f 538/538/538 539/539/539 540/540/540
f 541/541/541 542/542/542 543/543/543
f 544/544/544 545/545/545 546/546/546
f 547/547/547 548/548/548 549/549/549
f 550/550/550 551/551/551 552/552/552
f 553/553/553 554/554/554 555/555/555
f 556/556/556 557/557/557 558/558/558
f 559/559/559 560/560/560 561/561/561
f 562/562/562 563/563/563 564/564/564
f 565/565/565 566/566/566 567/567/567
f 568/568/568 569/569/569 570/570/570
f 571/571/571 572/572/572 573/573/573
f 574/574/574 575/575/575 576/576/576
f 577/577/577 578/578/578 579/579/579
f 580/580/580 581/581/581 582/582/582
f 583/583/583 584/584/584 585/585/585
f 586/586/586 587/587/587 588/588/588
f 589/589/589 590/590/590 591/591/591
f 592/592/592 593/593/593 594/594/594
f 595/595/595 596/596/596 597/597/597
f 598/598/598 599/599/599 600/600/600
f 601/601/601 602/602/602 603/603/603
f 604/604/604 605/605/605 606/606/606
f 607/607/607 608/608/608 609/609/609
f 610/610/610 611/611/611 612/612/612
f 613/613/613 614/614/614 615/615/615
f 616/616/616 617/617/617 618/618/618
f 619/619/619 620/620/620 621/621/621
f 622/622/622 623/623/623 624/624/624
f 625/625/625 626/626/626 627/627/627
f 628/628/628 629/629/629 630/630/630
f 631/631/631 632/632/632 633/633/633
f 634/634/634 635/635/635 636/636/636
f 637/637/637 638/638/638 639/639/639
f 640/640/640 641/641/641 642/642/642
f 643/643/643 644/644/644 645/645/645
f 646/646/646 647/647/647 648/648/648
f 649/649/649 650/650/650 651/651/651
f 652/652/652 653/653/653 654/654/654
f 655/655/655 656/656/656 657/657/657
f 658/658/658 659/659/659 660/660/660
f 661/661/661 662/662/662 663/663/663
f 664/664/664 665/665/665 666/666/666
f 667/667/667 668/668/668 669/669/669
f 670/670/670 671/671/671 672/672/672
f 673/673/673 674/674/674 675/675/675
f 676/676/676 677/677/677 678/678/678
f 679/679/679 680/680/680 681/681/681
f 682/682/682 683/683/683 684/684/684
f 685/685/685 686/686/686 687/687/687
f 688/688/688 689/689/689 690/690/690
f 691/691/691 692/692/692 693/693/693
f 694/694/694 695/695/695 696/696/696
f 697/697/697 698/698/698 699/699/699
f 700/700/700 701/701/701 702/702/702
