o shoulderYawLeft
usemtl 黑色
v 0.013749949634075165 0.023815980181097984 -0.027999989688396454
v 0.010523970238864422 0.02540694922208786 -0.027999989688396454
v 0.010523970238864422 0.02540694922208786 -0.019199959933757782
v -0.010523970238864422 -0.02540694922208786 -0.019199959933757782
v -0.010523970238864422 -0.02540694922208786 -0.027999989688396454
v -0.002874969970434904 -0.027348989620804787 -0.019199959933757782
v -0.002874969970434904 -0.027348989620804787 -0.019199959933757782
v -0.010523970238864422 -0.02540694922208786 -0.027999989688396454
v -0.007809996139258146 -0.02636796049773693 -0.028499960899353027
v -0.002874969970434904 -0.027348989620804787 -0.019199959933757782
v -0.007809996139258146 -0.02636796049773693 -0.028499960899353027
v 0.0007200000109151006 -0.027490969747304916 -0.027999989688396454
v 0.008497953414916992 -0.02615397982299328 -0.027999989688396454
v 0.0050109620206058025 -0.02703999914228916 -0.019199959933757782
v 0.0007200000109151006 -0.027490969747304916 -0.027999989688396454
v 0.0007200000109151006 -0.027490969747304916 -0.027999989688396454
v 0.0050109620206058025 -0.02703999914228916 -0.019199959933757782
v 0.0007200000109151006 -0.027490969747304916 -0.019199959933757782
v 0.0007200000109151006 -0.027490969747304916 -0.027999989688396454
v 0.0007200000109151006 -0.027490969747304916 -0.019199959933757782
v -0.002874969970434904 -0.027348989620804787 -0.019199959933757782
v 0.015576000325381756 -0.022662989795207977 -0.027999989688396454
v 0.01248496025800705 -0.024502990767359734 -0.019199959933757782
v 0.008497953414916992 -0.02615397982299328 -0.027999989688396454
v 0.008497953414916992 -0.02615397982299328 -0.027999989688396454
v 0.01248496025800705 -0.024502990767359734 -0.019199959933757782
v 0.008497953414916992 -0.02615397982299328 -0.019199959933757782
v 0.008497953414916992 -0.02615397982299328 -0.027999989688396454
v 0.008497953414916992 -0.02615397982299328 -0.019199959933757782
v 0.0050109620206058025 -0.02703999914228916 -0.019199959933757782
v 0.021371960639953613 -0.017305970191955566 -0.027999989688396454
v 0.018929950892925262 -0.019948000088334084 -0.019199959933757782
v 0.015576000325381756 -0.022662989795207977 -0.027999989688396454
v 0.015576000325381756 -0.022662989795207977 -0.027999989688396454
v 0.018929950892925262 -0.019948000088334084 -0.019199959933757782
v 0.015576000325381756 -0.022662989795207977 -0.019199959933757782
v 0.015576000325381756 -0.022662989795207977 -0.027999989688396454
v 0.015576000325381756 -0.022662989795207977 -0.019199959933757782
v 0.01248496025800705 -0.024502990767359734 -0.019199959933757782
v 0.02540694922208786 -0.010523970238864422 -0.027999989688396454
v 0.023815980181097984 -0.013749949634075165 -0.019199959933757782
v 0.021371960639953613 -0.017305970191955566 -0.027999989688396454
v 0.021371960639953613 -0.017305970191955566 -0.027999989688396454
v 0.023815980181097984 -0.013749949634075165 -0.019199959933757782
v 0.021371960639953613 -0.017305970191955566 -0.019199959933757782
v 0.021371960639953613 -0.017305970191955566 -0.027999989688396454
v 0.021371960639953613 -0.017305970191955566 -0.019199959933757782
v 0.018929950892925262 -0.019948000088334084 -0.019199959933757782
v 0.027348989620804787 -0.002874969970434904 -0.027999989688396454
v 0.026562979444861412 -0.007117986213415861 -0.019199959933757782
v 0.02540694922208786 -0.010523970238864422 -0.027999989688396454
v 0.02540694922208786 -0.010523970238864422 -0.027999989688396454
v 0.026562979444861412 -0.007117986213415861 -0.019199959933757782
v 0.02540694922208786 -0.010523970238864422 -0.019199959933757782
v 0.02540694922208786 -0.010523970238864422 -0.027999989688396454
v 0.02540694922208786 -0.010523970238864422 -0.019199959933757782
v 0.023815980181097984 -0.013749949634075165 -0.019199959933757782
v 0.02703999914228916 0.0050109620206058025 -0.027999989688396454
v 0.027490969747304916 0.0007200000109151006 -0.019199959933757782
v 0.027348989620804787 -0.002874969970434904 -0.027999989688396454
v 0.027348989620804787 -0.002874969970434904 -0.027999989688396454
v 0.027490969747304916 0.0007200000109151006 -0.019199959933757782
v 0.027348989620804787 -0.002874969970434904 -0.019199959933757782
v 0.027348989620804787 -0.002874969970434904 -0.027999989688396454
v 0.027348989620804787 -0.002874969970434904 -0.019199959933757782
v 0.026562979444861412 -0.007117986213415861 -0.019199959933757782
v 0.024502990767359734 0.01248496025800705 -0.027999989688396454
v 0.02615397982299328 0.008497953414916992 -0.019199959933757782
v 0.02703999914228916 0.0050109620206058025 -0.027999989688396454
v 0.02703999914228916 0.0050109620206058025 -0.027999989688396454
v 0.02615397982299328 0.008497953414916992 -0.019199959933757782
v 0.02703999914228916 0.0050109620206058025 -0.019199959933757782
v 0.02703999914228916 0.0050109620206058025 -0.027999989688396454
v 0.02703999914228916 0.0050109620206058025 -0.019199959933757782
v 0.027490969747304916 0.0007200000109151006 -0.019199959933757782
v 0.010523970238864422 0.02540694922208786 -0.019199959933757782
v 0.017305970191955566 0.021371960639953613 -0.019199959933757782
v 0.013749949634075165 0.023815980181097984 -0.027999989688396454
v 0.013749949634075165 0.023815980181097984 -0.027999989688396454
v 0.017305970191955566 0.021371960639953613 -0.019199959933757782
v 0.019948000088334084 0.018929950892925262 -0.019199959933757782
v 0.013749949634075165 0.023815980181097984 -0.027999989688396454
v 0.019948000088334084 0.018929950892925262 -0.019199959933757782
v 0.019948000088334084 0.018929950892925262 -0.027999989688396454
v 0.019948000088334084 0.018929950892925262 -0.027999989688396454
v 0.019948000088334084 0.018929950892925262 -0.019199959933757782
v 0.022662989795207977 0.015576000325381756 -0.019199959933757782
v 0.019948000088334084 0.018929950892925262 -0.027999989688396454
v 0.022662989795207977 0.015576000325381756 -0.019199959933757782
v 0.024502990767359734 0.01248496025800705 -0.027999989688396454
v 0.024502990767359734 0.01248496025800705 -0.027999989688396454
v 0.022662989795207977 0.015576000325381756 -0.019199959933757782
v 0.024502990767359734 0.01248496025800705 -0.019199959933757782
v 0.024502990767359734 0.01248496025800705 -0.027999989688396454
v 0.024502990767359734 0.01248496025800705 -0.019199959933757782
v 0.02615397982299328 0.008497953414916992 -0.019199959933757782
v -0.013749949634075165 -0.023815980181097984 -0.027999989688396454
v -0.010523970238864422 -0.02540694922208786 -0.027999989688396454
v -0.010523970238864422 -0.02540694922208786 -0.019199959933757782
v 0.010523970238864422 0.02540694922208786 -0.019199959933757782
v 0.010523970238864422 0.02540694922208786 -0.027999989688396454
v 0.002874969970434904 0.027348989620804787 -0.019199959933757782
v 0.002874969970434904 0.027348989620804787 -0.019199959933757782
v 0.010523970238864422 0.02540694922208786 -0.027999989688396454
v 0.007809996139258146 0.02636796049773693 -0.028499960899353027
v 0.002874969970434904 0.027348989620804787 -0.019199959933757782
v 0.007809996139258146 0.02636796049773693 -0.028499960899353027
v -0.0007200000109151006 0.027490969747304916 -0.027999989688396454
v -0.008497953414916992 0.02615397982299328 -0.027999989688396454
v -0.0050109620206058025 0.02703999914228916 -0.019199959933757782
v -0.0007200000109151006 0.027490969747304916 -0.027999989688396454
v -0.0007200000109151006 0.027490969747304916 -0.027999989688396454
v -0.0050109620206058025 0.02703999914228916 -0.019199959933757782
v -0.0007200000109151006 0.027490969747304916 -0.019199959933757782
v -0.0007200000109151006 0.027490969747304916 -0.027999989688396454
v -0.0007200000109151006 0.027490969747304916 -0.019199959933757782
v 0.002874969970434904 0.027348989620804787 -0.019199959933757782
v -0.015576000325381756 0.022662989795207977 -0.027999989688396454
v -0.01248496025800705 0.024502990767359734 -0.019199959933757782
v -0.008497953414916992 0.02615397982299328 -0.027999989688396454
v -0.008497953414916992 0.02615397982299328 -0.027999989688396454
v -0.01248496025800705 0.024502990767359734 -0.019199959933757782
v -0.008497953414916992 0.02615397982299328 -0.019199959933757782
v -0.008497953414916992 0.02615397982299328 -0.027999989688396454
v -0.008497953414916992 0.02615397982299328 -0.019199959933757782
v -0.0050109620206058025 0.02703999914228916 -0.019199959933757782
v -0.021371960639953613 0.017305970191955566 -0.027999989688396454
v -0.018929950892925262 0.019948000088334084 -0.019199959933757782
v -0.015576000325381756 0.022662989795207977 -0.027999989688396454
v -0.015576000325381756 0.022662989795207977 -0.027999989688396454
v -0.018929950892925262 0.019948000088334084 -0.019199959933757782
v -0.015576000325381756 0.022662989795207977 -0.019199959933757782
v -0.015576000325381756 0.022662989795207977 -0.027999989688396454
v -0.015576000325381756 0.022662989795207977 -0.019199959933757782
v -0.01248496025800705 0.024502990767359734 -0.019199959933757782
v -0.02540694922208786 0.010523970238864422 -0.027999989688396454
v -0.023815980181097984 0.013749949634075165 -0.019199959933757782
v -0.021371960639953613 0.017305970191955566 -0.027999989688396454
v -0.021371960639953613 0.017305970191955566 -0.027999989688396454
v -0.023815980181097984 0.013749949634075165 -0.019199959933757782
v -0.021371960639953613 0.017305970191955566 -0.019199959933757782
v -0.021371960639953613 0.017305970191955566 -0.027999989688396454
v -0.021371960639953613 0.017305970191955566 -0.019199959933757782
v -0.018929950892925262 0.019948000088334084 -0.019199959933757782
v -0.027348989620804787 0.002874969970434904 -0.027999989688396454
v -0.026562979444861412 0.007117986213415861 -0.019199959933757782
v -0.02540694922208786 0.010523970238864422 -0.027999989688396454
v -0.02540694922208786 0.010523970238864422 -0.027999989688396454
v -0.026562979444861412 0.007117986213415861 -0.019199959933757782
v -0.02540694922208786 0.010523970238864422 -0.019199959933757782
v -0.02540694922208786 0.010523970238864422 -0.027999989688396454
v -0.02540694922208786 0.010523970238864422 -0.019199959933757782
v -0.023815980181097984 0.013749949634075165 -0.019199959933757782
v -0.02703999914228916 -0.0050109620206058025 -0.027999989688396454
v -0.027490969747304916 -0.0007200000109151006 -0.019199959933757782
v -0.027348989620804787 0.002874969970434904 -0.027999989688396454
v -0.027348989620804787 0.002874969970434904 -0.027999989688396454
v -0.027490969747304916 -0.0007200000109151006 -0.019199959933757782
v -0.027348989620804787 0.002874969970434904 -0.019199959933757782
v -0.027348989620804787 0.002874969970434904 -0.027999989688396454
v -0.027348989620804787 0.002874969970434904 -0.019199959933757782
v -0.026562979444861412 0.007117986213415861 -0.019199959933757782
v -0.024502990767359734 -0.01248496025800705 -0.027999989688396454
v -0.02615397982299328 -0.008497953414916992 -0.019199959933757782
v -0.02703999914228916 -0.0050109620206058025 -0.027999989688396454
v -0.02703999914228916 -0.0050109620206058025 -0.027999989688396454
v -0.02615397982299328 -0.008497953414916992 -0.019199959933757782
v -0.02703999914228916 -0.0050109620206058025 -0.019199959933757782
v -0.02703999914228916 -0.0050109620206058025 -0.027999989688396454
v -0.02703999914228916 -0.0050109620206058025 -0.019199959933757782
v -0.027490969747304916 -0.0007200000109151006 -0.019199959933757782
v -0.010523970238864422 -0.02540694922208786 -0.019199959933757782
v -0.017305970191955566 -0.021371960639953613 -0.019199959933757782
v -0.013749949634075165 -0.023815980181097984 -0.027999989688396454
v -0.013749949634075165 -0.023815980181097984 -0.027999989688396454
v -0.017305970191955566 -0.021371960639953613 -0.019199959933757782
v -0.019948000088334084 -0.018929950892925262 -0.019199959933757782
v -0.013749949634075165 -0.023815980181097984 -0.027999989688396454
v -0.019948000088334084 -0.018929950892925262 -0.019199959933757782
v -0.019948000088334084 -0.018929950892925262 -0.027999989688396454
v -0.019948000088334084 -0.018929950892925262 -0.027999989688396454
v -0.019948000088334084 -0.018929950892925262 -0.019199959933757782
v -0.022662989795207977 -0.015576000325381756 -0.019199959933757782
v -0.019948000088334084 -0.018929950892925262 -0.027999989688396454
v -0.022662989795207977 -0.015576000325381756 -0.019199959933757782
v -0.024502990767359734 -0.01248496025800705 -0.027999989688396454
v -0.024502990767359734 -0.01248496025800705 -0.027999989688396454
v -0.022662989795207977 -0.015576000325381756 -0.019199959933757782
v -0.024502990767359734 -0.01248496025800705 -0.019199959933757782
v -0.024502990767359734 -0.01248496025800705 -0.027999989688396454
v -0.024502990767359734 -0.01248496025800705 -0.019199959933757782
v -0.02615397982299328 -0.008497953414916992 -0.019199959933757782
v 0.0007200000109151006 -0.027490969747304916 -0.027999989688396454
v 0.007809996139258146 -0.02636796049773693 -0.028499960899353027
v 0.008497953414916992 -0.02615397982299328 -0.027999989688396454
v 0.008497953414916992 -0.02615397982299328 -0.027999989688396454
v 0.014977989718317986 -0.023063000291585922 -0.028499960899353027
v 0.015576000325381756 -0.022662989795207977 -0.027999989688396454
v 0.015576000325381756 -0.022662989795207977 -0.027999989688396454
v 0.020910970866680145 -0.017859989777207375 -0.028499960899353027
v 0.021371960639953613 -0.017305970191955566 -0.027999989688396454
v 0.021371960639953613 -0.017305970191955566 -0.027999989688396454
v 0.025123000144958496 -0.011184990406036377 -0.028499960899353027
v 0.02540694922208786 -0.010523970238864422 -0.027999989688396454
v -0.0007200000109151006 0.027490969747304916 -0.027999989688396454
v -0.007809996139258146 0.02636796049773693 -0.028499960899353027
v -0.008497953414916992 0.02615397982299328 -0.027999989688396454
v -0.008497953414916992 0.02615397982299328 -0.027999989688396454
v -0.014977989718317986 0.023063000291585922 -0.028499960899353027
v -0.015576000325381756 0.022662989795207977 -0.027999989688396454
v -0.015576000325381756 0.022662989795207977 -0.027999989688396454
v -0.020910970866680145 0.017859989777207375 -0.028499960899353027
v -0.021371960639953613 0.017305970191955566 -0.027999989688396454
v -0.021371960639953613 0.017305970191955566 -0.027999989688396454
v -0.025123000144958496 0.011184990406036377 -0.028499960899353027
v -0.02540694922208786 0.010523970238864422 -0.027999989688396454
vt 0 0
vt 0 0
vt 0 0
vt 0 0
vt 0 0
vt 0 0
vt 0 0
vt 0 0
vt 0 0
vt 0 0
vt 0 0
vt 0 0
vt 0 0
vt 0 0
vt 0 0
vt 0 0
vt 0 0
vt 0 0
vt 0 0
vt 0 0
vt 0 0
vt 0 0
vt 0 0
vt 0 0
vt 0 0
vt 0 0
vt 0 0
vt 0 0
vt 0 0
vt 0 0
vt 0 0
vt 0 0
vt 0 0
vt 0 0
vt 0 0
vt 0 0
vt 0 0
vt 0 0
vt 0 0
vt 0 0
vt 0 0
vt 0 0
vt 0 0
vt 0 0
vt 0 0
vt 0 0
vt 0 0
vt 0 0
vt 0 0
vt 0 0
vt 0 0
vt 0 0
vt 0 0
vt 0 0
vt 0 0
vt 0 0
vt 0 0
vt 0 0
vt 0 0
vt 0 0
vt 0 0
vt 0 0
vt 0 0
vt 0 0
vt 0 0
vt 0 0
vt 0 0
vt 0 0
vt 0 0
vt 0 0
vt 0 0
vt 0 0
vt 0 0
vt 0 0
vt 0 0
vt 0 0
vt 0 0
vt 0 0
vt 0 0
vt 0 0
vt 0 0
vt 0 0
vt 0 0
vt 0 0
vt 0 0
vt 0 0
vt 0 0
vt 0 0
vt 0 0
vt 0 0
vt 0 0
vt 0 0
vt 0 0
vt 0 0
vt 0 0
vt 0 0
vt 0 0
vt 0 0
vt 0 0
vt 0 0
vt 0 0
vt 0 0
vt 0 0
vt 0 0
vt 0 0
vt 0 0
vt 0 0
vt 0 0
vt 0 0
vt 0 0
vt 0 0
vt 0 0
vt 0 0
vt 0 0
vt 0 0
vt 0 0
vt 0 0
vt 0 0
vt 0 0
vt 0 0
vt 0 0
vt 0 0
vt 0 0
vt 0 0
vt 0 0
vt 0 0
vt 0 0
vt 0 0
vt 0 0
vt 0 0
vt 0 0
vt 0 0
vt 0 0
vt 0 0
vt 0 0
vt 0 0
vt 0 0
vt 0 0
vt 0 0
vt 0 0
vt 0 0
vt 0 0
vt 0 0
vt 0 0
vt 0 0
vt 0 0
vt 0 0
vt 0 0
vt 0 0
vt 0 0
vt 0 0
vt 0 0
vt 0 0
vt 0 0
vt 0 0
vt 0 0
vt 0 0
vt 0 0
vt 0 0
vt 0 0
vt 0 0
vt 0 0
vt 0 0
vt 0 0
vt 0 0
vt 0 0
vt 0 0
vt 0 0
vt 0 0
vt 0 0
vt 0 0
vt 0 0
vt 0 0
vt 0 0
vt 0 0
vt 0 0
vt 0 0
vt 0 0
vt 0 0
vt 0 0
vt 0 0
vt 0 0
vt 0 0
vt 0 0
vt 0 0
vt 0 0
vt 0 0
vt 0 0
vt 0 0
vt 0 0
vt 0 0
vt 0 0
vt 0 0
vt 0 0
vt 0 0
vt 0 0
vt 0 0
vt 0 0
vt 0 0
vt 0 0
vt 0 0
vt 0 0
vt 0 0
vt 0 0
vt 0 0
vt 0 0
vt 0 0
vt 0 0
vt 0 0
vt 0 0
vt 0 0
vt 0 0
vt 0 0
vt 0 0
vt 0 0
vt 0 0
vn 0.4423135999931116 0.8968604569614683 0
vn 0.4423135999931116 0.8968604569614683 0
vn 0.4423135999931116 0.8968604569614683 0
vn -0.24640741846623596 -0.9691663346014476 0
vn -0.24640747445188696 -0.9691663203672746 0
vn -0.24640741846623596 -0.9691663346014476 0
vn -0.3205558695053934 -0.9446280708875251 0.07015512965531773
vn -0.32055587067826685 -0.9446280743437999 0.07015507775794151
vn -0.3205559791460535 -0.9446280426902753 0.07015500835189216
vn -0.1174798977836158 -0.9925565698321241 -0.03209251158508463
vn -0.11747989802238366 -0.9925565718494107 -0.032092448320374854
vn -0.11748020221557628 -0.9925565610298885 -0.032091669384882164
vn 0.16932320930558786 -0.98503830002056 -0.03208112035234226
vn 0.16932320930558786 -0.98503830002056 -0.03208112035234226
vn 0.16932320930558786 -0.98503830002056 -0.03208112035234226
vn 0.10452800534028464 -0.9945219434982726 0
vn 0.10452800534028464 -0.9945219434982726 0
vn 0.10452800534028464 -0.9945219434982726 0
vn -0.039468157271903274 -0.9992208287268435 0
vn -0.039468157271903274 -0.9992208287268435 0
vn -0.039468157271903274 -0.9992208287268435 0
vn 0.4421129680316351 -0.8963836142757696 -0.03213315353597423
vn 0.4421129680316351 -0.8963836142757696 -0.03213315353597423
vn 0.4421129680316351 -0.8963836142757696 -0.03213315353597423
vn 0.38259080294189496 -0.9239178954345868 0
vn 0.38259080294189496 -0.9239178954345868 0
vn 0.38259080294189496 -0.9239178954345868 0
vn 0.2462612009672011 -0.9692034981871411 0
vn 0.2462612009672011 -0.9692034981871411 0
vn 0.2462612009672011 -0.9692034981871411 0
vn 0.6783980899722187 -0.7339925356609682 -0.032109019231791436
vn 0.6783980899722187 -0.7339925356609682 -0.032109019231791436
vn 0.6783980899722187 -0.7339925356609682 -0.032109019231791436
vn 0.6291779869622023 -0.7772612564139492 0
vn 0.6291779869622023 -0.7772612564139492 0
vn 0.6291779869622023 -0.7772612564139492 0
vn 0.511508638869759 -0.8592781344603192 0
vn 0.511508638869759 -0.8592781344603192 0
vn 0.511508638869759 -0.8592781344603192 0
vn 0.8589578093433127 -0.5110424651411487 -0.03204809808077967
vn 0.8589578093433127 -0.5110424651411487 -0.03204809808077967
vn 0.8589578093433127 -0.5110424651411487 -0.03204809808077967
vn 0.8241226878668323 -0.5664113305215103 0
vn 0.8241226878668323 -0.5664113305215103 0
vn 0.8241226878668323 -0.5664113305215103 0
vn 0.7343561610190448 -0.6787643396447479 0
vn 0.7343561610190448 -0.6787643396447479 0
vn 0.7343561610190448 -0.6787643396447479 0
vn 0.9687505880273255 -0.2459558675195002 -0.03206258613152497
vn 0.9687505880273255 -0.2459558675195002 -0.03206258613152497
vn 0.9687505880273255 -0.2459558675195002 -0.03206258613152497
vn 0.9469456734197322 -0.3213936707398725 0
vn 0.9469456734197322 -0.3213936707398725 0
vn 0.9469456734197322 -0.3213936707398725 0
vn 0.8968601858526237 -0.44231414970854965 0
vn 0.8968601858526237 -0.44231414970854965 0
vn 0.8968601858526237 -0.44231414970854965 0
vn 0.99871821223501 0.03913270721753153 -0.03210239517438424
vn 0.99871821223501 0.03913270721753153 -0.03210239517438424
vn 0.99871821223501 0.03913270721753153 -0.03210239517438424
vn 0.999234036249267 -0.03913234980165066 0
vn 0.9992340362492227 -0.03913234980164892 -2.980509965221002e-7
vn 0.999234036249267 -0.03913234980165066 0
vn 0.9832711842943408 -0.18214768221529606 0
vn 0.9832711842943408 -0.18214768221529606 0
vn 0.9832711842943408 -0.18214768221529606 0
vn 0.946447943002361 0.3212655696207319 -0.03201132554060541
vn 0.946447943002361 0.3212655696207319 -0.03201132554060541
vn 0.946447943002361 0.3212655696207319 -0.03201132554060541
vn 0.9692035978872197 0.2462608085799866 0
vn 0.9692035978872197 0.2462608085799866 0
vn 0.9692035978872197 0.2462608085799866 0
vn 0.994521870815676 0.1045286968697483 0
vn 0.994521870815676 0.1045286968697483 0
vn 0.994521870815676 0.1045286968697483 0
vn 0.5110429962095686 0.8589575022885688 0.032047859325237626
vn 0.5110429962095686 0.8589575022885688 0.032047859325237626
vn 0.5110429962095686 0.8589575022885688 0.032047859325237626
vn 0.6770925286048469 0.7325458271497219 -0.07015923911377765
vn 0.6770925286048469 0.7325458271497219 -0.07015923911377765
vn 0.6770925286048469 0.7325458271497219 -0.07015923911377765
vn 0.6190853780879627 0.7853236878113917 0
vn 0.6190853780879627 0.7853236878113917 0
vn 0.6190853780879627 0.7853236878113917 0
vn 0.7772611745209608 0.6291780881295029 0
vn 0.7772611745209608 0.6291780881295029 0
vn 0.7772611745209608 0.6291780881295029 0
vn 0.816216882880415 0.5768610216673494 -0.031958751256591936
vn 0.816216882880415 0.5768610216673494 -0.031958751256591936
vn 0.816216882880415 0.5768610216673494 -0.031958751256591936
vn 0.8592782704420246 0.5115084104354126 0
vn 0.8592782704420246 0.5115084104354126 0
vn 0.8592782704420246 0.5115084104354126 0
vn 0.9239179059691858 0.38259077750190845 0
vn 0.9239179059691858 0.38259077750190845 0
vn 0.9239179059691858 0.38259077750190845 0
vn -0.4423135999931116 -0.8968604569614683 0
vn -0.4423135999931116 -0.8968604569614683 0
vn -0.4423135999931116 -0.8968604569614683 0
vn 0.24640741846623596 0.9691663346014476 0
vn 0.24640747445188696 0.9691663203672746 0
vn 0.24640741846623596 0.9691663346014476 0
vn 0.3205558695053934 0.9446280708875251 0.07015512965531773
vn 0.32055587067826685 0.9446280743437999 0.07015507775794151
vn 0.3205559791460535 0.9446280426902753 0.07015500835189216
vn 0.1174798977836158 0.9925565698321241 -0.03209251158508463
vn 0.11747989802238366 0.9925565718494107 -0.032092448320374854
vn 0.11748020221557628 0.9925565610298885 -0.032091669384882164
vn -0.16932320930558786 0.98503830002056 -0.03208112035234226
vn -0.16932320930558786 0.98503830002056 -0.03208112035234226
vn -0.16932320930558786 0.98503830002056 -0.03208112035234226
vn -0.10452800534028464 0.9945219434982726 0
vn -0.10452800534028464 0.9945219434982726 0
vn -0.10452800534028464 0.9945219434982726 0
vn 0.039468157271903274 0.9992208287268435 0
vn 0.039468157271903274 0.9992208287268435 0
vn 0.039468157271903274 0.9992208287268435 0
vn -0.4421129680316351 0.8963836142757696 -0.03213315353597423
vn -0.4421129680316351 0.8963836142757696 -0.03213315353597423
vn -0.4421129680316351 0.8963836142757696 -0.03213315353597423
vn -0.38259080294189496 0.9239178954345868 0
vn -0.38259080294189496 0.9239178954345868 0
vn -0.38259080294189496 0.9239178954345868 0
vn -0.2462612009672011 0.9692034981871411 0
vn -0.2462612009672011 0.9692034981871411 0
vn -0.2462612009672011 0.9692034981871411 0
vn -0.6783980899722187 0.7339925356609682 -0.032109019231791436
vn -0.6783980899722187 0.7339925356609682 -0.032109019231791436
vn -0.6783980899722187 0.7339925356609682 -0.032109019231791436
vn -0.6291779869622023 0.7772612564139492 0
vn -0.6291779869622023 0.7772612564139492 0
vn -0.6291779869622023 0.7772612564139492 0
vn -0.511508638869759 0.8592781344603192 0
vn -0.511508638869759 0.8592781344603192 0
vn -0.511508638869759 0.8592781344603192 0
vn -0.8589578093433127 0.5110424651411487 -0.03204809808077967
vn -0.8589578093433127 0.5110424651411487 -0.03204809808077967
vn -0.8589578093433127 0.5110424651411487 -0.03204809808077967
vn -0.8241226878668323 0.5664113305215103 0
vn -0.8241226878668323 0.5664113305215103 0
vn -0.8241226878668323 0.5664113305215103 0
vn -0.7343561610190448 0.6787643396447479 0
vn -0.7343561610190448 0.6787643396447479 0
vn -0.7343561610190448 0.6787643396447479 0
vn -0.9687505880273255 0.2459558675195002 -0.03206258613152497
vn -0.9687505880273255 0.2459558675195002 -0.03206258613152497
vn -0.9687505880273255 0.2459558675195002 -0.03206258613152497
vn -0.9469456734197322 0.3213936707398725 0
vn -0.9469456734197322 0.3213936707398725 0
vn -0.9469456734197322 0.3213936707398725 0
vn -0.8968601858526237 0.44231414970854965 0
vn -0.8968601858526237 0.44231414970854965 0
vn -0.8968601858526237 0.44231414970854965 0
vn -0.99871821223501 -0.03913270721753153 -0.03210239517438424
vn -0.99871821223501 -0.03913270721753153 -0.03210239517438424
vn -0.99871821223501 -0.03913270721753153 -0.03210239517438424
vn -0.999234036249267 0.03913234980165066 0
vn -0.9992340362492227 0.03913234980164892 -2.980509965221002e-7
vn -0.999234036249267 0.03913234980165066 0
vn -0.9832711842943408 0.18214768221529606 0
vn -0.9832711842943408 0.18214768221529606 0
vn -0.9832711842943408 0.18214768221529606 0
vn -0.946447943002361 -0.3212655696207319 -0.03201132554060541
vn -0.946447943002361 -0.3212655696207319 -0.03201132554060541
vn -0.946447943002361 -0.3212655696207319 -0.03201132554060541
vn -0.9692035978872197 -0.2462608085799866 0
vn -0.9692035978872197 -0.2462608085799866 0
vn -0.9692035978872197 -0.2462608085799866 0
vn -0.994521870815676 -0.1045286968697483 0
vn -0.994521870815676 -0.1045286968697483 0
vn -0.994521870815676 -0.1045286968697483 0
vn -0.5110429962095686 -0.8589575022885688 0.032047859325237626
vn -0.5110429962095686 -0.8589575022885688 0.032047859325237626
vn -0.5110429962095686 -0.8589575022885688 0.032047859325237626
vn -0.6770925286048469 -0.7325458271497219 -0.07015923911377765
vn -0.6770925286048469 -0.7325458271497219 -0.07015923911377765
vn -0.6770925286048469 -0.7325458271497219 -0.07015923911377765
vn -0.6190853780879627 -0.7853236878113917 0
vn -0.6190853780879627 -0.7853236878113917 0
vn -0.6190853780879627 -0.7853236878113917 0
vn -0.7772611745209608 -0.6291780881295029 0
vn -0.7772611745209608 -0.6291780881295029 0
vn -0.7772611745209608 -0.6291780881295029 0
vn -0.816216882880415 -0.5768610216673494 -0.031958751256591936
vn -0.816216882880415 -0.5768610216673494 -0.031958751256591936
vn -0.816216882880415 -0.5768610216673494 -0.031958751256591936
vn -0.8592782704420246 -0.5115084104354126 0
vn -0.8592782704420246 -0.5115084104354126 0
vn -0.8592782704420246 -0.5115084104354126 0
vn -0.9239179059691858 -0.38259077750190845 0
vn -0.9239179059691858 -0.38259077750190845 0
vn -0.9239179059691858 -0.38259077750190845 0
vn 0.12037519521956233 -0.7004937620581185 -0.703433224758055
vn 0.12045289159187154 -0.7004797812271285 -0.7034338469246066
vn 0.12038380152795099 -0.7004920982933395 -0.7034334087589766
vn 0.3143857203196281 -0.6374769376535919 -0.703409392046273
vn 0.3144094820751445 -0.6374646771406915 -0.703409882628296
vn 0.31441885867924285 -0.6374600062365394 -0.7034099244080606
vn 0.4825369016083553 -0.5218869931748767 -0.7034146038724919
vn 0.4824849250802776 -0.5219317548786295 -0.7034170457982895
vn 0.48250593572472433 -0.5219079130295906 -0.7034203240648548
vn 0.6108156644483447 -0.3634373963766112 -0.7034326428162948
vn 0.6108159609696957 -0.3634345940645962 -0.7034338331796169
vn 0.6108082913569467 -0.3634460738306921 -0.7034345617231659
vn -0.12037519521956233 0.7004937620581185 -0.703433224758055
vn -0.12045289159187154 0.7004797812271285 -0.7034338469246066
vn -0.12038380152795099 0.7004920982933395 -0.7034334087589766
vn -0.3143857203196281 0.6374769376535919 -0.703409392046273
vn -0.3144094820751445 0.6374646771406915 -0.703409882628296
vn -0.31441885867924285 0.6374600062365394 -0.7034099244080606
vn -0.4825369016083553 0.5218869931748767 -0.7034146038724919
vn -0.4824849250802776 0.5219317548786295 -0.7034170457982895
vn -0.48250593572472433 0.5219079130295906 -0.7034203240648548
vn -0.6108156644483447 0.3634373963766112 -0.7034326428162948
vn -0.6108159609696957 0.3634345940645962 -0.7034338331796169
vn -0.6108082913569467 0.3634460738306921 -0.7034345617231659
f 1/1/1 2/2/2 3/3/3
f 4/4/4 5/5/5 6/6/6
f 7/7/7 8/8/8 9/9/9
f 10/10/10 11/11/11 12/12/12
f 13/13/13 14/14/14 15/15/15
f 16/16/16 17/17/17 18/18/18
f 19/19/19 20/20/20 21/21/21
f 22/22/22 23/23/23 24/24/24
f 25/25/25 26/26/26 27/27/27
f 28/28/28 29/29/29 30/30/30
f 31/31/31 32/32/32 33/33/33
f 34/34/34 35/35/35 36/36/36
f 37/37/37 38/38/38 39/39/39
f 40/40/40 41/41/41 42/42/42
f 43/43/43 44/44/44 45/45/45
f 46/46/46 47/47/47 48/48/48
f 49/49/49 50/50/50 51/51/51
f 52/52/52 53/53/53 54/54/54
f 55/55/55 56/56/56 57/57/57
f 58/58/58 59/59/59 60/60/60
f 61/61/61 62/62/62 63/63/63
f 64/64/64 65/65/65 66/66/66
f 67/67/67 68/68/68 69/69/69
f 70/70/70 71/71/71 72/72/72
f 73/73/73 74/74/74 75/75/75
f 76/76/76 77/77/77 78/78/78
f 79/79/79 80/80/80 81/81/81
f 82/82/82 83/83/83 84/84/84
f 85/85/85 86/86/86 87/87/87
f 88/88/88 89/89/89 90/90/90
f 91/91/91 92/92/92 93/93/93
f 94/94/94 95/95/95 96/96/96
f 97/97/97 98/98/98 99/99/99
f 100/100/100 101/101/101 102/102/102
f 103/103/103 104/104/104 105/105/105
f 106/106/106 107/107/107 108/108/108
f 109/109/109 110/110/110 111/111/111
f 112/112/112 113/113/113 114/114/114
f 115/115/115 116/116/116 117/117/117
f 118/118/118 119/119/119 120/120/120
f 121/121/121 122/122/122 123/123/123
f 124/124/124 125/125/125 126/126/126
f 127/127/127 128/128/128 129/129/129
f 130/130/130 131/131/131 132/132/132
f 133/133/133 134/134/134 135/135/135
f 136/136/136 137/137/137 138/138/138
f 139/139/139 140/140/140 141/141/141
f 142/142/142 143/143/143 144/144/144
f 145/145/145 146/146/146 147/147/147
f 148/148/148 149/149/149 150/150/150
f 151/151/151 152/152/152 153/153/153
f 154/154/154 155/155/155 156/156/156
f 157/157/157 158/158/158 159/159/159
f 160/160/160 161/161/161 162/162/162
f 163/163/163 164/164/164 165/165/165
f 166/166/166 167/167/167 168/168/168
f 169/169/169 170/170/170 171/171/171
f 172/172/172 173/173/173 174/174/174
f 175/175/175 176/176/176 177/177/177
f 178/178/178 179/179/179 180/180/180
f 181/181/181 182/182/182 183/183/183
f 184/184/184 185/185/185 186/186/186
f 187/187/187 188/188/188 189/189/189
f 190/190/190 191/191/191 192/192/192
f 193/193/193 194/194/194 195/195/195
f 196/196/196 197/197/197 198/198/198
f 199/199/199 200/200/200 201/201/201
f 202/202/202 203/203/203 204/204/204
f 205/205/205 206/206/206 207/207/207
f 208/208/208 209/209/209 210/210/210
f 211/211/211 212/212/212 213/213/213
f 214/214/214 215/215/215 216/216/216
