o shoulderRollRight
usemtl shoulderRollRight:set2
v -0.005299984943121672 0.011836940422654152 0.022488949820399284
v -0.005299984943121672 0.010342950001358986 0.020878970623016357
v -0.005399941932410002 0.011399979703128338 0.021045979112386703
v -0.005299984943121672 0.010342950001358986 0.020878970623016357
v -0.005399941932410002 0.009105980396270752 0.0203859806060791
v -0.005399941932410002 0.011399979703128338 0.021045979112386703
v -0.0030999770388007164 0.007216989062726498 -0.023096969351172447
v -0.0029999609105288982 0.008404970169067383 -0.02108496055006981
v -0.005399941932410002 0.006820975802838802 -0.022942960262298584
v -0.0029999609105288982 0.008404970169067383 -0.02108496055006981
v -0.005399941932410002 0.007975994609296322 -0.02085399068892002
v -0.005399941932410002 0.006820975802838802 -0.022942960262298584
v -0.0029999609105288982 0.008404970169067383 -0.02108496055006981
v -0.0029999609105288982 0.010728949680924416 -0.02108496055006981
v -0.005399941932410002 0.007975994609296322 -0.02085399068892002
v -0.0029999609105288982 0.010728949680924416 -0.02108496055006981
v -0.005399941932410002 0.011399979703128338 -0.021045979112386703
v -0.005399941932410002 0.007975994609296322 -0.02085399068892002
v -0.0029999609105288982 0.010728949680924416 -0.02108496055006981
v -0.0030999770388007164 0.011916990391910076 -0.023096969351172447
v -0.005399941932410002 0.011399979703128338 -0.021045979112386703
v -0.0030999770388007164 0.011916990391910076 -0.023096969351172447
v -0.005299984943121672 0.011916990391910076 -0.023096969351172447
v -0.005399941932410002 0.011399979703128338 -0.021045979112386703
v -0.0030999770388007164 0.011916990391910076 -0.023096969351172447
v -0.005299984943121672 0.011031979694962502 -0.024933990091085434
v -0.005299984943121672 0.011916990391910076 -0.023096969351172447
v -0.0030999770388007164 0.011916990391910076 -0.023096969351172447
v -0.0030229680705815554 0.010086949914693832 -0.025372980162501335
v -0.005299984943121672 0.011031979694962502 -0.024933990091085434
v -0.0030229680705815554 0.010086949914693832 -0.025372980162501335
v -0.005299984943121672 0.008101998828351498 -0.024933990091085434
v -0.005299984943121672 0.011031979694962502 -0.024933990091085434
v -0.0030229680705815554 0.010086949914693832 -0.025372980162501335
v -0.0030229680705815554 0.008111000061035156 -0.024921949952840805
v -0.005299984943121672 0.008101998828351498 -0.024933990091085434
v -0.0030229680705815554 0.008111000061035156 -0.024921949952840805
v -0.0030999770388007164 0.007216989062726498 -0.023096969351172447
v -0.005299984943121672 0.008101998828351498 -0.024933990091085434
v -0.0030999770388007164 0.007216989062726498 -0.023096969351172447
v -0.005399941932410002 0.006820975802838802 -0.022942960262298584
v -0.005299984943121672 0.008101998828351498 -0.024933990091085434
v -0.0030229680705815554 0.010086949914693832 -0.025372980162501335
v -0.002899944083765149 0.010666959919035435 -0.023616960272192955
v -0.0030229680705815554 0.008111000061035156 -0.024921949952840805
v -0.0029999609105288982 0.008404970169067383 -0.02108496055006981
v -0.0030999770388007164 0.007216989062726498 -0.023096969351172447
v -0.002899944083765149 0.008466958068311214 -0.023616960272192955
v -0.0030999770388007164 0.007216989062726498 -0.023096969351172447
v -0.0030229680705815554 0.008111000061035156 -0.024921949952840805
v -0.002899944083765149 0.008466958068311214 -0.023616960272192955
v -0.0030229680705815554 0.008111000061035156 -0.024921949952840805
v -0.002899944083765149 0.010666959919035435 -0.023616960272192955
v -0.002899944083765149 0.008466958068311214 -0.023616960272192955
v -0.002899944083765149 0.008466958068311214 -0.023616960272192955
v -0.002899944083765149 0.009666979312896729 -0.021884970366954803
v -0.0029999609105288982 0.008404970169067383 -0.02108496055006981
v -0.002899944083765149 0.009666979312896729 -0.021884970366954803
v -0.0029999609105288982 0.010728949680924416 -0.02108496055006981
v -0.0029999609105288982 0.008404970169067383 -0.02108496055006981
v -0.002899944083765149 0.010666959919035435 -0.023616960272192955
v -0.0030229680705815554 0.010086949914693832 -0.025372980162501335
v -0.0030999770388007164 0.011916990391910076 -0.023096969351172447
v -0.0030999770388007164 0.011916990391910076 -0.023096969351172447
v -0.0029999609105288982 0.010728949680924416 -0.02108496055006981
v -0.002899944083765149 0.009666979312896729 -0.021884970366954803
v -0.0030999770388007164 0.011916990391910076 -0.023096969351172447
v -0.002899944083765149 0.009666979312896729 -0.021884970366954803
v -0.002899944083765149 0.010666959919035435 -0.023616960272192955
v -0.0030999770388007164 -0.007231949828565121 -0.02283399924635887
v -0.0030999770388007164 -0.007904945872724056 -0.024758990854024887
v -0.005399941932410002 -0.006820975802838802 -0.022942960262298584
v -0.0030999770388007164 -0.007904945872724056 -0.024758990854024887
v -0.005299984943121672 -0.008958995342254639 -0.02536696009337902
v -0.005399941932410002 -0.006820975802838802 -0.022942960262298584
v -0.0030999770388007164 -0.007904945872724056 -0.024758990854024887
v -0.0029999609105288982 -0.00896596908569336 -0.0253409706056118
v -0.005299984943121672 -0.008958995342254639 -0.02536696009337902
v -0.0029999609105288982 -0.00896596908569336 -0.0253409706056118
v -0.0029999609105288982 -0.011209960095584393 -0.024739980697631836
v -0.005299984943121672 -0.008958995342254639 -0.02536696009337902
v -0.0029999609105288982 -0.011209960095584393 -0.024739980697631836
v -0.005399941932410002 -0.010523970238864422 -0.02540694922208786
v -0.005299984943121672 -0.008958995342254639 -0.02536696009337902
v -0.0029999609105288982 -0.00896596908569336 -0.0253409706056118
v -0.0030999770388007164 -0.007904945872724056 -0.024758990854024887
v -0.0030999770388007164 -0.007231949828565121 -0.02283399924635887
v -0.0030999770388007164 -0.0093039870262146 -0.02076195925474167
v -0.0030999770388007164 -0.011228970251977444 -0.021434960886836052
v -0.0030999770388007164 -0.011836940422654152 -0.023705000057816505
v -0.002899944083765149 -0.009349942207336426 -0.024293949827551842
v -0.0030999770388007164 -0.007231949828565121 -0.02283399924635887
v -0.0029999609105288982 -0.008466958068311214 -0.023339979350566864
v -0.0030999770388007164 -0.011836940422654152 -0.023705000057816505
v -0.002899944083765149 -0.009349942207336426 -0.024293949827551842
v -0.002899944083765149 -0.00978398323059082 -0.021899990737438202
v -0.0030999770388007164 -0.011836940422654152 -0.023705000057816505
v -0.0029999609105288982 -0.011209960095584393 -0.024739980697631836
v -0.002899944083765149 -0.009349942207336426 -0.024293949827551842
v -0.0030999770388007164 -0.011836940422654152 -0.023705000057816505
v -0.002899944083765149 -0.00978398323059082 -0.021899990737438202
v -0.0030999770388007164 -0.0093039870262146 -0.02076195925474167
v -0.002899944083765149 -0.009349942207336426 -0.024293949827551842
v -0.0029999609105288982 -0.011209960095584393 -0.024739980697631836
v -0.0029999609105288982 -0.00896596908569336 -0.0253409706056118
v -0.0029999609105288982 -0.00896596908569336 -0.0253409706056118
v -0.0030999770388007164 -0.007231949828565121 -0.02283399924635887
v -0.002899944083765149 -0.009349942207336426 -0.024293949827551842
v -0.0029999609105288982 -0.008466958068311214 -0.023339979350566864
v -0.0030999770388007164 -0.007231949828565121 -0.02283399924635887
v -0.002899944083765149 -0.00978398323059082 -0.021899990737438202
v -0.0030999770388007164 -0.007231949828565121 -0.02283399924635887
v -0.0030999770388007164 -0.0093039870262146 -0.02076195925474167
v -0.002899944083765149 -0.00978398323059082 -0.021899990737438202
v -0.0029999609105288982 -0.008466958068311214 -0.023339979350566864
v -0.002899944083765149 -0.00978398323059082 -0.021899990737438202
v -0.003999948035925627 -0.009835957549512386 -0.022092990577220917
v -0.002899944083765149 -0.009349942207336426 -0.024293949827551842
v -0.0029999609105288982 -0.008466958068311214 -0.023339979350566864
v -0.003999948035925627 -0.010301940143108368 -0.023831959813833237
v -0.0029999609105288982 -0.008466958068311214 -0.023339979350566864
v -0.003999948035925627 -0.009835957549512386 -0.022092990577220917
v -0.003999948035925627 -0.010301940143108368 -0.023831959813833237
v -0.0030999770388007164 -0.022076960653066635 -0.007449984084814787
v -0.005399941932410002 -0.0203859806060791 -0.009105980396270752
v -0.005299984943121672 -0.023096969351172447 -0.007216989062726498
v -0.0030999770388007164 -0.022076960653066635 -0.007449984084814787
v -0.0030229680705815554 -0.020820969715714455 -0.009047985076904297
v -0.005399941932410002 -0.0203859806060791 -0.009105980396270752
v -0.0030229680705815554 -0.020820969715714455 -0.009047985076904297
v -0.0030229680705815554 -0.021271999925374985 -0.011022980324923992
v -0.005399941932410002 -0.0203859806060791 -0.009105980396270752
v -0.0030229680705815554 -0.021271999925374985 -0.011022980324923992
v -0.005399941932410002 -0.020453980192542076 -0.010327990166842937
v -0.005399941932410002 -0.0203859806060791 -0.009105980396270752
v -0.0030229680705815554 -0.021271999925374985 -0.011022980324923992
v -0.005299984943121672 -0.023096969351172447 -0.011916990391910076
v -0.005399941932410002 -0.020453980192542076 -0.010327990166842937
v -0.0030229680705815554 -0.021271999925374985 -0.011022980324923992
v -0.0030999770388007164 -0.024116989225149155 -0.011683999560773373
v -0.005299984943121672 -0.023096969351172447 -0.011916990391910076
v -0.0030999770388007164 -0.024116989225149155 -0.011683999560773373
v -0.005299984943121672 -0.02427195943892002 -0.011601979844272137
v -0.005299984943121672 -0.023096969351172447 -0.011916990391910076
v -0.0030999770388007164 -0.024116989225149155 -0.011683999560773373
v -0.005299984943121672 -0.025446949526667595 -0.009566961787641048
v -0.005299984943121672 -0.02427195943892002 -0.011601979844272137
v -0.0030999770388007164 -0.024116989225149155 -0.011683999560773373
v -0.0030999770388007164 -0.025388000532984734 -0.009043990634381771
v -0.005299984943121672 -0.025446949526667595 -0.009566961787641048
v -0.0030999770388007164 -0.025388000532984734 -0.009043990634381771
v -0.0030229680705815554 -0.02410995028913021 -0.007463991176337004
v -0.005299984943121672 -0.025446949526667595 -0.009566961787641048
v -0.0030229680705815554 -0.02410995028913021 -0.007463991176337004
v -0.005299984943121672 -0.023096969351172447 -0.007216989062726498
v -0.005299984943121672 -0.025446949526667595 -0.009566961787641048
v -0.0030229680705815554 -0.02410995028913021 -0.007463991176337004
v -0.0030999770388007164 -0.022076960653066635 -0.007449984084814787
v -0.005299984943121672 -0.023096969351172447 -0.007216989062726498
v -0.002899944083765149 -0.02240394987165928 -0.00856697466224432
v -0.0030229680705815554 -0.020820969715714455 -0.009047985076904297
v -0.0030999770388007164 -0.022076960653066635 -0.007449984084814787
v -0.002899944083765149 -0.02240394987165928 -0.00856697466224432
v -0.002899944083765149 -0.021884970366954803 -0.009666979312896729
v -0.0030229680705815554 -0.020820969715714455 -0.009047985076904297
v -0.0030229680705815554 -0.02410995028913021 -0.007463991176337004
v -0.0030999770388007164 -0.025388000532984734 -0.009043990634381771
v -0.002899944083765149 -0.023616960272192955 -0.008466958068311214
v -0.002899944083765149 -0.023616960272192955 -0.010666959919035435
v -0.002899944083765149 -0.023616960272192955 -0.008466958068311214
v -0.0030999770388007164 -0.024116989225149155 -0.011683999560773373
v -0.002899944083765149 -0.023616960272192955 -0.008466958068311214
v -0.0030999770388007164 -0.025388000532984734 -0.009043990634381771
v -0.0030999770388007164 -0.024116989225149155 -0.011683999560773373
v -0.002899944083765149 -0.021884970366954803 -0.009666979312896729
v -0.0030229680705815554 -0.021271999925374985 -0.011022980324923992
v -0.0030229680705815554 -0.020820969715714455 -0.009047985076904297
v -0.002899944083765149 -0.021884970366954803 -0.009666979312896729
v -0.0030999770388007164 -0.024116989225149155 -0.011683999560773373
v -0.0030229680705815554 -0.021271999925374985 -0.011022980324923992
v -0.0030229680705815554 -0.02410995028913021 -0.007463991176337004
v -0.002899944083765149 -0.023616960272192955 -0.008466958068311214
v -0.002899944083765149 -0.02240394987165928 -0.00856697466224432
v -0.0030999770388007164 -0.022076960653066635 -0.007449984084814787
v -0.0030229680705815554 -0.02410995028913021 -0.007463991176337004
v -0.002899944083765149 -0.02240394987165928 -0.00856697466224432
v -0.0030999770388007164 -0.024116989225149155 -0.011683999560773373
v -0.002899944083765149 -0.021884970366954803 -0.009666979312896729
v -0.002899944083765149 -0.023616960272192955 -0.010666959919035435
v -0.0030999770388007164 -0.021434960886836052 0.011228970251977444
v -0.0030999770388007164 -0.02076195925474167 0.0093039870262146
v -0.005399941932410002 -0.020453980192542076 0.010327990166842937
v -0.0030999770388007164 -0.02076195925474167 0.0093039870262146
v -0.005399941932410002 -0.02085399068892002 0.007975994609296322
v -0.005399941932410002 -0.020453980192542076 0.010327990166842937
v -0.0030999770388007164 -0.02076195925474167 0.0093039870262146
v -0.005299984943121672 -0.0218469500541687 0.007576941978186369
v -0.005399941932410002 -0.02085399068892002 0.007975994609296322
v -0.0030999770388007164 -0.02076195925474167 0.0093039870262146
v -0.0030999770388007164 -0.022488949820399284 0.007296978961676359
v -0.005299984943121672 -0.0218469500541687 0.007576941978186369
v -0.0030999770388007164 -0.022488949820399284 0.007296978961676359
v -0.005299984943121672 -0.024758990854024887 0.007904945872724056
v -0.005299984943121672 -0.0218469500541687 0.007576941978186369
v -0.0030999770388007164 -0.022488949820399284 0.007296978961676359
v -0.0030999770388007164 -0.024728000164031982 0.007874964736402035
v -0.005299984943121672 -0.024758990854024887 0.007904945872724056
v -0.0030999770388007164 -0.024728000164031982 0.007874964736402035
v -0.005399941932410002 -0.02540694922208786 0.010523970238864422
v -0.005299984943121672 -0.024758990854024887 0.007904945872724056
v -0.0030999770388007164 -0.024728000164031982 0.007874964736402035
v -0.0030999770388007164 -0.025086989626288414 0.01081699039787054
v -0.005399941932410002 -0.02540694922208786 0.010523970238864422
v -0.0030999770388007164 -0.025086989626288414 0.01081699039787054
v -0.005299984943121672 -0.024346940219402313 0.011556980200111866
v -0.005399941932410002 -0.02540694922208786 0.010523970238864422
v -0.0030999770388007164 -0.025086989626288414 0.01081699039787054
v -0.0030999770388007164 -0.023705000057816505 0.011836940422654152
v -0.005299984943121672 -0.024346940219402313 0.011556980200111866
v -0.0030999770388007164 -0.023705000057816505 0.011836940422654152
v -0.005299984943121672 -0.022320980206131935 0.011784969829022884
v -0.005299984943121672 -0.024346940219402313 0.011556980200111866
v -0.0030999770388007164 -0.023705000057816505 0.011836940422654152
v -0.0030999770388007164 -0.021434960886836052 0.011228970251977444
v -0.005299984943121672 -0.022320980206131935 0.011784969829022884
v -0.0030999770388007164 -0.021434960886836052 0.011228970251977444
v -0.005399941932410002 -0.020453980192542076 0.010327990166842937
v -0.005299984943121672 -0.022320980206131935 0.011784969829022884
v -0.0030999770388007164 -0.021434960886836052 0.011228970251977444
v -0.0030999770388007164 -0.023705000057816505 0.011836940422654152
v -0.002899944083765149 -0.021899990737438202 0.00978398323059082
v -0.0030999770388007164 -0.023705000057816505 0.011836940422654152
v -0.002899944083765149 -0.024293949827551842 0.009349942207336426
v -0.002899944083765149 -0.021899990737438202 0.00978398323059082
v -0.002899944083765149 -0.024293949827551842 0.009349942207336426
v -0.0030999770388007164 -0.025086989626288414 0.01081699039787054
v -0.0030999770388007164 -0.024728000164031982 0.007874964736402035
v -0.002899944083765149 -0.024293949827551842 0.009349942207336426
v -0.0030999770388007164 -0.023705000057816505 0.011836940422654152
v -0.0030999770388007164 -0.025086989626288414 0.01081699039787054
v -0.002899944083765149 -0.021899990737438202 0.00978398323059082
v -0.0030999770388007164 -0.022488949820399284 0.007296978961676359
v -0.0030999770388007164 -0.02076195925474167 0.0093039870262146
v -0.0030999770388007164 -0.02076195925474167 0.0093039870262146
v -0.0030999770388007164 -0.021434960886836052 0.011228970251977444
v -0.002899944083765149 -0.021899990737438202 0.00978398323059082
v -0.0030999770388007164 -0.024728000164031982 0.007874964736402035
v -0.002899944083765149 -0.023313989862799644 0.008369982242584229
v -0.002899944083765149 -0.024293949827551842 0.009349942207336426
v -0.0030999770388007164 -0.024728000164031982 0.007874964736402035
v -0.0030999770388007164 -0.022488949820399284 0.007296978961676359
v -0.002899944083765149 -0.023313989862799644 0.008369982242584229
v -0.0030999770388007164 -0.022488949820399284 0.007296978961676359
v -0.002899944083765149 -0.021899990737438202 0.00978398323059082
v -0.002899944083765149 -0.023313989862799644 0.008369982242584229
v -0.0030999770388007164 -0.007449984084814787 0.022076960653066635
v -0.005399941932410002 -0.009105980396270752 0.0203859806060791
v -0.005399941932410002 -0.006820975802838802 0.022942960262298584
v -0.0030999770388007164 -0.007449984084814787 0.022076960653066635
v -0.0030999770388007164 -0.009043990634381771 0.020805949345231056
v -0.005399941932410002 -0.009105980396270752 0.0203859806060791
v -0.0030999770388007164 -0.009043990634381771 0.020805949345231056
v -0.0030999770388007164 -0.010741939768195152 0.02106194943189621
v -0.005399941932410002 -0.009105980396270752 0.0203859806060791
v -0.0030999770388007164 -0.010741939768195152 0.02106194943189621
v -0.005399941932410002 -0.011399979703128338 0.021045979112386703
v -0.005399941932410002 -0.009105980396270752 0.0203859806060791
v -0.0030999770388007164 -0.010741939768195152 0.02106194943189621
v -0.0030999770388007164 -0.011916990391910076 0.023096969351172447
v -0.005399941932410002 -0.011399979703128338 0.021045979112386703
v -0.0030999770388007164 -0.011916990391910076 0.023096969351172447
v -0.005299984943121672 -0.011031979694962502 0.024933990091085434
v -0.005399941932410002 -0.011399979703128338 0.021045979112386703
v -0.0030999770388007164 -0.011916990391910076 0.023096969351172447
v -0.0030229680705815554 -0.011022980324923992 0.024921949952840805
v -0.005299984943121672 -0.011031979694962502 0.024933990091085434
v -0.0030229680705815554 -0.011022980324923992 0.024921949952840805
v -0.0030229680705815554 -0.009047985076904297 0.025372980162501335
v -0.005299984943121672 -0.011031979694962502 0.024933990091085434
v -0.0030229680705815554 -0.009047985076904297 0.025372980162501335
v -0.005299984943121672 -0.009043990634381771 0.025388000532984734
v -0.005299984943121672 -0.011031979694962502 0.024933990091085434
v -0.0030229680705815554 -0.009047985076904297 0.025372980162501335
v -0.0030229680705815554 -0.007463991176337004 0.02410995028913021
v -0.005299984943121672 -0.009043990634381771 0.025388000532984734
v -0.0030229680705815554 -0.007463991176337004 0.02410995028913021
v -0.005399941932410002 -0.006820975802838802 0.022942960262298584
v -0.005299984943121672 -0.009043990634381771 0.025388000532984734
v -0.0030229680705815554 -0.007463991176337004 0.02410995028913021
v -0.0030999770388007164 -0.007449984084814787 0.022076960653066635
v -0.005399941932410002 -0.006820975802838802 0.022942960262298584
v -0.0030229680705815554 -0.007463991176337004 0.02410995028913021
v -0.0030229680705815554 -0.009047985076904297 0.025372980162501335
v -0.002899944083765149 -0.009466946125030518 0.02430897019803524
v -0.002899944083765149 -0.01056693959981203 0.02240394987165928
v -0.002899944083765149 -0.009466946125030518 0.02430897019803524
v -0.0030229680705815554 -0.011022980324923992 0.024921949952840805
v -0.002899944083765149 -0.009466946125030518 0.02430897019803524
v -0.0030229680705815554 -0.009047985076904297 0.025372980162501335
v -0.0030229680705815554 -0.011022980324923992 0.024921949952840805
v -0.0030999770388007164 -0.007449984084814787 0.022076960653066635
v -0.002899944083765149 -0.01056693959981203 0.02240394987165928
v -0.0030999770388007164 -0.009043990634381771 0.020805949345231056
v -0.002899944083765149 -0.01056693959981203 0.02240394987165928
v -0.0030999770388007164 -0.011916990391910076 0.023096969351172447
v -0.0030999770388007164 -0.009043990634381771 0.020805949345231056
v -0.0030229680705815554 -0.007463991176337004 0.02410995028913021
v -0.002899944083765149 -0.009466946125030518 0.02430897019803524
v -0.0030999770388007164 -0.007449984084814787 0.022076960653066635
v -0.0030229680705815554 -0.011022980324923992 0.024921949952840805
v -0.0030999770388007164 -0.011916990391910076 0.023096969351172447
v -0.002899944083765149 -0.01056693959981203 0.02240394987165928
v -0.0030999770388007164 -0.009043990634381771 0.020805949345231056
v -0.0030999770388007164 -0.011916990391910076 0.023096969351172447
v -0.0030999770388007164 -0.010741939768195152 0.02106194943189621
v -0.0030999770388007164 -0.007449984084814787 0.022076960653066635
v -0.002899944083765149 -0.009466946125030518 0.02430897019803524
v -0.003999948035925627 -0.009566961787641048 0.022057950496673584
v -0.003999948035925627 -0.009566961787641048 0.022057950496673584
v -0.002899944083765149 -0.009466946125030518 0.02430897019803524
v -0.003999948035925627 -0.009566961787641048 0.02413593977689743
v -0.0030999770388007164 0.01125895045697689 0.021465949714183807
v -0.005299984943121672 0.010342950001358986 0.020878970623016357
v -0.005299984943121672 0.011836940422654152 0.022488949820399284
v -0.0030999770388007164 0.01125895045697689 0.021465949714183807
v -0.0029999609105288982 0.008330999873578548 0.02112996019423008
v -0.005299984943121672 0.010342950001358986 0.020878970623016357
v -0.0029999609105288982 0.008330999873578548 0.02112996019423008
v -0.005399941932410002 0.009105980396270752 0.0203859806060791
v -0.005299984943121672 0.010342950001358986 0.020878970623016357
v -0.0029999609105288982 0.008330999873578548 0.02112996019423008
v -0.0029999609105288982 0.007257997058331966 0.02283697947859764
v -0.005399941932410002 0.009105980396270752 0.0203859806060791
v -0.0029999609105288982 0.007257997058331966 0.02283697947859764
v -0.005399941932410002 0.007159947883337736 0.021766960620880127
v -0.005399941932410002 0.009105980396270752 0.0203859806060791
v -0.0029999609105288982 0.007257997058331966 0.02283697947859764
v -0.005399941932410002 0.006820975802838802 0.022942960262298584
v -0.005399941932410002 0.007159947883337736 0.021766960620880127
v -0.0029999609105288982 0.007257997058331966 0.02283697947859764
v -0.0030999770388007164 0.007904945872724056 0.024758990854024887
v -0.005399941932410002 0.006820975802838802 0.022942960262298584
v -0.0030999770388007164 0.007904945872724056 0.024758990854024887
v -0.005299984943121672 0.008958995342254639 0.02536696009337902
v -0.005399941932410002 0.006820975802838802 0.022942960262298584
v -0.0030999770388007164 0.007904945872724056 0.024758990854024887
v -0.0030229680705815554 0.01017098966985941 0.025351999327540398
v -0.005299984943121672 0.008958995342254639 0.02536696009337902
v -0.0030229680705815554 0.01017098966985941 0.025351999327540398
v -0.005399941932410002 0.010523970238864422 0.02540694922208786
v -0.005299984943121672 0.008958995342254639 0.02536696009337902
v -0.0030229680705815554 0.01017098966985941 0.025351999327540398
v -0.002914964919909835 0.011717969551682472 0.02367299050092697
v -0.005399941932410002 0.010523970238864422 0.02540694922208786
v -0.002914964919909835 0.011717969551682472 0.02367299050092697
v -0.005299984943121672 0.011836940422654152 0.023705000057816505
v -0.005399941932410002 0.010523970238864422 0.02540694922208786
v -0.002914964919909835 0.011717969551682472 0.02367299050092697
v -0.005299984943121672 0.011836940422654152 0.022488949820399284
v -0.005299984943121672 0.011836940422654152 0.023705000057816505
v -0.002914964919909835 0.011717969551682472 0.02367299050092697
v -0.0030999770388007164 0.01125895045697689 0.021465949714183807
v -0.005299984943121672 0.011836940422654152 0.022488949820399284
v -0.002899944083765149 0.010353979654610157 0.02402495965361595
v -0.0030229680705815554 0.01017098966985941 0.025351999327540398
v -0.002899944083765149 0.009156942367553711 0.02424198016524315
v -0.0029999609105288982 0.007257997058331966 0.02283697947859764
v -0.0029999609105288982 0.008330999873578548 0.02112996019423008
v -0.002899944083765149 0.00978398323059082 0.021899990737438202
v -0.002899944083765149 0.00978398323059082 0.021899990737438202
v -0.002899944083765149 0.009156942367553711 0.02424198016524315
v -0.0029999609105288982 0.007257997058331966 0.02283697947859764
v -0.002914964919909835 0.011717969551682472 0.02367299050092697
v -0.0030229680705815554 0.01017098966985941 0.025351999327540398
v -0.002899944083765149 0.010353979654610157 0.02402495965361595
v -0.0030999770388007164 0.007904945872724056 0.024758990854024887
v -0.0029999609105288982 0.007257997058331966 0.02283697947859764
v -0.002899944083765149 0.009156942367553711 0.02424198016524315
v -0.0030229680705815554 0.01017098966985941 0.025351999327540398
v -0.0030999770388007164 0.007904945872724056 0.024758990854024887
v -0.002899944083765149 0.009156942367553711 0.02424198016524315
v -0.002899944083765149 0.00978398323059082 0.021899990737438202
v -0.0029999609105288982 0.008330999873578548 0.02112996019423008
v -0.0030999770388007164 0.01125895045697689 0.021465949714183807
v -0.0030999770388007164 0.01125895045697689 0.021465949714183807
v -0.002899944083765149 0.010353979654610157 0.02402495965361595
v -0.002899944083765149 0.00978398323059082 0.021899990737438202
v -0.0030999770388007164 0.01125895045697689 0.021465949714183807
v -0.002914964919909835 0.011717969551682472 0.02367299050092697
v -0.002899944083765149 0.010353979654610157 0.02402495965361595
v -0.0030999770388007164 0.022076960653066635 0.007449984084814787
v -0.005399941932410002 0.0203859806060791 0.009105980396270752
v -0.005299984943121672 0.023096969351172447 0.007216989062726498
v -0.0030999770388007164 0.022076960653066635 0.007449984084814787
v -0.0030229680705815554 0.020820969715714455 0.009047985076904297
v -0.005399941932410002 0.0203859806060791 0.009105980396270752
v -0.0030229680705815554 0.020820969715714455 0.009047985076904297
v -0.0030229680705815554 0.021271999925374985 0.011022980324923992
v -0.005399941932410002 0.0203859806060791 0.009105980396270752
v -0.0030229680705815554 0.021271999925374985 0.011022980324923992
v -0.005299984943121672 0.021259959787130356 0.011031979694962502
v -0.005399941932410002 0.0203859806060791 0.009105980396270752
v -0.0030229680705815554 0.021271999925374985 0.011022980324923992
v -0.0030999770388007164 0.023096969351172447 0.011916990391910076
v -0.005299984943121672 0.021259959787130356 0.011031979694962502
v -0.0030999770388007164 0.023096969351172447 0.011916990391910076
v -0.005299984943121672 0.023096969351172447 0.011916990391910076
v -0.005299984943121672 0.021259959787130356 0.011031979694962502
v -0.0030999770388007164 0.023096969351172447 0.011916990391910076
v -0.0030999770388007164 0.02427195943892002 0.011601979844272137
v -0.005299984943121672 0.023096969351172447 0.011916990391910076
v -0.0030999770388007164 0.02427195943892002 0.011601979844272137
v -0.005299984943121672 0.02513200044631958 0.010741939768195152
v -0.005299984943121672 0.023096969351172447 0.011916990391910076
v -0.0030999770388007164 0.02427195943892002 0.011601979844272137
v -0.0030999770388007164 0.025446949526667595 0.009566961787641048
v -0.005299984943121672 0.02513200044631958 0.010741939768195152
v -0.0030999770388007164 0.025446949526667595 0.009566961787641048
v -0.005299984943121672 0.025446949526667595 0.009566961787641048
v -0.005299984943121672 0.02513200044631958 0.010741939768195152
v -0.0030999770388007164 0.025446949526667595 0.009566961787641048
v -0.0030229680705815554 0.02426397055387497 0.00754499388858676
v -0.005299984943121672 0.025446949526667595 0.009566961787641048
v -0.0030229680705815554 0.02426397055387497 0.00754499388858676
v -0.005299984943121672 0.02427195943892002 0.007532000076025724
v -0.005299984943121672 0.025446949526667595 0.009566961787641048
v -0.0030229680705815554 0.02426397055387497 0.00754499388858676
v -0.005299984943121672 0.023096969351172447 0.007216989062726498
v -0.005299984943121672 0.02427195943892002 0.007532000076025724
v -0.0030229680705815554 0.02426397055387497 0.00754499388858676
v -0.0030999770388007164 0.022076960653066635 0.007449984084814787
v -0.005299984943121672 0.023096969351172447 0.007216989062726498
v -0.0030999770388007164 0.023096969351172447 0.011916990391910076
v -0.0030999770388007164 0.025446949526667595 0.009566961787641048
v -0.0030999770388007164 0.02427195943892002 0.011601979844272137
v -0.0030229680705815554 0.020820969715714455 0.009047985076904297
v -0.002899944083765149 0.02240394987165928 0.00856697466224432
v -0.0030229680705815554 0.021271999925374985 0.011022980324923992
v -0.0030229680705815554 0.02426397055387497 0.00754499388858676
v -0.0029079909436404705 0.02429497055709362 0.009594975970685482
v -0.0030999770388007164 0.022076960653066635 0.007449984084814787
v -0.0029079909436404705 0.02429497055709362 0.009594975970685482
v -0.002899944083765149 0.02240394987165928 0.00856697466224432
v -0.0030999770388007164 0.022076960653066635 0.007449984084814787
v -0.0030999770388007164 0.023096969351172447 0.011916990391910076
v -0.0030229680705815554 0.021271999925374985 0.011022980324923992
v -0.002899944083765149 0.02257698029279709 0.010666959919035435
v -0.0030229680705815554 0.021271999925374985 0.011022980324923992
v -0.002899944083765149 0.02240394987165928 0.00856697466224432
v -0.002899944083765149 0.02257698029279709 0.010666959919035435
v -0.0030229680705815554 0.020820969715714455 0.009047985076904297
v -0.0030999770388007164 0.022076960653066635 0.007449984084814787
v -0.002899944083765149 0.02240394987165928 0.00856697466224432
v -0.0030229680705815554 0.02426397055387497 0.00754499388858676
v -0.0030999770388007164 0.025446949526667595 0.009566961787641048
v -0.0029079909436404705 0.02429497055709362 0.009594975970685482
v -0.0030999770388007164 0.025446949526667595 0.009566961787641048
v -0.002899944083765149 0.02257698029279709 0.010666959919035435
v -0.0029079909436404705 0.02429497055709362 0.009594975970685482
v -0.0030999770388007164 0.025446949526667595 0.009566961787641048
v -0.0030999770388007164 0.023096969351172447 0.011916990391910076
v -0.002899944083765149 0.02257698029279709 0.010666959919035435
v -0.002899944083765149 0.02240394987165928 0.00856697466224432
v -0.0029079909436404705 0.02429497055709362 0.009594975970685482
v -0.003999948035925627 0.022057950496673584 0.009566961787641048
v -0.003999948035925627 0.022057950496673584 0.009566961787641048
v -0.0029079909436404705 0.02429497055709362 0.009594975970685482
v -0.003999948035925627 0.02413593977689743 0.009566961787641048
v -0.005399941932410002 0.021045979112386703 -0.011399979703128338
v -0.005386948119848967 0.02432096004486084 -0.01151495985686779
v -0.005299984943121672 0.022320980206131935 -0.011784969829022884
v -0.0030999770388007164 0.022320980206131935 -0.011784969829022884
v -0.0030229680705815554 0.020841950550675392 -0.008962987922132015
v -0.005399941932410002 0.021045979112386703 -0.011399979703128338
v -0.0030229680705815554 0.020841950550675392 -0.008962987922132015
v -0.005399941932410002 0.0203859806060791 -0.009105980396270752
v -0.005399941932410002 0.021045979112386703 -0.011399979703128338
v -0.0030229680705815554 0.020841950550675392 -0.008962987922132015
v -0.0030229680705815554 0.021445980295538902 -0.007915972732007504
v -0.005399941932410002 0.0203859806060791 -0.009105980396270752
v -0.005399941932410002 0.0203859806060791 -0.009105980396270752
v -0.0030229680705815554 0.021445980295538902 -0.007915972732007504
v -0.005399941932410002 0.022942960262298584 -0.006820975802838802
v -0.0030229680705815554 0.021445980295538902 -0.007915972732007504
v -0.0030999770388007164 0.023705000057816505 -0.007296978961676359
v -0.005399941932410002 0.022942960262298584 -0.006820975802838802
v -0.0030999770388007164 0.023705000057816505 -0.007296978961676359
v -0.0030229680705815554 0.025300970301032066 -0.00879597570747137
v -0.005399941932410002 0.022942960262298584 -0.006820975802838802
v -0.0030229680705815554 0.025300970301032066 -0.00879597570747137
v -0.005299984943121672 0.025314979255199432 -0.008790968917310238
v -0.005399941932410002 0.022942960262298584 -0.006820975802838802
v -0.0030229680705815554 0.025300970301032066 -0.00879597570747137
v -0.0030229680705815554 0.025073999539017677 -0.01080899965018034
v -0.005299984943121672 0.025314979255199432 -0.008790968917310238
v -0.0030229680705815554 0.025073999539017677 -0.01080899965018034
v -0.005386948119848967 0.02432096004486084 -0.01151495985686779
v -0.005299984943121672 0.025314979255199432 -0.008790968917310238
v -0.0030229680705815554 0.025073999539017677 -0.01080899965018034
v -0.0030999770388007164 0.022320980206131935 -0.011784969829022884
v -0.005386948119848967 0.02432096004486084 -0.01151495985686779
v -0.0030999770388007164 0.022320980206131935 -0.011784969829022884
v -0.005299984943121672 0.022320980206131935 -0.011784969829022884
v -0.005386948119848967 0.02432096004486084 -0.01151495985686779
v -0.0030999770388007164 0.022320980206131935 -0.011784969829022884
v -0.005399941932410002 0.021045979112386703 -0.011399979703128338
v -0.005299984943121672 0.022320980206131935 -0.011784969829022884
v -0.0030999770388007164 0.022320980206131935 -0.011784969829022884
v -0.0030229680705815554 0.025073999539017677 -0.01080899965018034
v -0.002899944083765149 0.0228799507021904 -0.010764000006020069
v -0.0030229680705815554 0.025073999539017677 -0.01080899965018034
v -0.002899944083765149 0.02424198016524315 -0.009156942367553711
v -0.002899944083765149 0.0228799507021904 -0.010764000006020069
v -0.002899944083765149 0.02424198016524315 -0.009156942367553711
v -0.0030229680705815554 0.025073999539017677 -0.01080899965018034
v -0.0030229680705815554 0.025300970301032066 -0.00879597570747137
v -0.0030229680705815554 0.025300970301032066 -0.00879597570747137
v -0.0030999770388007164 0.023705000057816505 -0.007296978961676359
v -0.002899944083765149 0.02424198016524315 -0.009156942367553711
v -0.0030999770388007164 0.023705000057816505 -0.007296978961676359
v -0.002899944083765149 0.023313989862799644 -0.008369982242584229
v -0.002899944083765149 0.02424198016524315 -0.009156942367553711
v -0.002899944083765149 0.023313989862799644 -0.008369982242584229
v -0.0030999770388007164 0.023705000057816505 -0.007296978961676359
v -0.0030229680705815554 0.021445980295538902 -0.007915972732007504
v -0.002899944083765149 0.023313989862799644 -0.008369982242584229
v -0.0030229680705815554 0.021445980295538902 -0.007915972732007504
v -0.0030229680705815554 0.020841950550675392 -0.008962987922132015
v -0.002899944083765149 0.023313989862799644 -0.008369982242584229
v -0.0030229680705815554 0.020841950550675392 -0.008962987922132015
v -0.002899944083765149 0.0228799507021904 -0.010764000006020069
v -0.0030229680705815554 0.020841950550675392 -0.008962987922132015
v -0.0030999770388007164 0.022320980206131935 -0.011784969829022884
v -0.002899944083765149 0.0228799507021904 -0.010764000006020069
vt 0 0
vt 0 0
vt 0 0
vt 0 0
vt 0 0
vt 0 0
vt 0 0
vt 0 0
vt 0 0
vt 0 0
vt 0 0
vt 0 0
vt 0 0
vt 0 0
vt 0 0
vt 0 0
vt 0 0
vt 0 0
vt 0 0
vt 0 0
vt 0 0
vt 0 0
vt 0 0
vt 0 0
vt 0 0
vt 0 0
vt 0 0
vt 0 0
vt 0 0
vt 0 0
vt 0 0
vt 0 0
vt 0 0
vt 0 0
vt 0 0
vt 0 0
vt 0 0
vt 0 0
vt 0 0
vt 0 0
vt 0 0
vt 0 0
vt 0 0
vt 0 0
vt 0 0
vt 0 0
vt 0 0
vt 0 0
vt 0 0
vt 0 0
vt 0 0
vt 0 0
vt 0 0
vt 0 0
vt 0 0
vt 0 0
vt 0 0
vt 0 0
vt 0 0
vt 0 0
vt 0 0
vt 0 0
vt 0 0
vt 0 0
vt 0 0
vt 0 0
vt 0 0
vt 0 0
vt 0 0
vt 0 0
vt 0 0
vt 0 0
vt 0 0
vt 0 0
vt 0 0
vt 0 0
vt 0 0
vt 0 0
vt 0 0
vt 0 0
vt 0 0
vt 0 0
vt 0 0
vt 0 0
vt 0 0
vt 0 0
vt 0 0
vt 0 0
vt 0 0
vt 0 0
vt 0 0
vt 0 0
vt 0 0
vt 0 0
vt 0 0
vt 0 0
vt 0 0
vt 0 0
vt 0 0
vt 0 0
vt 0 0
vt 0 0
vt 0 0
vt 0 0
vt 0 0
vt 0 0
vt 0 0
vt 0 0
vt 0 0
vt 0 0
vt 0 0
vt 0 0
vt 0 0
vt 0 0
vt 0 0
vt 0 0
vt 0 0
vt 0 0
vt 0 0
vt 0 0
vt 0 0
vt 0 0
vt 0 0
vt 0 0
vt 0 0
vt 0 0
vt 0 0
vt 0 0
vt 0 0
vt 0 0
vt 0 0
vt 0 0
vt 0 0
vt 0 0
vt 0 0
vt 0 0
vt 0 0
vt 0 0
vt 0 0
vt 0 0
vt 0 0
vt 0 0
vt 0 0
vt 0 0
vt 0 0
vt 0 0
vt 0 0
vt 0 0
vt 0 0
vt 0 0
vt 0 0
vt 0 0
vt 0 0
vt 0 0
vt 0 0
vt 0 0
vt 0 0
vt 0 0
vt 0 0
vt 0 0
vt 0 0
vt 0 0
vt 0 0
vt 0 0
vt 0 0
vt 0 0
vt 0 0
vt 0 0
vt 0 0
vt 0 0
vt 0 0
vt 0 0
vt 0 0
vt 0 0
vt 0 0
vt 0 0
vt 0 0
vt 0 0
vt 0 0
vt 0 0
vt 0 0
vt 0 0
vt 0 0
vt 0 0
vt 0 0
vt 0 0
vt 0 0
vt 0 0
vt 0 0
vt 0 0
vt 0 0
vt 0 0
vt 0 0
vt 0 0
vt 0 0
vt 0 0
vt 0 0
vt 0 0
vt 0 0
vt 0 0
vt 0 0
vt 0 0
vt 0 0
vt 0 0
vt 0 0
vt 0 0
vt 0 0
vt 0 0
vt 0 0
vt 0 0
vt 0 0
vt 0 0
vt 0 0
vt 0 0
vt 0 0
vt 0 0
vt 0 0
vt 0 0
vt 0 0
vt 0 0
vt 0 0
vt 0 0
vt 0 0
vt 0 0
vt 0 0
vt 0 0
vt 0 0
vt 0 0
vt 0 0
vt 0 0
vt 0 0
vt 0 0
vt 0 0
vt 0 0
vt 0 0
vt 0 0
vt 0 0
vt 0 0
vt 0 0
vt 0 0
vt 0 0
vt 0 0
vt 0 0
vt 0 0
vt 0 0
vt 0 0
vt 0 0
vt 0 0
vt 0 0
vt 0 0
vt 0 0
vt 0 0
vt 0 0
vt 0 0
vt 0 0
vt 0 0
vt 0 0
vt 0 0
vt 0 0
vt 0 0
vt 0 0
vt 0 0
vt 0 0
vt 0 0
vt 0 0
vt 0 0
vt 0 0
vt 0 0
vt 0 0
vt 0 0
vt 0 0
vt 0 0
vt 0 0
vt 0 0
vt 0 0
vt 0 0
vt 0 0
vt 0 0
vt 0 0
vt 0 0
vt 0 0
vt 0 0
vt 0 0
vt 0 0
vt 0 0
vt 0 0
vt 0 0
vt 0 0
vt 0 0
vt 0 0
vt 0 0
vt 0 0
vt 0 0
vt 0 0
vt 0 0
vt 0 0
vt 0 0
vt 0 0
vt 0 0
vt 0 0
vt 0 0
vt 0 0
vt 0 0
vt 0 0
vt 0 0
vt 0 0
vt 0 0
vt 0 0
vt 0 0
vt 0 0
vt 0 0
vt 0 0
vt 0 0
vt 0 0
vt 0 0
vt 0 0
vt 0 0
vt 0 0
vt 0 0
vt 0 0
vt 0 0
vt 0 0
vt 0 0
vt 0 0
vt 0 0
vt 0 0
vt 0 0
vt 0 0
vt 0 0
vt 0 0
vt 0 0
vt 0 0
vt 0 0
vt 0 0
vt 0 0
vt 0 0
vt 0 0
vt 0 0
vt 0 0
vt 0 0
vt 0 0
vt 0 0
vt 0 0
vt 0 0
vt 0 0
vt 0 0
vt 0 0
vt 0 0
vt 0 0
vt 0 0
vt 0 0
vt 0 0
vt 0 0
vt 0 0
vt 0 0
vt 0 0
vt 0 0
vt 0 0
vt 0 0
vt 0 0
vt 0 0
vt 0 0
vt 0 0
vt 0 0
vt 0 0
vt 0 0
vt 0 0
vt 0 0
vt 0 0
vt 0 0
vt 0 0
vt 0 0
vt 0 0
vt 0 0
vt 0 0
vt 0 0
vt 0 0
vt 0 0
vt 0 0
vt 0 0
vt 0 0
vt 0 0
vt 0 0
vt 0 0
vt 0 0
vt 0 0
vt 0 0
vt 0 0
vt 0 0
vt 0 0
vt 0 0
vt 0 0
vt 0 0
vt 0 0
vt 0 0
vt 0 0
vt 0 0
vt 0 0
vt 0 0
vt 0 0
vt 0 0
vt 0 0
vt 0 0
vt 0 0
vt 0 0
vt 0 0
vt 0 0
vt 0 0
vt 0 0
vt 0 0
vt 0 0
vt 0 0
vt 0 0
vt 0 0
vt 0 0
vt 0 0
vt 0 0
vt 0 0
vt 0 0
vt 0 0
vt 0 0
vt 0 0
vt 0 0
vt 0 0
vt 0 0
vt 0 0
vt 0 0
vt 0 0
vt 0 0
vt 0 0
vt 0 0
vt 0 0
vt 0 0
vt 0 0
vt 0 0
vt 0 0
vt 0 0
vt 0 0
vt 0 0
vt 0 0
vt 0 0
vt 0 0
vt 0 0
vt 0 0
vt 0 0
vt 0 0
vt 0 0
vt 0 0
vt 0 0
vt 0 0
vt 0 0
vt 0 0
vt 0 0
vt 0 0
vt 0 0
vt 0 0
vt 0 0
vt 0 0
vt 0 0
vt 0 0
vt 0 0
vt 0 0
vt 0 0
vt 0 0
vt 0 0
vt 0 0
vt 0 0
vt 0 0
vt 0 0
vt 0 0
vt 0 0
vt 0 0
vt 0 0
vt 0 0
vt 0 0
vt 0 0
vt 0 0
vt 0 0
vt 0 0
vt 0 0
vt 0 0
vt 0 0
vt 0 0
vt 0 0
vt 0 0
vt 0 0
vt 0 0
vt 0 0
vt 0 0
vt 0 0
vt 0 0
vt 0 0
vt 0 0
vt 0 0
vt 0 0
vt 0 0
vt 0 0
vt 0 0
vt 0 0
vt 0 0
vt 0 0
vt 0 0
vt 0 0
vt 0 0
vt 0 0
vt 0 0
vt 0 0
vt 0 0
vt 0 0
vt 0 0
vt 0 0
vt 0 0
vt 0 0
vt 0 0
vt 0 0
vt 0 0
vt 0 0
vt 0 0
vt 0 0
vt 0 0
vt 0 0
vt 0 0
vt 0 0
vt 0 0
vt 0 0
vt 0 0
vt 0 0
vt 0 0
vt 0 0
vt 0 0
vt 0 0
vt 0 0
vt 0 0
vt 0 0
vn 0.9887560400941504 0.1096140868580334 -0.10171649394082664
vn 0.9887560400941504 0.1096140868580334 -0.10171649394082664
vn 0.9887560400941504 0.1096140868580334 -0.10171649394082664
vn 0.9999999994369237 -0.00003211199871668139 0.000009745360324783688
vn 0.9999999990754407 0.00003136690062830307 0.00002941489944541707
vn 0.999999999746918 -0.000017140100676652292 0.000014573300173601398
vn 0.000013068299130894253 -0.965917457965492 0.25885027376207576
vn 0.000011235497967701011 -0.9659170838071943 0.2588516700412988
vn 0.000018428097939485064 -0.9659184795507587 0.25884646129077343
vn 0.000023769899896640257 -0.7071272548853265 0.7070863064954195
vn -6.556509324972117e-7 -0.7071399801946756 0.7070735806193327
vn 0.000029846999636034812 -0.7071240958084469 0.707089465510725
vn 0.000023886600164283984 -0.2587527098603983 0.965943598026992
vn 0.000010304199144050056 -0.25874775131522026 0.9659449265269424
vn 0.000020332598359446055 -0.25875118744167863 0.9659440059258645
vn 0.000007770959157727491 0.258768169645365 0.9659394568594866
vn 0.000014783798186382661 0.25876948251144016 0.9659391050693624
vn 0.000014349798754464939 0.2587693563877253 0.96593913886371
vn 0.000035032599951905226 0.7071257049736214 0.7070878560251732
vn 0.000021990398972815744 0.7071347052395298 0.7070788556888304
vn 0.00004283709747052589 0.7071204000675815 0.707093160745631
vn 2.1240200150853076e-7 0.9659286210530813 0.25880861467587957
vn -5.423789882736377e-7 0.965928621052961 0.25880861467584737
vn 4.936010249224668e-7 0.9659286210529854 0.2588086146758539
vn 0.00001648809819556323 0.7818554504367021 -0.6234597455734927
vn -0.000010158199905069203 0.7818553982795831 -0.6234598111168719
vn 0 0.7818554505429788 -0.6234597456582388
vn 0.00003880259927212008 0.7818078001963894 -0.6235194961237707
vn 0.00003863500015108202 0.7818192226136287 -0.6235051737228472
vn 0.00003869829857962695 0.7818213933400465 -0.6235024518141606
vn -0.00004752730085552771 -0.000022746600702960456 -0.9999999986118739
vn -0.00004786250059205726 -0.000012812900406704229 -0.9999999987725054
vn -0.000047881199801312185 -0.00001540039918707563 -0.9999999987351094
vn 0.000019757499092604607 -0.000026568999586731818 -0.9999999994518649
vn 0.0000076038400008875535 -0.000026941299427920262 -0.9999999996081741
vn 0.000005111100106598294 -0.000026643299851657273 -0.9999999996320057
vn 0.000018749398743643836 -0.7818424676070104 -0.6234760263992843
vn 0.000012271098812365625 -0.7818425199101064 -0.6234759609720607
vn 0.000010776999423989205 -0.7818426012029783 -0.6234758590579244
vn -0.000031340900325327645 -0.974925408238319 -0.22253190195811237
vn 0.000005438920560860193 -0.9749281242096844 -0.22252000493304974
vn 0.000004738570050411107 -0.974928056608323 -0.22252030113107546
vn 0.9999999995843682 -0.000003703399896319366 -0.000028592799923838648
vn 0.999999999577357 -0.000011002600326616704 -0.000026911500742693716
vn 0.9999999995726891 -0.000011831500154986469 -0.000026732699541244156
vn 0.9999999998821982 -0.00001501289989214953 0.000003196299985198494
vn 0.9999999998623421 -0.000016433199559753783 -0.0000022947799604050217
vn 0.9999999998740428 -0.00001586970028966078 -2.593729959372277e-7
vn 0.9999999993761992 -0.00003503260084105202 0.000004507599894085019
vn 0.9999999993455577 -0.00003556910085026689 0.000006612389820695119
vn 0.9999999994386484 -0.00003346060109774743 -0.0000017583399757447571
vn 0.9999999998650846 -0.0000033639400949150417 -0.00001607840021971689
vn 0.9999999998696563 0.0000013909600509583973 -0.000016085799868683053
vn 0.9999999998469251 0.0000068899198584771274 -0.000016083500665711677
vn 0.9999999999716409 -0.000005930659881246424 0.0000046417098927625065
vn 0.9999999999660651 -0.000008096099918200634 0.0000015241099617406987
vn 0.999999999969631 -0.00000498816007151021 0.000005988049906409335
vn 0.9999999986865244 0.000007946039648708826 0.000050634098376463195
vn 0.999999998713514 -0.0000028983699811762903 0.00005064159989012036
vn 0.9999999987175663 5.438919849740021e-7 0.00005064159989032557
vn 0.9999999983254069 0.00004512070146749666 -0.00003623959849689927
vn 0.9999999982034424 0.00005741419944259876 -0.000017225700472384647
vn 0.9999999982829113 0.000042080900967041984 -0.000040784499945403274
vn 0.9999999993612954 0.000035740398720827974 1.8253899713436985e-7
vn 0.9999999993497115 0.000035399600141944845 0.000006888059938387449
vn 0.9999999993602786 0.00003574230138370653 -0.000001389529983519088
vn 0.9999999990313344 0.00004129109943826055 0.000015243899709971035
vn 0.9999999990455741 0.00003992019988628058 0.000017754700803714674
vn 0.9999999990172583 0.000033125299491263765 0.000029465199957632463
vn 0.017126558001427684 0.8704452338232833 -0.4919672508667151
vn 0.01714073839110521 0.8704385021773923 -0.491978667235263
vn 0.01713466089509561 0.870441379203061 -0.4919737886992387
vn -0.000018879798400589985 0.5000438063189011 -0.8660001105113431
vn -0.000037372101772766986 0.5000346954229129 -0.8660053706396057
vn -0.000011168398225651912 0.5000471355763375 -0.8659981882643674
vn 0.000007039869690727884 0.5000019723136769 -0.8660242650369987
vn 0.000005500379751715732 0.500001370426906 -0.8660246125491826
vn 0.0000060619798997572125 0.5000016008580995 -0.8660244795053951
vn 0.000004102480031157739 -0.00003638170162338558 -0.9999999993297708
vn 0.000014454099971836203 -0.00003594909864689751 -0.9999999992493707
vn -0.000004423669903812466 -0.0000366569001676238 -0.9999999993183515
vn -0.00003434719452204638 -0.5000037518948611 -0.8660232369349753
vn -0.000012204099319796221 -0.5000139515354578 -0.8660173486258556
vn 0.00004273649834730155 -0.5000403615312637 -0.8660020987349136
vn 0.7829905687067176 0.3110555982079115 -0.5386744695452433
vn 0.7829911213970514 0.31104696198929493 -0.5386786530489379
vn 0.7829944525604376 0.31101277606505656 -0.5386935496030072
vn 0.5954453889754523 -0.6957895094979101 0.4016487859069537
vn 0.5954453776563275 -0.6957443755564754 0.40172697956353837
vn 0.5954453997391544 -0.6957396329873905 0.4017351602984851
vn 0.9999999994455133 0.000026529400187269827 0.00002012870025985489
vn 0.9999999994367066 0.000023722599494528788 0.000023745000349020838
vn 0.9999999994417677 0.00002776459949287397 0.000018590100797691513
vn 0.9999999999922442 -0.0000016335400232365553 -0.000003583729949213593
vn 0.9999999999970655 -0.0000020489098915217155 -0.0000012926800536623242
vn 0.999999999997397 -0.0000022817400804283075 0
vn 0.9999999994587789 -0.000027144300460210615 0.000018591099423189762
vn 0.9999999994591979 -0.000023242100711449734 0.000023268199571397695
vn 0.9999999994511859 -0.00002839039915021972 0.00001707669979595762
vn 0.9999999991947175 -0.00002893810048988389 -0.000027805599507137627
vn 0.9999999998670104 -0.00001326199980945674 -0.000009492039679218614
vn 0.999999999182982 0.000023484199099497032 0.00003290180026892233
vn 0.999999999940302 0.00000559165982816282 -0.00000938772973257419
vn 0.9999999999615239 0.0000021345899766944932 -0.00000850856031287553
vn 0.9999999999493792 0.000004377220193197328 -0.000009059909643379561
vn 0.9999999989724127 0.00003922729952653686 -0.00002272429990109693
vn 0.9999999989816029 0.0000438169008256741 -0.000010810799711084402
vn 0.9999999989955561 0.000042945099223808514 -0.000012829899775015919
vn 0.9999999998116726 0.000018485799952188407 -0.000005910169874165323
vn 0.9999999998291689 0.00001806669933703826 0.000003905970060501512
vn 0.9999999998237672 0.000018373100825956357 -0.000003859399839031688
vn 0.9999999986372958 0.0000407248989531413 0.00003266330163665796
vn 0.9999999986411279 0.000040173501420192174 0.00003322400148168541
vn 0.9999999985481753 0.000026412299082801924 0.00004696850003258466
vn 0.000028312196497416333 -0.965924478357842 -0.25882407404944013
vn -0.000017352398171545576 -0.9659204856022953 -0.2588389754127461
vn -0.000006824730116758669 -0.9659214173997526 -0.25883549865093125
vn -0.000060468899574130435 -0.7071210550617238 0.7070925044376491
vn -0.00006180999313843717 -0.7071041274242099 0.7071094322374519
vn -0.00006086570112235134 -0.7071422139492145 0.7070713440285709
vn 0.000027976894814571196 -0.70715103597239 0.7070625230773223
vn 0.00004208089630435457 -0.707119029208568 0.7070945317002039
vn 0.000038966495483916665 -0.7071265393128765 0.707087021434425
vn -0.000044047796115680704 0.6234828234632571 0.7818370462609692
vn -0.000048547992677321475 0.6234917460094476 0.7818299305483148
vn -0.000054909003405615896 0.623504278091024 0.7818199359105602
vn 0.000028185497334622742 0.623536111012168 0.7817945493986249
vn 0.000012149999815889898 0.6235429083566967 0.7817891284038488
vn 0.00001981850089386599 0.6235393932702303 0.7817919318126914
vn 0.000018909600810667423 0.9999999984575927 -0.00005222300015833324
vn 0.000024031800386271614 0.9999999985277133 -0.00004865229850224008
vn 0.00003989579994437323 0.9999999985926074 -0.000034972999806888054
vn -0.000006020069476766806 0.9009867160418642 -0.4338466750821726
vn -0.000011175898871366105 0.9009887400067483 -0.4338424717062071
vn -0.0000013410997221242652 0.9009852935036574 -0.43384962935137994
vn -0.000020429498951119455 0.22255159564150528 -0.9749209131309347
vn -0.000023420898808659613 0.22255117196401245 -0.9749210097792058
vn -0.00002282859851817161 0.22255108821904668 -0.9749210289102256
vn 0.000060558301748675504 0.222518298161089 -0.9749285119003263
vn 0.00006049679458984694 0.2225156761073843 -0.9749291103596258
vn 0.000060133595546131434 0.22250428635273967 -0.9749317098846507
vn -0.01775424754007912 -0.25890007801735176 -0.9657409260753606
vn -0.01775424754007912 -0.25890007801735176 -0.9657409260753606
vn -0.01775424754007912 -0.25890007801735176 -0.9657409260753606
vn -0.029671069184257947 -0.7068365800306654 -0.706754325621015
vn -0.029682929448018834 -0.7068384468754042 -0.7067519605336448
vn -0.029690139642276816 -0.7068398748800784 -0.7067502294923838
vn 0.000019818500668814085 -0.9937080709211012 0.11200120264305485
vn 0.0000010877799009030071 -0.9937085116842187 0.1119972937403034
vn -0.00003401939745162618 -0.9937094798443378 0.11198869813591047
vn -0.000014617998938220012 -0.9308814294840955 0.3653214530081155
vn 0.0000021606697193981286 -0.9308787506963137 0.36532827908252885
vn -0.000017903698099869088 -0.9308819288729552 0.3653201803585783
vn -0.02974521518939736 -0.7068001542220889 0.7067876372468378
vn -0.029745276603135157 -0.7067972323220605 0.7067905566019386
vn -0.029745386402192747 -0.70679204441307 0.7067957399009825
vn 0.000029340397099608154 -0.22247738980764253 0.9749378493850361
vn 0.000028498499922101993 -0.22247709361249407 0.9749379170006536
vn 0.000026456998201270236 -0.22247617793122926 0.9749381260126918
vn 0.9999999984517711 0.00003522260152753071 0.000043079300600462645
vn 0.9999999984445036 0.00003652280059899163 0.000042155399503737673
vn 0.9999999984524626 0.00003565850050956742 0.000042702998987205626
vn 0.9999999999427815 0.000003956260115729585 0.000009939079972695898
vn 0.9999999999657434 0.000005867329946139765 0.0000058384598558223765
vn 0.9999999999625071 0.000008659440026934157 0
vn 0.9999999992853326 -0.000036470599271835404 0.000009961429888946855
vn 0.9999999992981154 -0.000034768101589332585 0.000013962399852266384
vn 0.9999999992888688 -0.000032477098988789524 0.000019170300206506726
vn 0.9999999997849089 -0.000018060200087101157 -0.000010198599736748366
vn 0.9999999998363198 -0.000018090000591423064 -3.352760131198565e-7
vn 0.9999999992231559 -0.00001823899945922783 0.00003494320114455449
vn 0.9999999999185443 -0.000011654099579533286 -0.000005205160050112516
vn 0.9999999999183478 -0.000011913500201381279 -0.000004623089807487259
vn 0.9999999998893541 -0.000014811799699780794 0.0000013792899834081257
vn 0.999999999046346 0.00004341450035506347 -0.000004742289997946004
vn 0.9999999990295974 0.000040516300902500334 -0.000017298400036036712
vn 0.9999999989712534 0.00004523989987212944 0.0000032931600310576364
vn 0.9999999988936243 -0.00001235309990531531 -0.000045388900566454715
vn 0.999999998891246 0.000007202850148331974 -0.00004653630089093727
vn 0.9999999989371002 -0.000005349520046136761 -0.00004579500086627443
vn 0.9999999994228281 0.00001173469990367546 0.00003188479966389939
vn 0.9999999994524367 -0.0000019380800029768346 0.000033035899814522654
vn 0.9999999993912589 0.000014640399958990127 0.000031672399908348865
vn 0.9999999997437283 0.000010780299814507448 0.00001990800046259251
vn 0.9999999997103399 0.00001470000006094622 0.000019058599713325864
vn 0.9999999997554274 0.0000087693297224558 0.000020303799824014364
vn 0.9999999979040817 0.00003737210128190463 -0.00005286930161506771
vn 0.9999999977734026 0.000046715100220929804 -0.000047653898839903534
vn 0.9999999978834895 0.00003917519998943526 -0.00005194540051808545
vn 0.00002296269954335354 0.8467555954123502 0.5319821060060109
vn 0.000024408098997271488 0.8467544525300282 0.5319839250624186
vn 0.000035509500267821257 0.8467472291263789 0.5319954216963478
vn 0.00002127140018659752 0.9972090654718653 0.07465975681889654
vn 0.000016227399537268486 0.9972091585335549 0.07465851507678908
vn 0.000021159699497774257 0.9972090565989247 0.07465987536387862
vn -0.000023901499541249922 0.7818195422204699 -0.6235047737033719
vn -0.000021010602390645616 0.7818211789613306 -0.6235027214744693
vn -0.000027991801018050795 0.7818167387883586 -0.6235082887715242
vn 0.000022426199790429137 0.6235427117878085 -0.7817892849568683
vn 0.00001569839839338581 0.6235465252388773 -0.7817862435577146
vn 0.000006776299375571959 0.6235516631155016 -0.7817821457285744
vn -0.000018592899892041266 -0.07470846039242193 -0.9972054179556478
vn -0.000017225700384254142 -0.074713877817088 -0.997205012103734
vn -0.000018518399461969146 -0.07470851966449388 -0.9972054135164976
vn 0.000006720419643011864 -0.5242704182169154 -0.8515518354965226
vn 0.000004340429758937934 -0.5242702353383687 -0.8515519481038208
vn 0.000014871397830006709 -0.5242700523998649 -0.851552060613727
vn -0.00003094969719031154 -0.8467585428747624 -0.5319774140983108
vn -0.00001134159920151606 -0.8467582003733389 -0.5319779600433394
vn -0.000001937619982980534 -0.8467579887258357 -0.5319782970434255
vn 0.000027194600562458245 -0.9972060166396568 -0.07470046611716785
vn 0.000021809699237912418 -0.9972047172472231 -0.07471781196088895
vn 0.000023834398592891365 -0.9972052128011313 -0.07471119724761358
vn -0.000011235499989499642 -0.916556766839688 0.39990460491739943
vn -0.000003414229924322181 -0.9165568951925634 0.3999043108836305
vn 1.7881400546212815e-7 -0.9165568951978909 0.3999043108859549
vn 0.000025965298308806598 -0.623505043001606 0.7818193273879642
vn 0.000022329899093165708 -0.6234998030771332 0.7818235063389638
vn 0.00002548470040825036 -0.6235044098049729 0.7818198323810178
vn -0.00004438310083058318 -0.3998444928536843 0.9165829910950347
vn -0.00003203009763306367 -0.399840870486771 0.9165845718003626
vn 0.0000029578800089338233 -0.3998306944659871 0.9165890113644705
vn 0.00000837444908687528 0.07472073406254032 0.997204498501197
vn 0.000012200300163675475 0.07471787124498469 0.9972047129690929
vn 0.000034496198870659865 0.07470112994183771 0.9972059666866344
vn -0.004215775442499702 0.5320365326909654 0.8467109040986738
vn -0.004215836032009444 0.5320364202388479 0.8467109744570357
vn -0.004208027383168323 0.5320392248477293 0.8467092509999935
vn 0.9999999988123316 0.000005476179915466584 0.00004842879928833918
vn 0.9999999988397517 0.000012472300099115278 0.000046528901239655874
vn 0.9999999988389303 0.00001157120003447571 0.00004677869941613777
vn 0.9999999999922804 -0.000003524120074844257 0.0000017378499705821464
vn 0.9999999999969216 -0.0000012330699519187204 0.0000021532200662411123
vn 0.9999999999971445 0 0.0000023897700884776867
vn 0.9999999998102653 -0.000018879800332853284 -0.000004798169810782408
vn 0.9999999997073563 -0.00001737479942167683 -0.000016834599586748674
vn 0.9999999998130638 -0.0000190735008764747 -0.00000317395006218033
vn 0.9999999998516258 -0.000012576600054624818 0.000011771900060993668
vn 0.999999999806533 -0.0000020340100941824195 0.000019565199177885102
vn 0.9999999998554725 -0.000011204700056823152 0.000012787099874884013
vn 0.999999998976608 0.00003783400093873569 -0.00002480670079611329
vn 0.999999998921467 0.000041872299289339326 -0.000020094199477326673
vn 0.9999999988145314 0.000021707299285213515 -0.00004358590007831349
vn 0.9999999987205257 0.000046595898251734106 0.00001969190086337903
vn 0.9999999986659527 0.00004425640139296291 0.000026635800132617618
vn 0.9999999987178685 0.00004841019829814763 0.00001485649952797441
vn 0.9999999998343188 -0.000011304399775272664 -0.000014267900039522682
vn 0.9999999998344118 -0.000011838999851392618 -0.000013820799720164087
vn 0.9999999998243616 -0.000016175199559144224 -0.000009467819834909832
vn 0.9999999988522936 -0.000025019100547458935 -0.000040858998498551366
vn 0.9999999986161501 0.000013545200071703382 -0.000050835300428526434
vn 0.9999999988607196 0.0000014081599585879899 -0.0000477134998984471
vn 0.9999999990763766 0.00002864000086530276 -0.00003204679884898302
vn 0.9999999990701536 0.00003391499918991584 -0.000026635800143383833
vn 0.9999999990682422 0.000026809999301379987 -0.000033833999591786594
vn 0.000006761399858610158 0.7579813869352419 -0.6522761815473647
vn 0.000008549539592631592 0.7579785742017255 -0.6522794500657095
vn 0.000007947909511272031 0.7579795652407377 -0.652278298438859
vn 0.000030472899001405124 0.3653376187943536 -0.9308750847267715
vn 0.00003382189576572091 0.36533617647006766 -0.9308756506743052
vn 0.0000023096797672965438 0.365349055858862 -0.9308705964728415
vn 0.00004468860087058227 -0.11200640415830967 -0.9937074838353862
vn 0.000043410796489295904 -0.11201289181392807 -0.9937067526101371
vn 0.000042473994407668356 -0.11201938681985228 -0.9937060204972415
vn 0.000036688500171522464 -0.36526701347111645 -0.9309027916618604
vn 0.00003298369462336587 -0.3652641749595741 -0.9309039055687636
vn 0.000033825600225775694 -0.3652648702864608 -0.9309036327088017
vn -0.00000225007965972057 -0.9749257561727201 -0.22253037982708565
vn -0.000005617739694796279 -0.9749251191515438 -0.22253317059663086
vn 0.000023342698018096788 -0.9749306400301481 -0.2225089809098141
vn -0.000015139600602155595 -0.9749414267336698 -0.22246171403032192
vn -0.000013321600264022566 -0.9749418161212106 -0.22246000764364499
vn -0.00004795190071748393 -0.9749342875525456 -0.2224929946201122
vn -0.0000010228299327409928 -0.9749195233546526 0.22255768461432895
vn 0.000002830869820504217 -0.9749195683350634 0.22255748756076515
vn -0.000012643599075607878 -0.9749194524278249 0.22255799495405532
vn -0.000013716499633855563 -0.4338639928510409 0.9009783768322132
vn 0.000008799130222216316 -0.4338645932207371 0.9009780877868115
vn 0.000005431239500816405 -0.43386447316201276 0.9009781456274901
vn 0.0000015934899667499688 -0.000056654200216100186 0.9999999983938812
vn 0.000018027600131440157 -0.000056255499559552426 0.9999999982551622
vn -0.0000066012098505626894 -0.00005692239928725092 0.9999999983581322
vn -0.000006843359994473648 0.4339357847361363 0.9009438021755862
vn 0.000008970498949079583 0.43393528027948075 0.9009440451261658
vn 0.00001298329867200556 0.43393528026036676 0.9009440450864808
vn -0.00001577289937208273 0.7818123220906346 0.6235138272552306
vn -0.000013917699136266486 0.7818100468880641 0.6235166801226576
vn -0.000021221097583185414 0.7818188515469937 0.6235056398424997
vn 0.000037282697433768106 0.9749349795556279 0.22248996437787522
vn 0.000019788700759423526 0.9749396704854282 0.2224694103066129
vn 0.000008404249388961946 0.9749427359594386 0.2224559766095149
vn 0.9999999998513109 0.000013202399711955514 0.000011093899955254811
vn 0.9999999998544462 0.000008514150066400736 0.000014785699929810767
vn 0.9999999998347828 0.00001580179923360399 0.000008985400198405595
vn 0.9999999998101778 -0.000018179400282138656 0.0000070109999783532864
vn 0.9999999998090976 -0.000015005900419828568 0.000012515100022367812
vn 0.9999999998093356 -0.000014968200045461436 0.000012541199791822593
vn 0.999999999403439 -5.513430206868724e-7 0.00003453719907824612
vn 0.9999999993836908 -0.000016616699202804624 0.000030927400056536845
vn 0.9999999993517528 -0.000019438599325571917 0.000030309000047415882
vn 0.9999999999889466 0.0000026961799903503855 -0.000003851950168567042
vn 0.9999999999737039 -0.0000013560099887043124 -0.000007124150215344362
vn 0.9999999999885891 0.000002272430037893618 -0.000004202130185101195
vn 0.9999999993823259 0.00003422799998293558 0.000007987019666484863
vn 0.9999999987570387 -0.000015139599763014721 0.00004750489818896077
vn 0.9999999993985651 0.0000335574004364471 0.000008761880048228616
vn 0.9999999994090771 0.000030497800235193397 -0.000015866000457837287
vn 0.999999999390415 0.00003248360006021176 -0.000012805699945071895
vn 0.9999999993975692 0.000025507100856979938 -0.000023542499533874368
vn 0.9999999998263263 -0.000016853200574388915 0.000007957220076132689
vn 0.9999999998341784 -0.00001820549914253272 4.5076001235230815e-7
vn 0.9999999997226112 -0.0000203847994214655 -0.000011799899763355936
vn 0.8248499455364015 -0.4420199597657128 -0.35247825821930245
vn 0.8248498417774154 -0.44202238203331645 -0.35247546340329233
vn 0.8248498563227359 -0.4419848687034478 -0.3525224678819185
vn 0.000011116299890833888 -0.9999999990032269 -0.0000432431988452727
vn 0.000026851899736463106 -0.9999999995974964 -0.000009164209583054173
vn -0.000015564299167191686 -0.9999999948876426 -0.00009991229984587637
vn -0.00006610159394784 -0.5000515522395595 -0.865995635516361
vn -0.000008001918861333894 -0.5000463032923425 -0.8659986688786719
vn 0.00006615369676083199 -0.5000396885050417 -0.8660024858760333
vn 0.000007279218900458367 0.5320456505824138 -0.8467156698935888
vn -0.000008426609563215459 0.5320392364417181 -0.8467197002642054
vn -0.000021502399092126075 0.5320336779735164 -0.8467231926902788
vn 0.0000666827047728386 0.11200100377383367 -0.9937080912959653
vn 0.00006727870020844991 0.11198779374313808 -0.9937095800716227
vn 0.00006734769834586256 0.11198300340259794 -0.9937101199108428
vn -0.0000627190003228003 -0.33031260075091096 -0.9438715918235363
vn 0.00003309550122135559 -0.3303710856418031 -0.9438511242121524
vn -0.000043421998199513135 -0.33032479828019795 -0.9438673242334839
vn -0.00003924219966267477 -0.7071434663482535 -0.707070093032527
vn -0.000037059194159913745 -0.7071442412268791 -0.7070693181904286
vn -0.00005178899886131859 -0.7071390554159253 -0.7070745035874032
vn -0.00002549589728772113 -0.9438860257633087 -0.3302713577025805
vn -0.00003117319950674503 -0.9438847119612632 -0.33027511192040315
vn 0.00004568700074418813 -0.943901787723251 -0.33022630580489654
vn -0.00003791599729432089 -0.9937120057070667 0.1119662818709973
vn 0.00004677480076935154 -0.9937079806357871 0.11200199566465086
vn 0.00002588329835663809 -0.9937089509943996 0.11199339285718952
vn 0.00002542139854694366 -0.9937007773226547 0.11206589357206108
vn 0.0000333786019190423 -0.9937015427328573 0.11205910429861751
vn 0.00003765619170805819 -0.9937019501932925 0.11205548966498019
vn -0.000018879798400589985 -0.5000438063189011 0.8660001105113431
vn -0.000037372101772766986 -0.5000346954229129 0.8660053706396057
vn -0.000011168398225651912 -0.5000471355763375 0.8659981882643674
vn 0.000006407499845254633 -0.49996996527917814 0.866042743620476
vn 0.000025205297858165673 -0.4999789609425256 0.8660375499824043
vn 0.00001011790053039885 -0.4999717004609179 0.8660417418553485
vn 0.000032410000474863045 0.5000062041916081 0.8660218211566564
vn -0.000018518398062310745 0.500004053049424 0.8660230635446251
vn 0.000017970798463086318 0.5000053015384666 0.8660223427316858
vn 0.00004776569443218964 0.5000493568065733 0.8659969044262056
vn 0.00001756100021571222 0.500060318153727 0.8659905761032304
vn -0.0000055599897962468525 0.5000688973487921 0.8659856222094277
vn 7.376079364098376e-7 0.8659995228388385 0.5000448244331301
vn 0.000008940700501128148 0.8660009645595286 0.500042327510412
vn 0.000016592397011728553 0.8660023546009564 0.5000399199566885
vn -0.0000021280700366279764 0.9999999999975033 -6.817280109299905e-7
vn -0.0000021196899524392605 0.9999999999943892 0.0000025939600618439704
vn -0.0000021178100268930802 0.99999999999551 -0.0000021201599338287754
vn 0.000027418098416322757 0.8705712562687825 -0.4920423630205451
vn 0.000024959397217035905 0.8705718346765478 -0.4920413397723184
vn 0.000024996698315214504 0.8705719257025466 -0.49204117871751835
vn 0.9999999999544618 -2.719459928233698e-7 0.000009539539859836037
vn 0.9999999999560598 0.0000023655600215403985 0.000009071080057366772
vn 0.9999999999338907 0.00000827200983567193 0.000007987019670890222
vn 0.9999999997828721 -0.00001735610021192451 -0.000011533499671028543
vn 0.999999999783119 -0.000017502599799469203 -0.000011288099810652242
vn 0.9999999997817108 -0.00001859109942919342 -0.000009536740433496628
vn 0.9999999997046982 -0.000023659300488650948 -0.000005553480148770953
vn 0.999999999694132 -0.000024667899189538776 -0.0000017974499536608235
vn 0.999999999703642 -0.00002391919951351697 -0.000004537399944203109
vn 0.9999999998695253 0.0000034198199041469687 0.00001578780029170512
vn 0.999999999845214 0.000012449900166649208 0.00001243269980285194
vn 0.9999999998721634 0.0000048503297869667655 0.000015236400029478687
vn 0.9999999988393482 -0.000042751398673720174 0.000022217600391420097
vn 0.9999999987984747 -0.00003023449968173506 0.000038586600520851416
vn 0.9999999988762498 -0.00003818520049464429 0.00002809609938165988
vn 0.9999999983258181 -0.00003615389863029899 0.00004518029883623321
vn 0.9999999984342451 -0.00002457200021826583 0.00005027649959942728
vn 0.9999999983002243 -0.00003771479889975484 0.00004446510130664878
vn 0.9999999985181958 0.00001878289910509716 -0.00005109609984788323
vn 0.9999999982112446 0.000037904799615217106 -0.00004626809814817705
vn 0.999999998358402 0.00003111359905582624 -0.000048115900347650414
vn 0.9999999985489463 0.00004793699911126068 -0.0000245794999143842
vn 0.99999999861154 0.000050514899997217564 -0.000015005500224189913
vn 0.9999999986098862 0.00005143519949468469 -0.000011603799959870426
vn 0.9999999990998232 -0.000003064049903484685 -0.00004231979979350742
vn 0.9999999991003274 -0.00000655279017657265 -0.000041909501268076473
vn 0.9999999991007793 -0.000006549059884059644 -0.0000418993003755295
vn -0.000044047796115680704 -0.6234828234632571 -0.7818370462609692
vn -0.000048547992677321475 -0.6234917460094476 -0.7818299305483148
vn -0.000054909003405615896 -0.623504278091024 -0.7818199359105602
vn 0.000028185497334622742 -0.623536111012168 -0.7817945493986249
vn 0.000012149999815889898 -0.6235429083566967 -0.7817891284038488
vn 0.00001981850089386599 -0.6235393932702303 -0.7817919318126914
vn 0.000018909600810667423 -0.9999999984575927 0.00005222300015833324
vn 0.000024031800386271614 -0.9999999985277133 0.00004865229850224008
vn 0.00003989579994437323 -0.9999999985926074 0.000034972999806888054
vn 0.000001392609868556815 -0.9009731373297646 0.4338748734465061
vn 0.0000026551997207817808 -0.9009729522159399 0.4338752578429008
vn 0.000004475940032265365 -0.9009727442279156 0.43387568972965623
vn 0.000018758699424668372 -0.6234763902834428 0.7818421774292043
vn 0.000012263699742374149 -0.6234762884214382 0.7818422587874291
vn 0.000010753599040859255 -0.6234761574525548 0.7818423632501358
vn 0.0000037788798723991344 -0.22253078809657434 0.9749256629788948
vn 0.000010636800023462993 -0.2225307880855745 0.9749256629307036
vn -0.000009253619234063189 -0.22253066185129725 0.9749256917582971
vn 0 0.2589407554873154 0.9658932058709484
vn 0 0.2589407554873154 0.9658932058709484
vn 0 0.2589407554873154 0.9658932058709484
vn -0.000025525699375976213 0.7070819551864937 0.707131605854302
vn -0.000028848700071788123 0.7070832068629572 0.7071303541357485
vn -0.000028029099847988312 0.707082968452877 0.7071305925628146
vn 0.00002911689913820385 0.7071303541302519 0.707083206857461
vn 0.000028274999296591958 0.7071306223602417 0.7070829386436515
vn 0.000025778999100564924 0.7071316654522554 0.7070818955751611
vn 0 0.9658931646052628 0.25894090941531606
vn 0 0.9658931646052628 0.25894090941531606
vn 0 0.9658931646052628 0.25894090941531606
vn -0.000006429849715045077 0.9659204519299205 -0.25883910157114043
vn 0.0000039637092860918225 0.9659204370400652 -0.2588391571857284
vn 0.000014705797351802974 0.9659204592965586 -0.25883907374286635
vn -0.000003990309220795849 0.7071348246094458 -0.7070787366401607
vn 0.0000014700899175934343 0.7071347650120297 -0.7070787962520305
vn -0.000017568499513876373 0.7071350033127612 -0.7070785577156256
vn 0.0000013624100826761085 0.2588078043082826 -0.9659288381797437
vn 0.0000013438999579025737 0.2588084051322974 -0.9659286771967537
vn 0.0000013464799670070454 0.2588084051322965 -0.9659286771967505
vn 0.000014856499654901541 0.2587440926743641 -0.9659459065006717
vn 0.000036790995404487635 0.25875597709071985 -0.9659427224045167
vn 0.00003932420132482473 0.2587574160821134 -0.9659423368276778
vn 0.8223758916323977 0.40231999658997863 0.40228909158173626
vn 0.8223758621233164 0.40227867549066515 0.402330471928747
vn 0.8223758527422258 0.4022951813887297 0.4023139866545852
vn 0.9999999992180981 -0.00003889590149498035 0.000007135330173574115
vn 0.9999999992123907 -0.000037699901410953705 0.000012407100247633598
vn 0.9999999992159834 -0.00003910070151168276 0.00000625848997024601
vn 0.9999999994486395 -0.000020623199804956724 -0.00002602700077133861
vn 0.99999999945853 -0.00001755079937497711 -0.000027837200817363784
vn 0.9999999994581363 -0.00001745160078790158 -0.000027913600191249756
vn 0.9999999995415743 0.00002478809982449611 -0.000017389700579983416
vn 0.999999999629124 0.00001347069973645092 -0.000023670500004616394
vn 0.9999999995839934 0.000021651399938579345 -0.000019058599710917878
vn 0.9999999993656536 0.000004857779910354873 0.00003528589875294447
vn 0.9999999993365867 0.000006761400068233368 0.000035792600077813204
vn 0.9999999994306106 -0.000001549719967469898 0.00003371019918531212
vn 0.9999999989609436 -0.000045441098289380176 0.0000036358799169158122
vn 0.9999999989335313 -0.00004603710107950714 -0.000003677329910431565
vn 0.9999999989335799 -0.00004604269992888752 -0.0000035930399879243963
vn 0.9999999984398409 -0.00003670159998095332 -0.00004211069965800812
vn 0.999999998446651 -0.000035852201052664095 -0.00004267690012703592
vn 0.999999998444778 -0.00003543870110606837 -0.00004306439943899071
vn 0.9999999997184168 0.00002345440042767079 -0.000003613529996874819
vn 0.999999999713491 0.00002020919964127979 -0.00001282989978422695
vn 0.9999999997250166 0.000022888199958360757 -0.000005108539879488895
vn 0.9999999983632153 0.0000497699001338614 0.000028222799254952815
vn 0.9999999985286183 0.00004360080122702363 0.000032275900546468626
vn 0.9999999986340025 0.000016197600394363994 0.000049695401617428595
vn 0.9999999997473075 0.000015385399816046033 0.000016391299136963307
vn 0.9999999997302844 0.000020042099999096906 0.00001173649979729769
vn 0.999999999614674 0.000004347410138651076 0.00002741810020632671
vn -0.000021070200086369077 0.000005319709997473982 0.9999999997638738
vn -0.0000066161201136387065 0.00003370640113474675 0.9999999994100528
vn -0.000023070699165348017 0.0000014603100449412383 0.9999999997328053
vn -0.00008049609499505507 -0.8660115642452662 0.5000239635395946
vn 0.000032931598280110803 -0.8660099918317209 0.5000266922506563
vn 0.0000136885997553319 -0.8660101659808089 0.5000263915340012
vn -0.9642513827648815 -0.02966927873184139 -0.26332300456957125
vn -0.9642521177540632 -0.029668619962639132 -0.2633203873541072
vn -0.9642518310222044 -0.02966891833328641 -0.2633214037165594
vn 0.017827799866222314 -0.8659139432184498 -0.4998751969159952
vn 0.01783018932435823 -0.8658999804029759 -0.4998992981459201
vn 0.017827568666532706 -0.865915362476522 -0.4998727466291734
vn 0.0000392508049434689 -0.9972060423254961 -0.0747001178639964
vn 0.000021070199637587443 -0.9972046994986867 -0.07471804904961381
vn 0.000013261999196778612 -0.9972040875086655 -0.07472621815754546
vn 0.03560673419207225 -0.8654753501969211 0.4996844791282713
vn 0.03560680085416303 -0.8654727180369005 0.4996890333665047
vn 0.03560667419378733 -0.8654780228378429 0.49967985424425104
vn -0.000010512799393996338 -0.7817890761877031 0.6235429738542956
vn -0.000017814298039720703 -0.7817910843930831 0.6235404558215434
vn -0.000021032999515052425 -0.7817920884842443 0.6235391967960447
vn 0.029714879409073813 -0.000037455895884783364 0.9995584147706226
vn 0.029728168278988155 -0.000024288897922966235 0.9995580200372691
vn 0.02971630865862877 -0.00003632529781147411 0.9995583723225862
vn 0.017070706598389496 0.49204890953479025 0.8704001732547251
vn 0.017096808247849538 0.49205777243727267 0.8703946505647916
vn 0.0170717795732464 0.4920491803863627 0.8703999990942733
vn -0.004203855429930407 0.5320265767962001 0.846717219136378
vn -0.004202603343317663 0.5320264672790262 0.8467172941659677
vn -0.00420516686665366 0.5320267130306869 0.8467171270225886
vn 0.000019445100624530095 0.9937148205700084 0.11194130158884345
vn 0.000008620319005055262 0.9937148670509787 0.1119408903285384
vn -7.844649464856192e-7 0.993714889464707 0.11194069168774007
vn -0.000049240898760170165 0.9438764583503534 -0.3302986965571125
vn -0.00004884599432445369 0.9438733235324875 -0.3303076546763715
vn -0.00004938989615538433 0.9438780740421456 -0.3302940794248783
vn 0.000028178097823179248 0.33030638317479105 -0.9438737693357004
vn 0.000028103597423793296 0.33027896445167804 -0.9438833640079238
vn 0.000028127800874047933 0.3302868021939999 -0.9438806214269305
vn -0.0000023155201300746474 -0.11197929336618549 -0.9937105402741023
vn 0.000009861770408659427 -0.11197930071819567 -0.9937105393993815
vn -0.000023581100847038203 -0.1119792933353516 -0.9937105400004806
vn -0.004213570724482376 -0.5319925682174156 -0.8467385388555242
vn -0.004218458684205451 -0.5319925572540724 -0.8467385214058719
vn -0.004188715438840164 -0.5319929070308874 -0.8467384493052137
vn 0.9999999991936521 0.000016532800132465313 -0.00003659729915630418
vn 0.9999999991968329 0.0000159670998854377 -0.00003676120101548485
vn 0.9999999992121043 0.0000042021301818383035 -0.000039473201437253325
vn 0.9999999999613982 0.000007539989837532611 -0.000004511330189242039
vn 0.9999999999608098 0.00000538677022611217 -0.000007025899776360578
vn 0.9999999999372817 0.000011198099854689448 -1.9744000211302104e-7
vn 0.9999999998874638 0.000013984699761085362 -0.000005431470071314778
vn 0.9999999998946953 0.000014252999788686553 -0.0000027315700205542534
vn 0.9999999998331233 0.000013168900293370582 -0.000012662299921136476
vn 0.9999999988961477 0.00002066049999023051 0.000042200099368330305
vn 0.9999999988612804 0.00001542269999908079 0.000045161701512784884
vn 0.999999998880087 0.000028610200356316108 0.000037699901398425885
vn 0.999999997961678 0.00005472079999650487 0.00003289799854089357
vn 0.9999999981236354 0.00004620850077541759 0.00004021820124492155
vn 0.9999999980669516 0.000028774100372941813 0.000055119398787472823
vn 0.9999999987986443 -0.000007182360141553352 0.0000484884002944013
vn 0.9999999987968271 -0.000004183500090644554 0.00004887580138105666
vn 0.9999999986087535 0.000014685099793074484 0.00005066399892029922
vn 0.9999999994676874 -0.000026027699263764957 0.000019676999716906147
vn 0.9999999994755449 -0.000027742200458308264 0.0000167116995638601
vn 0.9999999994726432 -0.000026858400801235404 0.000018257600449409078
vn 0.9999999992666935 -0.00003759279931699867 0.000007307160098306113
vn 0.9999999992663287 -0.00003747269872271456 0.000007946039653315972
vn 0.999999999263435 -0.000037185800438132575 0.000009505080008513867
vn 0.9999999995070801 -0.000011712299959665207 -0.00002913179922344298
vn 0.9999999995222228 -0.000030875198702943265 -0.000001508739955358966
vn 0.999999999591622 -0.000014841600198756968 -0.000024422999548763685
f 1/1/1 2/2/2 3/3/3
f 4/4/4 5/5/5 6/6/6
f 7/7/7 8/8/8 9/9/9
f 10/10/10 11/11/11 12/12/12
f 13/13/13 14/14/14 15/15/15
f 16/16/16 17/17/17 18/18/18
f 19/19/19 20/20/20 21/21/21
f 22/22/22 23/23/23 24/24/24
f 25/25/25 26/26/26 27/27/27
f 28/28/28 29/29/29 30/30/30
f 31/31/31 32/32/32 33/33/33
f 34/34/34 35/35/35 36/36/36
f 37/37/37 38/38/38 39/39/39
f 40/40/40 41/41/41 42/42/42
f 43/43/43 44/44/44 45/45/45
f 46/46/46 47/47/47 48/48/48
f 49/49/49 50/50/50 51/51/51
f 52/52/52 53/53/53 54/54/54
f 55/55/55 56/56/56 57/57/57
f 58/58/58 59/59/59 60/60/60
f 61/61/61 62/62/62 63/63/63
f 64/64/64 65/65/65 66/66/66
f 67/67/67 68/68/68 69/69/69
f 70/70/70 71/71/71 72/72/72
f 73/73/73 74/74/74 75/75/75
f 76/76/76 77/77/77 78/78/78
f 79/79/79 80/80/80 81/81/81
f 82/82/82 83/83/83 84/84/84
f 85/85/85 86/86/86 87/87/87
f 88/88/88 89/89/89 90/90/90
f 91/91/91 92/92/92 93/93/93
f 94/94/94 95/95/95 96/96/96
f 97/97/97 98/98/98 99/99/99
f 100/100/100 101/101/101 102/102/102
f 103/103/103 104/104/104 105/105/105
f 106/106/106 107/107/107 108/108/108
f 109/109/109 110/110/110 111/111/111
f 112/112/112 113/113/113 114/114/114
f 115/115/115 116/116/116 117/117/117
f 118/118/118 119/119/119 120/120/120
f 121/121/121 122/122/122 123/123/123
f 124/124/124 125/125/125 126/126/126
f 127/127/127 128/128/128 129/129/129
f 130/130/130 131/131/131 132/132/132
f 133/133/133 134/134/134 135/135/135
f 136/136/136 137/137/137 138/138/138
f 139/139/139 140/140/140 141/141/141
f 142/142/142 143/143/143 144/144/144
f 145/145/145 146/146/146 147/147/147
f 148/148/148 149/149/149 150/150/150
f 151/151/151 152/152/152 153/153/153
f 154/154/154 155/155/155 156/156/156
f 157/157/157 158/158/158 159/159/159
f 160/160/160 161/161/161 162/162/162
f 163/163/163 164/164/164 165/165/165
f 166/166/166 167/167/167 168/168/168
f 169/169/169 170/170/170 171/171/171
f 172/172/172 173/173/173 174/174/174
f 175/175/175 176/176/176 177/177/177
f 178/178/178 179/179/179 180/180/180
f 181/181/181 182/182/182 183/183/183
f 184/184/184 185/185/185 186/186/186
f 187/187/187 188/188/188 189/189/189
f 190/190/190 191/191/191 192/192/192
f 193/193/193 194/194/194 195/195/195
f 196/196/196 197/197/197 198/198/198
f 199/199/199 200/200/200 201/201/201
f 202/202/202 203/203/203 204/204/204
f 205/205/205 206/206/206 207/207/207
f 208/208/208 209/209/209 210/210/210
f 211/211/211 212/212/212 213/213/213
f 214/214/214 215/215/215 216/216/216
f 217/217/217 218/218/218 219/219/219
f 220/220/220 221/221/221 222/222/222
f 223/223/223 224/224/224 225/225/225
f 226/226/226 227/227/227 228/228/228
f 229/229/229 230/230/230 231/231/231
f 232/232/232 233/233/233 234/234/234
f 235/235/235 236/236/236 237/237/237
f 238/238/238 239/239/239 240/240/240
f 241/241/241 242/242/242 243/243/243
f 244/244/244 245/245/245 246/246/246
f 247/247/247 248/248/248 249/249/249
f 250/250/250 251/251/251 252/252/252
f 253/253/253 254/254/254 255/255/255
f 256/256/256 257/257/257 258/258/258
f 259/259/259 260/260/260 261/261/261
f 262/262/262 263/263/263 264/264/264
f 265/265/265 266/266/266 267/267/267
f 268/268/268 269/269/269 270/270/270
f 271/271/271 272/272/272 273/273/273
f 274/274/274 275/275/275 276/276/276
f 277/277/277 278/278/278 279/279/279
f 280/280/280 281/281/281 282/282/282
f 283/283/283 284/284/284 285/285/285
f 286/286/286 287/287/287 288/288/288
f 289/289/289 290/290/290 291/291/291
f 292/292/292 293/293/293 294/294/294
f 295/295/295 296/296/296 297/297/297
f 298/298/298 299/299/299 300/300/300
f 301/301/301 302/302/302 303/303/303
f 304/304/304 305/305/305 306/306/306
f 307/307/307 308/308/308 309/309/309
f 310/310/310 311/311/311 312/312/312
f 313/313/313 314/314/314 315/315/315
f 316/316/316 317/317/317 318/318/318
f 319/319/319 320/320/320 321/321/321
f 322/322/322 323/323/323 324/324/324
f 325/325/325 326/326/326 327/327/327
f 328/328/328 329/329/329 330/330/330
f 331/331/331 332/332/332 333/333/333
f 334/334/334 335/335/335 336/336/336
f 337/337/337 338/338/338 339/339/339
f 340/340/340 341/341/341 342/342/342
f 343/343/343 344/344/344 345/345/345
f 346/346/346 347/347/347 348/348/348
f 349/349/349 350/350/350 351/351/351
f 352/352/352 353/353/353 354/354/354
f 355/355/355 356/356/356 357/357/357
f 358/358/358 359/359/359 360/360/360
f 361/361/361 362/362/362 363/363/363
f 364/364/364 365/365/365 366/366/366
f 367/367/367 368/368/368 369/369/369
f 370/370/370 371/371/371 372/372/372
f 373/373/373 374/374/374 375/375/375
f 376/376/376 377/377/377 378/378/378
f 379/379/379 380/380/380 381/381/381
f 382/382/382 383/383/383 384/384/384
f 385/385/385 386/386/386 387/387/387
f 388/388/388 389/389/389 390/390/390
f 391/391/391 392/392/392 393/393/393
f 394/394/394 395/395/395 396/396/396
f 397/397/397 398/398/398 399/399/399
f 400/400/400 401/401/401 402/402/402
f 403/403/403 404/404/404 405/405/405
f 406/406/406 407/407/407 408/408/408
f 409/409/409 410/410/410 411/411/411
f 412/412/412 413/413/413 414/414/414
f 415/415/415 416/416/416 417/417/417
f 418/418/418 419/419/419 420/420/420
f 421/421/421 422/422/422 423/423/423
f 424/424/424 425/425/425 426/426/426
f 427/427/427 428/428/428 429/429/429
f 430/430/430 431/431/431 432/432/432
f 433/433/433 434/434/434 435/435/435
f 436/436/436 437/437/437 438/438/438
f 439/439/439 440/440/440 441/441/441
f 442/442/442 443/443/443 444/444/444
f 445/445/445 446/446/446 447/447/447
f 448/448/448 449/449/449 450/450/450
f 451/451/451 452/452/452 453/453/453
f 454/454/454 455/455/455 456/456/456
f 457/457/457 458/458/458 459/459/459
f 460/460/460 461/461/461 462/462/462
f 463/463/463 464/464/464 465/465/465
f 466/466/466 467/467/467 468/468/468
f 469/469/469 470/470/470 471/471/471
f 472/472/472 473/473/473 474/474/474
f 475/475/475 476/476/476 477/477/477
f 478/478/478 479/479/479 480/480/480
f 481/481/481 482/482/482 483/483/483
f 484/484/484 485/485/485 486/486/486
f 487/487/487 488/488/488 489/489/489
f 490/490/490 491/491/491 492/492/492
f 493/493/493 494/494/494 495/495/495
f 496/496/496 497/497/497 498/498/498
f 499/499/499 500/500/500 501/501/501
f 502/502/502 503/503/503 504/504/504
f 505/505/505 506/506/506 507/507/507
f 508/508/508 509/509/509 510/510/510
f 511/511/511 512/512/512 513/513/513
f 514/514/514 515/515/515 516/516/516
f 517/517/517 518/518/518 519/519/519
f 520/520/520 521/521/521 522/522/522
f 523/523/523 524/524/524 525/525/525
f 526/526/526 527/527/527 528/528/528
f 529/529/529 530/530/530 531/531/531
f 532/532/532 533/533/533 534/534/534
