o shoulderRollRight
usemtl 灰色
v -0.00019999999494757503 -0.014848940074443817 0.014848940074443817
v -0.004999995231628418 -0.01049994956701994 0.018186980858445168
v -0.004999995231628418 -0.014848940074443817 0.014848940074443817
v -0.00019999999494757503 -0.014848940074443817 0.014848940074443817
v -0.00019999999494757503 -0.01049994956701994 0.018186980858445168
v -0.004999995231628418 -0.01049994956701994 0.018186980858445168
v -0.00019999999494757503 -0.01049994956701994 0.018186980858445168
v -0.004999995231628418 -0.005434988997876644 0.02028398960828781
v -0.004999995231628418 -0.01049994956701994 0.018186980858445168
v -0.00019999999494757503 -0.01049994956701994 0.018186980858445168
v -0.00019999999494757503 -0.005434988997876644 0.02028398960828781
v -0.004999995231628418 -0.005434988997876644 0.02028398960828781
v -0.00019999999494757503 -0.005434988997876644 0.02028398960828781
v -0.004999995231628418 0 0.020999960601329803
v -0.004999995231628418 -0.005434988997876644 0.02028398960828781
v -0.00019999999494757503 -0.005434988997876644 0.02028398960828781
v -0.00019999999494757503 0 0.020999960601329803
v -0.004999995231628418 0 0.020999960601329803
v -0.00019999999494757503 0 0.020999960601329803
v -0.004999995231628418 0.005434988997876644 0.02028398960828781
v -0.004999995231628418 0 0.020999960601329803
v -0.00019999999494757503 0 0.020999960601329803
v -0.00019999999494757503 0.005434988997876644 0.02028398960828781
v -0.004999995231628418 0.005434988997876644 0.02028398960828781
v -0.00019999999494757503 0.005434988997876644 0.02028398960828781
v -0.004999995231628418 0.01049994956701994 0.018186980858445168
v -0.004999995231628418 0.005434988997876644 0.02028398960828781
v -0.00019999999494757503 0.005434988997876644 0.02028398960828781
v -0.00019999999494757503 0.01049994956701994 0.018186980858445168
v -0.004999995231628418 0.01049994956701994 0.018186980858445168
v -0.00019999999494757503 0.01049994956701994 0.018186980858445168
v -0.004999995231628418 0.014848940074443817 0.014848940074443817
v -0.004999995231628418 0.01049994956701994 0.018186980858445168
v -0.00019999999494757503 0.01049994956701994 0.018186980858445168
v -0.00019999999494757503 0.014848940074443817 0.014848940074443817
v -0.004999995231628418 0.014848940074443817 0.014848940074443817
v -0.00019999999494757503 0.014848940074443817 0.014848940074443817
v -0.004999995231628418 0.018186980858445168 0.01049994956701994
v -0.004999995231628418 0.014848940074443817 0.014848940074443817
v -0.00019999999494757503 0.014848940074443817 0.014848940074443817
v -0.00019999999494757503 0.018186980858445168 0.01049994956701994
v -0.004999995231628418 0.018186980858445168 0.01049994956701994
v -0.00019999999494757503 0.018186980858445168 0.01049994956701994
v -0.004999995231628418 0.02028398960828781 0.005434988997876644
v -0.004999995231628418 0.018186980858445168 0.01049994956701994
v -0.00019999999494757503 0.018186980858445168 0.01049994956701994
v -0.00019999999494757503 0.02028398960828781 0.005434988997876644
v -0.004999995231628418 0.02028398960828781 0.005434988997876644
v -0.00019999999494757503 0.02028398960828781 0.005434988997876644
v -0.004999995231628418 0.020999960601329803 0
v -0.004999995231628418 0.02028398960828781 0.005434988997876644
v -0.00019999999494757503 0.02028398960828781 0.005434988997876644
v -0.00019999999494757503 0.020999960601329803 0
v -0.004999995231628418 0.020999960601329803 0
v -0.00019999999494757503 0.020999960601329803 0
v -0.004999995231628418 0.02028398960828781 -0.005434988997876644
v -0.004999995231628418 0.020999960601329803 0
v -0.00019999999494757503 0.020999960601329803 0
v -0.00019999999494757503 0.02028398960828781 -0.005434988997876644
v -0.004999995231628418 0.02028398960828781 -0.005434988997876644
v -0.00019999999494757503 0.02028398960828781 -0.005434988997876644
v -0.004999995231628418 0.018186980858445168 -0.01049994956701994
v -0.004999995231628418 0.02028398960828781 -0.005434988997876644
v -0.00019999999494757503 0.02028398960828781 -0.005434988997876644
v -0.00019999999494757503 0.018186980858445168 -0.01049994956701994
v -0.004999995231628418 0.018186980858445168 -0.01049994956701994
v -0.00019999999494757503 0.018186980858445168 -0.01049994956701994
v -0.004999995231628418 0.014848940074443817 -0.014848940074443817
v -0.004999995231628418 0.018186980858445168 -0.01049994956701994
v -0.00019999999494757503 0.018186980858445168 -0.01049994956701994
v -0.00019999999494757503 0.014848940074443817 -0.014848940074443817
v -0.004999995231628418 0.014848940074443817 -0.014848940074443817
v -0.00019999999494757503 0.014848940074443817 -0.014848940074443817
v -0.004999995231628418 0.01049994956701994 -0.018186980858445168
v -0.004999995231628418 0.014848940074443817 -0.014848940074443817
v -0.00019999999494757503 0.014848940074443817 -0.014848940074443817
v -0.00019999999494757503 0.01049994956701994 -0.018186980858445168
v -0.004999995231628418 0.01049994956701994 -0.018186980858445168
v -0.00019999999494757503 0.01049994956701994 -0.018186980858445168
v -0.004999995231628418 0.005434988997876644 -0.02028398960828781
v -0.004999995231628418 0.01049994956701994 -0.018186980858445168
v -0.00019999999494757503 0.01049994956701994 -0.018186980858445168
v -0.00019999999494757503 0.005434988997876644 -0.02028398960828781
v -0.004999995231628418 0.005434988997876644 -0.02028398960828781
v -0.00019999999494757503 0.005434988997876644 -0.02028398960828781
v -0.004999995231628418 0 -0.020999960601329803
v -0.004999995231628418 0.005434988997876644 -0.02028398960828781
v -0.00019999999494757503 0.005434988997876644 -0.02028398960828781
v -0.00019999999494757503 0 -0.020999960601329803
v -0.004999995231628418 0 -0.020999960601329803
v -0.00019999999494757503 0 -0.020999960601329803
v -0.004999995231628418 -0.005434988997876644 -0.02028398960828781
v -0.004999995231628418 0 -0.020999960601329803
v -0.00019999999494757503 0 -0.020999960601329803
v -0.00019999999494757503 -0.005434988997876644 -0.02028398960828781
v -0.004999995231628418 -0.005434988997876644 -0.02028398960828781
v -0.00019999999494757503 -0.005434988997876644 -0.02028398960828781
v -0.004999995231628418 -0.01049994956701994 -0.018186980858445168
v -0.004999995231628418 -0.005434988997876644 -0.02028398960828781
v -0.00019999999494757503 -0.005434988997876644 -0.02028398960828781
v -0.00019999999494757503 -0.01049994956701994 -0.018186980858445168
v -0.004999995231628418 -0.01049994956701994 -0.018186980858445168
v -0.00019999999494757503 -0.01049994956701994 -0.018186980858445168
v -0.004999995231628418 -0.014848940074443817 -0.014848940074443817
v -0.004999995231628418 -0.01049994956701994 -0.018186980858445168
v -0.00019999999494757503 -0.01049994956701994 -0.018186980858445168
v -0.00019999999494757503 -0.014848940074443817 -0.014848940074443817
v -0.004999995231628418 -0.014848940074443817 -0.014848940074443817
v -0.00019999999494757503 -0.014848940074443817 -0.014848940074443817
v -0.004999995231628418 -0.018186980858445168 -0.01049994956701994
v -0.004999995231628418 -0.014848940074443817 -0.014848940074443817
v -0.00019999999494757503 -0.014848940074443817 -0.014848940074443817
v -0.00019999999494757503 -0.018186980858445168 -0.01049994956701994
v -0.004999995231628418 -0.018186980858445168 -0.01049994956701994
v -0.00019999999494757503 -0.018186980858445168 -0.01049994956701994
v -0.004999995231628418 -0.02028398960828781 -0.005434988997876644
v -0.004999995231628418 -0.018186980858445168 -0.01049994956701994
v -0.00019999999494757503 -0.018186980858445168 -0.01049994956701994
v -0.00019999999494757503 -0.02028398960828781 -0.005434988997876644
v -0.004999995231628418 -0.02028398960828781 -0.005434988997876644
v -0.00019999999494757503 -0.02028398960828781 -0.005434988997876644
v -0.004999995231628418 -0.020999960601329803 0
v -0.004999995231628418 -0.02028398960828781 -0.005434988997876644
v -0.00019999999494757503 -0.02028398960828781 -0.005434988997876644
v -0.00019999999494757503 -0.020999960601329803 0
v -0.004999995231628418 -0.020999960601329803 0
v -0.00019999999494757503 -0.020999960601329803 0
v -0.004999995231628418 -0.02028398960828781 0.005434988997876644
v -0.004999995231628418 -0.020999960601329803 0
v -0.00019999999494757503 -0.020999960601329803 0
v -0.00019999999494757503 -0.02028398960828781 0.005434988997876644
v -0.004999995231628418 -0.02028398960828781 0.005434988997876644
v -0.00019999999494757503 -0.02028398960828781 0.005434988997876644
v -0.004999995231628418 -0.018186980858445168 0.01049994956701994
v -0.004999995231628418 -0.02028398960828781 0.005434988997876644
v -0.00019999999494757503 -0.02028398960828781 0.005434988997876644
v -0.00019999999494757503 -0.018186980858445168 0.01049994956701994
v -0.004999995231628418 -0.018186980858445168 0.01049994956701994
v -0.00019999999494757503 -0.018186980858445168 0.01049994956701994
v -0.004999995231628418 -0.014848940074443817 0.014848940074443817
v -0.004999995231628418 -0.018186980858445168 0.01049994956701994
v -0.00019999999494757503 -0.018186980858445168 0.01049994956701994
v -0.00019999999494757503 -0.014848940074443817 0.014848940074443817
v -0.004999995231628418 -0.014848940074443817 0.014848940074443817
v -0.00019999999494757503 -0.02028398960828781 -0.005434988997876644
v -0.00019999999494757503 -0.018186980858445168 -0.01049994956701994
v 0 -0.020600970834493637 -0.0028719899710267782
v -0.00019999999494757503 -0.020999960601329803 0
v -0.00019999999494757503 -0.02028398960828781 -0.005434988997876644
v 0 -0.020600970834493637 -0.0028719899710267782
v -0.00019999999494757503 0 0.020999960601329803
v -0.00019999999494757503 -0.005434988997876644 0.02028398960828781
v 0 -0.0028719899710267782 0.020600970834493637
v -0.00019999999494757503 -0.005434988997876644 0.02028398960828781
v -0.00019999999494757503 -0.01049994956701994 0.018186980858445168
v 0 -0.0028719899710267782 0.020600970834493637
v -0.00019999999494757503 0.005434988997876644 0.02028398960828781
v -0.00019999999494757503 0 0.020999960601329803
v 0 -0.0028719899710267782 0.020600970834493637
v -0.00019999999494757503 0.014848940074443817 0.014848940074443817
v -0.00019999999494757503 0.01049994956701994 0.018186980858445168
v 0 0.0130459601059556 0.014176960103213787
v -0.00019999999494757503 -0.02028398960828781 0.005434988997876644
v -0.00019999999494757503 -0.020999960601329803 0
v 0 -0.020600970834493637 -0.0028719899710267782
v 0 0.0076249828562140465 0.016819000244140625
v -0.00019999999494757503 0.010510980151593685 0.014040940441191196
v 0 0.0130459601059556 0.014176960103213787
v -0.00019999999494757503 -0.014848940074443817 -0.014848940074443817
v 0 -0.014201990328729153 -0.010630959644913673
v -0.00019999999494757503 -0.018186980858445168 -0.01049994956701994
v 0 -0.01701200008392334 -0.007573962211608887
v 0 -0.014201990328729153 -0.010630959644913673
v -0.00019999999494757503 -0.016433950513601303 -0.0061299800872802734
v 0 -0.01701200008392334 -0.007573962211608887
v 0 -0.017991960048675537 -0.00813895370811224
v 0 -0.014201990328729153 -0.010630959644913673
v 0 -0.017991960048675537 -0.00813895370811224
v -0.00019999999494757503 -0.018186980858445168 -0.01049994956701994
v 0 -0.014201990328729153 -0.010630959644913673
v -0.00019999999494757503 -0.016433950513601303 -0.0061299800872802734
v 0 -0.01857995055615902 -0.007276951801031828
v 0 -0.01701200008392334 -0.007573962211608887
v -0.00019999999494757503 -0.018186980858445168 -0.01049994956701994
v 0 -0.017991960048675537 -0.00813895370811224
v 0 -0.01857995055615902 -0.007276951801031828
v 0 -0.008501945994794369 0.015569980256259441
v 0 -0.007159947883337736 0.01701200008392334
v 0 -0.00813895370811224 0.017991960048675537
v 0 -0.007159947883337736 0.01701200008392334
v 0 -0.008501945994794369 0.015569980256259441
v -0.00019999999494757503 -0.0037279720418155193 0.017138950526714325
v 0 -0.007159947883337736 0.01701200008392334
v 0 -0.00020700000459328294 0.018476959317922592
v 0 -0.006688951980322599 0.018209990113973618
v 0 -0.0028719899710267782 0.020600970834493637
v -0.00019999999494757503 -0.01049994956701994 0.018186980858445168
v 0 -0.006688951980322599 0.018209990113973618
v -0.00019999999494757503 -0.01049994956701994 0.018186980858445168
v 0 -0.00813895370811224 0.017991960048675537
v 0 -0.006688951980322599 0.018209990113973618
v 0 -0.00020700000459328294 0.018476959317922592
v 0 0.0012659430503845215 0.017694950103759766
v 0 0.0005660000024363399 0.018683960661292076
v 0 0.0005660000024363399 0.018683960661292076
v -0.00019999999494757503 0.005434988997876644 0.02028398960828781
v 0 0.00042600001324899495 0.01992695964872837
v -0.00019999999494757503 0.005434988997876644 0.02028398960828781
v 0 -0.0028719899710267782 0.020600970834493637
v 0 0.00042600001324899495 0.01992695964872837
v 0 -0.0028719899710267782 0.020600970834493637
v 0 -0.0005660000024363399 0.019815979525446892
v 0 0.00042600001324899495 0.01992695964872837
v 0 -0.0005660000024363399 0.019815979525446892
v 0 -0.0028719899710267782 0.020600970834493637
v 0 -0.00020700000459328294 0.018476959317922592
v 0 -0.0028719899710267782 0.020600970834493637
v 0 -0.006688951980322599 0.018209990113973618
v 0 -0.00020700000459328294 0.018476959317922592
v 0 -0.019042959436774254 0.0007730000070296228
v 0 -0.01849197968840599 0.00665998412296176
v -0.00019999999494757503 -0.02028398960828781 0.005434988997876644
v 0 -0.019042959436774254 0.0007730000070296228
v -0.00019999999494757503 -0.02028398960828781 0.005434988997876644
v 0 -0.020022980868816376 -0.00020700000459328294
v -0.00019999999494757503 -0.02028398960828781 0.005434988997876644
v 0 -0.020600970834493637 -0.0028719899710267782
v 0 -0.020022980868816376 -0.00020700000459328294
v 0 -0.017694950103759766 -0.0012659430503845215
v 0 -0.019042959436774254 0.0007730000070296228
v 0 -0.019456980749964714 -0.0007730000070296228
v 0 -0.019042959436774254 0.0007730000070296228
v 0 -0.017694950103759766 -0.0012659430503845215
v 0 -0.01849197968840599 0.00665998412296176
v 0 0.008073984645307064 0.01849197968840599
v -0.00019999999494757503 0.01049994956701994 0.018186980858445168
v -0.00019999999494757503 0.005434988997876644 0.02028398960828781
v -0.00019999999494757503 0.0061299800872802734 0.016433950513601303
v 0 0.0076249828562140465 0.016819000244140625
v 0 0.00665998412296176 0.017077980563044548
v 0 0.0130459601059556 0.014176960103213787
v 0 0.008332966826856136 0.017525969073176384
v 0 0.0076249828562140465 0.016819000244140625
v -0.00019999999494757503 0.01049994956701994 0.018186980858445168
v 0 0.008332966826856136 0.017525969073176384
v 0 0.0130459601059556 0.014176960103213787
v -0.00019999999494757503 0.01049994956701994 0.018186980858445168
v 0 0.008073984645307064 0.01849197968840599
v 0 0.008332966826856136 0.017525969073176384
v 0 0.0012659430503845215 0.017694950103759766
v 0 0.00665998412296176 0.017077980563044548
v 0 0.00665998412296176 0.01849197968840599
v 0 0.00665998412296176 0.01849197968840599
v -0.00019999999494757503 0.005434988997876644 0.02028398960828781
v 0 0.0012659430503845215 0.017694950103759766
v 0 -0.017525969073176384 0.006400941871106625
v 0 -0.017334990203380585 0.003770946990698576
v 0 -0.016819000244140625 0.0076249828562140465
v 0 -0.017334990203380585 0.003770946990698576
v 0 -0.015569980256259441 0.008501945994794369
v 0 -0.016819000244140625 0.0076249828562140465
v 0 -0.017525969073176384 0.008332966826856136
v 0 -0.015569980256259441 0.008501945994794369
v -0.00019999999494757503 -0.018186980858445168 0.01049994956701994
v 0 -0.017525969073176384 0.008332966826856136
v 0 -0.016819000244140625 0.0076249828562140465
v 0 -0.015569980256259441 0.008501945994794369
v 0 -0.01849197968840599 0.00665998412296176
v 0 -0.01849197968840599 0.008073984645307064
v -0.00019999999494757503 -0.02028398960828781 0.005434988997876644
v 0 -0.01849197968840599 0.008073984645307064
v -0.00019999999494757503 -0.018186980858445168 0.01049994956701994
v -0.00019999999494757503 -0.02028398960828781 0.005434988997876644
v 0 -0.01849197968840599 0.008073984645307064
v 0 -0.017525969073176384 0.008332966826856136
v -0.00019999999494757503 -0.018186980858445168 0.01049994956701994
v 0 -0.006400941871106625 -0.017525969073176384
v 0 -0.0005660000024363399 -0.018683960661292076
v -0.00019999999494757503 -0.0061299800872802734 -0.016433950513601303
v 0 -0.006400941871106625 -0.017525969073176384
v 0 -0.007107973098754883 -0.018750960007309914
v 0 -0.0005660000024363399 -0.018683960661292076
v -0.00019999999494757503 -0.01049994956701994 -0.018186980858445168
v -0.00019999999494757503 -0.005434988997876644 -0.02028398960828781
v 0 -0.008073984645307064 -0.01849197968840599
v -0.00019999999494757503 -0.005434988997876644 -0.02028398960828781
v 0 -0.007107973098754883 -0.018750960007309914
v 0 -0.008073984645307064 -0.01849197968840599
v 0 -0.008073984645307064 -0.01849197968840599
v 0 -0.008073984645307064 -0.017077980563044548
v -0.00019999999494757503 -0.01049994956701994 -0.018186980858445168
v 0 -0.008073984645307064 -0.017077980563044548
v 0 -0.010630959644913673 -0.014201990328729153
v -0.00019999999494757503 -0.01049994956701994 -0.018186980858445168
v 0 -0.008073984645307064 -0.017077980563044548
v 0 -0.007107973098754883 -0.016819000244140625
v 0 -0.010630959644913673 -0.014201990328729153
v 0 0.0176729504019022 -0.008359967730939388
v -0.00019999999494757503 0.018186980858445168 -0.01049994956701994
v 0 0.018750960007309914 -0.0076249828562140465
v -0.00019999999494757503 0.018186980858445168 -0.01049994956701994
v -0.00019999999494757503 0.02028398960828781 -0.005434988997876644
v 0 0.018750960007309914 -0.0076249828562140465
v 0 0.0176729504019022 -0.008359967730939388
v 0 0.016937969252467155 -0.007898986339569092
v -0.00019999999494757503 0.018186980858445168 -0.01049994956701994
v 0 0.018750960007309914 -0.0076249828562140465
v -0.00019999999494757503 0.02028398960828781 -0.005434988997876644
v 0 0.018042979761958122 -0.006400941871106625
v -0.00019999999494757503 0.02028398960828781 -0.005434988997876644
v 0 0.018476959317922592 -0.00020700000459328294
v 0 0.018042979761958122 -0.006400941871106625
v 0 0.018476959317922592 -0.00020700000459328294
v 0 0.017077980563044548 -0.00665998412296176
v 0 0.018042979761958122 -0.006400941871106625
v 0 0.015569980256259441 -0.008501945994794369
v 0 0.014176960103213787 -0.014176960103213787
v -0.00019999999494757503 0.018186980858445168 -0.01049994956701994
v 0 0.014176960103213787 -0.014176960103213787
v 0 0.015569980256259441 -0.008501945994794369
v 0 0.0130459601059556 -0.0130459601059556
v 0 0.015569980256259441 -0.008501945994794369
v -0.00019999999494757503 0.01240294985473156 -0.01240294985473156
v 0 0.0130459601059556 -0.0130459601059556
v -0.00019999999494757503 0.01240294985473156 -0.01240294985473156
v 0 0.008501945994794369 -0.015569980256259441
v 0 0.0130459601059556 -0.0130459601059556
v 0 0.014176960103213787 -0.014176960103213787
v -0.00019999999494757503 0.014848940074443817 -0.014848940074443817
v -0.00019999999494757503 0.018186980858445168 -0.01049994956701994
v -0.00019999999494757503 0.005434988997876644 -0.02028398960828781
v 0 -0.00020700000459328294 -0.020022980868816376
v -0.00019999999494757503 0 -0.020999960601329803
v 0 -0.0005660000024363399 -0.018683960661292076
v 0 -0.007107973098754883 -0.018750960007309914
v -0.00019999999494757503 -0.005434988997876644 -0.02028398960828781
v 0 -0.00020700000459328294 -0.020022980868816376
v -0.00019999999494757503 0.005434988997876644 -0.02028398960828781
v 0 0.0005660000024363399 -0.019815979525446892
v 0 0.0005660000024363399 -0.019815979525446892
v 0 0.003770946990698576 -0.017334990203380585
v 0 0.00042600001324899495 -0.018572980538010597
v 0 0.003770946990698576 -0.017334990203380585
v -0.00019999999494757503 -0.0012509820517152548 -0.017494969069957733
v 0 0.00042600001324899495 -0.018572980538010597
v -0.00019999999494757503 -0.0012509820517152548 -0.017494969069957733
v 0 -0.0005660000024363399 -0.018683960661292076
v 0 0.00042600001324899495 -0.018572980538010597
v -0.00019999999494757503 -0.005434988997876644 -0.02028398960828781
v 0 -0.00020700000459328294 -0.020022980868816376
v 0 -0.0005660000024363399 -0.018683960661292076
v -0.00019999999494757503 -0.005434988997876644 -0.02028398960828781
v -0.00019999999494757503 0 -0.020999960601329803
v 0 -0.00020700000459328294 -0.020022980868816376
v 0 0.0130459601059556 -0.0130459601059556
v 0 0.008501945994794369 -0.015569980256259441
v 0 0.012933960184454918 -0.014036949723958969
v 0 0.003770946990698576 -0.017334990203380585
v 0 0.0005660000024363399 -0.019815979525446892
v -0.00019999999494757503 0.005434988997876644 -0.02028398960828781
v 0 -0.006400941871106625 -0.017525969073176384
v -0.00019999999494757503 -0.0061299800872802734 -0.016433950513601303
v 0 -0.007107973098754883 -0.016819000244140625
v -0.00019999999494757503 -0.0061299800872802734 -0.016433950513601303
v 0 -0.010630959644913673 -0.014201990328729153
v 0 -0.007107973098754883 -0.016819000244140625
v 0 -0.010630959644913673 -0.014201990328729153
v 0 -0.014201990328729153 -0.010630959644913673
v 0 -0.0130459601059556 -0.0130459601059556
v 0 -0.014201990328729153 -0.010630959644913673
v 0 -0.014176960103213787 -0.0130459601059556
v 0 -0.0130459601059556 -0.0130459601059556
v 0 -0.014201990328729153 -0.010630959644913673
v -0.00019999999494757503 -0.014848940074443817 -0.014848940074443817
v 0 -0.014176960103213787 -0.0130459601059556
v -0.00019999999494757503 -0.014848940074443817 -0.014848940074443817
v 0 -0.013700960204005241 -0.014406969770789146
v 0 -0.014176960103213787 -0.0130459601059556
v -0.00019999999494757503 -0.014848940074443817 -0.014848940074443817
v -0.00019999999494757503 -0.01049994956701994 -0.018186980858445168
v 0 -0.013700960204005241 -0.014406969770789146
v 0 -0.017694950103759766 -0.0012659430503845215
v 0 -0.017334990203380585 0.003770946990698576
v 0 -0.01849197968840599 0.00665998412296176
v 0 -0.017334990203380585 0.003770946990698576
v 0 -0.017525969073176384 0.006400941871106625
v 0 -0.01849197968840599 0.00665998412296176
v -0.00019999999494757503 -0.01049994956701994 0.018186980858445168
v 0 -0.008501945994794369 0.015569980256259441
v 0 -0.00813895370811224 0.017991960048675537
v -0.00019999999494757503 -0.01049994956701994 0.018186980858445168
v 0 -0.012838950380682945 0.013818969950079918
v 0 -0.008501945994794369 0.015569980256259441
v -0.00019999999494757503 -0.01049994956701994 0.018186980858445168
v 0 -0.014406969770789146 0.013521960005164146
v 0 -0.012838950380682945 0.013818969950079918
v -0.00019999999494757503 -0.01049994956701994 0.018186980858445168
v -0.00019999999494757503 -0.014848940074443817 0.014848940074443817
v 0 -0.014406969770789146 0.013521960005164146
v -0.00019999999494757503 -0.01240294985473156 0.01240294985473156
v 0 -0.008501945994794369 0.015569980256259441
v 0 -0.013700960204005241 0.012816959992051125
v 0 -0.008501945994794369 0.015569980256259441
v 0 -0.012838950380682945 0.013818969950079918
v 0 -0.013700960204005241 0.012816959992051125
v -0.00019999999494757503 -0.014848940074443817 0.014848940074443817
v 0 -0.015569980256259441 0.008501945994794369
v 0 -0.014406969770789146 0.013521960005164146
v -0.00019999999494757503 -0.014848940074443817 0.014848940074443817
v -0.00019999999494757503 -0.018186980858445168 0.01049994956701994
v 0 -0.015569980256259441 0.008501945994794369
v 0 -0.015569980256259441 0.008501945994794369
v 0 -0.013700960204005241 0.012816959992051125
v 0 -0.014406969770789146 0.013521960005164146
v 0 -0.015569980256259441 0.008501945994794369
v -0.00019999999494757503 -0.01240294985473156 0.01240294985473156
v 0 -0.013700960204005241 0.012816959992051125
v -0.00019999999494757503 -0.0037279720418155193 0.017138950526714325
v 0 -0.00020700000459328294 0.018476959317922592
v 0 -0.007159947883337736 0.01701200008392334
v -0.00019999999494757503 -0.0037279720418155193 0.017138950526714325
v 0 0.0012659430503845215 0.017694950103759766
v 0 -0.00020700000459328294 0.018476959317922592
v -0.00019999999494757503 0.0061299800872802734 0.016433950513601303
v 0 0.00665998412296176 0.017077980563044548
v 0 0.0012659430503845215 0.017694950103759766
v -0.00019999999494757503 0.014848940074443817 0.014848940074443817
v 0 0.0143849803134799 0.013818969950079918
v -0.00019999999494757503 0.018186980858445168 0.01049994956701994
v 0 0.0143849803134799 0.013818969950079918
v -0.00019999999494757503 0.014848940074443817 0.014848940074443817
v 0 0.0130459601059556 0.014176960103213787
v 0 0.0130459601059556 0.014176960103213787
v -0.00019999999494757503 0.010510980151593685 0.014040940441191196
v 0 0.012933960184454918 0.013185969553887844
v -0.00019999999494757503 0.010510980151593685 0.014040940441191196
v 0 0.014229949563741684 0.010591980069875717
v 0 0.012933960184454918 0.013185969553887844
v 0 0.017991960048675537 0.006593942176550627
v -0.00019999999494757503 0.02028398960828781 0.005434988997876644
v 0 0.01834999956190586 0.007931946776807308
v -0.00019999999494757503 0.02028398960828781 0.005434988997876644
v -0.00019999999494757503 0.018186980858445168 0.01049994956701994
v 0 0.01834999956190586 0.007931946776807308
v -0.00019999999494757503 0.016433950513601303 0.0061299800872802734
v 0 0.018476959317922592 -0.00020700000459328294
v 0 0.017106950283050537 0.007791996002197266
v 0 0.018476959317922592 -0.00020700000459328294
v 0 0.017991960048675537 0.006593942176550627
v 0 0.017106950283050537 0.007791996002197266
v 0 0.018476959317922592 -0.00020700000459328294
v -0.00019999999494757503 0.02028398960828781 0.005434988997876644
v 0 0.017991960048675537 0.006593942176550627
v 0 0.012933960184454918 0.013185969553887844
v 0 0.014229949563741684 0.010591980069875717
v 0 0.013875960372388363 0.01285696029663086
v -0.00019999999494757503 0.016433950513601303 0.0061299800872802734
v 0 0.017106950283050537 0.007791996002197266
v 0 0.014229949563741684 0.010591980069875717
v 0 0.019339969381690025 0.0007949999999254942
v -0.00019999999494757503 0.02028398960828781 0.005434988997876644
v 0 0.018476959317922592 -0.00020700000459328294
v -0.00019999999494757503 0.020999960601329803 0
v 0 0.020044980570673943 0.00009000000136438757
v -0.00019999999494757503 0.02028398960828781 -0.005434988997876644
v 0 0.018476959317922592 -0.00020700000459328294
v -0.00019999999494757503 0.02028398960828781 -0.005434988997876644
v 0 0.019042959436774254 -0.0007730000070296228
v -0.00019999999494757503 0.02028398960828781 -0.005434988997876644
v 0 0.020044980570673943 0.00009000000136438757
v 0 0.019042959436774254 -0.0007730000070296228
v -0.00019999999494757503 0.020999960601329803 0
v -0.00019999999494757503 0.02028398960828781 0.005434988997876644
v 0 0.020044980570673943 0.00009000000136438757
v -0.00019999999494757503 0.02028398960828781 0.005434988997876644
v 0 0.019339969381690025 0.0007949999999254942
v 0 0.020044980570673943 0.00009000000136438757
v 0 -0.01857995055615902 -0.007276951801031828
v 0 -0.020600970834493637 -0.0028719899710267782
v -0.00019999999494757503 -0.018186980858445168 -0.01049994956701994
v 0 -0.010630959644913673 -0.014201990328729153
v 0 -0.013700960204005241 -0.014406969770789146
v -0.00019999999494757503 -0.01049994956701994 -0.018186980858445168
v 0 -0.010630959644913673 -0.014201990328729153
v 0 -0.0130459601059556 -0.0130459601059556
v 0 -0.013700960204005241 -0.014406969770789146
v -0.00019999999494757503 0.005434988997876644 -0.02028398960828781
v 0 0.008161962032318115 -0.017694950103759766
v 0 0.006593942176550627 -0.017991960048675537
v -0.00019999999494757503 0.005434988997876644 -0.02028398960828781
v -0.00019999999494757503 0.01049994956701994 -0.018186980858445168
v 0 0.008161962032318115 -0.017694950103759766
v 0 0.006593942176550627 -0.017991960048675537
v 0 0.003770946990698576 -0.017334990203380585
v -0.00019999999494757503 0.005434988997876644 -0.02028398960828781
v 0 0.006593942176550627 -0.017991960048675537
v 0 0.007101953029632568 -0.017030000686645508
v 0 0.003770946990698576 -0.017334990203380585
v 0 0.008161962032318115 -0.017694950103759766
v 0 0.008501945994794369 -0.015569980256259441
v 0 0.007101953029632568 -0.017030000686645508
v 0 0.008501945994794369 -0.015569980256259441
v 0 0.003770946990698576 -0.017334990203380585
v 0 0.007101953029632568 -0.017030000686645508
v -0.00019999999494757503 0.01049994956701994 -0.018186980858445168
v 0 0.008501945994794369 -0.015569980256259441
v 0 0.008161962032318115 -0.017694950103759766
v -0.00019999999494757503 0.01049994956701994 -0.018186980858445168
v -0.00019999999494757503 0.014848940074443817 -0.014848940074443817
v 0 0.008501945994794369 -0.015569980256259441
v -0.00019999999494757503 0.014848940074443817 -0.014848940074443817
v 0 0.012933960184454918 -0.014036949723958969
v 0 0.008501945994794369 -0.015569980256259441
v -0.00019999999494757503 0.014848940074443817 -0.014848940074443817
v 0 0.014176960103213787 -0.014176960103213787
v 0 0.012933960184454918 -0.014036949723958969
v 0 0.017077980563044548 -0.00665998412296176
v 0 0.015569980256259441 -0.008501945994794369
v 0 0.016937969252467155 -0.007898986339569092
v 0 0.015569980256259441 -0.008501945994794369
v -0.00019999999494757503 0.018186980858445168 -0.01049994956701994
v 0 0.016937969252467155 -0.007898986339569092
v 0 0.01834999956190586 0.007931946776807308
v -0.00019999999494757503 0.018186980858445168 0.01049994956701994
v 0 0.017106950283050537 0.007791996002197266
v -0.00019999999494757503 0.018186980858445168 0.01049994956701994
v 0 0.014229949563741684 0.010591980069875717
v 0 0.017106950283050537 0.007791996002197266
v -0.00019999999494757503 0.018186980858445168 0.01049994956701994
v 0 0.013875960372388363 0.01285696029663086
v 0 0.014229949563741684 0.010591980069875717
v -0.00019999999494757503 0.018186980858445168 0.01049994956701994
v 0 0.0143849803134799 0.013818969950079918
v 0 0.013875960372388363 0.01285696029663086
v 0 0.0005660000024363399 0.018683960661292076
v 0 0.0012659430503845215 0.017694950103759766
v -0.00019999999494757503 0.005434988997876644 0.02028398960828781
v -0.00019999999494757503 0.005434988997876644 0.02028398960828781
v 0 0.00665998412296176 0.01849197968840599
v 0 0.008073984645307064 0.01849197968840599
v 0 -0.020022980868816376 -0.00020700000459328294
v 0 -0.020600970834493637 -0.0028719899710267782
v 0 -0.019456980749964714 -0.0007730000070296228
v 0 -0.020600970834493637 -0.0028719899710267782
v 0 -0.017694950103759766 -0.0012659430503845215
v 0 -0.019456980749964714 -0.0007730000070296228
v 0 -0.020600970834493637 -0.0028719899710267782
v 0 -0.01857995055615902 -0.007276951801031828
v 0 -0.017694950103759766 -0.0012659430503845215
v 0 -0.01857995055615902 -0.007276951801031828
v -0.00019999999494757503 -0.016433950513601303 -0.0061299800872802734
v 0 -0.017694950103759766 -0.0012659430503845215
v -0.00019999999494757503 -0.0012509820517152548 -0.017494969069957733
v -0.00019999999494757503 -0.0061299800872802734 -0.016433950513601303
v 0 -0.0005660000024363399 -0.018683960661292076
v -0.0012909770011901855 -0.01195198018103838 0.01283698994666338
v -0.00019999999494757503 -0.01240294985473156 0.01240294985473156
v -0.0012909770011901855 -0.015084980055689812 0.008949995040893555
v -0.00019999999494757503 -0.01240294985473156 0.01240294985473156
v 0 -0.015569980256259441 0.008501945994794369
v -0.0012909770011901855 -0.015084980055689812 0.008949995040893555
v 0 -0.015569980256259441 0.008501945994794369
v -0.0012909770011901855 -0.01699494943022728 0.004337965976446867
v -0.0012909770011901855 -0.015084980055689812 0.008949995040893555
v 0 -0.015569980256259441 0.008501945994794369
v 0 -0.017334990203380585 0.003770946990698576
v -0.0012909770011901855 -0.01699494943022728 0.004337965976446867
v 0 -0.017334990203380585 0.003770946990698576
v -0.0012909770011901855 -0.017528949305415154 -0.0006259999936446548
v -0.0012909770011901855 -0.01699494943022728 0.004337965976446867
v 0 -0.017334990203380585 0.003770946990698576
v 0 -0.017694950103759766 -0.0012659430503845215
v -0.0012909770011901855 -0.017528949305415154 -0.0006259999936446548
v 0 -0.017694950103759766 -0.0012659430503845215
v -0.0012909770011901855 -0.016641970723867416 -0.005539000034332275
v -0.0012909770011901855 -0.017528949305415154 -0.0006259999936446548
v 0 -0.017694950103759766 -0.0012659430503845215
v -0.00019999999494757503 -0.016433950513601303 -0.0061299800872802734
v -0.0012909770011901855 -0.016641970723867416 -0.005539000034332275
v -0.00019999999494757503 -0.016433950513601303 -0.0061299800872802734
v -0.0012909770011901855 -0.01440798956900835 -0.01000296976417303
v -0.0012909770011901855 -0.016641970723867416 -0.005539000034332275
v -0.00019999999494757503 -0.016433950513601303 -0.0061299800872802734
v 0 -0.014201990328729153 -0.010630959644913673
v -0.0012909770011901855 -0.01440798956900835 -0.01000296976417303
v 0 -0.014201990328729153 -0.010630959644913673
v -0.0012909770011901855 -0.011005990207195282 -0.013656970113515854
v -0.0012909770011901855 -0.01440798956900835 -0.01000296976417303
v 0 -0.014201990328729153 -0.010630959644913673
v 0 -0.010630959644913673 -0.014201990328729153
v -0.0012909770011901855 -0.011005990207195282 -0.013656970113515854
v 0 -0.010630959644913673 -0.014201990328729153
v -0.0012909770011901855 -0.006711958907544613 -0.016204949468374252
v -0.0012909770011901855 -0.011005990207195282 -0.013656970113515854
v 0 -0.010630959644913673 -0.014201990328729153
v -0.00019999999494757503 -0.0061299800872802734 -0.016433950513601303
v -0.0012909770011901855 -0.006711958907544613 -0.016204949468374252
v -0.00019999999494757503 -0.0061299800872802734 -0.016433950513601303
v -0.0012909770011901855 -0.0018749829614534974 -0.017439959570765495
v -0.0012909770011901855 -0.006711958907544613 -0.016204949468374252
v -0.00019999999494757503 -0.0061299800872802734 -0.016433950513601303
v -0.00019999999494757503 -0.0012509820517152548 -0.017494969069957733
v -0.0012909770011901855 -0.0018749829614534974 -0.017439959570765495
v -0.00019999999494757503 -0.0012509820517152548 -0.017494969069957733
v -0.0012909770011901855 0.003113985061645508 -0.0172609593719244
v -0.0012909770011901855 -0.0018749829614534974 -0.017439959570765495
v -0.00019999999494757503 -0.0012509820517152548 -0.017494969069957733
v 0 0.003770946990698576 -0.017334990203380585
v -0.0012909770011901855 0.003113985061645508 -0.0172609593719244
v 0 0.003770946990698576 -0.017334990203380585
v -0.0012909770011901855 0.007850944064557552 -0.015684960409998894
v -0.0012909770011901855 0.003113985061645508 -0.0172609593719244
v 0 0.003770946990698576 -0.017334990203380585
v 0 0.008501945994794369 -0.015569980256259441
v -0.0012909770011901855 0.007850944064557552 -0.015684960409998894
v -0.0012909770011901855 0.01195198018103838 -0.01283698994666338
v 0 0.008501945994794369 -0.015569980256259441
v -0.00019999999494757503 0.01240294985473156 -0.01240294985473156
v -0.0012909770011901855 0.01195198018103838 -0.01283698994666338
v -0.0012909770011901855 0.007850944064557552 -0.015684960409998894
v 0 0.008501945994794369 -0.015569980256259441
v -0.0012909770011901855 0.01195198018103838 -0.01283698994666338
v -0.00019999999494757503 0.01240294985473156 -0.01240294985473156
v -0.0012909770011901855 0.015084980055689812 -0.008949995040893555
v -0.00019999999494757503 0.01240294985473156 -0.01240294985473156
v 0 0.015569980256259441 -0.008501945994794369
v -0.0012909770011901855 0.015084980055689812 -0.008949995040893555
v 0 0.015569980256259441 -0.008501945994794369
v -0.0012909770011901855 0.01699494943022728 -0.004337965976446867
v -0.0012909770011901855 0.015084980055689812 -0.008949995040893555
v 0 0.015569980256259441 -0.008501945994794369
v -0.00019999999494757503 0.017138950526714325 -0.0037279720418155193
v -0.0012909770011901855 0.01699494943022728 -0.004337965976446867
v -0.00019999999494757503 0.017138950526714325 -0.0037279720418155193
v -0.0012909770011901855 0.017528949305415154 0.0006259999936446548
v -0.0012909770011901855 0.01699494943022728 -0.004337965976446867
v -0.00019999999494757503 0.017138950526714325 -0.0037279720418155193
v -0.00019999999494757503 0.017494969069957733 0.0012509820517152548
v -0.0012909770011901855 0.017528949305415154 0.0006259999936446548
v -0.00019999999494757503 0.017494969069957733 0.0012509820517152548
v -0.0012909770011901855 0.016641970723867416 0.005539000034332275
v -0.0012909770011901855 0.017528949305415154 0.0006259999936446548
v -0.00019999999494757503 0.017494969069957733 0.0012509820517152548
v -0.00019999999494757503 0.016433950513601303 0.0061299800872802734
v -0.0012909770011901855 0.016641970723867416 0.005539000034332275
v -0.00019999999494757503 0.016433950513601303 0.0061299800872802734
v -0.0012909770011901855 0.01440798956900835 0.01000296976417303
v -0.0012909770011901855 0.016641970723867416 0.005539000034332275
v -0.00019999999494757503 0.016433950513601303 0.0061299800872802734
v 0 0.014229949563741684 0.010591980069875717
v -0.0012909770011901855 0.01440798956900835 0.01000296976417303
v 0 0.014229949563741684 0.010591980069875717
v -0.0012909770011901855 0.011005990207195282 0.013656970113515854
v -0.0012909770011901855 0.01440798956900835 0.01000296976417303
v 0 0.014229949563741684 0.010591980069875717
v -0.00019999999494757503 0.010510980151593685 0.014040940441191196
v -0.0012909770011901855 0.011005990207195282 0.013656970113515854
v -0.00019999999494757503 0.010510980151593685 0.014040940441191196
v -0.0012909770011901855 0.006711958907544613 0.016204949468374252
v -0.0012909770011901855 0.011005990207195282 0.013656970113515854
v -0.00019999999494757503 0.010510980151593685 0.014040940441191196
v -0.00019999999494757503 0.0061299800872802734 0.016433950513601303
v -0.0012909770011901855 0.006711958907544613 0.016204949468374252
v -0.00019999999494757503 0.0061299800872802734 0.016433950513601303
v -0.0012909770011901855 0.0018749829614534974 0.017439959570765495
v -0.0012909770011901855 0.006711958907544613 0.016204949468374252
v -0.00019999999494757503 0.0061299800872802734 0.016433950513601303
v 0 0.0012659430503845215 0.017694950103759766
v -0.0012909770011901855 0.0018749829614534974 0.017439959570765495
v 0 0.0012659430503845215 0.017694950103759766
v -0.0012909770011901855 -0.003113985061645508 0.0172609593719244
v -0.0012909770011901855 0.0018749829614534974 0.017439959570765495
v 0 0.0012659430503845215 0.017694950103759766
v -0.00019999999494757503 -0.0037279720418155193 0.017138950526714325
v -0.0012909770011901855 -0.003113985061645508 0.0172609593719244
v -0.00019999999494757503 -0.0037279720418155193 0.017138950526714325
v -0.0012909770011901855 -0.007850944064557552 0.015684960409998894
v -0.0012909770011901855 -0.003113985061645508 0.0172609593719244
v -0.00019999999494757503 -0.0037279720418155193 0.017138950526714325
v 0 -0.008501945994794369 0.015569980256259441
v -0.0012909770011901855 -0.007850944064557552 0.015684960409998894
v -0.0012909770011901855 -0.01195198018103838 0.01283698994666338
v 0 -0.008501945994794369 0.015569980256259441
v -0.00019999999494757503 -0.01240294985473156 0.01240294985473156
v -0.0012909770011901855 -0.01195198018103838 0.01283698994666338
v -0.0012909770011901855 -0.007850944064557552 0.015684960409998894
v 0 -0.008501945994794369 0.015569980256259441
v 0 0.017077980563044548 -0.00665998412296176
v -0.00019999999494757503 0.017138950526714325 -0.0037279720418155193
v 0 0.015569980256259441 -0.008501945994794369
v -0.00019999999494757503 0.016433950513601303 0.0061299800872802734
v -0.00019999999494757503 0.017494969069957733 0.0012509820517152548
v 0 0.018476959317922592 -0.00020700000459328294
v -0.00019999999494757503 0.017138950526714325 -0.0037279720418155193
v 0 0.018476959317922592 -0.00020700000459328294
v -0.00019999999494757503 0.017494969069957733 0.0012509820517152548
v -0.00019999999494757503 0.017138950526714325 -0.0037279720418155193
v 0 0.017077980563044548 -0.00665998412296176
v 0 0.018476959317922592 -0.00020700000459328294
v 0 0.0076249828562140465 0.016819000244140625
v -0.00019999999494757503 0.0061299800872802734 0.016433950513601303
v -0.00019999999494757503 0.010510980151593685 0.014040940441191196
vt 0 0
vt 0 0
vt 0 0
vt 0 0
vt 0 0
vt 0 0
vt 0 0
vt 0 0
vt 0 0
vt 0 0
vt 0 0
vt 0 0
vt 0 0
vt 0 0
vt 0 0
vt 0 0
vt 0 0
vt 0 0
vt 0 0
vt 0 0
vt 0 0
vt 0 0
vt 0 0
vt 0 0
vt 0 0
vt 0 0
vt 0 0
vt 0 0
vt 0 0
vt 0 0
vt 0 0
vt 0 0
vt 0 0
vt 0 0
vt 0 0
vt 0 0
vt 0 0
vt 0 0
vt 0 0
vt 0 0
vt 0 0
vt 0 0
vt 0 0
vt 0 0
vt 0 0
vt 0 0
vt 0 0
vt 0 0
vt 0 0
vt 0 0
vt 0 0
vt 0 0
vt 0 0
vt 0 0
vt 0 0
vt 0 0
vt 0 0
vt 0 0
vt 0 0
vt 0 0
vt 0 0
vt 0 0
vt 0 0
vt 0 0
vt 0 0
vt 0 0
vt 0 0
vt 0 0
vt 0 0
vt 0 0
vt 0 0
vt 0 0
vt 0 0
vt 0 0
vt 0 0
vt 0 0
vt 0 0
vt 0 0
vt 0 0
vt 0 0
vt 0 0
vt 0 0
vt 0 0
vt 0 0
vt 0 0
vt 0 0
vt 0 0
vt 0 0
vt 0 0
vt 0 0
vt 0 0
vt 0 0
vt 0 0
vt 0 0
vt 0 0
vt 0 0
vt 0 0
vt 0 0
vt 0 0
vt 0 0
vt 0 0
vt 0 0
vt 0 0
vt 0 0
vt 0 0
vt 0 0
vt 0 0
vt 0 0
vt 0 0
vt 0 0
vt 0 0
vt 0 0
vt 0 0
vt 0 0
vt 0 0
vt 0 0
vt 0 0
vt 0 0
vt 0 0
vt 0 0
vt 0 0
vt 0 0
vt 0 0
vt 0 0
vt 0 0
vt 0 0
vt 0 0
vt 0 0
vt 0 0
vt 0 0
vt 0 0
vt 0 0
vt 0 0
vt 0 0
vt 0 0
vt 0 0
vt 0 0
vt 0 0
vt 0 0
vt 0 0
vt 0 0
vt 0 0
vt 0 0
vt 0 0
vt 0 0
vt 0 0
vt 0 0
vt 0 0
vt 0 0
vt 0 0
vt 0 0
vt 0 0
vt 0 0
vt 0 0
vt 0 0
vt 0 0
vt 0 0
vt 0 0
vt 0 0
vt 0 0
vt 0 0
vt 0 0
vt 0 0
vt 0 0
vt 0 0
vt 0 0
vt 0 0
vt 0 0
vt 0 0
vt 0 0
vt 0 0
vt 0 0
vt 0 0
vt 0 0
vt 0 0
vt 0 0
vt 0 0
vt 0 0
vt 0 0
vt 0 0
vt 0 0
vt 0 0
vt 0 0
vt 0 0
vt 0 0
vt 0 0
vt 0 0
vt 0 0
vt 0 0
vt 0 0
vt 0 0
vt 0 0
vt 0 0
vt 0 0
vt 0 0
vt 0 0
vt 0 0
vt 0 0
vt 0 0
vt 0 0
vt 0 0
vt 0 0
vt 0 0
vt 0 0
vt 0 0
vt 0 0
vt 0 0
vt 0 0
vt 0 0
vt 0 0
vt 0 0
vt 0 0
vt 0 0
vt 0 0
vt 0 0
vt 0 0
vt 0 0
vt 0 0
vt 0 0
vt 0 0
vt 0 0
vt 0 0
vt 0 0
vt 0 0
vt 0 0
vt 0 0
vt 0 0
vt 0 0
vt 0 0
vt 0 0
vt 0 0
vt 0 0
vt 0 0
vt 0 0
vt 0 0
vt 0 0
vt 0 0
vt 0 0
vt 0 0
vt 0 0
vt 0 0
vt 0 0
vt 0 0
vt 0 0
vt 0 0
vt 0 0
vt 0 0
vt 0 0
vt 0 0
vt 0 0
vt 0 0
vt 0 0
vt 0 0
vt 0 0
vt 0 0
vt 0 0
vt 0 0
vt 0 0
vt 0 0
vt 0 0
vt 0 0
vt 0 0
vt 0 0
vt 0 0
vt 0 0
vt 0 0
vt 0 0
vt 0 0
vt 0 0
vt 0 0
vt 0 0
vt 0 0
vt 0 0
vt 0 0
vt 0 0
vt 0 0
vt 0 0
vt 0 0
vt 0 0
vt 0 0
vt 0 0
vt 0 0
vt 0 0
vt 0 0
vt 0 0
vt 0 0
vt 0 0
vt 0 0
vt 0 0
vt 0 0
vt 0 0
vt 0 0
vt 0 0
vt 0 0
vt 0 0
vt 0 0
vt 0 0
vt 0 0
vt 0 0
vt 0 0
vt 0 0
vt 0 0
vt 0 0
vt 0 0
vt 0 0
vt 0 0
vt 0 0
vt 0 0
vt 0 0
vt 0 0
vt 0 0
vt 0 0
vt 0 0
vt 0 0
vt 0 0
vt 0 0
vt 0 0
vt 0 0
vt 0 0
vt 0 0
vt 0 0
vt 0 0
vt 0 0
vt 0 0
vt 0 0
vt 0 0
vt 0 0
vt 0 0
vt 0 0
vt 0 0
vt 0 0
vt 0 0
vt 0 0
vt 0 0
vt 0 0
vt 0 0
vt 0 0
vt 0 0
vt 0 0
vt 0 0
vt 0 0
vt 0 0
vt 0 0
vt 0 0
vt 0 0
vt 0 0
vt 0 0
vt 0 0
vt 0 0
vt 0 0
vt 0 0
vt 0 0
vt 0 0
vt 0 0
vt 0 0
vt 0 0
vt 0 0
vt 0 0
vt 0 0
vt 0 0
vt 0 0
vt 0 0
vt 0 0
vt 0 0
vt 0 0
vt 0 0
vt 0 0
vt 0 0
vt 0 0
vt 0 0
vt 0 0
vt 0 0
vt 0 0
vt 0 0
vt 0 0
vt 0 0
vt 0 0
vt 0 0
vt 0 0
vt 0 0
vt 0 0
vt 0 0
vt 0 0
vt 0 0
vt 0 0
vt 0 0
vt 0 0
vt 0 0
vt 0 0
vt 0 0
vt 0 0
vt 0 0
vt 0 0
vt 0 0
vt 0 0
vt 0 0
vt 0 0
vt 0 0
vt 0 0
vt 0 0
vt 0 0
vt 0 0
vt 0 0
vt 0 0
vt 0 0
vt 0 0
vt 0 0
vt 0 0
vt 0 0
vt 0 0
vt 0 0
vt 0 0
vt 0 0
vt 0 0
vt 0 0
vt 0 0
vt 0 0
vt 0 0
vt 0 0
vt 0 0
vt 0 0
vt 0 0
vt 0 0
vt 0 0
vt 0 0
vt 0 0
vt 0 0
vt 0 0
vt 0 0
vt 0 0
vt 0 0
vt 0 0
vt 0 0
vt 0 0
vt 0 0
vt 0 0
vt 0 0
vt 0 0
vt 0 0
vt 0 0
vt 0 0
vt 0 0
vt 0 0
vt 0 0
vt 0 0
vt 0 0
vt 0 0
vt 0 0
vt 0 0
vt 0 0
vt 0 0
vt 0 0
vt 0 0
vt 0 0
vt 0 0
vt 0 0
vt 0 0
vt 0 0
vt 0 0
vt 0 0
vt 0 0
vt 0 0
vt 0 0
vt 0 0
vt 0 0
vt 0 0
vt 0 0
vt 0 0
vt 0 0
vt 0 0
vt 0 0
vt 0 0
vt 0 0
vt 0 0
vt 0 0
vt 0 0
vt 0 0
vt 0 0
vt 0 0
vt 0 0
vt 0 0
vt 0 0
vt 0 0
vt 0 0
vt 0 0
vt 0 0
vt 0 0
vt 0 0
vt 0 0
vt 0 0
vt 0 0
vt 0 0
vt 0 0
vt 0 0
vt 0 0
vt 0 0
vt 0 0
vt 0 0
vt 0 0
vt 0 0
vt 0 0
vt 0 0
vt 0 0
vt 0 0
vt 0 0
vt 0 0
vt 0 0
vt 0 0
vt 0 0
vt 0 0
vt 0 0
vt 0 0
vt 0 0
vt 0 0
vt 0 0
vt 0 0
vt 0 0
vt 0 0
vt 0 0
vt 0 0
vt 0 0
vt 0 0
vt 0 0
vt 0 0
vt 0 0
vt 0 0
vt 0 0
vt 0 0
vt 0 0
vt 0 0
vt 0 0
vt 0 0
vt 0 0
vt 0 0
vt 0 0
vt 0 0
vt 0 0
vt 0 0
vt 0 0
vt 0 0
vt 0 0
vt 0 0
vt 0 0
vt 0 0
vt 0 0
vt 0 0
vt 0 0
vt 0 0
vt 0 0
vt 0 0
vt 0 0
vt 0 0
vt 0 0
vt 0 0
vt 0 0
vt 0 0
vt 0 0
vt 0 0
vt 0 0
vt 0 0
vt 0 0
vt 0 0
vt 0 0
vt 0 0
vt 0 0
vt 0 0
vt 0 0
vt 0 0
vt 0 0
vt 0 0
vt 0 0
vt 0 0
vt 0 0
vt 0 0
vt 0 0
vt 0 0
vt 0 0
vt 0 0
vt 0 0
vt 0 0
vt 0 0
vt 0 0
vt 0 0
vt 0 0
vt 0 0
vt 0 0
vt 0 0
vt 0 0
vt 0 0
vt 0 0
vt 0 0
vt 0 0
vt 0 0
vt 0 0
vt 0 0
vt 0 0
vt 0 0
vt 0 0
vt 0 0
vt 0 0
vt 0 0
vt 0 0
vt 0 0
vt 0 0
vt 0 0
vt 0 0
vt 0 0
vt 0 0
vt 0 0
vt 0 0
vt 0 0
vt 0 0
vt 0 0
vt 0 0
vt 0 0
vt 0 0
vt 0 0
vt 0 0
vt 0 0
vt 0 0
vt 0 0
vt 0 0
vt 0 0
vt 0 0
vt 0 0
vt 0 0
vt 0 0
vt 0 0
vt 0 0
vt 0 0
vt 0 0
vt 0 0
vt 0 0
vt 0 0
vt 0 0
vt 0 0
vt 0 0
vt 0 0
vt 0 0
vt 0 0
vt 0 0
vt 0 0
vt 0 0
vt 0 0
vt 0 0
vt 0 0
vt 0 0
vt 0 0
vt 0 0
vt 0 0
vt 0 0
vt 0 0
vt 0 0
vt 0 0
vt 0 0
vt 0 0
vt 0 0
vt 0 0
vt 0 0
vt 0 0
vt 0 0
vt 0 0
vt 0 0
vt 0 0
vt 0 0
vt 0 0
vt 0 0
vt 0 0
vt 0 0
vt 0 0
vt 0 0
vt 0 0
vt 0 0
vt 0 0
vt 0 0
vt 0 0
vt 0 0
vt 0 0
vt 0 0
vt 0 0
vt 0 0
vt 0 0
vt 0 0
vt 0 0
vt 0 0
vt 0 0
vt 0 0
vt 0 0
vt 0 0
vt 0 0
vt 0 0
vt 0 0
vt 0 0
vt 0 0
vt 0 0
vt 0 0
vt 0 0
vt 0 0
vt 0 0
vt 0 0
vt 0 0
vt 0 0
vn 0 -0.6088641303966864 0.7932745241820682
vn 0 -0.6088641303966864 0.7932745241820682
vn 0 -0.6088641303966864 0.7932745241820682
vn 0 -0.6088643667962559 0.7932743427376145
vn 0 -0.6088643667962559 0.7932743427376145
vn 0 -0.6088643667962559 0.7932743427376145
vn 0 -0.3825291026330541 0.9239434428788108
vn 0 -0.3825291026330541 0.9239434428788108
vn 0 -0.3825291026330541 0.9239434428788108
vn 0 -0.38252927634778167 0.9239433709577889
vn 0 -0.38252927634778167 0.9239433709577889
vn 0 -0.38252927634778167 0.9239433709577889
vn 0 -0.1306099925883303 0.991433825243055
vn 0 -0.1306099925883303 0.991433825243055
vn 0 -0.1306099925883303 0.991433825243055
vn 0 -0.1306099925883303 0.991433825243055
vn 0 -0.1306099925883303 0.991433825243055
vn 0 -0.1306099925883303 0.991433825243055
vn 0 0.1306099925883303 0.991433825243055
vn 0 0.1306099925883303 0.991433825243055
vn 0 0.1306099925883303 0.991433825243055
vn 0 0.1306099925883303 0.991433825243055
vn 0 0.1306099925883303 0.991433825243055
vn 0 0.1306099925883303 0.991433825243055
vn 0 0.38252920002361357 0.9239434025573722
vn 0 0.38252920002361357 0.9239434025573722
vn 0 0.38252920002361357 0.9239434025573722
vn 0 0.38252920002361357 0.9239434025573722
vn 0 0.38252920002361357 0.9239434025573722
vn 0 0.38252920002361357 0.9239434025573722
vn 0 0.6088643667962559 0.7932743427376145
vn 0 0.6088643667962559 0.7932743427376145
vn 0 0.6088643667962559 0.7932743427376145
vn 0 0.6088641303966864 0.7932745241820682
vn 0 0.6088641303966864 0.7932745241820682
vn 0 0.6088641303966864 0.7932745241820682
vn 0 0.7932741900819299 0.6088645656875247
vn 0 0.7932741900819299 0.6088645656875247
vn 0 0.7932741900819299 0.6088645656875247
vn 0 0.7932747565116244 0.6088638276999406
vn 0 0.7932747565116244 0.6088638276999406
vn 0 0.7932747565116244 0.6088638276999406
vn 0 0.9239436270421503 0.3825286578129743
vn 0 0.9239436270421503 0.3825286578129743
vn 0 0.9239436270421503 0.3825286578129743
vn 0 0.9239432394601768 0.3825295939608264
vn 0 0.9239432394601768 0.3825295939608264
vn 0 0.9239432394601768 0.3825295939608264
vn 0 0.9914337316067087 0.13061070336077685
vn 0 0.9914337316067087 0.13061070336077685
vn 0 0.9914337316067087 0.13061070336077685
vn 0 0.9914338764285601 0.13060960404900754
vn 0 0.9914338764285601 0.13060960404900754
vn 0 0.9914338764285601 0.13060960404900754
vn 0 0.991477651224906 -0.13027688636724394
vn 0 0.991477651224906 -0.13027688636724394
vn 0 0.991477651224906 -0.13027688636724394
vn -2.695689760176662e-7 0.9914775057591916 -0.13027799343503665
vn 0 0.9914775057592277 -0.1302779934350414
vn 0 0.9914775057592277 -0.1302779934350414
vn 0 0.9239432078605659 -0.38252967028496876
vn 0 0.9239432078605659 -0.38252967028496876
vn 0 0.9239432078605659 -0.38252967028496876
vn 0 0.9239436077871285 -0.3825287043207408
vn 0 0.9239436077871285 -0.3825287043207408
vn 0 0.9239436077871285 -0.3825287043207408
vn 0 0.7932747056264526 -0.6088638939970614
vn 0 0.7932747056264526 -0.6088638939970614
vn 0 0.7932747056264526 -0.6088638939970614
vn 0 0.7932741900819299 -0.6088645656875247
vn 0 0.7932741900819299 -0.6088645656875247
vn 0 0.7932741900819299 -0.6088645656875247
vn 0 0.6088641303966864 -0.7932745241820682
vn 0 0.6088641303966864 -0.7932745241820682
vn 0 0.6088641303966864 -0.7932745241820682
vn 0 0.6088643667962559 -0.7932743427376145
vn 0 0.6088643667962559 -0.7932743427376145
vn 0 0.6088643667962559 -0.7932743427376145
vn 0 0.3825291026330541 -0.9239434428788108
vn 0 0.3825291026330541 -0.9239434428788108
vn 0 0.3825291026330541 -0.9239434428788108
vn 0 0.38252927634778167 -0.9239433709577889
vn 0 0.38252927634778167 -0.9239433709577889
vn 0 0.38252927634778167 -0.9239433709577889
vn 0 0.1306099925883303 -0.991433825243055
vn 0 0.1306099925883303 -0.991433825243055
vn 0 0.1306099925883303 -0.991433825243055
vn 0 0.1306099925883303 -0.991433825243055
vn 0 0.1306099925883303 -0.991433825243055
vn 0 0.1306099925883303 -0.991433825243055
vn 0 -0.1306099925883303 -0.991433825243055
vn 0 -0.1306099925883303 -0.991433825243055
vn 0 -0.1306099925883303 -0.991433825243055
vn 0 -0.1306099925883303 -0.991433825243055
vn 0 -0.1306099925883303 -0.991433825243055
vn 0 -0.1306099925883303 -0.991433825243055
vn 0 -0.38252920002361357 -0.9239434025573722
vn 0 -0.38252920002361357 -0.9239434025573722
vn 0 -0.38252920002361357 -0.9239434025573722
vn 0 -0.38252920002361357 -0.9239434025573722
vn 0 -0.38252920002361357 -0.9239434025573722
vn 0 -0.38252920002361357 -0.9239434025573722
vn 0 -0.6088643667962559 -0.7932743427376145
vn 0 -0.6088643667962559 -0.7932743427376145
vn 0 -0.6088643667962559 -0.7932743427376145
vn 0 -0.6088641303966864 -0.7932745241820682
vn 0 -0.6088641303966864 -0.7932745241820682
vn 0 -0.6088641303966864 -0.7932745241820682
vn 0 -0.7932741900819299 -0.6088645656875247
vn 0 -0.7932741900819299 -0.6088645656875247
vn 0 -0.7932741900819299 -0.6088645656875247
vn 0 -0.7932747565116244 -0.6088638276999406
vn 0 -0.7932747565116244 -0.6088638276999406
vn 0 -0.7932747565116244 -0.6088638276999406
vn 0 -0.9239436270421503 -0.3825286578129743
vn 0 -0.9239436270421503 -0.3825286578129743
vn 0 -0.9239436270421503 -0.3825286578129743
vn 0 -0.9239432394601768 -0.3825295939608264
vn 0 -0.9239432394601768 -0.3825295939608264
vn 0 -0.9239432394601768 -0.3825295939608264
vn 0 -0.9914337316067087 -0.13061070336077685
vn 0 -0.9914337316067087 -0.13061070336077685
vn 0 -0.9914337316067087 -0.13061070336077685
vn 0 -0.9914338764285601 -0.13060960404900754
vn 0 -0.9914338764285601 -0.13060960404900754
vn 0 -0.9914338764285601 -0.13060960404900754
vn 0 -0.991477651224906 0.13027688636724394
vn 0 -0.991477651224906 0.13027688636724394
vn 0 -0.991477651224906 0.13027688636724394
vn -2.695689760176662e-7 -0.9914775057591916 0.13027799343503665
vn 0 -0.9914775057592277 0.1302779934350414
vn 0 -0.9914775057592277 0.1302779934350414
vn 0 -0.9239432078605659 0.38252967028496876
vn 0 -0.9239432078605659 0.38252967028496876
vn 0 -0.9239432078605659 0.38252967028496876
vn 0 -0.9239436077871285 0.3825287043207408
vn 0 -0.9239436077871285 0.3825287043207408
vn 0 -0.9239436077871285 0.3825287043207408
vn 0 -0.7932747056264526 0.6088638939970614
vn 0 -0.7932747056264526 0.6088638939970614
vn 0 -0.7932747056264526 0.6088638939970614
vn 0 -0.7932741900819299 0.6088645656875247
vn 0 -0.7932741900819299 0.6088645656875247
vn 0 -0.7932741900819299 0.6088645656875247
vn 0.42676679235465725 -0.8402974789771044 -0.3343205823278603
vn 0.42676719332855895 -0.8403360111686983 -0.33422320540552813
vn 0.42676708054430673 -0.8403182616359463 -0.3342679735254794
vn 0.10414799279562455 -0.9860564448274685 -0.12979169160950357
vn 0.10414799017707034 -0.9860564200354184 -0.1297918820612896
vn 0.10414799158706152 -0.986056433384988 -0.12979177951032966
vn 0.10409909927039576 -0.12979489184872456 0.9860611865300603
vn 0.10409909660949346 -0.12979500212881598 0.9860611722948368
vn 0.10409910047842037 -0.12979480394797205 0.98606119797287
vn 0.7056804814068319 -0.24322189110335743 0.6654758972716657
vn 0.7056814545193943 -0.24316698702311568 0.6654949294844341
vn 0.7056809129107073 -0.24319140824609756 0.6654865799614524
vn 0.9999999997108557 0.000005502250131258496 0.000023409700581903643
vn 0.9999999997123852 0.000005081300058366752 0.00002343949926633976
vn 0.99999999944656 0.000026071400483611065 0.000020667899650491837
vn 0.9999999997254221 0.000007063149949197053 0.000022344300298986326
vn 0.9999999997293507 0.000019371500451812052 0.000012885800057270369
vn 0.9999999997500801 0.000016512400175508955 0.00001507249998745304
vn 0.9999999997034223 -0.000023707700158655956 0.0000055767600298908934
vn 0.9999999997035363 -0.000023797199894254787 0.000005159529790324243
vn 0.9999999994369508 -0.00002102550023390318 0.00002615390074771191
vn 0.9999999991629263 -0.000025525700017630562 -0.000031977899171186824
vn 0.9999999991928954 -0.000013519999800339128 -0.000037834099172346425
vn 0.9999999991244708 -0.000028788999745562377 -0.000030368599228282193
vn 0.9999999999940468 0.0000010170000450610525 -0.0000032973500765169016
vn 0.9999999999728204 -0.000005380949914833031 0.00000504032004741873
vn 0.9999999999982234 0 -0.000001884999960562998
vn 0.9999999999058125 0.000012710699592101879 0.000005178149876395536
vn 0.9999999999121856 0.000007249419922391141 0.000011093899955930147
vn 0.9999999999105429 0.000007051979991325764 0.000011365899807862716
vn 1 0 0
vn 1 0 0
vn 1 0 0
vn 0.9999999993763571 -0.00002158429923401817 -0.000027953599765926033
vn 0.99999999937638 -0.000017278800431224512 -0.00003080070016847517
vn 0.999999999378306 -0.0000183061001621233 -0.000030137600314809923
vn 0.9999999990997224 0.000016052299528483107 0.00003927950088938685
vn 0.9999999990915627 -0.0000013820799709897318 0.0000426024016246148
vn 0.9999999991303998 0.000004898759921448911 0.00004141500172445526
vn 0.999999999649362 -0.000015206600432190854 -0.000021680300043628068
vn 0.9999999996904838 -0.000021584299240798375 -0.000012375399815744864
vn 0.9999999996821662 -0.00002307440080761478 -0.000010160700181995
vn 1 0 0
vn 1 0 0
vn 1 0 0
vn 0.999999999990788 0.0000011511100410537809 0.000004135069957517878
vn 0.9999999999980345 -0.0000012461099458935742 0.0000015422699561865257
vn 0.9999999999962326 -0.0000027449600565784108 0
vn 1 0 0
vn 1 0 0
vn 1 0 0
vn 0.999999999784031 -0.0000020396000759462145 0.00002068280081865728
vn 0.9999999998269555 -0.000009994239915702976 0.000015690900906533514
vn 0.9999999998201632 -0.000012978899574076102 0.000013828300322771331
vn 0.9999999984471721 0.00001797450019631578 0.000052750099630372455
vn 0.9999999987716401 -0.000006671989914128824 0.00004911419813076151
vn 0.9999999981046503 -0.000043500200180776456 0.00004357099888620708
vn 1 0 0
vn 1 0 0
vn 1 0 0
vn 0.9999999999935323 0.0000029969999104457085 -0.0000019883700588123795
vn 0.9999999999961249 0.0000026901300316135696 7.166530053809279e-7
vn 0.999999999995046 0.000002909449904094938 -0.000001201409986600498
vn 0.9999999988089043 0.000020644600202070564 0.00004422659907693724
vn 0.9999999988706789 0.000006433579976156955 0.00004708769842321192
vn 0.999999998874227 0.000007979569991332832 0.00004677470127908441
vn 1 0 0
vn 1 0 0
vn 1 0 0
vn 1 0 0
vn 1 0 0
vn 1 0 0
vn 1 0 0
vn 1 0 0
vn 1 0 0
vn 0.9999999998503006 -0.000013813400071491167 0.000010420600118127194
vn 0.9999999998876843 -0.000014923500201036459 -0.0000013858100372352628
vn 0.9999999998634514 -0.00001535559931443873 -0.000006107609805515516
vn 0.9999999999280489 0.000008953739779182488 -0.00000798329983751358
vn 0.9999999999271392 0.0000073835299184870524 -0.000009550130015882065
vn 0.9999999999220706 0.000010963500243688576 -0.000005971639893221731
vn 0.9999999997681319 -0.0000205933993081543 -0.00000629667010652585
vn 0.9999999998057603 -0.00001709159914421413 0.000009816139934540459
vn 0.9999999998052012 -0.00001963969952684556 -0.0000019697499734121373
vn 1 0 0
vn 1 0 0
vn 1 0 0
vn 1 0 0
vn 1 0 0
vn 1 0 0
vn 0.9999999985268093 0.000005193050120932046 0.00005403159949535633
vn 0.9999999983324996 -0.0000035911800691026664 0.000057637698677649465
vn 0.9999999985319024 0.00003430249848372954 0.00004194680144090842
vn 0.9999999987427921 -0.000008534640063046428 -0.00004941230138838059
vn 0.9999999985562611 -0.00003235790058955428 -0.000042900399359404744
vn 0.9999999987426442 -0.000018402899490464196 -0.00004664809961060206
vn 1 0 0
vn 1 0 0
vn 1 0 0
vn 0.9999999989833928 0.000028779699248690007 0.000034712298621525025
vn 0.9999999989682642 0.000031366900624941274 0.000032857100416301116
vn 0.999999998980833 0.00002264229985906 0.00003905970148137407
vn 0.9999999992662427 0.00003601560090004889 0.000013053399915833187
vn 0.9999999992709354 0.00003678349819030136 0.00001025199980338752
vn 0.9999999992705966 0.00003687640125501783 0.000009946759739271167
vn 1 0 0
vn 1 0 0
vn 1 0 0
vn 0.9999999999812366 0.000004123899998298768 0.000004529949819613234
vn 0.9999999999719362 -0.000006917859991323475 0.0000028759200176057306
vn 0.9999999999923184 -0.0000011483200523710377 0.0000037476399938608184
vn 1 0 0
vn 1 0 0
vn 1 0 0
vn 1 0 0
vn 1 0 0
vn 1 0 0
vn 0.9999999993981046 0.000001571140045562273 0.00003466010091602789
vn 0.9999999993676361 -0.000011984299809835118 0.000033482898267465885
vn 0.9999999994073989 -0.000004613770212921552 0.000034116201257139294
vn 1 0 0
vn 1 0 0
vn 1 0 0
vn 0.9999999996603834 -0.00002606209999636857 0
vn 0.9999999996233271 -0.000026047200653203972 0.000008653850269562057
vn 0.9999999996327931 -0.0000260547003467586 0.000007454309977211174
vn 0.999999998562823 -0.000053375901111990774 0.000005036590202545282
vn 0.9999999983695314 -0.000056982000294599195 -0.0000037401900893154462
vn 0.9999999985625518 -0.00004132090174124886 0.000034168398948165446
vn 0.9999999992860227 -0.000010162600112400552 0.00003639610074190214
vn 0.9999999992862758 -0.00000985409041483492 0.00003647389891864548
vn 0.9999999992803732 -0.000012971499918181922 0.000035650999026794646
vn 0.9999999993007931 0.00001801920005723067 0.00003276770073608409
vn 0.9999999993595567 0.000003829599788608259 0.00003558399837397032
vn 0.999999999362138 0.00000765827007365167 0.00003488660147516634
vn 1 0 0
vn 1 0 0
vn 1 0 0
vn 0.9999999983324728 0.0000035986299675660447 -0.00005763769867764792
vn 0.9999999985319024 -0.00003430249848372954 -0.00004194680144090842
vn 0.9999999985268382 -0.000005187469916197689 -0.00005403159949535789
vn 0.9999999993601589 -0.000024519900746554357 -0.00002604720064634918
vn 0.9999999995039945 -0.000008076430272554177 -0.00003044309958877187
vn 0.9999999994776525 -0.000015094899928345138 -0.00002858039987002985
vn 0.9999999992027317 -0.00003992770140484858 -5.61600983935657e-7
vn 0.9999999992022008 -0.000039926700960656236 -0.0000012069899630125665
vn 0.9999999991986934 -0.00003992080015889582 -0.0000029904799679254664
vn 0.9999999992454605 -0.000032246098247240146 -0.000021662599448998815
vn 0.9999999992588149 -0.000028401600481496966 -0.000025994599108176696
vn 0.9999999992482966 -0.0000257483006668907 -0.000028990199985891568
vn 1 0 0
vn 1 0 0
vn 1 0 0
vn 0.9999999999258633 0.000011913500201470815 -0.000002518300106926038
vn 0.9999999999062215 -0.000003680589997766667 -0.000013191300239341069
vn 0.9999999999409153 0.000010244500116945777 -0.0000036358799204788716
vn 0.9999999995914413 0.000027030699118638405 -0.000009298320033688518
vn 0.9999999995631212 0.000023469299766226363 -0.000017970800391929213
vn 0.9999999995318469 0.000022053700366675987 -0.00002121179931153296
vn 0.9999999998391327 -0.000006921589828176129 -0.00001654769948533896
vn 0.9999999998328299 -0.000013329099599604923 -0.000012516999957096511
vn 0.9999999996965523 0.000005103649981080885 -0.000024100800139384687
vn 0.9999999996165283 0.000025581599392548004 0.000010607799591095878
vn 0.9999999996219644 0.00002286510060957518 0.000015272800732101853
vn 0.9999999996188325 0.000022210200759847564 0.0000164025004716002
vn 0.9999999989877733 0.00004497919867384569 0.0000011511100398992004
vn 0.9999999989965633 0.00004466620152990819 -0.000003435649883803745
vn 0.999999998995893 0.00004460100167376302 -0.000004354859807055724
vn 1 0 0
vn 1 0 0
vn 1 0 0
vn 0.9999999997855067 0.000020295399731561316 -0.000004133210040004298
vn 0.9999999997860725 0.000020123999998092145 -0.000004783270013717719
vn 0.9999999997835267 0.00002062319981186317 -0.0000027623000272274398
vn 1 0 0
vn 1 0 0
vn 1 0 0
vn 0.999999998659282 -0.000051751700015039214 0.0000017881400229853536
vn 0.9999999988481594 -0.00004678219915217788 0.000010728799667424375
vn 0.999999998922273 -0.00004288549821392901 0.000017784499485902272
vn 0.9999999989669919 -0.00001896920000804557 0.000041306000596782234
vn 0.9999999988696502 -0.00000923871992974256 0.0000466406017422137
vn 0.9999999989764707 -0.000022616199180036463 0.00003918629950558209
vn 0.9999999986784258 0.00004774329857411874 -0.00001907160001090899
vn 0.9999999987745194 0.0000380874007066085 -0.00003162770004326729
vn 0.9999999987385919 0.00004452469869488344 -0.00002324580051914348
vn 0.9999999984820727 0.0000032912901083426793 -0.00005500020043492062
vn 0.9999999984901891 0.000006809830200559472 -0.00005452749965978125
vn 0.9999999984852617 0.000009775159909367849 -0.000054165699029716524
vn 0.9999999993307065 -0.000006840210057786241 -0.00003594160077550507
vn 0.9999999993456905 0.000004984439780322727 -0.000035829798411417226
vn 0.9999999993573434 0.0000012405199632880233 -0.000035829798411834746
vn 0.9999999996512217 0.0000033639400941956198 -0.00002619619953289123
vn 0.9999999996163813 -0.000001894310002354353 -0.000027634199785410675
vn 0.9999999996399518 0.000012515100020250936 -0.000023737500660538777
vn 1 0 0
vn 1 0 0
vn 1 0 0
vn 0.9999999999110267 0.0000016898800366422474 0.000013232200216139547
vn 0.9999999999143405 0.0000011473899802621733 0.000013038499672595197
vn 0.999999999920099 -0.00000831484976449203 0.000009521840183118444
vn 0.9999999997571973 0.0000093579301369589 0.000019950799464526288
vn 0.9999999998209219 -1.3969800247422761e-7 0.00001892450017864921
vn 0.9999999997958531 -0.00000941007965401495 0.000017881400704924368
vn 0.9999999999792457 0.000006441379809851251 -1.3038500412405907e-7
vn 0.9999999999792986 0.00000552461005997816 0.0000032987400117462274
vn 0.9999999999808202 0.000005981769845560715 0.0000016056000049194523
vn 0.9999999990192059 5.662440111240044e-7 -0.00004428620009297629
vn 0.9999999990396573 -0.0000057965498798506605 -0.000043440599214710095
vn 0.9999999989831874 -0.000016517900786796446 -0.00004196169898303827
vn 1 0 0
vn 1 0 0
vn 1 0 0
vn 0.9999999994213546 0.000021859999820746518 -0.000026065899859000785
vn 0.9999999994216451 0.000021667699899100022 -0.000026214900556924236
vn 0.9999999994215032 0.00002185439915237949 -0.000026064899414833287
vn 0.9999999983728014 0.00004506110046293553 0.00003498420113592959
vn 0.9999999983714745 0.00003645940153975646 0.000043906300490000046
vn 0.9999999983408903 0.00004751979933036081 0.0000325590007747501
vn 0.9999999991412725 0.000011391900433631221 0.000039845701360153225
vn 0.9999999991876203 0.00003191829816522832 0.000024616700082344184
vn 0.9999999991741246 0.000013396100246459849 0.000038370500956404885
vn 1 0 0
vn 1 0 0
vn 1 0 0
vn 1 0 0
vn 1 0 0
vn 1 0 0
vn 0.9999999983672556 -0.00005123019937676004 -0.000025317100111851868
vn 0.9999999986387771 -0.0000515282007862686 0.000008203090135541603
vn 0.9999999985947023 -0.000051617600475077346 0.000012092100388432298
vn 0.9999999994705928 -0.000026810299445418432 -0.000018439699478464215
vn 0.9999999994991697 -0.00002832710013935971 -0.000014115100377445975
vn 0.9999999995068449 -0.000029385100773712587 -0.00001108270043368123
vn 0.9999999993212065 -0.00002230700009327062 -0.000029325499761501457
vn 0.9999999992098558 -0.000010609600386290066 -0.00003831089995102642
vn 0.9999999993155269 -0.000019717999735039946 -0.00003130729962907804
vn 1 0 0
vn 1 0 0
vn 1 0 0
vn 1 0 0
vn 1 0 0
vn 1 0 0
vn 0.9999999993403466 -0.000035256100067662255 0.00000873581029160409
vn 0.9999999993222437 -0.00003474950060454343 0.000012164899991089174
vn 0.9999999993457924 -0.00003573780120340733 0.000005587939991510707
vn 0.9999999997976032 -0.00000626220980721557 0.00001912009974671042
vn 0.999999999798548 -0.000007946039657545009 0.000018432700013288176
vn 0.9999999997985511 -0.000007882709722483938 0.000018459699272999626
vn 0.9999999999713123 0.0000057741999624503185 -0.000004902480213645834
vn 0.9999999999746978 -0.00000282097994379139 -0.000006530429800312343
vn 0.9999999999788718 0.000003792350071227612 -0.000005279669949120352
vn 0.9999999995490789 -0.00002627819957249035 0.000014536100018443088
vn 0.9999999995655875 -0.000025104700387609182 0.000015445999445203005
vn 0.9999999996182498 -0.000014960800393710425 0.000023230899378403674
vn 0.99999999947881 0.000017814299999182766 -0.000026926400082238348
vn 0.9999999993171587 -0.0000010579799429303212 -0.00003694000040219702
vn 0.9999999994695445 0.000019714199869214872 -0.000025928000454657833
vn 1 0 0
vn 1 0 0
vn 1 0 0
vn 0.9999999993070077 -0.000019252300249109475 0.000031864299649642723
vn 0.9999999993756081 -0.000019937799139654254 0.000029176500884177193
vn 0.9999999996025994 -0.000022873300613360325 0.0000164807006447507
vn 0.9999999996249702 -0.00002256039987578081 0.000015527000863219153
vn 0.9999999876078945 0.0000725201962376497 0.0001397319993849256
vn 0.9999999996227364 -0.000020123999994805173 0.000018696300678352298
vn 1 0 0
vn 1 0 0
vn 1 0 0
vn 0.9999999996421198 0.00002653900081855416 -0.0000033825599518140598
vn 0.9999999996603932 0.000021849300530303877 -0.00001420640000532813
vn 0.9999999996284219 0.00001996759964808202 -0.000018559399898019795
vn 0.9999999981498686 0.000012718100128157238 -0.00005948539899599597
vn 0.999999997768112 0.000039421000022467875 -0.00005394219976335676
vn 0.9999999980862153 0.0000018463499564994506 -0.00006183979700824688
vn 0.9999999998861728 -0.000004201659975910065 -0.000014491400177745471
vn 0.9999999998868931 -0.000004384669864025193 -0.00001438710023486309
vn 0.9999999998910705 -0.00000697373979998225 -0.000013008700078391445
vn 0.999999998978208 -0.00001490859993577997 -0.00004267690014972112
vn 0.999999999002849 0.0000011064099669847157 -0.00004464390072012371
vn 0.9999999989686792 -0.000015452500504104728 -0.00004270669883369262
vn 0.9999999988450898 0.0000377223004325959 0.000029779999715341774
vn 0.9999999988139301 0.000042855699524909124 0.000023141499668619168
vn 0.9999999988348309 0.00003543500129544884 0.00003278259824401326
vn 0.9999999994449935 0.000006552790178831175 0.00003266609926874113
vn 0.9999999993133821 0.00002441180002421829 0.000027880099859387043
vn 0.9999999993430415 0.000022616199188326903 0.000028327100134937053
vn 0.9999999992077637 -0.000038091700814056227 0.000011553999674957252
vn 0.9999999992269402 -0.00003930929957876975 9.480859823216979e-7
vn 0.9999999992151876 -0.000038251298944480875 0.000010318100058699568
vn 0.9999999987502624 -0.000044546999505462665 -0.00002269449939268767
vn 0.9999999987448449 -0.00004621599867843475 -0.000019349199622681216
vn 0.9999999987496218 -0.000044150299744889644 -0.000023484199089319914
vn 0.9999999999366573 0.000010510399987895647 -0.000004027040176624299
vn 0.9999999999028459 0.000008691100446477867 -0.000010898300387303444
vn 0.9999999999191271 0.000012375399818574416 0.0000029318000540472916
vn 0.9999999994465014 0.00003306569849871897 -0.000003695490020391849
vn 0.9999999995231073 0.000030845400018575894 0.0000015320299546116816
vn 0.9999999994740412 0.000021442800050499204 0.00002433359985473356
vn 0.9999999996764286 -0.0000254213991783725 -9.462240197202494e-7
vn 0.9999999996166211 -0.000022962700304852246 -0.000015474899549623725
vn 0.9999999996781421 -0.000025317100145039713 -0.0000016614800410134418
vn 1 0 0
vn 1 0 0
vn 1 0 0
vn 0.999999998912984 0.000046514000081885645 0.0000032372799943285336
vn 0.9999999989104771 0.000046655499267316705 0.0000015199200317322013
vn 0.9999999989118835 0.00004645439907510273 0.0000042687201993366376
vn 1 0 0
vn 1 0 0
vn 1 0 0
vn 0.9999999995312143 -0.00002885980028179314 -0.000010231499795487548
vn 0.9999999996238758 -0.000019364100800878003 -0.000019423699988662767
vn 0.9999999996208595 -0.000017546099109209142 -0.00002122300065016387
vn 0.999999999783991 -0.000015921899827133966 0.000013360800036777392
vn 0.9999999997697375 -0.00001922249975462666 0.000009540470271153553
vn 0.9999999997785851 -0.00001356749998803663 0.000016085799867218103
vn 0.9999999993276651 0.00003601030036714269 -0.0000069229899917283995
vn 0.9999999992118334 0.00003430249850705287 -0.00001999179947476945
vn 0.9999999993158961 0.00003570320038592832 -0.000009668990053548602
vn 0.9999999993156712 -0.00002846119967087817 -0.000023635100644438628
vn 0.9999999993097186 -0.00002254550052647445 -0.00002953409964682981
vn 0.9999999993217112 -0.000026390000112149845 -0.000025693299886223292
vn 0.9999999999852276 0.0000045355400288156774 -0.000002995599970701136
vn 0.9999999999826577 0.000005466859874919243 -0.0000021904700133365914
vn 0.9999999999821072 0.000005615880127051712 -0.000002061020040818633
vn 0.9999999996210527 0.00002291800045936821 0.000015253200211777446
vn 0.9999999996424942 0.000023216000036767775 0.00001326759956535602
vn 0.9999999994591173 0.000021664400253135714 0.00002474709980131841
vn 0.9999999994068478 0.000021556399575221253 0.000026863099249094817
vn 0.9999999994114241 0.00002275030054559214 0.00002568220041519441
vn 0.9999999993978337 0.000020250699878117518 0.000028182299485107082
vn 0.9999999979577756 -0.000058233701446842284 -0.000026330300844053127
vn 0.9999999978938459 -0.00006279350041457884 -0.000016409900092184144
vn 0.9999999979069945 -0.00006228680272821328 -0.000017503300077551046
vn 0.9999999999886202 0.0000025578799522627333 -0.000004027040176833555
vn 0.9999999999804334 0.000004917380010642054 -0.000003866849965485753
vn 0.9999999999909821 9.868530241785402e-7 -0.000004130609795501227
vn 1 0 0
vn 1 0 0
vn 1 0 0
vn 0.9999999998736386 -0.0000021271400780319385 -0.000015754299963929193
vn 0.9999999998853679 0.000001790000055529517 -0.000015035299837204513
vn 0.9999999998735971 -0.0000020489098912687402 -0.000015767300281194038
vn 0.9999999997170077 6.221230249197328e-7 -0.000023782300552375143
vn 0.9999999997350477 0.0000029020000048645622 -0.000022836000419690625
vn 0.9999999997166 0.00001648070064662951 -0.00001718100065285978
vn 0.9999999996441953 -7.450580025838688e-7 -0.00002666560066206158
vn 0.9999999996432956 -6.0349702813556e-7 -0.000026702900858733394
vn 0.9999999996540792 -0.0000032130599254541558 -0.000026105899442037097
vn 1 0 0
vn 1 0 0
vn 1 0 0
vn 1 0 0
vn 1 0 0
vn 1 0 0
vn 1 0 0
vn 1 0 0
vn 1 0 0
vn 0.9999999999175269 0.00000804662977249821 -0.000010009899596382003
vn 0.999999999939126 0.000008530910235484964 -0.000006997960098971466
vn 0.9999999999481084 0.000009985409632854751 0.000002018640088758571
vn 0.9999999996240758 0.00001489369969371541 -0.0000230222994928082
vn 0.9999999996248556 0.00001519360011455593 -0.000022791300571588312
vn 0.999999999621034 0.00001927879929277602 -0.000019653500195828045
vn 0.9999999991684876 0.000011093899947679636 -0.00003924220069540981
vn 0.9999999991711337 0.000014469000222392154 -0.00003805759839935152
vn 0.9999999991697328 0.000015173999587339342 -0.0000378190997848609
vn 0.9999999983485193 -0.00001899900049966272 -0.00005424020119017717
vn 0.9999999984254002 -0.000011216799958292957 -0.00005498529927063324
vn 0.9999999977122731 -0.00004410000100421861 -0.000051289800349865385
vn 1 0 0
vn 1 0 0
vn 1 0 0
vn 0.9999999998255751 0.000006360930000282757 -0.000017561000273992353
vn 0.9999999998242763 0.000009349550053405957 -0.000016249099641627716
vn 0.9999999998263231 0.000007862219716570174 -0.000016897900419983838
vn 0.999999999990115 -0.000004405620074932919 6.004560191226791e-7
vn 0.9999999999975433 0.0000017993199889998683 0.0000012945399703280628
vn 0.9999999999961464 -0.000002657059894762589 8.046629886817669e-7
vn 0.9999999991333604 0.00003168960026396562 0.000027000900421873095
vn 0.999999999139737 0.000029947599588625497 0.00002869960005487331
vn 0.9999999991408579 0.000029243499713971247 0.000029378599694835334
vn 0.9999999999894265 0.000004551369784118912 -6.575140218886699e-7
vn 0.9999999999902487 0.000004280359917133053 0.0000010868500339605335
vn 0.9999999999880773 0.000004012049885156926 0.0000027837199922610198
vn 0.9999999999254081 -0.000010622699846070448 0.000006028450115541617
vn 0.9999999999239522 -0.000011615499714961302 0.000004144390004197217
vn 0.999999999924972 -0.000010345100235232703 0.0000065601197997774115
vn 0.9999999999511742 0.000008780510142540718 0.000004533680111996192
vn 0.9999999999511622 0.000008775149580768624 0.00000454671999228217
vn 0.9999999999493323 0.000006646379915427799 0.0000075604798435768385
vn 0.9999999996389204 0.000007461760103103731 0.0000258162999577968
vn 0.9999999996671438 0 0.00002580140061632594
vn 0.9999999996297315 0.00000865012043184689 0.00002580140061536065
vn 1 0 0
vn 1 0 0
vn 1 0 0
vn 1 0 0
vn 1 0 0
vn 1 0 0
vn 1 0 0
vn 1 0 0
vn 1 0 0
vn 0.9999999997057902 0.000024108199788498777 -0.00000268592998430098
vn 0.9999999996943247 0.00002469120044379583 0.0000013019899820959924
vn 0.9999999996983273 0.00002340229911372956 -0.000007461760103547011
vn 0.8838638985670657 0.09940164973521885 0.45706008449627794
vn 0.883863882662734 0.09941100512869262 0.45705808053644587
vn 0.8838639483374886 0.09939204408331737 0.45706207718668296
vn 0.000019173099083461722 0.789692557578492 -0.6135027825018664
vn 0.00001949070057420007 0.7896934716312457 -0.6135016059335979
vn 0.000019371499073374283 0.789693134887399 -0.613502039390626
vn -0.0713572353122522 0.7985197901702308 -0.5977242588979326
vn -0.07135920295219315 0.79851496987782 -0.5977304635327297
vn -0.07135569940907582 0.7985235927415003 -0.5977193622403816
vn 0.000020608300364666922 0.9305791805432857 -0.36609068318476046
vn 0.000019535396514958808 0.9305742815030033 -0.3661031360471225
vn 0.000020818799366419265 0.9305803171493768 -0.36608779397945385
vn -0.07135443348341879 0.9345612472143647 -0.3485739807091049
vn -0.07135449476548507 0.9345557259522357 -0.34858877085564854
vn -0.07135443974226244 0.9345540790484375 -0.3485931973848526
vn 0.00003841519623196156 0.9960226166706696 -0.08910076096636281
vn 0.00003777439534216082 0.9960220194946906 -0.0891074365853572
vn 0.00003750439953624867 0.9960216134735564 -0.08911197499187949
vn -0.07138334895761711 0.9949037939539912 -0.07120995904751967
vn -0.07138322934375634 0.9949055764545817 -0.0711851705626461
vn -0.0713832224510472 0.9949043325323969 -0.07120256077396435
vn 0.00006070729989844433 0.9807840906867951 0.1950962935842198
vn 0.000059351294631917525 0.9807873153544544 0.19508008231807208
vn 0.00006202979239386705 0.9807809900534767 0.1951118799612854
vn -0.07138597045357999 0.9746573924743052 0.2120071001584352
vn -0.07138745457193663 0.9746571142869919 0.21200787933351345
vn -0.07138638238213925 0.9746573025736183 0.2120073747545343
vn 3.576279473750888e-7 0.8860971765541752 0.463499507769524
vn 8.344649365463947e-7 0.8860963235188417 0.4635011385592232
vn 6.146729653204506e-7 0.8860966696293849 0.4635004768836111
vn -0.07137005793640411 0.8754482886767113 0.4780131888171831
vn -0.07136631231189244 0.8754412800774842 0.47802658357386063
vn -0.07136873896310714 0.875445842181158 0.478017866304743
vn 0.00004379449863533882 0.7195978236729709 0.6943910787496955
vn 0.00004443530006007908 0.7195924086426146 0.6943966902638753
vn 0.00004418189304012942 0.7195940185794979 0.6943950219238105
vn -0.07138013192332571 0.7053123809047087 0.7052937842552843
vn -0.07138012892854553 0.7053015032680212 0.705304662314105
vn -0.07138018822212737 0.705313361518375 0.7052927979165985
vn 0.000030413298851550716 0.4948081929716427 0.8690022159023354
vn 0.00003091989556653443 0.4948036475273807 0.8690048040359497
vn 0.000032367195011061705 0.49478884520878724 0.8690132321255641
vn -0.07139711719353559 0.47801779979703485 0.8754435645623622
vn -0.07140188641285429 0.47801521267086233 0.8754445882361237
vn -0.07139617979965193 0.4780183454733622 0.87544334305592
vn 0.0000075623393289253555 0.22999806772233286 0.9731910854435548
vn 0.000008806588791948042 0.22999338277869902 0.9731921926322954
vn 0.000006792140175323237 0.23000130366093235 0.9731903206814884
vn -0.07151543411116984 0.2119827735946889 0.9746531928758012
vn -0.07151543949052423 0.21198290156570354 0.9746531646479493
vn -0.07151543252985408 0.21198287321555212 0.9746531713247266
vn 0.000021159695599487514 -0.05349217206224262 0.9985682686127828
vn 0.000021502397814154226 -0.05349354541355943 0.9985681950356392
vn 0.000022203697508462766 -0.05349641576012005 0.9985680412509788
vn -0.07138442348910169 -0.07119356941383578 0.9949048898046716
vn -0.07138460045289233 -0.07119291936813647 0.9949049236233696
vn -0.0713853095886404 -0.07119028318960076 0.994905061377375
vn 0.000060811592335163765 -0.33270597893820364 0.943030608135665
vn 0.00006085629519978382 -0.3327039787954862 0.9430313137908858
vn 0.00006244888863601716 -0.3327205738256914 0.9430254587513738
vn -0.07135545557446642 -0.34858027565024663 0.9345588212559756
vn -0.07135540184047764 -0.3485924868841874 0.9345542706103704
vn -0.07135552190428555 -0.3485774110835877 0.9345598846387697
vn -0.07140176504100888 -0.5977173843443373 0.7985209555181333
vn -0.07139772201415767 -0.5977156778963925 0.7985225943503697
vn -0.07139950473481484 -0.597716469766603 0.7985218422143334
vn 0.00006546079377881008 -0.5848924511394447 0.8111108532839251
vn 0.0000678877990807257 -0.5849159993072994 0.8110938719689541
vn 0.00006639959639403982 -0.5849014545871973 0.8111043607408818
vn 0.000019173099083461722 -0.789692557578492 0.6135027825018664
vn 0.00001949070057420007 -0.7896934716312457 0.6135016059335979
vn 0.000019371499073374283 -0.789693134887399 0.613502039390626
vn -0.0713572353122522 -0.7985197901702308 0.5977242588979326
vn -0.07135920295219315 -0.79851496987782 0.5977304635327297
vn -0.07135569940907582 -0.7985235927415003 0.5977193622403816
vn 0.000020608300364666922 -0.9305791805432857 0.36609068318476046
vn 0.000019535396514958808 -0.9305742815030033 0.3661031360471225
vn 0.000020818799366419265 -0.9305803171493768 0.36608779397945385
vn -0.07138353527189621 -0.934563927077688 0.3485608370101494
vn -0.07138168170713151 -0.934563709997096 0.3485617986428308
vn -0.07138232680886562 -0.9345637886359198 0.34856145568583413
vn 0.0000377073953376973 -0.9960216194176017 0.08911190846845604
vn 0.00003947319492966831 -0.9960222430297586 0.08910493719113068
vn 0.000039255195733528956 -0.9960221685055268 0.0891057703214426
vn -0.07175420775141937 -0.9948824970343432 0.07113473669506752
vn -0.07175420775141937 -0.9948824970343432 0.07113473669506752
vn -0.07175420775141937 -0.9948824970343432 0.07113473669506752
vn 0.000018470000528500032 -0.980785267379558 -0.19509038661622513
vn 0.00001994520009376213 -0.9807840922989911 -0.19509629390491573
vn 0.000020492799548783436 -0.980783674371995 -0.19509839483043928
vn -0.0713397055284786 -0.9746652441187877 -0.21198657580604946
vn -0.07133971037414816 -0.9746652681343285 -0.21198646375740662
vn -0.0713397055284786 -0.9746652441187877 -0.21198657580604946
vn 3.576279473750888e-7 -0.8860971765541752 -0.463499507769524
vn 8.344649365463947e-7 -0.8860963235188417 -0.4635011385592232
vn 6.146729653204506e-7 -0.8860966696293849 -0.4635004768836111
vn -0.07137327823587826 -0.8754443749919999 -0.4780198755791756
vn -0.07137173515454895 -0.8754414444153493 -0.47802547298339204
vn -0.07137679402478493 -0.8754508610409831 -0.4780074718844305
vn 0.000059157600371138305 -0.719597296392235 -0.6943916240316872
vn 0.000058725498996728836 -0.7196008673802591 -0.6943879234382572
vn 0.00006062159796638802 -0.7195851191493221 -0.6944042429477788
vn -0.07139418854855147 -0.7052955465064895 -0.7053091959698288
vn -0.07139188163783343 -0.7052965871431187 -0.7053083888629703
vn -0.07139110472446344 -0.7052969244889503 -0.7053081301620225
vn 0.000014178499962767577 -0.49480550127494705 -0.8690037489602785
vn 0.000014454099508927742 -0.4948045760546443 -0.8690042757699543
vn 0.000014485798392028441 -0.4948044347728409 -0.8690043562142199
vn -0.07148211507437015 -0.477882776565097 -0.8755103420787946
vn -0.07148211507437015 -0.477882776565097 -0.8755103420787946
vn -0.07148211507437015 -0.477882776565097 -0.8755103420787946
vn 0.0000075623393289253555 -0.22999806772233286 -0.9731910854435548
vn 0.000008806588791948042 -0.22999338277869902 -0.9731921926322954
vn 0.000006792140175323237 -0.23000130366093235 -0.9731903206814884
vn -0.07135014796810883 -0.21200601209189682 -0.9746602522016682
vn -0.07134526379653285 -0.21198688913102118 -0.9746647691233922
vn -0.07134841443024888 -0.21199986518444555 -0.9746617161456924
vn 0.00004832449612479637 0.053496708635980515 -0.9985680246382117
vn 0.00004801149770659425 0.05349497496609642 -0.9985681175304331
vn 0.0000484697981661833 0.05350099743975411 -0.9985677948560278
vn -0.07138149512190058 0.0712340332292409 -0.9949022035677965
vn -0.07138240546468255 0.07123451888608226 -0.9949021034801083
vn -0.07137978233210845 0.07123308784752395 -0.9949023941422233
vn 0.000034093899920403706 0.332700992254502 -0.9430323687925435
vn 0.00003453339709027483 0.33270215679169274 -0.9430319579280442
vn 0.00003632249651171652 0.33270876986970926 -0.9430296247374529
vn -0.0713564593821757 0.34857007338498597 -0.9345625498835407
vn -0.07135616327356413 0.3485711854236585 -0.9345621577269337
vn -0.07135664638499768 0.34856968956136647 -0.934562678762521
vn -0.07140176504100888 0.5977173843443373 -0.7985209555181333
vn -0.07139772201415767 0.5977156778963925 -0.7985225943503697
vn -0.07139950473481484 0.597716469766603 -0.7985218422143334
vn 0.00006546079377881008 0.5848924511394447 -0.8111108532839251
vn 0.0000678877990807257 0.5849159993072994 -0.8110938719689541
vn 0.00006639959639403982 0.5849014545871973 -0.8111043607408818
vn 0.8823895671940886 -0.4408625771011988 0.16440450060359896
vn 0.8823889535163516 -0.4408583661647172 0.164419085555461
vn 0.8823911734937968 -0.44087238055374417 0.16436958661843382
vn 0.8838513047895872 -0.45708344164466086 -0.09940622916103378
vn 0.8838512666563769 -0.45708902476054486 -0.09938089289884668
vn 0.8838512832696228 -0.4570871260035666 -0.09938947783563713
vn 0.7034630588539289 -0.7089255859838732 0.050638309265772036
vn 0.7034631756745104 -0.7089226033444707 0.05067842674384475
vn 0.7034632742740526 -0.7089238347349235 0.05065982917815522
vn 0.7068985905903064 -0.6851982673320696 0.1754927835170669
vn 0.7068981096408822 -0.6852055947175301 0.17546610941701288
vn 0.7068986096960036 -0.6851988837274315 0.1754902998702169
vn 0.8819862035044729 -0.22585417399276972 -0.41363054640320085
vn 0.8819861934954367 -0.22585476747615363 -0.4136302436859796
vn 0.8819861999544472 -0.22587040044822304 -0.4136216934485827
f 1/1/1 2/2/2 3/3/3
f 4/4/4 5/5/5 6/6/6
f 7/7/7 8/8/8 9/9/9
f 10/10/10 11/11/11 12/12/12
f 13/13/13 14/14/14 15/15/15
f 16/16/16 17/17/17 18/18/18
f 19/19/19 20/20/20 21/21/21
f 22/22/22 23/23/23 24/24/24
f 25/25/25 26/26/26 27/27/27
f 28/28/28 29/29/29 30/30/30
f 31/31/31 32/32/32 33/33/33
f 34/34/34 35/35/35 36/36/36
f 37/37/37 38/38/38 39/39/39
f 40/40/40 41/41/41 42/42/42
f 43/43/43 44/44/44 45/45/45
f 46/46/46 47/47/47 48/48/48
f 49/49/49 50/50/50 51/51/51
f 52/52/52 53/53/53 54/54/54
f 55/55/55 56/56/56 57/57/57
f 58/58/58 59/59/59 60/60/60
f 61/61/61 62/62/62 63/63/63
f 64/64/64 65/65/65 66/66/66
f 67/67/67 68/68/68 69/69/69
f 70/70/70 71/71/71 72/72/72
f 73/73/73 74/74/74 75/75/75
f 76/76/76 77/77/77 78/78/78
f 79/79/79 80/80/80 81/81/81
f 82/82/82 83/83/83 84/84/84
f 85/85/85 86/86/86 87/87/87
f 88/88/88 89/89/89 90/90/90
f 91/91/91 92/92/92 93/93/93
f 94/94/94 95/95/95 96/96/96
f 97/97/97 98/98/98 99/99/99
f 100/100/100 101/101/101 102/102/102
f 103/103/103 104/104/104 105/105/105
f 106/106/106 107/107/107 108/108/108
f 109/109/109 110/110/110 111/111/111
f 112/112/112 113/113/113 114/114/114
f 115/115/115 116/116/116 117/117/117
f 118/118/118 119/119/119 120/120/120
f 121/121/121 122/122/122 123/123/123
f 124/124/124 125/125/125 126/126/126
f 127/127/127 128/128/128 129/129/129
f 130/130/130 131/131/131 132/132/132
f 133/133/133 134/134/134 135/135/135
f 136/136/136 137/137/137 138/138/138
f 139/139/139 140/140/140 141/141/141
f 142/142/142 143/143/143 144/144/144
f 145/145/145 146/146/146 147/147/147
f 148/148/148 149/149/149 150/150/150
f 151/151/151 152/152/152 153/153/153
f 154/154/154 155/155/155 156/156/156
f 157/157/157 158/158/158 159/159/159
f 160/160/160 161/161/161 162/162/162
f 163/163/163 164/164/164 165/165/165
f 166/166/166 167/167/167 168/168/168
f 169/169/169 170/170/170 171/171/171
f 172/172/172 173/173/173 174/174/174
f 175/175/175 176/176/176 177/177/177
f 178/178/178 179/179/179 180/180/180
f 181/181/181 182/182/182 183/183/183
f 184/184/184 185/185/185 186/186/186
f 187/187/187 188/188/188 189/189/189
f 190/190/190 191/191/191 192/192/192
f 193/193/193 194/194/194 195/195/195
f 196/196/196 197/197/197 198/198/198
f 199/199/199 200/200/200 201/201/201
f 202/202/202 203/203/203 204/204/204
f 205/205/205 206/206/206 207/207/207
f 208/208/208 209/209/209 210/210/210
f 211/211/211 212/212/212 213/213/213
f 214/214/214 215/215/215 216/216/216
f 217/217/217 218/218/218 219/219/219
f 220/220/220 221/221/221 222/222/222
f 223/223/223 224/224/224 225/225/225
f 226/226/226 227/227/227 228/228/228
f 229/229/229 230/230/230 231/231/231
f 232/232/232 233/233/233 234/234/234
f 235/235/235 236/236/236 237/237/237
f 238/238/238 239/239/239 240/240/240
f 241/241/241 242/242/242 243/243/243
f 244/244/244 245/245/245 246/246/246
f 247/247/247 248/248/248 249/249/249
f 250/250/250 251/251/251 252/252/252
f 253/253/253 254/254/254 255/255/255
f 256/256/256 257/257/257 258/258/258
f 259/259/259 260/260/260 261/261/261
f 262/262/262 263/263/263 264/264/264
f 265/265/265 266/266/266 267/267/267
f 268/268/268 269/269/269 270/270/270
f 271/271/271 272/272/272 273/273/273
f 274/274/274 275/275/275 276/276/276
f 277/277/277 278/278/278 279/279/279
f 280/280/280 281/281/281 282/282/282
f 283/283/283 284/284/284 285/285/285
f 286/286/286 287/287/287 288/288/288
f 289/289/289 290/290/290 291/291/291
f 292/292/292 293/293/293 294/294/294
f 295/295/295 296/296/296 297/297/297
f 298/298/298 299/299/299 300/300/300
f 301/301/301 302/302/302 303/303/303
f 304/304/304 305/305/305 306/306/306
f 307/307/307 308/308/308 309/309/309
f 310/310/310 311/311/311 312/312/312
f 313/313/313 314/314/314 315/315/315
f 316/316/316 317/317/317 318/318/318
f 319/319/319 320/320/320 321/321/321
f 322/322/322 323/323/323 324/324/324
f 325/325/325 326/326/326 327/327/327
f 328/328/328 329/329/329 330/330/330
f 331/331/331 332/332/332 333/333/333
f 334/334/334 335/335/335 336/336/336
f 337/337/337 338/338/338 339/339/339
f 340/340/340 341/341/341 342/342/342
f 343/343/343 344/344/344 345/345/345
f 346/346/346 347/347/347 348/348/348
f 349/349/349 350/350/350 351/351/351
f 352/352/352 353/353/353 354/354/354
f 355/355/355 356/356/356 357/357/357
f 358/358/358 359/359/359 360/360/360
f 361/361/361 362/362/362 363/363/363
f 364/364/364 365/365/365 366/366/366
f 367/367/367 368/368/368 369/369/369
f 370/370/370 371/371/371 372/372/372
f 373/373/373 374/374/374 375/375/375
f 376/376/376 377/377/377 378/378/378
f 379/379/379 380/380/380 381/381/381
f 382/382/382 383/383/383 384/384/384
f 385/385/385 386/386/386 387/387/387
f 388/388/388 389/389/389 390/390/390
f 391/391/391 392/392/392 393/393/393
f 394/394/394 395/395/395 396/396/396
f 397/397/397 398/398/398 399/399/399
f 400/400/400 401/401/401 402/402/402
f 403/403/403 404/404/404 405/405/405
f 406/406/406 407/407/407 408/408/408
f 409/409/409 410/410/410 411/411/411
f 412/412/412 413/413/413 414/414/414
f 415/415/415 416/416/416 417/417/417
f 418/418/418 419/419/419 420/420/420
f 421/421/421 422/422/422 423/423/423
f 424/424/424 425/425/425 426/426/426
f 427/427/427 428/428/428 429/429/429
f 430/430/430 431/431/431 432/432/432
f 433/433/433 434/434/434 435/435/435
f 436/436/436 437/437/437 438/438/438
f 439/439/439 440/440/440 441/441/441
f 442/442/442 443/443/443 444/444/444
f 445/445/445 446/446/446 447/447/447
f 448/448/448 449/449/449 450/450/450
f 451/451/451 452/452/452 453/453/453
f 454/454/454 455/455/455 456/456/456
f 457/457/457 458/458/458 459/459/459
f 460/460/460 461/461/461 462/462/462
f 463/463/463 464/464/464 465/465/465
f 466/466/466 467/467/467 468/468/468
f 469/469/469 470/470/470 471/471/471
f 472/472/472 473/473/473 474/474/474
f 475/475/475 476/476/476 477/477/477
f 478/478/478 479/479/479 480/480/480
f 481/481/481 482/482/482 483/483/483
f 484/484/484 485/485/485 486/486/486
f 487/487/487 488/488/488 489/489/489
f 490/490/490 491/491/491 492/492/492
f 493/493/493 494/494/494 495/495/495
f 496/496/496 497/497/497 498/498/498
f 499/499/499 500/500/500 501/501/501
f 502/502/502 503/503/503 504/504/504
f 505/505/505 506/506/506 507/507/507
f 508/508/508 509/509/509 510/510/510
f 511/511/511 512/512/512 513/513/513
f 514/514/514 515/515/515 516/516/516
f 517/517/517 518/518/518 519/519/519
f 520/520/520 521/521/521 522/522/522
f 523/523/523 524/524/524 525/525/525
f 526/526/526 527/527/527 528/528/528
f 529/529/529 530/530/530 531/531/531
f 532/532/532 533/533/533 534/534/534
f 535/535/535 536/536/536 537/537/537
f 538/538/538 539/539/539 540/540/540
f 541/541/541 542/542/542 543/543/543
f 544/544/544 545/545/545 546/546/546
f 547/547/547 548/548/548 549/549/549
f 550/550/550 551/551/551 552/552/552
f 553/553/553 554/554/554 555/555/555
f 556/556/556 557/557/557 558/558/558
f 559/559/559 560/560/560 561/561/561
f 562/562/562 563/563/563 564/564/564
f 565/565/565 566/566/566 567/567/567
f 568/568/568 569/569/569 570/570/570
f 571/571/571 572/572/572 573/573/573
f 574/574/574 575/575/575 576/576/576
f 577/577/577 578/578/578 579/579/579
f 580/580/580 581/581/581 582/582/582
f 583/583/583 584/584/584 585/585/585
f 586/586/586 587/587/587 588/588/588
f 589/589/589 590/590/590 591/591/591
f 592/592/592 593/593/593 594/594/594
f 595/595/595 596/596/596 597/597/597
f 598/598/598 599/599/599 600/600/600
f 601/601/601 602/602/602 603/603/603
f 604/604/604 605/605/605 606/606/606
f 607/607/607 608/608/608 609/609/609
f 610/610/610 611/611/611 612/612/612
f 613/613/613 614/614/614 615/615/615
f 616/616/616 617/617/617 618/618/618
f 619/619/619 620/620/620 621/621/621
f 622/622/622 623/623/623 624/624/624
f 625/625/625 626/626/626 627/627/627
f 628/628/628 629/629/629 630/630/630
f 631/631/631 632/632/632 633/633/633
f 634/634/634 635/635/635 636/636/636
f 637/637/637 638/638/638 639/639/639
f 640/640/640 641/641/641 642/642/642
f 643/643/643 644/644/644 645/645/645
f 646/646/646 647/647/647 648/648/648
f 649/649/649 650/650/650 651/651/651
f 652/652/652 653/653/653 654/654/654
f 655/655/655 656/656/656 657/657/657
f 658/658/658 659/659/659 660/660/660
f 661/661/661 662/662/662 663/663/663
f 664/664/664 665/665/665 666/666/666
f 667/667/667 668/668/668 669/669/669
f 670/670/670 671/671/671 672/672/672
f 673/673/673 674/674/674 675/675/675
f 676/676/676 677/677/677 678/678/678
f 679/679/679 680/680/680 681/681/681
f 682/682/682 683/683/683 684/684/684
f 685/685/685 686/686/686 687/687/687
f 688/688/688 689/689/689 690/690/690
f 691/691/691 692/692/692 693/693/693
f 694/694/694 695/695/695 696/696/696
f 697/697/697 698/698/698 699/699/699
f 700/700/700 701/701/701 702/702/702
