o thighRight
usemtl thighLeft:phong1SG
v -0.016868939623236656 -0.04109400138258934 -0.08410400152206421
v -0.016138970851898193 -0.04109400138258934 -0.08622699230909348
v -0.014015969820320606 -0.04109400138258934 -0.08695697039365768
v 0.014015969820320606 -0.04109400138258934 -0.08695697039365768
v 0.016138970851898193 -0.04109400138258934 -0.08622699230909348
v 0.016868939623236656 -0.04109400138258934 -0.08410400152206421
v 0.014015969820320606 -0.04109400138258934 -0.08695697039365768
v -0.016868939623236656 -0.04109400138258934 -0.08410400152206421
v -0.014015969820320606 -0.04109400138258934 -0.08695697039365768
v 0.014015969820320606 -0.04109400138258934 -0.08695697039365768
v 0.016868939623236656 -0.04109400138258934 -0.08410400152206421
v -0.016868939623236656 -0.04109400138258934 -0.08410400152206421
v -0.016868939623236656 -0.04109400138258934 -0.052632980048656464
v -0.016868939623236656 -0.04109400138258934 -0.08410400152206421
v 0.016868939623236656 -0.04109400138258934 -0.08410400152206421
v -0.016868939623236656 -0.04109400138258934 -0.052632980048656464
v 0.016868939623236656 -0.04109400138258934 -0.08410400152206421
v 0.016868939623236656 -0.04109400138258934 -0.052632980048656464
v 0 -0.04109400138258934 -0.05096596106886864
v 0.016868939623236656 -0.04109400138258934 -0.052632980048656464
v 0.01630597934126854 -0.04109400138258934 -0.050930969417095184
v -0.016868939623236656 -0.04109400138258934 -0.052632980048656464
v 0.016868939623236656 -0.04109400138258934 -0.052632980048656464
v 0 -0.04109400138258934 -0.05096596106886864
v 0.0019619460217654705 -0.04109400138258934 -0.050504978746175766
v 0.01630597934126854 -0.04109400138258934 -0.050930969417095184
v 0.006148993037641048 -0.04109400138258934 -0.04808199033141136
v 0.0019619460217654705 -0.04109400138258934 -0.050504978746175766
v 0 -0.04109400138258934 -0.05096596106886864
v 0.01630597934126854 -0.04109400138258934 -0.050930969417095184
v -0.004686951171606779 -0.04109400138258934 -0.04829096049070358
v -0.014838989824056625 -0.04109400138258934 -0.04990094155073166
v 0 -0.04109400138258934 -0.05096596106886864
v -0.016868939623236656 -0.04109400138258934 -0.052632980048656464
v 0 -0.04109400138258934 -0.05096596106886864
v -0.014838989824056625 -0.04109400138258934 -0.04990094155073166
vt 0.25482499599456787 0.5267069935798645
vt 0.259211003780365 0.5125730037689209
vt 0.27197200059890747 0.5077139735221863
vt 0.440434992313385 0.5077139735221863
vt 0.4531950056552887 0.5125730037689209
vt 0.4575819969177246 0.5267069935798645
vt 0.440434992313385 0.5077139735221863
vt 0.25482499599456787 0.5267069935798645
vt 0.27197200059890747 0.5077139735221863
vt 0.440434992313385 0.5077139735221863
vt 0.4575819969177246 0.5267069935798645
vt 0.25482499599456787 0.5267069935798645
vt 0.25482499599456787 0.7362009882926941
vt 0.25482499599456787 0.5267069935798645
vt 0.4575819969177246 0.5267069935798645
vt 0.25482499599456787 0.7362009882926941
vt 0.4575819969177246 0.5267069935798645
vt 0.4575819969177246 0.7362009882926941
vt 0.35620400309562683 0.747298002243042
vt 0.4575819969177246 0.7362009882926941
vt 0.4541989862918854 0.7475289702415466
vt 0.25482499599456787 0.7362009882926941
vt 0.4575819969177246 0.7362009882926941
vt 0.35620400309562683 0.747298002243042
vt 0.36799299716949463 0.7503659725189209
vt 0.4541989862918854 0.7475289702415466
vt 0.3931579887866974 0.766497015953064
vt 0.36799299716949463 0.7503659725189209
vt 0.35620400309562683 0.747298002243042
vt 0.4541989862918854 0.7475289702415466
vt 0.3280380070209503 0.7651050090789795
vt 0.2670229971408844 0.7543860077857971
vt 0.35620400309562683 0.747298002243042
vt 0.25482499599456787 0.7362009882926941
vt 0.35620400309562683 0.747298002243042
vt 0.2670229971408844 0.7543860077857971
vn 0 -1 0
vn 0 -1 0
vn 0 -1 0
vn 0 -1 0
vn 0 -1 0
vn 0 -1 0
vn 0 -1 0
vn 0 -1 0
vn 0 -1 0
vn 0 -0.9999999999970746 0.0000024189100713485634
vn 0 -0.9999999999970746 0.0000024189100713485634
vn 0 -0.9999999999970746 0.0000024189100713485634
vn 0 -1 0
vn 0 -1 0
vn 0 -1 0
vn 0 -1 0
vn 0 -1 0
vn 0 -1 0
vn 0 -0.9999999999958475 -0.0000028818299142465933
vn 0 -0.9999999999958475 -0.0000028818299142465933
vn 0 -0.9999999999958475 -0.0000028818299142465933
vn 0 -1 0
vn 0 -1 0
vn 0 -1 0
vn 0 -1 0
vn 0 -1 0
vn 0 -1 0
vn 0 -1 0
vn 0 -1 0
vn 0 -1 0
vn 0 -1 0
vn 0 -1 0
vn 0 -1 0
vn 0 -1 0
vn 0 -1 0
vn 0 -1 0
f 1/1/1 2/2/2 3/3/3
f 4/4/4 5/5/5 6/6/6
f 7/7/7 8/8/8 9/9/9
f 10/10/10 11/11/11 12/12/12
f 13/13/13 14/14/14 15/15/15
f 16/16/16 17/17/17 18/18/18
f 19/19/19 20/20/20 21/21/21
f 22/22/22 23/23/23 24/24/24
f 25/25/25 26/26/26 27/27/27
f 28/28/28 29/29/29 30/30/30
f 31/31/31 32/32/32 33/33/33
f 34/34/34 35/35/35 36/36/36
