o thighLeft
usemtl shinRight:phong1SG
v -0.016868939623236656 0.04109400138258934 -0.08410400152206421
v -0.014015969820320606 0.04109400138258934 -0.08695697039365768
v -0.016138970851898193 0.04109400138258934 -0.08622699230909348
v 0.014015969820320606 0.04109400138258934 -0.08695697039365768
v 0.016868939623236656 0.04109400138258934 -0.08410400152206421
v 0.016138970851898193 0.04109400138258934 -0.08622699230909348
v 0.014015969820320606 0.04109400138258934 -0.08695697039365768
v -0.014015969820320606 0.04109400138258934 -0.08695697039365768
v -0.016868939623236656 0.04109400138258934 -0.08410400152206421
v 0.014015969820320606 0.04109400138258934 -0.08695697039365768
v -0.016868939623236656 0.04109400138258934 -0.08410400152206421
v 0.016868939623236656 0.04109400138258934 -0.08410400152206421
v -0.016868939623236656 0.04109400138258934 -0.052632980048656464
v 0.016868939623236656 0.04109400138258934 -0.08410400152206421
v -0.016868939623236656 0.04109400138258934 -0.08410400152206421
v -0.016868939623236656 0.04109400138258934 -0.052632980048656464
v 0.016868939623236656 0.04109400138258934 -0.052632980048656464
v 0.016868939623236656 0.04109400138258934 -0.08410400152206421
v 0 0.04109400138258934 -0.05096596106886864
v 0.01630597934126854 0.04109400138258934 -0.050930969417095184
v 0.016868939623236656 0.04109400138258934 -0.052632980048656464
v -0.016868939623236656 0.04109400138258934 -0.052632980048656464
v 0 0.04109400138258934 -0.05096596106886864
v 0.016868939623236656 0.04109400138258934 -0.052632980048656464
v 0.0019619460217654705 0.04109400138258934 -0.050504978746175766
v 0.006148993037641048 0.04109400138258934 -0.04808199033141136
v 0.01630597934126854 0.04109400138258934 -0.050930969417095184
v 0.0019619460217654705 0.04109400138258934 -0.050504978746175766
v 0.01630597934126854 0.04109400138258934 -0.050930969417095184
v 0 0.04109400138258934 -0.05096596106886864
v -0.004686951171606779 0.04109400138258934 -0.04829096049070358
v 0 0.04109400138258934 -0.05096596106886864
v -0.014838989824056625 0.04109400138258934 -0.04990094155073166
v -0.016868939623236656 0.04109400138258934 -0.052632980048656464
v -0.014838989824056625 0.04109400138258934 -0.04990094155073166
v 0 0.04109400138258934 -0.05096596106886864
vt 0.2362159937620163 0.5296249985694885
vt 0.21982499957084656 0.5110229849815369
vt 0.23199500143527985 0.5157579779624939
vt 0.05935698002576828 0.5115110278129578
vt 0.04307996854186058 0.5302119851112366
vt 0.047216951847076416 0.516319990158081
vt 0.05935698002576828 0.5115110278129578
vt 0.21982499957084656 0.5110229849815369
vt 0.2362159937620163 0.5296249985694885
vt 0.05935698002576828 0.5115110278129578
vt 0.2362159937620163 0.5296249985694885
vt 0.04307996854186058 0.5302119851112366
vt 0.23684099316596985 0.7353429794311523
vt 0.04307996854186058 0.5302119851112366
vt 0.2362159937620163 0.5296249985694885
vt 0.23684099316596985 0.7353429794311523
vt 0.04370598867535591 0.7359300255775452
vt 0.04307996854186058 0.5302119851112366
vt 0.1403069943189621 0.7465329766273499
vt 0.046961959451436996 0.747044026851654
vt 0.04370598867535591 0.7359300255775452
vt 0.23684099316596985 0.7353429794311523
vt 0.1403069943189621 0.7465329766273499
vt 0.04370598867535591 0.7359300255775452
vt 0.12908600270748138 0.7495800256729126
vt 0.10516300052404404 0.7654929757118225
vt 0.046961959451436996 0.747044026851654
vt 0.12908600270748138 0.7495800256729126
vt 0.046961959451436996 0.747044026851654
vt 0.1403069943189621 0.7465329766273499
vt 0.16718900203704834 0.7639380097389221
vt 0.1403069943189621 0.7465329766273499
vt 0.2252759039402008 0.7532359957695007
vt 0.23684099316596985 0.7353429794311523
vt 0.2252759039402008 0.7532359957695007
vt 0.1403069943189621 0.7465329766273499
vn 0 1 0
vn 0 1 0
vn 0 1 0
vn 0 1 0
vn 0 1 0
vn 0 1 0
vn 0 1 0
vn 0 1 0
vn 0 1 0
vn 0 0.9999999999970746 0.0000024189100713485634
vn 0 0.9999999999970746 0.0000024189100713485634
vn 0 0.9999999999970746 0.0000024189100713485634
vn 0 1 0
vn 0 1 0
vn 0 1 0
vn 0 1 0
vn 0 1 0
vn 0 1 0
vn 0 0.9999999999958475 -0.0000028818299142465933
vn 0 0.9999999999958475 -0.0000028818299142465933
vn 0 0.9999999999958475 -0.0000028818299142465933
vn 0 1 0
vn 0 1 0
vn 0 1 0
vn 0 1 0
vn 0 1 0
vn 0 1 0
vn 0 1 0
vn 0 1 0
vn 0 1 0
vn 0 1 0
vn 0 1 0
vn 0 1 0
vn 0 1 0
vn 0 1 0
vn 0 1 0
f 1/1/1 2/2/2 3/3/3
f 4/4/4 5/5/5 6/6/6
f 7/7/7 8/8/8 9/9/9
f 10/10/10 11/11/11 12/12/12
f 13/13/13 14/14/14 15/15/15
f 16/16/16 17/17/17 18/18/18
f 19/19/19 20/20/20 21/21/21
f 22/22/22 23/23/23 24/24/24
f 25/25/25 26/26/26 27/27/27
f 28/28/28 29/29/29 30/30/30
f 31/31/31 32/32/32 33/33/33
f 34/34/34 35/35/35 36/36/36
