o torso
usemtl torso:phongE1SG
v 0.07299993932247162 -0.014999980106949806 0.22971655428409576
v 0.07632891833782196 0.014999980106949806 0.22355854511260986
v 0.07299993932247162 0.014999980106949806 0.22971655428409576
v 0.07632891833782196 0.014999979175627232 0.22355854511260986
v 0.07299993932247162 -0.01499998103827238 0.22971655428409576
v 0.07474695146083832 -0.01463997084647417 0.22648455202579498
v 0.07632891833782196 -0.014999980106949806 0.22355856001377106
v 0.07632891833782196 0.014999980106949806 0.22355856001377106
v 0.07474695146083832 -0.014639969915151596 0.22648456692695618
vt 0.2713080048561096 0.8884959816932678
vt 0.5227869749069214 0.8314650058746338
vt 0.522695004940033 0.8896250128746033
vt 0.5227869749069214 0.8314650058746338
vt 0.2713080048561096 0.8884959816932678
vt 0.2711789906024933 0.8575810194015503
vt 0.2708419859409332 0.8293030261993408
vt 0.5227869749069214 0.8314650058746338
vt 0.2711789906024933 0.8575810194015503
vn 0.8796853950088998 0 0.47555610164105344
vn 0.8796853950088998 0 0.47555610164105344
vn 0.8796853950088998 0 0.47555610164105344
vn 0.8797103279835818 -0.000011620099180150917 0.47550997750204166
vn 0.8797103279835818 -0.000011620099180150917 0.47550997750204166
vn 0.8797103279835818 -0.000011620099180150917 0.47550997750204166
vn 0.8796604211384704 0 0.47560229549749733
vn 0.8796604211384704 0 0.47560229549749733
vn 0.8796604211384704 0 0.47560229549749733
f 1/1/1 2/2/2 3/3/3
f 4/4/4 5/5/5 6/6/6
f 7/7/7 8/8/8 9/9/9
