o torso
usemtl 黑色
v 0.02995895966887474 0.0015699859941378236 0.007499991916120052
v 0.03359197825193405 -0.007857978343963623 0.007499991916120052
v 0.02897799015045166 -0.007764995098114014 0.007499991916120052
v 0.02897799015045166 -0.007764995098114014 0.007499991916120052
v 0.03359197825193405 -0.007857978343963623 0.007499991916120052
v 0.03302096948027611 -0.00999295711517334 0.007499991916120052
v 0.03302096948027611 -0.00999295711517334 0.007499991916120052
v 0.018879950046539307 -0.023313989862799644 0.007499991916120052
v 0.02515994943678379 -0.016339000314474106 0.007499991916120052
v 0.03302096948027611 -0.00999295711517334 0.007499991916120052
v 0.02515994943678379 -0.016339000314474106 0.007499991916120052
v 0.02897799015045166 -0.007764995098114014 0.007499991916120052
v -0.007857978343963623 -0.03359197825193405 0.007499991916120052
v -0.007764995098114014 -0.02897799015045166 0.007499991916120052
v 0.0015699859941378236 -0.02995895966887474 0.007499991916120052
v 0.03302096948027611 -0.00999295711517334 0.007499991916120052
v 0.028934000059962273 -0.01878993958234787 0.007499991916120052
v 0.018879950046539307 -0.023313989862799644 0.007499991916120052
v 0.018879950046539307 -0.023313989862799644 0.007499991916120052
v 0.028934000059962273 -0.01878993958234787 0.007499991916120052
v 0.024472950026392937 -0.025709979236125946 0.007499991916120052
v 0.018879950046539307 -0.023313989862799644 0.007499991916120052
v 0.024472950026392937 -0.025709979236125946 0.007499991916120052
v 0.010750940069556236 -0.02800697088241577 0.007499991916120052
v 0.0015699859941378236 -0.02995895966887474 0.007499991916120052
v 0.010750940069556236 -0.02800697088241577 0.007499991916120052
v 0.0018059610156342387 -0.03445297107100487 0.007499991916120052
v 0.0015699859941378236 -0.02995895966887474 0.007499991916120052
v 0.0018059610156342387 -0.03445297107100487 0.007499991916120052
v -0.007857978343963623 -0.03359197825193405 0.007499991916120052
v 0.007857978343963623 0.03359197825193405 0.007499991916120052
v 0.008941948413848877 0.03296095132827759 0.007399975787848234
v 0.007764995098114014 0.02897799015045166 0.007499991916120052
v 0.007764995098114014 0.02897799015045166 0.007499991916120052
v 0.008941948413848877 0.03296095132827759 0.007399975787848234
v 0.00999295711517334 0.03302096948027611 0.007499991916120052
v 0.007764995098114014 0.02897799015045166 0.007499991916120052
v 0.00999295711517334 0.03302096948027611 0.007499991916120052
v 0.016339000314474106 0.02515994943678379 0.007499991916120052
v 0.016339000314474106 0.02515994943678379 0.007499991916120052
v 0.00999295711517334 0.03302096948027611 0.007499991916120052
v 0.01878993958234787 0.028934000059962273 0.007499991916120052
v 0.016339000314474106 0.02515994943678379 0.007499991916120052
v 0.01878993958234787 0.028934000059962273 0.007499991916120052
v 0.023313989862799644 0.018879950046539307 0.007499991916120052
v 0.02800697088241577 0.010750940069556236 0.007499991916120052
v 0.023313989862799644 0.018879950046539307 0.007499991916120052
v 0.03220795840024948 0.012363970279693604 0.007499991916120052
v 0.02800697088241577 0.010750940069556236 0.007499991916120052
v 0.03220795840024948 0.012363970279693604 0.007499991916120052
v 0.02995895966887474 0.0015699859941378236 0.007499991916120052
v 0.02995895966887474 0.0015699859941378236 0.007499991916120052
v 0.03220795840024948 0.012363970279693604 0.007499991916120052
v 0.03445297107100487 0.0018059610156342387 0.007499991916120052
v 0.02995895966887474 0.0015699859941378236 0.007499991916120052
v 0.03445297107100487 0.0018059610156342387 0.007499991916120052
v 0.03359197825193405 -0.007857978343963623 0.007499991916120052
v -0.03445297107100487 -0.0018059610156342387 0.007499991916120052
v -0.02995895966887474 -0.0015699859941378236 0.007499991916120052
v -0.033989958465099335 -0.009641945362091064 0.007499991916120052
v -0.033989958465099335 -0.009641945362091064 0.007499991916120052
v -0.02995895966887474 -0.0015699859941378236 0.007499991916120052
v -0.02800697088241577 -0.010750940069556236 0.007499991916120052
v -0.033989958465099335 -0.009641945362091064 0.007499991916120052
v -0.02800697088241577 -0.010750940069556236 0.007499991916120052
v -0.023313989862799644 -0.018879950046539307 0.007499991916120052
v -0.01878993958234787 -0.028934000059962273 0.007499991916120052
v -0.023313989862799644 -0.018879950046539307 0.007499991916120052
v -0.016339000314474106 -0.02515994943678379 0.007499991916120052
v -0.01878993958234787 -0.028934000059962273 0.007499991916120052
v -0.016339000314474106 -0.02515994943678379 0.007499991916120052
v -0.00999295711517334 -0.03302096948027611 0.007499991916120052
v -0.00999295711517334 -0.03302096948027611 0.007499991916120052
v -0.016339000314474106 -0.02515994943678379 0.007499991916120052
v -0.007764995098114014 -0.02897799015045166 0.007499991916120052
v -0.00999295711517334 -0.03302096948027611 0.007499991916120052
v -0.007764995098114014 -0.02897799015045166 0.007499991916120052
v -0.008941948413848877 -0.03296095132827759 0.007399975787848234
v -0.008941948413848877 -0.03296095132827759 0.007399975787848234
v -0.007764995098114014 -0.02897799015045166 0.007499991916120052
v -0.007857978343963623 -0.03359197825193405 0.007499991916120052
v 0.007857978343963623 0.03359197825193405 0.007499991916120052
v 0.007764995098114014 0.02897799015045166 0.007499991916120052
v -0.0015699859941378236 0.02995895966887474 0.007499991916120052
v 0.007857978343963623 0.03359197825193405 0.007499991916120052
v -0.0015699859941378236 0.02995895966887474 0.007499991916120052
v -0.0018059610156342387 0.03445297107100487 0.007499991916120052
v -0.0018059610156342387 0.03445297107100487 0.007499991916120052
v -0.0015699859941378236 0.02995895966887474 0.007499991916120052
v -0.010750940069556236 0.02800697088241577 0.007499991916120052
v -0.025123950093984604 0.024754999205470085 0.007499991916120052
v -0.010750940069556236 0.02800697088241577 0.007499991916120052
v -0.018879950046539307 0.023313989862799644 0.007499991916120052
v -0.025123950093984604 0.024754999205470085 0.007499991916120052
v -0.018879950046539307 0.023313989862799644 0.007499991916120052
v -0.028934000059962273 0.01878993958234787 0.007499991916120052
v -0.028934000059962273 0.01878993958234787 0.007499991916120052
v -0.018879950046539307 0.023313989862799644 0.007499991916120052
v -0.02515994943678379 0.016339000314474106 0.007499991916120052
v -0.028934000059962273 0.01878993958234787 0.007499991916120052
v -0.02515994943678379 0.016339000314474106 0.007499991916120052
v -0.03302096948027611 0.00999295711517334 0.007499991916120052
v -0.03302096948027611 0.00999295711517334 0.007499991916120052
v -0.02515994943678379 0.016339000314474106 0.007499991916120052
v -0.02897799015045166 0.007764995098114014 0.007499991916120052
v -0.03302096948027611 0.00999295711517334 0.007499991916120052
v -0.02897799015045166 0.007764995098114014 0.007499991916120052
v -0.03305798023939133 0.008963941596448421 0.007499991916120052
v -0.03305798023939133 0.008963941596448421 0.007499991916120052
v -0.02897799015045166 0.007764995098114014 0.007499991916120052
v -0.02995895966887474 -0.0015699859941378236 0.007499991916120052
v -0.03305798023939133 0.008963941596448421 0.007499991916120052
v -0.02995895966887474 -0.0015699859941378236 0.007499991916120052
v -0.03359197825193405 0.00785899069160223 0.007499991916120052
v -0.03359197825193405 0.00785899069160223 0.007499991916120052
v -0.02995895966887474 -0.0015699859941378236 0.007499991916120052
v -0.03445297107100487 -0.0018059610156342387 0.007499991916120052
v 0.025709979236125946 0.024472950026392937 0.007499991916120052
v 0.023313989862799644 0.018879950046539307 0.007499991916120052
v 0.01878993958234787 0.028934000059962273 0.007499991916120052
v 0.010352959856390953 0.03863697871565819 0.007799983024597168
v 0.020818939432501793 0.03415495157241821 0.007799983024597168
v 0.01214396022260189 0.03450297936797142 0.007399975787848234
v 0.01214396022260189 0.03450297936797142 0.007399975787848234
v 0.020818939432501793 0.03415495157241821 0.007799983024597168
v 0.025709979236125946 0.027852950617671013 0.007499991916120052
v 0.03619198873639107 0.011266940273344517 0.007499991916120052
v 0.029597990214824677 0.026905950158834457 0.007799983024597168
v 0.03597896918654442 0.017477979883551598 0.007799983024597168
v 0.03619198873639107 0.011266940273344517 0.007499991916120052
v 0.03597896918654442 0.017477979883551598 0.007799983024597168
v 0.03734295815229416 0.010275949724018574 0.007499991916120052
v 0.03220795840024948 0.012363970279693604 0.007499991916120052
v 0.03404897078871727 0.009122966788709164 0.007499991916120052
v 0.03445297107100487 0.0018059610156342387 0.007499991916120052
v 0.03734295815229416 0.010275949724018574 0.007499991916120052
v 0.03597896918654442 0.017477979883551598 0.007799983024597168
v 0.039445988833904266 0.006632983218878508 0.007799983024597168
v 0.02770995907485485 0.025344960391521454 0.007499991916120052
v 0.027304939925670624 0.027488939464092255 0.007499991916120052
v 0.029597990214824677 0.026905950158834457 0.007799983024597168
v 0.029597990214824677 0.026905950158834457 0.007799983024597168
v 0.027304939925670624 0.027488939464092255 0.007499991916120052
v 0.020818939432501793 0.03415495157241821 0.007799983024597168
v 0.020818939432501793 0.03415495157241821 0.007799983024597168
v 0.027304939925670624 0.027488939464092255 0.007499991916120052
v 0.025709979236125946 0.027852950617671013 0.007499991916120052
v 0.025709979236125946 0.027852950617671013 0.007499991916120052
v 0.024472950026392937 0.026615969836711884 0.007499991916120052
v 0.01878993958234787 0.028934000059962273 0.007499991916120052
v 0.01878993958234787 0.028934000059962273 0.007499991916120052
v 0.024472950026392937 0.026615969836711884 0.007499991916120052
v 0.025709979236125946 0.024472950026392937 0.007499991916120052
v 0.023313989862799644 0.018879950046539307 0.007499991916120052
v 0.025709979236125946 0.024472950026392937 0.007499991916120052
v 0.02770995907485485 0.025344960391521454 0.007499991916120052
v 0.01878993958234787 0.028934000059962273 0.007499991916120052
v 0.01214396022260189 0.03450297936797142 0.007399975787848234
v 0.025709979236125946 0.027852950617671013 0.007499991916120052
v 0.03619198873639107 0.011266940273344517 0.007499991916120052
v 0.03450195863842964 0.010813949629664421 0.007499991916120052
v 0.03220795840024948 0.012363970279693604 0.007499991916120052
v 0.03220795840024948 0.012363970279693604 0.007499991916120052
v 0.03450195863842964 0.010813949629664421 0.007499991916120052
v 0.03404897078871727 0.009122966788709164 0.007499991916120052
v 0.03839600086212158 -0.010288000106811523 0.007499991916120052
v 0.03697596862912178 -0.007008968852460384 0.007399975787848234
v 0.039445988833904266 0.006632983218878508 0.007799983024597168
v 0.02770995907485485 0.025344960391521454 0.007499991916120052
v 0.029597990214824677 0.026905950158834457 0.007799983024597168
v 0.03619198873639107 0.011266940273344517 0.007499991916120052
v 0.02770995907485485 0.025344960391521454 0.007499991916120052
v 0.03619198873639107 0.011266940273344517 0.007499991916120052
v 0.03220795840024948 0.012363970279693604 0.007499991916120052
v 0.02770995907485485 0.025344960391521454 0.007499991916120052
v 0.03220795840024948 0.012363970279693604 0.007499991916120052
v 0.023313989862799644 0.018879950046539307 0.007499991916120052
v 0.03404897078871727 0.009122966788709164 0.007499991916120052
v 0.035285938531160355 0.007885991595685482 0.007499991916120052
v 0.03445297107100487 0.0018059610156342387 0.007499991916120052
v 0.03445297107100487 0.0018059610156342387 0.007499991916120052
v 0.035285938531160355 0.007885991595685482 0.007499991916120052
v 0.03697596862912178 -0.007008968852460384 0.007399975787848234
v 0.03697596862912178 -0.007008968852460384 0.007399975787848234
v 0.035285938531160355 0.007885991595685482 0.007499991916120052
v 0.03677796944975853 0.00816798210144043 0.007499991916120052
v 0.03697596862912178 -0.007008968852460384 0.007399975787848234
v 0.03677796944975853 0.00816798210144043 0.007499991916120052
v 0.039445988833904266 0.006632983218878508 0.007799983024597168
v 0.039445988833904266 0.006632983218878508 0.007799983024597168
v 0.03677796944975853 0.00816798210144043 0.007499991916120052
v 0.03734295815229416 0.010275949724018574 0.007499991916120052
v -0.01214396022260189 -0.03450297936797142 0.007399975787848234
v -0.010352959856390953 -0.03863697871565819 0.007799983024597168
v -0.020818939432501793 -0.03415495157241821 0.007799983024597168
v -0.03459798917174339 -0.008249998092651367 0.007499991916120052
v -0.03697698935866356 -0.00833898689597845 0.007499991916120052
v -0.03445297107100487 -0.0018059610156342387 0.007499991916120052
v -0.029597990214824677 -0.026905950158834457 0.007799983024597168
v -0.027852950617671013 -0.025709979236125946 0.007499991916120052
v -0.026615969836711884 -0.027852950617671013 0.007499991916120052
v -0.025709979236125946 -0.024472950026392937 0.007499991916120052
v -0.023313989862799644 -0.018879950046539307 0.007499991916120052
v -0.024558959528803825 -0.025462979450821877 0.007499991916120052
v -0.024558959528803825 -0.025462979450821877 0.007499991916120052
v -0.023313989862799644 -0.018879950046539307 0.007499991916120052
v -0.01878993958234787 -0.028934000059962273 0.007499991916120052
v -0.027852950617671013 -0.025709979236125946 0.007499991916120052
v -0.03619198873639107 -0.011266940273344517 0.007499991916120052
v -0.03469996899366379 -0.010983999818563461 0.007499991916120052
v -0.03459798917174339 -0.008249998092651367 0.007499991916120052
v -0.03445297107100487 -0.0018059610156342387 0.007499991916120052
v -0.033989958465099335 -0.009641945362091064 0.007499991916120052
v -0.01878993958234787 -0.028934000059962273 0.007499991916120052
v -0.01214396022260189 -0.03450297936797142 0.007399975787848234
v -0.024558959528803825 -0.025462979450821877 0.007499991916120052
v -0.025709979236125946 -0.024472950026392937 0.007499991916120052
v -0.027852950617671013 -0.025709979236125946 0.007499991916120052
v -0.023313989862799644 -0.018879950046539307 0.007499991916120052
v -0.023313989862799644 -0.018879950046539307 0.007499991916120052
v -0.027852950617671013 -0.025709979236125946 0.007499991916120052
v -0.03469996899366379 -0.010983999818563461 0.007499991916120052
v -0.023313989862799644 -0.018879950046539307 0.007499991916120052
v -0.03469996899366379 -0.010983999818563461 0.007499991916120052
v -0.033989958465099335 -0.009641945362091064 0.007499991916120052
v -0.039445988833904266 -0.006632983218878508 0.007799983024597168
v -0.03851794824004173 0.008941948413848877 0.007399975787848234
v -0.03697698935866356 -0.00833898689597845 0.007499991916120052
v -0.03697698935866356 -0.00833898689597845 0.007499991916120052
v -0.03851794824004173 0.008941948413848877 0.007399975787848234
v -0.03697596862912178 0.007008968852460384 0.007399975787848234
v -0.03697698935866356 -0.00833898689597845 0.007499991916120052
v -0.03697596862912178 0.007008968852460384 0.007399975787848234
v -0.03445297107100487 -0.0018059610156342387 0.007499991916120052
v -0.026615969836711884 -0.027852950617671013 0.007499991916120052
v -0.025123950093984604 -0.02757095918059349 0.007499991916120052
v -0.020818939432501793 -0.03415495157241821 0.007799983024597168
v -0.029597990214824677 -0.026905950158834457 0.007799983024597168
v -0.026615969836711884 -0.027852950617671013 0.007499991916120052
v -0.020818939432501793 -0.03415495157241821 0.007799983024597168
v -0.03619198873639107 -0.011266940273344517 0.007499991916120052
v -0.03597896918654442 -0.017477979883551598 0.007799983024597168
v -0.03742998093366623 -0.010028949938714504 0.007499991916120052
v -0.03742998093366623 -0.010028949938714504 0.007499991916120052
v -0.03597896918654442 -0.017477979883551598 0.007799983024597168
v -0.039445988833904266 -0.006632983218878508 0.007799983024597168
v -0.03742998093366623 -0.010028949938714504 0.007499991916120052
v -0.039445988833904266 -0.006632983218878508 0.007799983024597168
v -0.03697698935866356 -0.00833898689597845 0.007499991916120052
v -0.027852950617671013 -0.025709979236125946 0.007499991916120052
v -0.029597990214824677 -0.026905950158834457 0.007799983024597168
v -0.03597896918654442 -0.017477979883551598 0.007799983024597168
v -0.027852950617671013 -0.025709979236125946 0.007499991916120052
v -0.03597896918654442 -0.017477979883551598 0.007799983024597168
v -0.03619198873639107 -0.011266940273344517 0.007499991916120052
v -0.01214396022260189 -0.03450297936797142 0.007399975787848234
v -0.020818939432501793 -0.03415495157241821 0.007799983024597168
v -0.025123950093984604 -0.02757095918059349 0.007499991916120052
v -0.01214396022260189 -0.03450297936797142 0.007399975787848234
v -0.025123950093984604 -0.02757095918059349 0.007499991916120052
v -0.024558959528803825 -0.025462979450821877 0.007499991916120052
v -0.02241997979581356 0.03312598913908005 0.007799983024597168
v -0.012179969809949398 0.0381009504199028 0.007799983024597168
v -0.010028949938714504 0.03742998093366623 0.007499991916120052
v -0.010750940069556236 0.02800697088241577 0.007499991916120052
v -0.010813949629664421 0.03450195863842964 0.007499991916120052
v -0.009250997565686703 0.034019939601421356 0.007499991916120052
v -0.010750940069556236 0.02800697088241577 0.007499991916120052
v -0.009250997565686703 0.034019939601421356 0.007499991916120052
v -0.0018059610156342387 0.03445297107100487 0.007499991916120052
v -0.0018059610156342387 0.03445297107100487 0.007499991916120052
v -0.009250997565686703 0.034019939601421356 0.007499991916120052
v -0.007827997207641602 0.035673968493938446 0.007499991916120052
v -0.024558959528803825 0.026862969622015953 0.007499991916120052
v -0.025709979236125946 0.027852950617671013 0.007499991916120052
v -0.02241997979581356 0.03312598913908005 0.007799983024597168
v -0.02241997979581356 0.03312598913908005 0.007799983024597168
v -0.025709979236125946 0.027852950617671013 0.007499991916120052
v -0.027399949729442596 0.027399949729442596 0.007499991916120052
v -0.02241997979581356 0.03312598913908005 0.007799983024597168
v -0.027399949729442596 0.027399949729442596 0.007499991916120052
v -0.030844980850815773 0.025467989966273308 0.007799983024597168
v -0.010028949938714504 0.03742998093366623 0.007499991916120052
v -0.012179969809949398 0.0381009504199028 0.007799983024597168
v -0.0009519999730400741 0.03998899087309837 0.007799983024597168
v -0.010028949938714504 0.03742998093366623 0.007499991916120052
v -0.0009519999730400741 0.03998899087309837 0.007799983024597168
v -0.008434951305389404 0.03706597909331322 0.007499991916120052
v -0.027852950617671013 0.025709979236125946 0.007499991916120052
v -0.026615969836711884 0.024472950026392937 0.007499991916120052
v -0.028934000059962273 0.01878993958234787 0.007499991916120052
v -0.03676997870206833 0.015745989978313446 0.007799983024597168
v -0.03693199157714844 0.012053960002958775 0.007499991916120052
v -0.03851794824004173 0.008941948413848877 0.007399975787848234
v -0.028934000059962273 0.01878993958234787 0.007499991916120052
v -0.026615969836711884 0.024472950026392937 0.007499991916120052
v -0.025123950093984604 0.024754999205470085 0.007499991916120052
v 0.010352959856390953 0.03863697871565819 0.007799983024597168
v 0.007107973098754883 0.03716396912932396 0.007399975787848234
v -0.0009519999730400741 0.03998899087309837 0.007799983024597168
v -0.010028949938714504 0.03742998093366623 0.007499991916120052
v -0.011266940273344517 0.03619198873639107 0.007499991916120052
v -0.02241997979581356 0.03312598913908005 0.007799983024597168
v -0.02241997979581356 0.03312598913908005 0.007799983024597168
v -0.011266940273344517 0.03619198873639107 0.007499991916120052
v -0.010813949629664421 0.03450195863842964 0.007499991916120052
v -0.030844980850815773 0.025467989966273308 0.007799983024597168
v -0.027399949729442596 0.027399949729442596 0.007499991916120052
v -0.027852950617671013 0.025709979236125946 0.007499991916120052
v -0.030844980850815773 0.025467989966273308 0.007799983024597168
v -0.027852950617671013 0.025709979236125946 0.007499991916120052
v -0.03676997870206833 0.015745989978313446 0.007799983024597168
v -0.03676997870206833 0.015745989978313446 0.007799983024597168
v -0.027852950617671013 0.025709979236125946 0.007499991916120052
v -0.03693199157714844 0.012053960002958775 0.007499991916120052
v -0.03693199157714844 0.012053960002958775 0.007499991916120052
v -0.027852950617671013 0.025709979236125946 0.007499991916120052
v -0.028934000059962273 0.01878993958234787 0.007499991916120052
v -0.03693199157714844 0.012053960002958775 0.007499991916120052
v -0.028934000059962273 0.01878993958234787 0.007499991916120052
v -0.03450297936797142 0.01214396022260189 0.007399975787848234
v 0.007107973098754883 0.03716396912932396 0.007399975787848234
v -0.0018059610156342387 0.03445297107100487 0.007499991916120052
v -0.007827997207641602 0.035673968493938446 0.007499991916120052
v 0.007107973098754883 0.03716396912932396 0.007399975787848234
v -0.007827997207641602 0.035673968493938446 0.007499991916120052
v -0.0009519999730400741 0.03998899087309837 0.007799983024597168
v -0.0009519999730400741 0.03998899087309837 0.007799983024597168
v -0.007827997207641602 0.035673968493938446 0.007499991916120052
v -0.008434951305389404 0.03706597909331322 0.007499991916120052
v -0.024558959528803825 0.026862969622015953 0.007499991916120052
v -0.02241997979581356 0.03312598913908005 0.007799983024597168
v -0.010813949629664421 0.03450195863842964 0.007499991916120052
v -0.024558959528803825 0.026862969622015953 0.007499991916120052
v -0.010813949629664421 0.03450195863842964 0.007499991916120052
v -0.010750940069556236 0.02800697088241577 0.007499991916120052
v -0.024558959528803825 0.026862969622015953 0.007499991916120052
v -0.010750940069556236 0.02800697088241577 0.007499991916120052
v -0.025123950093984604 0.024754999205470085 0.007499991916120052
v -0.03697596862912178 0.007008968852460384 0.007399975787848234
v -0.03450297936797142 0.01214396022260189 0.007399975787848234
v -0.033323999494314194 0.008928953669965267 0.007799983024597168
v -0.033323999494314194 0.008928953669965267 0.007799983024597168
v -0.03450297936797142 0.01214396022260189 0.007399975787848234
v -0.028934000059962273 0.01878993958234787 0.007499991916120052
v 0.008928953669965267 0.033323999494314194 0.007799983024597168
v -0.0018059610156342387 0.03445297107100487 0.007499991916120052
v 0.007107973098754883 0.03716396912932396 0.007399975787848234
v 0.008928953669965267 0.033323999494314194 0.007799983024597168
v 0.007107973098754883 0.03716396912932396 0.007399975787848234
v 0.01214396022260189 0.03450297936797142 0.007399975787848234
v -0.03697596862912178 0.007008968852460384 0.007399975787848234
v -0.033323999494314194 0.008928953669965267 0.007799983024597168
v -0.03445297107100487 -0.0018059610156342387 0.007499991916120052
v -0.01214396022260189 -0.03450297936797142 0.007399975787848234
v -0.01878993958234787 -0.028934000059962273 0.007499991916120052
v -0.008928953669965267 -0.033323999494314194 0.007799983024597168
v 0.033323999494314194 -0.008928953669965267 0.007799983024597168
v 0.03697596862912178 -0.007008968852460384 0.007399975787848234
v 0.03316497057676315 -0.010542980395257473 0.007499991916120052
v 0.033323999494314194 -0.008928953669965267 0.007799983024597168
v 0.03316497057676315 -0.010542980395257473 0.007499991916120052
v 0.028934000059962273 -0.01878993958234787 0.007499991916120052
v -0.008928953669965267 -0.033323999494314194 0.007799983024597168
v 0.0018059610156342387 -0.03445297107100487 0.007499991916120052
v -0.00672596599906683 -0.035739000886678696 0.007399975787848234
v -0.008928953669965267 -0.033323999494314194 0.007799983024597168
v -0.00672596599906683 -0.035739000886678696 0.007399975787848234
v -0.01214396022260189 -0.03450297936797142 0.007399975787848234
v 0.03697596862912178 -0.007008968852460384 0.007399975787848234
v 0.033323999494314194 -0.008928953669965267 0.007799983024597168
v 0.03445297107100487 0.0018059610156342387 0.007499991916120052
v 0.01214396022260189 0.03450297936797142 0.007399975787848234
v 0.01878993958234787 0.028934000059962273 0.007499991916120052
v 0.008928953669965267 0.033323999494314194 0.007799983024597168
v 0.03676997870206833 -0.015745989978313446 0.007799983024597168
v 0.035739000886678696 -0.012425949797034264 0.007399975787848234
v 0.03839600086212158 -0.010288000106811523 0.007499991916120052
v 0.007885991595685482 -0.03619198873639107 0.007499991916120052
v 0.009122966788709164 -0.03742998093366623 0.007499991916120052
v 0.0009519999730400741 -0.03998899087309837 0.007799983024597168
v 0.0009519999730400741 -0.03998899087309837 0.007799983024597168
v 0.009122966788709164 -0.03742998093366623 0.007499991916120052
v 0.012179969809949398 -0.0381009504199028 0.007799983024597168
v 0.0018059610156342387 -0.03445297107100487 0.007499991916120052
v 0.009122966788709164 -0.03404897078871727 0.007499991916120052
v 0.007885991595685482 -0.03619198873639107 0.007499991916120052
v 0.026615969836711884 -0.024472950026392937 0.007499991916120052
v 0.03676997870206833 -0.015745989978313446 0.007799983024597168
v 0.030844980850815773 -0.025467989966273308 0.007799983024597168
v 0.026615969836711884 -0.024472950026392937 0.007499991916120052
v 0.030844980850815773 -0.025467989966273308 0.007799983024597168
v 0.02770995907485485 -0.026980990543961525 0.007499991916120052
v 0.035739000886678696 -0.012425949797034264 0.007399975787848234
v 0.028934000059962273 -0.01878993958234787 0.007499991916120052
v 0.03316497057676315 -0.010542980395257473 0.007499991916120052
v 0.024472950026392937 -0.025709979236125946 0.007499991916120052
v 0.028934000059962273 -0.01878993958234787 0.007499991916120052
v 0.026615969836711884 -0.024472950026392937 0.007499991916120052
v -0.010352959856390953 -0.03863697871565819 0.007799983024597168
v -0.00672596599906683 -0.035739000886678696 0.007399975787848234
v 0.0009519999730400741 -0.03998899087309837 0.007799983024597168
v 0.0009519999730400741 -0.03998899087309837 0.007799983024597168
v -0.00672596599906683 -0.035739000886678696 0.007399975787848234
v 0.007885991595685482 -0.03619198873639107 0.007499991916120052
v 0.007885991595685482 -0.03619198873639107 0.007499991916120052
v -0.00672596599906683 -0.035739000886678696 0.007399975787848234
v 0.0018059610156342387 -0.03445297107100487 0.007499991916120052
v 0.035739000886678696 -0.012425949797034264 0.007399975787848234
v 0.03676997870206833 -0.015745989978313446 0.007799983024597168
v 0.026615969836711884 -0.024472950026392937 0.007499991916120052
v 0.035739000886678696 -0.012425949797034264 0.007399975787848234
v 0.026615969836711884 -0.024472950026392937 0.007499991916120052
v 0.028934000059962273 -0.01878993958234787 0.007499991916120052
v 0.01071797963231802 -0.03441298007965088 0.007499991916120052
v 0.009122966788709164 -0.03404897078871727 0.007499991916120052
v 0.025709979236125946 -0.027852950617671013 0.007499991916120052
v 0.024472950026392937 -0.025709979236125946 0.007499991916120052
v 0.025709979236125946 -0.027852950617671013 0.007499991916120052
v 0.010750940069556236 -0.02800697088241577 0.007499991916120052
v 0.010750940069556236 -0.02800697088241577 0.007499991916120052
v 0.025709979236125946 -0.027852950617671013 0.007499991916120052
v 0.009122966788709164 -0.03404897078871727 0.007499991916120052
v 0.010750940069556236 -0.02800697088241577 0.007499991916120052
v 0.009122966788709164 -0.03404897078871727 0.007499991916120052
v 0.0018059610156342387 -0.03445297107100487 0.007499991916120052
v 0.02241997979581356 -0.03312598913908005 0.007799983024597168
v 0.025709979236125946 -0.027852950617671013 0.007499991916120052
v 0.02770995907485485 -0.026980990543961525 0.007499991916120052
v 0.02241997979581356 -0.03312598913908005 0.007799983024597168
v 0.02770995907485485 -0.026980990543961525 0.007499991916120052
v 0.030844980850815773 -0.025467989966273308 0.007799983024597168
v 0.009122966788709164 -0.03742998093366623 0.007499991916120052
v 0.01132499985396862 -0.035804979503154755 0.007499991916120052
v 0.012179969809949398 -0.0381009504199028 0.007799983024597168
v 0.012179969809949398 -0.0381009504199028 0.007799983024597168
v 0.01132499985396862 -0.035804979503154755 0.007499991916120052
v 0.02241997979581356 -0.03312598913908005 0.007799983024597168
v 0.02241997979581356 -0.03312598913908005 0.007799983024597168
v 0.01132499985396862 -0.035804979503154755 0.007499991916120052
v 0.025709979236125946 -0.027852950617671013 0.007499991916120052
v 0.025709979236125946 -0.027852950617671013 0.007499991916120052
v 0.01132499985396862 -0.035804979503154755 0.007499991916120052
v 0.01071797963231802 -0.03441298007965088 0.007499991916120052
v 0.03971695154905319 -0.004749000072479248 0.007799983024597168
v 0.03839600086212158 -0.010288000106811523 0.007499991916120052
v 0.039445988833904266 0.006632983218878508 0.007799983024597168
v 0.03839600086212158 -0.010288000106811523 0.007499991916120052
v 0.03971695154905319 -0.004749000072479248 0.007799983024597168
v 0.03676997870206833 -0.015745989978313446 0.007799983024597168
v -0.03971695154905319 0.004749000072479248 0.007799983024597168
v -0.03851794824004173 0.008941948413848877 0.007399975787848234
v -0.039445988833904266 -0.006632983218878508 0.007799983024597168
v -0.03851794824004173 0.008941948413848877 0.007399975787848234
v -0.03971695154905319 0.004749000072479248 0.007799983024597168
v -0.03676997870206833 0.015745989978313446 0.007799983024597168
v -0.010352959856390953 -0.03863697871565819 0.007799983024597168
v -0.010352959856390953 -0.03863697871565819 0.016499990597367287
v -0.020818939432501793 -0.03415495157241821 0.016499990597367287
v -0.010352959856390953 -0.03863697871565819 0.007799983024597168
v -0.020818939432501793 -0.03415495157241821 0.016499990597367287
v -0.020818939432501793 -0.03415495157241821 0.007799983024597168
v -0.020818939432501793 -0.03415495157241821 0.007799983024597168
v -0.020818939432501793 -0.03415495157241821 0.016499990597367287
v -0.029597990214824677 -0.026905950158834457 0.016499990597367287
v -0.020818939432501793 -0.03415495157241821 0.007799983024597168
v -0.029597990214824677 -0.026905950158834457 0.016499990597367287
v -0.029597990214824677 -0.026905950158834457 0.007799983024597168
v -0.029597990214824677 -0.026905950158834457 0.007799983024597168
v -0.029597990214824677 -0.026905950158834457 0.016499990597367287
v -0.03597896918654442 -0.017477979883551598 0.016499990597367287
v -0.029597990214824677 -0.026905950158834457 0.007799983024597168
v -0.03597896918654442 -0.017477979883551598 0.016499990597367287
v -0.03597896918654442 -0.017477979883551598 0.007799983024597168
v -0.03597896918654442 -0.017477979883551598 0.007799983024597168
v -0.03597896918654442 -0.017477979883551598 0.016499990597367287
v -0.039445988833904266 -0.006632983218878508 0.016499990597367287
v -0.03597896918654442 -0.017477979883551598 0.007799983024597168
v -0.039445988833904266 -0.006632983218878508 0.016499990597367287
v -0.039445988833904266 -0.006632983218878508 0.007799983024597168
v -0.039445988833904266 -0.006632983218878508 0.007799983024597168
v -0.039445988833904266 -0.006632983218878508 0.016499990597367287
v -0.03971695154905319 0.004749000072479248 0.016499990597367287
v -0.039445988833904266 -0.006632983218878508 0.007799983024597168
v -0.03971695154905319 0.004749000072479248 0.016499990597367287
v -0.03971695154905319 0.004749000072479248 0.007799983024597168
v -0.03971695154905319 0.004749000072479248 0.007799983024597168
v -0.03971695154905319 0.004749000072479248 0.016499990597367287
v -0.03676997870206833 0.015745989978313446 0.016499990597367287
v -0.03971695154905319 0.004749000072479248 0.007799983024597168
v -0.03676997870206833 0.015745989978313446 0.016499990597367287
v -0.03676997870206833 0.015745989978313446 0.007799983024597168
v -0.03676997870206833 0.015745989978313446 0.007799983024597168
v -0.03676997870206833 0.015745989978313446 0.016499990597367287
v -0.030844980850815773 0.025467989966273308 0.016499990597367287
v -0.03676997870206833 0.015745989978313446 0.007799983024597168
v -0.030844980850815773 0.025467989966273308 0.016499990597367287
v -0.030844980850815773 0.025467989966273308 0.007799983024597168
v -0.030844980850815773 0.025467989966273308 0.007799983024597168
v -0.030844980850815773 0.025467989966273308 0.016499990597367287
v -0.02241997979581356 0.03312598913908005 0.016499990597367287
v -0.030844980850815773 0.025467989966273308 0.007799983024597168
v -0.02241997979581356 0.03312598913908005 0.016499990597367287
v -0.02241997979581356 0.03312598913908005 0.007799983024597168
v -0.02241997979581356 0.03312598913908005 0.007799983024597168
v -0.02241997979581356 0.03312598913908005 0.016499990597367287
v -0.012179969809949398 0.0381009504199028 0.016499990597367287
v -0.02241997979581356 0.03312598913908005 0.007799983024597168
v -0.012179969809949398 0.0381009504199028 0.016499990597367287
v -0.012179969809949398 0.0381009504199028 0.007799983024597168
v -0.012179969809949398 0.0381009504199028 0.007799983024597168
v -0.012179969809949398 0.0381009504199028 0.016499990597367287
v -0.0009519999730400741 0.03998899087309837 0.016499990597367287
v -0.012179969809949398 0.0381009504199028 0.007799983024597168
v -0.0009519999730400741 0.03998899087309837 0.016499990597367287
v -0.0009519999730400741 0.03998899087309837 0.007799983024597168
v -0.0009519999730400741 0.03998899087309837 0.007799983024597168
v -0.0009519999730400741 0.03998899087309837 0.016499990597367287
v 0.010352959856390953 0.03863697871565819 0.016499990597367287
v -0.0009519999730400741 0.03998899087309837 0.007799983024597168
v 0.010352959856390953 0.03863697871565819 0.016499990597367287
v 0.010352959856390953 0.03863697871565819 0.007799983024597168
v 0.010352959856390953 0.03863697871565819 0.007799983024597168
v 0.010352959856390953 0.03863697871565819 0.016499990597367287
v 0.020818939432501793 0.03415495157241821 0.016499990597367287
v 0.010352959856390953 0.03863697871565819 0.007799983024597168
v 0.020818939432501793 0.03415495157241821 0.016499990597367287
v 0.020818939432501793 0.03415495157241821 0.007799983024597168
v 0.020818939432501793 0.03415495157241821 0.007799983024597168
v 0.020818939432501793 0.03415495157241821 0.016499990597367287
v 0.029597990214824677 0.026905950158834457 0.016499990597367287
v 0.020818939432501793 0.03415495157241821 0.007799983024597168
v 0.029597990214824677 0.026905950158834457 0.016499990597367287
v 0.029597990214824677 0.026905950158834457 0.007799983024597168
v 0.029597990214824677 0.026905950158834457 0.007799983024597168
v 0.029597990214824677 0.026905950158834457 0.016499990597367287
v 0.03597896918654442 0.017477979883551598 0.016499990597367287
v 0.029597990214824677 0.026905950158834457 0.007799983024597168
v 0.03597896918654442 0.017477979883551598 0.016499990597367287
v 0.03597896918654442 0.017477979883551598 0.007799983024597168
v 0.03597896918654442 0.017477979883551598 0.007799983024597168
v 0.03597896918654442 0.017477979883551598 0.016499990597367287
v 0.039445988833904266 0.006632983218878508 0.016499990597367287
v 0.03597896918654442 0.017477979883551598 0.007799983024597168
v 0.039445988833904266 0.006632983218878508 0.016499990597367287
v 0.039445988833904266 0.006632983218878508 0.007799983024597168
v 0.039445988833904266 0.006632983218878508 0.007799983024597168
v 0.039445988833904266 0.006632983218878508 0.016499990597367287
v 0.03971695154905319 -0.004749000072479248 0.016499990597367287
v 0.039445988833904266 0.006632983218878508 0.007799983024597168
v 0.03971695154905319 -0.004749000072479248 0.016499990597367287
v 0.03971695154905319 -0.004749000072479248 0.007799983024597168
v 0.03971695154905319 -0.004749000072479248 0.007799983024597168
v 0.03971695154905319 -0.004749000072479248 0.016499990597367287
v 0.03676997870206833 -0.015745989978313446 0.016499990597367287
v 0.03971695154905319 -0.004749000072479248 0.007799983024597168
v 0.03676997870206833 -0.015745989978313446 0.016499990597367287
v 0.03676997870206833 -0.015745989978313446 0.007799983024597168
v 0.03676997870206833 -0.015745989978313446 0.007799983024597168
v 0.03676997870206833 -0.015745989978313446 0.016499990597367287
v 0.030844980850815773 -0.025467989966273308 0.016499990597367287
v 0.03676997870206833 -0.015745989978313446 0.007799983024597168
v 0.030844980850815773 -0.025467989966273308 0.016499990597367287
v 0.030844980850815773 -0.025467989966273308 0.007799983024597168
v 0.030844980850815773 -0.025467989966273308 0.007799983024597168
v 0.030844980850815773 -0.025467989966273308 0.016499990597367287
v 0.02241997979581356 -0.03312598913908005 0.016499990597367287
v 0.030844980850815773 -0.025467989966273308 0.007799983024597168
v 0.02241997979581356 -0.03312598913908005 0.016499990597367287
v 0.02241997979581356 -0.03312598913908005 0.007799983024597168
v 0.02241997979581356 -0.03312598913908005 0.007799983024597168
v 0.02241997979581356 -0.03312598913908005 0.016499990597367287
v 0.012179969809949398 -0.0381009504199028 0.016499990597367287
v 0.02241997979581356 -0.03312598913908005 0.007799983024597168
v 0.012179969809949398 -0.0381009504199028 0.016499990597367287
v 0.012179969809949398 -0.0381009504199028 0.007799983024597168
v 0.012179969809949398 -0.0381009504199028 0.007799983024597168
v 0.012179969809949398 -0.0381009504199028 0.016499990597367287
v 0.0009519999730400741 -0.03998899087309837 0.016499990597367287
v 0.012179969809949398 -0.0381009504199028 0.007799983024597168
v 0.0009519999730400741 -0.03998899087309837 0.016499990597367287
v 0.0009519999730400741 -0.03998899087309837 0.007799983024597168
v 0.0009519999730400741 -0.03998899087309837 0.007799983024597168
v 0.0009519999730400741 -0.03998899087309837 0.016499990597367287
v -0.010352959856390953 -0.03863697871565819 0.016499990597367287
v 0.0009519999730400741 -0.03998899087309837 0.007799983024597168
v -0.010352959856390953 -0.03863697871565819 0.016499990597367287
v -0.010352959856390953 -0.03863697871565819 0.007799983024597168
vt 0 0
vt 0 0
vt 0 0
vt 0 0
vt 0 0
vt 0 0
vt 0 0
vt 0 0
vt 0 0
vt 0 0
vt 0 0
vt 0 0
vt 0 0
vt 0 0
vt 0 0
vt 0 0
vt 0 0
vt 0 0
vt 0 0
vt 0 0
vt 0 0
vt 0 0
vt 0 0
vt 0 0
vt 0 0
vt 0 0
vt 0 0
vt 0 0
vt 0 0
vt 0 0
vt 0 0
vt 0 0
vt 0 0
vt 0 0
vt 0 0
vt 0 0
vt 0 0
vt 0 0
vt 0 0
vt 0 0
vt 0 0
vt 0 0
vt 0 0
vt 0 0
vt 0 0
vt 0 0
vt 0 0
vt 0 0
vt 0 0
vt 0 0
vt 0 0
vt 0 0
vt 0 0
vt 0 0
vt 0 0
vt 0 0
vt 0 0
vt 0 0
vt 0 0
vt 0 0
vt 0 0
vt 0 0
vt 0 0
vt 0 0
vt 0 0
vt 0 0
vt 0 0
vt 0 0
vt 0 0
vt 0 0
vt 0 0
vt 0 0
vt 0 0
vt 0 0
vt 0 0
vt 0 0
vt 0 0
vt 0 0
vt 0 0
vt 0 0
vt 0 0
vt 0 0
vt 0 0
vt 0 0
vt 0 0
vt 0 0
vt 0 0
vt 0 0
vt 0 0
vt 0 0
vt 0 0
vt 0 0
vt 0 0
vt 0 0
vt 0 0
vt 0 0
vt 0 0
vt 0 0
vt 0 0
vt 0 0
vt 0 0
vt 0 0
vt 0 0
vt 0 0
vt 0 0
vt 0 0
vt 0 0
vt 0 0
vt 0 0
vt 0 0
vt 0 0
vt 0 0
vt 0 0
vt 0 0
vt 0 0
vt 0 0
vt 0 0
vt 0 0
vt 0 0
vt 0 0
vt 0 0
vt 0 0
vt 0 0
vt 0 0
vt 0 0
vt 0 0
vt 0 0
vt 0 0
vt 0 0
vt 0 0
vt 0 0
vt 0 0
vt 0 0
vt 0 0
vt 0 0
vt 0 0
vt 0 0
vt 0 0
vt 0 0
vt 0 0
vt 0 0
vt 0 0
vt 0 0
vt 0 0
vt 0 0
vt 0 0
vt 0 0
vt 0 0
vt 0 0
vt 0 0
vt 0 0
vt 0 0
vt 0 0
vt 0 0
vt 0 0
vt 0 0
vt 0 0
vt 0 0
vt 0 0
vt 0 0
vt 0 0
vt 0 0
vt 0 0
vt 0 0
vt 0 0
vt 0 0
vt 0 0
vt 0 0
vt 0 0
vt 0 0
vt 0 0
vt 0 0
vt 0 0
vt 0 0
vt 0 0
vt 0 0
vt 0 0
vt 0 0
vt 0 0
vt 0 0
vt 0 0
vt 0 0
vt 0 0
vt 0 0
vt 0 0
vt 0 0
vt 0 0
vt 0 0
vt 0 0
vt 0 0
vt 0 0
vt 0 0
vt 0 0
vt 0 0
vt 0 0
vt 0 0
vt 0 0
vt 0 0
vt 0 0
vt 0 0
vt 0 0
vt 0 0
vt 0 0
vt 0 0
vt 0 0
vt 0 0
vt 0 0
vt 0 0
vt 0 0
vt 0 0
vt 0 0
vt 0 0
vt 0 0
vt 0 0
vt 0 0
vt 0 0
vt 0 0
vt 0 0
vt 0 0
vt 0 0
vt 0 0
vt 0 0
vt 0 0
vt 0 0
vt 0 0
vt 0 0
vt 0 0
vt 0 0
vt 0 0
vt 0 0
vt 0 0
vt 0 0
vt 0 0
vt 0 0
vt 0 0
vt 0 0
vt 0 0
vt 0 0
vt 0 0
vt 0 0
vt 0 0
vt 0 0
vt 0 0
vt 0 0
vt 0 0
vt 0 0
vt 0 0
vt 0 0
vt 0 0
vt 0 0
vt 0 0
vt 0 0
vt 0 0
vt 0 0
vt 0 0
vt 0 0
vt 0 0
vt 0 0
vt 0 0
vt 0 0
vt 0 0
vt 0 0
vt 0 0
vt 0 0
vt 0 0
vt 0 0
vt 0 0
vt 0 0
vt 0 0
vt 0 0
vt 0 0
vt 0 0
vt 0 0
vt 0 0
vt 0 0
vt 0 0
vt 0 0
vt 0 0
vt 0 0
vt 0 0
vt 0 0
vt 0 0
vt 0 0
vt 0 0
vt 0 0
vt 0 0
vt 0 0
vt 0 0
vt 0 0
vt 0 0
vt 0 0
vt 0 0
vt 0 0
vt 0 0
vt 0 0
vt 0 0
vt 0 0
vt 0 0
vt 0 0
vt 0 0
vt 0 0
vt 0 0
vt 0 0
vt 0 0
vt 0 0
vt 0 0
vt 0 0
vt 0 0
vt 0 0
vt 0 0
vt 0 0
vt 0 0
vt 0 0
vt 0 0
vt 0 0
vt 0 0
vt 0 0
vt 0 0
vt 0 0
vt 0 0
vt 0 0
vt 0 0
vt 0 0
vt 0 0
vt 0 0
vt 0 0
vt 0 0
vt 0 0
vt 0 0
vt 0 0
vt 0 0
vt 0 0
vt 0 0
vt 0 0
vt 0 0
vt 0 0
vt 0 0
vt 0 0
vt 0 0
vt 0 0
vt 0 0
vt 0 0
vt 0 0
vt 0 0
vt 0 0
vt 0 0
vt 0 0
vt 0 0
vt 0 0
vt 0 0
vt 0 0
vt 0 0
vt 0 0
vt 0 0
vt 0 0
vt 0 0
vt 0 0
vt 0 0
vt 0 0
vt 0 0
vt 0 0
vt 0 0
vt 0 0
vt 0 0
vt 0 0
vt 0 0
vt 0 0
vt 0 0
vt 0 0
vt 0 0
vt 0 0
vt 0 0
vt 0 0
vt 0 0
vt 0 0
vt 0 0
vt 0 0
vt 0 0
vt 0 0
vt 0 0
vt 0 0
vt 0 0
vt 0 0
vt 0 0
vt 0 0
vt 0 0
vt 0 0
vt 0 0
vt 0 0
vt 0 0
vt 0 0
vt 0 0
vt 0 0
vt 0 0
vt 0 0
vt 0 0
vt 0 0
vt 0 0
vt 0 0
vt 0 0
vt 0 0
vt 0 0
vt 0 0
vt 0 0
vt 0 0
vt 0 0
vt 0 0
vt 0 0
vt 0 0
vt 0 0
vt 0 0
vt 0 0
vt 0 0
vt 0 0
vt 0 0
vt 0 0
vt 0 0
vt 0 0
vt 0 0
vt 0 0
vt 0 0
vt 0 0
vt 0 0
vt 0 0
vt 0 0
vt 0 0
vt 0 0
vt 0 0
vt 0 0
vt 0 0
vt 0 0
vt 0 0
vt 0 0
vt 0 0
vt 0 0
vt 0 0
vt 0 0
vt 0 0
vt 0 0
vt 0 0
vt 0 0
vt 0 0
vt 0 0
vt 0 0
vt 0 0
vt 0 0
vt 0 0
vt 0 0
vt 0 0
vt 0 0
vt 0 0
vt 0 0
vt 0 0
vt 0 0
vt 0 0
vt 0 0
vt 0 0
vt 0 0
vt 0 0
vt 0 0
vt 0 0
vt 0 0
vt 0 0
vt 0 0
vt 0 0
vt 0 0
vt 0 0
vt 0 0
vt 0 0
vt 0 0
vt 0 0
vt 0 0
vt 0 0
vt 0 0
vt 0 0
vt 0 0
vt 0 0
vt 0 0
vt 0 0
vt 0 0
vt 0 0
vt 0 0
vt 0 0
vt 0 0
vt 0 0
vt 0 0
vt 0 0
vt 0 0
vt 0 0
vt 0 0
vt 0 0
vt 0 0
vt 0 0
vt 0 0
vt 0 0
vt 0 0
vt 0 0
vt 0 0
vt 0 0
vt 0 0
vt 0 0
vt 0 0
vt 0 0
vt 0 0
vt 0 0
vt 0 0
vt 0 0
vt 0 0
vt 0 0
vt 0 0
vt 0 0
vt 0 0
vt 0 0
vt 0 0
vt 0 0
vt 0 0
vt 0 0
vt 0 0
vt 0 0
vt 0 0
vt 0 0
vt 0 0
vt 0 0
vt 0 0
vt 0 0
vt 0 0
vt 0 0
vt 0 0
vt 0 0
vt 0 0
vt 0 0
vt 0 0
vt 0 0
vt 0 0
vt 0 0
vt 0 0
vt 0 0
vt 0 0
vt 0 0
vt 0 0
vt 0 0
vt 0 0
vt 0 0
vt 0 0
vt 0 0
vt 0 0
vt 0 0
vt 0 0
vt 0 0
vt 0 0
vt 0 0
vt 0 0
vt 0 0
vt 0 0
vt 0 0
vt 0 0
vt 0 0
vt 0 0
vt 0 0
vt 0 0
vt 0 0
vt 0 0
vt 0 0
vt 0 0
vt 0 0
vt 0 0
vt 0 0
vt 0 0
vt 0 0
vt 0 0
vt 0 0
vt 0 0
vt 0 0
vt 0 0
vt 0 0
vt 0 0
vt 0 0
vt 0 0
vt 0 0
vt 0 0
vt 0 0
vt 0 0
vt 0 0
vt 0 0
vt 0 0
vt 0 0
vt 0 0
vt 0 0
vn 0 0 -1
vn 0 0 -1
vn 0 0 -1
vn 3.6732399166792016e-7 0 -0.9999999999999325
vn 3.6732399166792016e-7 0 -0.9999999999999325
vn 3.6732399166792016e-7 0 -0.9999999999999325
vn 0 0 -1
vn 0 0 -1
vn 0 0 -1
vn 3.3707499369482223e-7 0 -0.9999999999999432
vn 3.3707499369482223e-7 0 -0.9999999999999432
vn 3.3707499369482223e-7 0 -0.9999999999999432
vn 0 0 -1
vn 0 0 -1
vn 0 0 -1
vn 0 0 -1
vn 0 0 -1
vn 0 0 -1
vn 0 0 -1
vn 0 0 -1
vn 0 0 -1
vn 0 0 -1
vn 0 0 -1
vn 0 0 -1
vn 1.7440000021906337e-7 0 -0.9999999999999849
vn 1.7440000021906337e-7 0 -0.9999999999999849
vn 1.7440000021906337e-7 0 -0.9999999999999849
vn 0 0 -1
vn 0 0 -1
vn 0 0 -1
vn -0.09080385989912534 0.0018302200714117652 -0.9958671142888041
vn -0.09080385989912534 0.0018302200714117652 -0.9958671142888041
vn -0.09080385989912534 0.0018302200714117652 -0.9958671142888041
vn 0.09762556124189932 -0.053799033266033136 -0.9937680382321845
vn 0.09762556124189932 -0.053799033266033136 -0.9937680382321845
vn 0.09762556124189932 -0.053799033266033136 -0.9937680382321845
vn 0 0 -1
vn 0 0 -1
vn 0 0 -1
vn -1.683579995415106e-7 0 -0.9999999999999858
vn -1.683579995415106e-7 0 -0.9999999999999858
vn -1.683579995415106e-7 0 -0.9999999999999858
vn 0 0 -1
vn 0 0 -1
vn 0 0 -1
vn 0 0 -1
vn 0 0 -1
vn 0 0 -1
vn 0 0 -1
vn 0 0 -1
vn 0 0 -1
vn 0 0 -1
vn 0 0 -1
vn 0 0 -1
vn 0 0 -1
vn 0 0 -1
vn 0 0 -1
vn 0 0 -1
vn 0 0 -1
vn 0 0 -1
vn 0 0 -1
vn 0 0 -1
vn 0 0 -1
vn 0 0 -1
vn 0 0 -1
vn 0 0 -1
vn 0 0 -1
vn 0 0 -1
vn 0 0 -1
vn 1.683579995415106e-7 0 -0.9999999999999858
vn 1.683579995415106e-7 0 -0.9999999999999858
vn 1.683579995415106e-7 0 -0.9999999999999858
vn 0 0 -1
vn 0 0 -1
vn 0 0 -1
vn -0.09762548010574908 0.05379902626746489 -0.9937680465816933
vn -0.09762548010574908 0.05379902626746489 -0.9937680465816933
vn -0.09762548010574908 0.05379902626746489 -0.9937680465816933
vn 0.09080391162319884 -0.0018302198299143665 -0.9958671095730095
vn 0.09080391162319884 -0.0018302198299143665 -0.9958671095730095
vn 0.09080391162319884 -0.0018302198299143665 -0.9958671095730095
vn 0 0 -1
vn 0 0 -1
vn 0 0 -1
vn 0 0 -1
vn 0 0 -1
vn 0 0 -1
vn 0 0 -1
vn 0 0 -1
vn 0 0 -1
vn 0 0 -1
vn 0 0 -1
vn 0 0 -1
vn 0 0 -1
vn 0 0 -1
vn 0 0 -1
vn 0 0 -1
vn 0 0 -1
vn 0 0 -1
vn -3.367159990830069e-7 0 -0.9999999999999434
vn -3.367159990830069e-7 0 -0.9999999999999434
vn -3.367159990830069e-7 0 -0.9999999999999434
vn -3.3707499369482223e-7 0 -0.9999999999999432
vn -3.3707499369482223e-7 0 -0.9999999999999432
vn -3.3707499369482223e-7 0 -0.9999999999999432
vn 0 0 -1
vn 0 0 -1
vn 0 0 -1
vn 0 0 -1
vn 0 0 -1
vn 0 0 -1
vn 0 0 -1
vn 0 0 -1
vn 0 0 -1
vn 0 0 -1
vn 0 0 -1
vn 0 0 -1
vn 0 0 -1
vn 0 0 -1
vn 0 0 -1
vn 0.0504555642108777 0.11781978943554323 -0.9917523548031164
vn 0.0504555642108777 0.11781978943554323 -0.9917523548031164
vn 0.0504555642108777 0.11781978943554323 -0.9917523548031164
vn 0.04931973652881935 0.08564793295811586 -0.9951040122362738
vn 0.04931973652881935 0.08564793295811586 -0.9951040122362738
vn 0.04931973652881935 0.08564793295811586 -0.9951040122362738
vn 0.07486741922630034 0.05067110016149614 -0.9959052711713183
vn 0.07486741922630034 0.05067110016149614 -0.9959052711713183
vn 0.07486741922630034 0.05067110016149614 -0.9959052711713183
vn 0.04276061182534366 0.04966377984033349 -0.9978502087228791
vn 0.04276061182534366 0.04966377984033349 -0.9978502087228791
vn 0.04276061182534366 0.04966377984033349 -0.9978502087228791
vn 0 0 -1
vn 0 0 -1
vn 0 0 -1
vn 0.3030817737990289 0.09689145315507999 -0.9480260991641165
vn 0.3030817737990289 0.09689145315507999 -0.9480260991641165
vn 0.3030817737990289 0.09689145315507999 -0.9480260991641165
vn 0.13610978378506167 0.02571075587217936 -0.9903600778456616
vn 0.13610978378506167 0.02571075587217936 -0.9903600778456616
vn 0.13610978378506167 0.02571075587217936 -0.9903600778456616
vn 0.18122260352681502 0.21947230495756417 -0.9586398047898786
vn 0.18122260352681502 0.21947230495756417 -0.9586398047898786
vn 0.18122260352681502 0.21947230495756417 -0.9586398047898786
vn 0.013178278842466693 0.05774854562028212 -0.9982441777668891
vn 0.013178278842466693 0.05774854562028212 -0.9982441777668891
vn 0.013178278842466693 0.05774854562028212 -0.9982441777668891
vn 0 0 -1
vn 0 0 -1
vn 0 0 -1
vn -3.9070400248416926e-7 0 -0.9999999999999238
vn -3.9070400248416926e-7 0 -0.9999999999999238
vn -3.9070400248416926e-7 0 -0.9999999999999238
vn 1.9996200251170704e-7 0 -0.99999999999998
vn 1.9996200251170704e-7 0 -0.99999999999998
vn 1.9996200251170704e-7 0 -0.99999999999998
vn -0.0034468769015977923 -0.02206551963924155 -0.9997505848373761
vn -0.0034468769015977923 -0.02206551963924155 -0.9997505848373761
vn -0.0034468769015977923 -0.02206551963924155 -0.9997505848373761
vn -4.971710154676953e-7 0 -0.9999999999998765
vn -4.971710154676953e-7 0 -0.9999999999998765
vn -4.971710154676953e-7 0 -0.9999999999998765
vn 3.970469890645887e-7 0 -0.9999999999999212
vn 3.970469890645887e-7 0 -0.9999999999999212
vn 3.970469890645887e-7 0 -0.9999999999999212
vn 0.09694056398312231 0.011629278994002823 -0.995222229918883
vn 0.09694056398312231 0.011629278994002823 -0.995222229918883
vn 0.09694056398312231 0.011629278994002823 -0.995222229918883
vn 0.10525899611716802 0.06341879954204735 -0.9924205759661836
vn 0.10525899611716802 0.06341879954204735 -0.9924205759661836
vn 0.10525899611716802 0.06341879954204735 -0.9924205759661836
vn 0 0 -1
vn 0 0 -1
vn 0 0 -1
vn 0 0 -1
vn 0 0 -1
vn 0 0 -1
vn 0 0 -1
vn 0 0 -1
vn 0 0 -1
vn -0.02679442848312474 0.0036710496714503107 -0.9996342241022826
vn -0.02679442848312474 0.0036710496714503107 -0.9996342241022826
vn -0.02679442848312474 0.0036710496714503107 -0.9996342241022826
vn -0.001241802913675684 0.006572483452731017 -0.9999776299431837
vn -0.001241802913675684 0.006572483452731017 -0.9999776299431837
vn -0.001241802913675684 0.006572483452731017 -0.9999776299431837
vn 0.11631479898402569 0.008061408092324085 -0.993179682251341
vn 0.11631479898402569 0.008061408092324085 -0.993179682251341
vn 0.11631479898402569 0.008061408092324085 -0.993179682251341
vn 0.09692977519669738 -0.0259796291907289 -0.9949520981170048
vn 0.09692977519669738 -0.0259796291907289 -0.9949520981170048
vn 0.09692977519669738 -0.0259796291907289 -0.9949520981170048
vn -0.05045550177539177 -0.11781978282518604 -0.9917523587648378
vn -0.05045550177539177 -0.11781978282518604 -0.9917523587648378
vn -0.05045550177539177 -0.11781978282518604 -0.9917523587648378
vn 0 0 -1
vn 0 0 -1
vn 0 0 -1
vn -0.1219569969647855 -0.07039725055348295 -0.9900357155203248
vn -0.1219569969647855 -0.07039725055348295 -0.9900357155203248
vn -0.1219569969647855 -0.07039725055348295 -0.9900357155203248
vn -8.259140145125369e-7 0 -0.9999999999996589
vn -8.259140145125369e-7 0 -0.9999999999996589
vn -8.259140145125369e-7 0 -0.9999999999996589
vn 0 0 -1
vn 0 0 -1
vn 0 0 -1
vn -1.3314000568698129e-7 0 -0.9999999999999911
vn -1.3314000568698129e-7 0 -0.9999999999999911
vn -1.3314000568698129e-7 0 -0.9999999999999911
vn 0 0 -1
vn 0 0 -1
vn 0 0 -1
vn 0.038208115021270375 0.06350540232684938 -0.9972498201663546
vn 0.038208115021270375 0.06350540232684938 -0.9972498201663546
vn 0.038208115021270375 0.06350540232684938 -0.9972498201663546
vn 8.064719736464319e-7 0 -0.9999999999996749
vn 8.064719736464319e-7 0 -0.9999999999996749
vn 8.064719736464319e-7 0 -0.9999999999996749
vn -1.2809100269350787e-7 0 -0.9999999999999918
vn -1.2809100269350787e-7 0 -0.9999999999999918
vn -1.2809100269350787e-7 0 -0.9999999999999918
vn 3.483619934740789e-7 0 -0.9999999999999394
vn 3.483619934740789e-7 0 -0.9999999999999394
vn 3.483619934740789e-7 0 -0.9999999999999394
vn -0.13254518697947149 -0.017554158200523227 -0.9910215057900854
vn -0.13254518697947149 -0.017554158200523227 -0.9910215057900854
vn -0.13254518697947149 -0.017554158200523227 -0.9910215057900854
vn -0.008165655479038936 -0.006514548181553635 -0.9999454398778905
vn -0.008165655479038936 -0.006514548181553635 -0.9999454398778905
vn -0.008165655479038936 -0.006514548181553635 -0.9999454398778905
vn 0.0168635809031203 -0.006515501575195307 -0.9998365705845869
vn 0.0168635809031203 -0.006515501575195307 -0.9998365705845869
vn 0.0168635809031203 -0.006515501575195307 -0.9998365705845869
vn 0.007658122464975275 -0.04051881598869907 -0.9991494276189049
vn 0.007658122464975275 -0.04051881598869907 -0.9991494276189049
vn 0.007658122464975275 -0.04051881598869907 -0.9991494276189049
vn -0.15834060642791756 -0.191761408290277 -0.9685844385734106
vn -0.15834060642791756 -0.191761408290277 -0.9685844385734106
vn -0.15834060642791756 -0.191761408290277 -0.9685844385734106
vn -0.0498921720869288 -0.049891702700352425 -0.997507688775434
vn -0.0498921720869288 -0.049891702700352425 -0.997507688775434
vn -0.0498921720869288 -0.049891702700352425 -0.997507688775434
vn -0.3050042002271786 -0.09749095597582633 -0.9473478512915405
vn -0.3051330761677701 -0.0975350519314904 -0.947301810128702
vn -0.3050042019995311 -0.09749089693769433 -0.9473478567964954
vn -0.1019461922590072 0.027326098317547273 -0.9944145303818873
vn -0.1019461922590072 0.027326098317547273 -0.9944145303818873
vn -0.1019461922590072 0.027326098317547273 -0.9944145303818873
vn -0.1162777779214506 -0.07869837518575584 -0.9900939572105124
vn -0.1162777779214506 -0.07869837518575584 -0.9900939572105124
vn -0.1162777779214506 -0.07869837518575584 -0.9900939572105124
vn -0.08847456283236299 -0.05108283378042338 -0.9947677094802504
vn -0.08847456283236299 -0.05108283378042338 -0.9947677094802504
vn -0.08847456283236299 -0.05108283378042338 -0.9947677094802504
vn -0.04902148008135608 -0.07742630901821972 -0.9957921776969572
vn -0.04902148008135608 -0.07742630901821972 -0.9957921776969572
vn -0.04902148008135608 -0.07742630901821972 -0.9957921776969572
vn -0.006739497027739041 0.0018062589967765433 -0.9999756580078585
vn -0.006739497027739041 0.0018062589967765433 -0.9999756580078585
vn -0.006739497027739041 0.0018062589967765433 -0.9999756580078585
vn -0.0833749537682629 0.17160956357422108 -0.9816306712679701
vn -0.0833749537682629 0.17160956357422108 -0.9816306712679701
vn -0.0833749537682629 0.17160956357422108 -0.9816306712679701
vn -4.043670003283875e-7 0 -0.9999999999999183
vn -4.043670003283875e-7 0 -0.9999999999999183
vn -4.043670003283875e-7 0 -0.9999999999999183
vn 0 0 -1
vn 0 0 -1
vn 0 0 -1
vn 0 0 -1
vn 0 0 -1
vn 0 0 -1
vn 0.03180628712051211 0.03697984746566492 -0.9988097171038254
vn 0.03180628712051211 0.03697984746566492 -0.9988097171038254
vn 0.03180628712051211 0.03697984746566492 -0.9988097171038254
vn -0.01826678801010867 0.06814943350098807 -0.9975078842642237
vn -0.01826678801010867 0.06814943350098807 -0.9975078842642237
vn -0.01826678801010867 0.06814943350098807 -0.9975078842642237
vn -0.21538711050237908 0.23695980514155524 -0.947342833074021
vn -0.21538711050237908 0.23695980514155524 -0.947342833074021
vn -0.21538711050237908 0.23695980514155524 -0.947342833074021
vn -0.046857592101649054 0.278664293183989 -0.959244795537981
vn -0.046857592101649054 0.278664293183989 -0.959244795537981
vn -0.046857592101649054 0.278664293183989 -0.959244795537981
vn 0.014757748414645883 0.06462745246483498 -0.997800331353741
vn 0.014757748414645883 0.06462745246483498 -0.997800331353741
vn 0.014757748414645883 0.06462745246483498 -0.997800331353741
vn 0 0 -1
vn 0 0 -1
vn 0 0 -1
vn -0.10450659699650756 0.08510076260602265 -0.9908764965363157
vn -0.10450659699650756 0.08510076260602265 -0.9908764965363157
vn -0.10450659699650756 0.08510076260602265 -0.9908764965363157
vn -4.06785005679888e-7 0 -0.9999999999999174
vn -4.06785005679888e-7 0 -0.9999999999999174
vn -4.06785005679888e-7 0 -0.9999999999999174
vn 0.025122039254101364 0.2100638915796682 -0.9773648472285673
vn 0.025122039254101364 0.2100638915796682 -0.9773648472285673
vn 0.025122039254101364 0.2100638915796682 -0.9773648472285673
vn -0.03704512114214548 0.03704534838485338 -0.9986267076153175
vn -0.03704512114214548 0.03704534838485338 -0.9986267076153175
vn -0.03704512114214548 0.03704534838485338 -0.9986267076153175
vn -0.02504419660027807 -0.006713031160277771 -0.9996638052011725
vn -0.02504419660027807 -0.006713031160277771 -0.9996638052011725
vn -0.02504419660027807 -0.006713031160277771 -0.9996638052011725
vn -0.10191739633834664 0.02731834800476273 -0.9944176950285543
vn -0.10191739633834664 0.02731834800476273 -0.9944176950285543
vn -0.10191739633834664 0.02731834800476273 -0.9944176950285543
vn -0.10467028549522264 0.0637909020789093 -0.9924589926774343
vn -0.10467028549522264 0.0637909020789093 -0.9924589926774343
vn -0.10467028549522264 0.0637909020789093 -0.9924589926774343
vn -0.1292712804813308 0.08594386062552453 -0.9878778208176846
vn -0.1292712804813308 0.08594386062552453 -0.9878778208176846
vn -0.1292712804813308 0.08594386062552453 -0.9878778208176846
vn 0 0 -1
vn 0 0 -1
vn 0 0 -1
vn -0.04296796728999066 0.0510179321200152 -0.9977729823908662
vn -0.04296796728999066 0.0510179321200152 -0.9977729823908662
vn -0.04296796728999066 0.0510179321200152 -0.9977729823908662
vn -0.004486142607525231 -0.022126247858905653 -0.9997451193580248
vn -0.004486142607525231 -0.022126247858905653 -0.9997451193580248
vn -0.004486142607525231 -0.022126247858905653 -0.9997451193580248
vn -0.016132046931301956 0.09490851037201481 -0.9953552791444729
vn -0.016132046931301956 0.09490851037201481 -0.9953552791444729
vn -0.016132046931301956 0.09490851037201481 -0.9953552791444729
vn 0.03423201609651466 0.01492719886780539 -0.9993024306024323
vn 0.03423201609651466 0.01492719886780539 -0.9993024306024323
vn 0.03423201609651466 0.01492719886780539 -0.9993024306024323
vn -0.03278325553752205 0.05898765947215819 -0.9977202584824858
vn -0.03278325553752205 0.05898765947215819 -0.9977202584824858
vn -0.03278325553752205 0.05898765947215819 -0.9977202584824858
vn 0 0 -1
vn 0 0 -1
vn 0 0 -1
vn 0 0 -1
vn 0 0 -1
vn 0 0 -1
vn 0.14475808678364244 -0.06971488719984514 -0.987008070287904
vn 0.14475808678364244 -0.06971488719984514 -0.987008070287904
vn 0.14475808678364244 -0.06971488719984514 -0.987008070287904
vn 0.11462180311795532 -0.08114963021560669 -0.9900891776834344
vn 0.11462180311795532 -0.08114963021560669 -0.9900891776834344
vn 0.11462180311795532 -0.08114963021560669 -0.9900891776834344
vn 0.017798539087933666 -0.09523618133981973 -0.9952955750781495
vn 0.017798539087933666 -0.09523618133981973 -0.9952955750781495
vn 0.017798539087933666 -0.09523618133981973 -0.9952955750781495
vn -0.0725535682374833 -0.13730919483968293 -0.9878674833946538
vn -0.0725535682374833 -0.13730919483968293 -0.9878674833946538
vn -0.0725535682374833 -0.13730919483968293 -0.9878674833946538
vn 0.09987074820688849 0.017298690868875 -0.9948500333953955
vn 0.09987074820688849 0.017298690868875 -0.9948500333953955
vn 0.09987074820688849 0.017298690868875 -0.9948500333953955
vn 0.08114986893527965 0.11462160237756489 -0.9900891813570061
vn 0.08114986893527965 0.11462160237756489 -0.9900891813570061
vn 0.08114986893527965 0.11462160237756489 -0.9900891813570061
vn -0.2095811906266771 0.19893060085325856 -0.9573412874099111
vn -0.2095811906266771 0.19893060085325856 -0.9573412874099111
vn -0.2095811906266771 0.19893060085325856 -0.9573412874099111
vn -0.4010499479923567 0.20571691116559254 -0.8926586647066256
vn -0.40104997546001553 0.2057168801657137 -0.8926586595101209
vn -0.40104997546001553 0.2057168801657137 -0.8926586595101209
vn -0.01150535951795192 0.15317079070976417 -0.988132752000311
vn -0.01150535951795192 0.15317079070976417 -0.988132752000311
vn -0.01150535951795192 0.15317079070976417 -0.988132752000311
vn 0.04665320375842091 0.20450426678546937 -0.9777532835258663
vn 0.04665320375842091 0.20450426678546937 -0.9777532835258663
vn 0.04665320375842091 0.20450426678546937 -0.9777532835258663
vn -0.09987074820688849 -0.017298690868875 -0.9948500333953955
vn -0.09987074820688849 -0.017298690868875 -0.9948500333953955
vn -0.09987074820688849 -0.017298690868875 -0.9948500333953955
vn -0.08114986893527965 -0.11462160237756489 -0.9900891813570061
vn -0.08114986893527965 -0.11462160237756489 -0.9900891813570061
vn -0.08114986893527965 -0.11462160237756489 -0.9900891813570061
vn 0.10665988987446352 -0.0862208535587684 -0.9905501664749569
vn 0.10665988987446352 -0.0862208535587684 -0.9905501664749569
vn 0.10665988987446352 -0.0862208535587684 -0.9905501664749569
vn -0.02794247147427004 -0.02791982170903809 -0.9992195463678866
vn -0.02794247147427004 -0.02791982170903809 -0.9992195463678866
vn -0.02794247147427004 -0.02791982170903809 -0.9992195463678866
vn 0.041231569919899944 -0.24520628759193488 -0.9685937405162817
vn 0.041231569919899944 -0.24520628759193488 -0.9685937405162817
vn 0.041231569919899944 -0.24520628759193488 -0.9685937405162817
vn 0 0 -1
vn 0 0 -1
vn 0 0 -1
vn 0.061879026690564845 -0.03771190660266747 -0.9973709431080394
vn 0.061879026690564845 -0.03771190660266747 -0.9973709431080394
vn 0.061879026690564845 -0.03771190660266747 -0.9973709431080394
vn 0.07875948554269922 0.03435521640424489 -0.9963014917899434
vn 0.07875948554269922 0.03435521640424489 -0.9963014917899434
vn 0.07875948554269922 0.03435521640424489 -0.9963014917899434
vn -0.02823399526588377 0.014484997635955985 -0.999496386364059
vn -0.02823399526588377 0.014484997635955985 -0.999496386364059
vn -0.02823399526588377 0.014484997635955985 -0.999496386364059
vn 0 0 -1
vn 0 0 -1
vn 0 0 -1
vn -0.01425408905453822 -0.11918838740832263 -0.9927693333560567
vn -0.01425408905453822 -0.11918838740832263 -0.9927693333560567
vn -0.01425408905453822 -0.11918838740832263 -0.9927693333560567
vn 0.004143237515998884 -0.08628093272239824 -0.9962622316596365
vn 0.004143237515998884 -0.08628093272239824 -0.9962622316596365
vn 0.004143237515998884 -0.08628093272239824 -0.9962622316596365
vn 0.007672547551591311 0.026825478960715052 -0.9996106870640172
vn 0.007672547551591311 0.026825478960715052 -0.9996106870640172
vn 0.007672547551591311 0.026825478960715052 -0.9996106870640172
vn 0.10408409099277824 -0.0870451866013119 -0.9907520565165383
vn 0.10408409099277824 -0.0870451866013119 -0.9907520565165383
vn 0.10408409099277824 -0.0870451866013119 -0.9907520565165383
vn -0.023749287485928628 0.009686944726605877 -0.9996710131066993
vn -0.023749287485928628 0.009686944726605877 -0.9996710131066993
vn -0.023749287485928628 0.009686944726605877 -0.9996710131066993
vn 0 0 -1
vn 0 0 -1
vn 0 0 -1
vn 0 0 -1
vn 0 0 -1
vn 0 0 -1
vn 0 0 -1
vn 0 0 -1
vn 0 0 -1
vn 0 0 -1
vn 0 0 -1
vn 0 0 -1
vn 0.033951516697217236 -0.07787208145045435 -0.9963850829094806
vn 0.033951516697217236 -0.07787208145045435 -0.9963850829094806
vn 0.033951516697217236 -0.07787208145045435 -0.9963850829094806
vn 0.19523399537642944 -0.21478789460997497 -0.9569481947202633
vn 0.19523399537642944 -0.21478789460997497 -0.9569481947202633
vn 0.19523399537642944 -0.21478789460997497 -0.9569481947202633
vn 0.07503150484170426 -0.10167409588933925 -0.9919841992220818
vn 0.07503150484170426 -0.10167409588933925 -0.9919841992220818
vn 0.07503150484170426 -0.10167409588933925 -0.9919841992220818
vn 0.05335319050548672 -0.10981649922615244 -0.9925189033769573
vn 0.05335319050548672 -0.10981649922615244 -0.9925189033769573
vn 0.05335319050548672 -0.10981649922615244 -0.9925189033769573
vn 0.0477751375086241 -0.08642380565058799 -0.9951122861531263
vn 0.0477751375086241 -0.08642380565058799 -0.9951122861531263
vn 0.0477751375086241 -0.08642380565058799 -0.9951122861531263
vn 0 0 -1
vn 0 0 -1
vn 0 0 -1
vn 0.202216821087883 0.004814863722027914 -0.9793289408347174
vn 0.202216821087883 0.004814863722027914 -0.9793289408347174
vn 0.202216821087883 0.004814863722027914 -0.9793289408347174
vn 0.8556460822708242 -0.22926870214927705 0.4640103922428633
vn 0.8556460822708242 -0.22926870214927705 0.4640103922428633
vn 0.8556460822708242 -0.22926870214927705 0.4640103922428633
vn -0.29432165646547664 -0.0070076575559506775 -0.9556807287326646
vn -0.29432165646547664 -0.0070076575559506775 -0.9556807287326646
vn -0.29432165646547664 -0.0070076575559506775 -0.9556807287326646
vn -0.9502040854002365 0.25461331305084606 -0.1796782037587532
vn -0.9502040854002365 0.25461331305084606 -0.1796782037587532
vn -0.9502040637695933 0.2546133966617419 -0.17967819966852125
vn -0.3936649766939905 -0.919253983469487 0
vn -0.3936649766939905 -0.919253983469487 0
vn -0.3936649766939905 -0.919253983469487 0
vn -0.393664681716809 -0.9192541097916308 0
vn -0.393664681716809 -0.9192541097916308 0
vn -0.393664681716809 -0.9192541097916308 0
vn -0.636713566668112 -0.771100404630144 0
vn -0.636713566668112 -0.771100404630144 0
vn -0.636713566668112 -0.771100404630144 0
vn -0.6367134665226587 -0.7711004873223071 0
vn -0.6367134665226587 -0.7711004873223071 0
vn -0.6367134665226587 -0.7711004873223071 0
vn -0.8281515089498644 -0.5605043070521962 0
vn -0.8281515089498644 -0.5605043070521962 0
vn -0.8281515089498644 -0.5605043070521962 0
vn -0.828151629403536 -0.5605041290804811 0
vn -0.828151629403536 -0.5605041290804811 0
vn -0.828151629403536 -0.5605041290804811 0
vn -0.9525107380660687 -0.3045049981015634 0
vn -0.9525107380660687 -0.3045049981015634 0
vn -0.9525107380660687 -0.3045049981015634 0
vn -0.9525107380660687 -0.3045049981015634 0
vn -0.9525107380660687 -0.3045049981015634 0
vn -0.9525107380660687 -0.3045049981015634 0
vn -0.999716674427985 -0.02380274922461805 0
vn -0.999716674427985 -0.02380274922461805 0
vn -0.999716674427985 -0.02380274922461805 0
vn -0.999716674427985 -0.02380274922461805 0
vn -0.999716674427985 -0.02380274922461805 0
vn -0.999716674427985 -0.02380274922461805 0
vn -0.9659179932341663 0.25884827669212124 0
vn -0.9659179932341663 0.25884827669212124 0
vn -0.9659179932341663 0.25884827669212124 0
vn -0.9659176901134862 0.2588494078143268 0
vn -0.9659176901134862 0.2588494078143268 0
vn -0.9659176901134862 0.2588494078143268 0
vn -0.8539152425578272 0.5204121045166099 0
vn -0.8539152425578272 0.5204121045166099 0
vn -0.8539152425578272 0.5204121045166099 0
vn -0.8539149925740657 0.5204125147008223 0
vn -0.8539149925740657 0.5204125147008223 0
vn -0.8539149925740657 0.5204125147008223 0
vn -0.6726204232925073 0.7399876797419052 0
vn -0.6726204232925073 0.7399876797419052 0
vn -0.6726204232925073 0.7399876797419052 0
vn -0.6726204855979917 0.7399876231086044 0
vn -0.6726204855979917 0.7399876231086044 0
vn -0.6726204855979917 0.7399876231086044 0
vn -0.4369952569659112 0.8994638099386196 0
vn -0.4369952569659112 0.8994638099386196 0
vn -0.4369952569659112 0.8994638099386196 0
vn -0.43699518463253006 0.8994638450810465 0
vn -0.43699518463253006 0.8994638450810465 0
vn -0.43699518463253006 0.8994638450810465 0
vn -0.1658229868156794 0.9861555339009801 0
vn -0.1658229868156794 0.9861555339009801 0
vn -0.1658229868156794 0.9861555339009801 0
vn -0.16582308825561956 0.9861555168437527 0
vn -0.16582308825561956 0.9861555168437527 0
vn -0.16582308825561956 0.9861555168437527 0
vn 0.11874669896947712 0.9929245799575375 0
vn 0.11874669896947712 0.9929245799575375 0
vn 0.11874669896947712 0.9929245799575375 0
vn 0.11874660347769371 0.9929245913776693 0
vn 0.11874660347769371 0.9929245913776693 0
vn 0.11874660347769371 0.9929245913776693 0
vn 0.3936649766939905 0.919253983469487 0
vn 0.3936649766939905 0.919253983469487 0
vn 0.3936649766939905 0.919253983469487 0
vn 0.393664681716809 0.9192541097916308 0
vn 0.393664681716809 0.9192541097916308 0
vn 0.393664681716809 0.9192541097916308 0
vn 0.636713566668112 0.771100404630144 0
vn 0.636713566668112 0.771100404630144 0
vn 0.636713566668112 0.771100404630144 0
vn 0.6367134665226587 0.7711004873223071 0
vn 0.6367134665226587 0.7711004873223071 0
vn 0.6367134665226587 0.7711004873223071 0
vn 0.8281515089498644 0.5605043070521962 0
vn 0.8281515089498644 0.5605043070521962 0
vn 0.8281515089498644 0.5605043070521962 0
vn 0.828151629403536 0.5605041290804811 0
vn 0.828151629403536 0.5605041290804811 0
vn 0.828151629403536 0.5605041290804811 0
vn 0.9525107380660687 0.3045049981015634 0
vn 0.9525107380660687 0.3045049981015634 0
vn 0.9525107380660687 0.3045049981015634 0
vn 0.9525107380660687 0.3045049981015634 0
vn 0.9525107380660687 0.3045049981015634 0
vn 0.9525107380660687 0.3045049981015634 0
vn 0.999716674427985 0.02380274922461805 0
vn 0.999716674427985 0.02380274922461805 0
vn 0.999716674427985 0.02380274922461805 0
vn 0.999716674427985 0.02380274922461805 0
vn 0.999716674427985 0.02380274922461805 0
vn 0.999716674427985 0.02380274922461805 0
vn 0.9659179932341663 -0.25884827669212124 0
vn 0.9659179932341663 -0.25884827669212124 0
vn 0.9659179932341663 -0.25884827669212124 0
vn 0.9659176901134862 -0.2588494078143268 0
vn 0.9659176901134862 -0.2588494078143268 0
vn 0.9659176901134862 -0.2588494078143268 0
vn 0.8539152425578272 -0.5204121045166099 0
vn 0.8539152425578272 -0.5204121045166099 0
vn 0.8539152425578272 -0.5204121045166099 0
vn 0.8539149925740657 -0.5204125147008223 0
vn 0.8539149925740657 -0.5204125147008223 0
vn 0.8539149925740657 -0.5204125147008223 0
vn 0.6726204232925073 -0.7399876797419052 0
vn 0.6726204232925073 -0.7399876797419052 0
vn 0.6726204232925073 -0.7399876797419052 0
vn 0.6726204855979917 -0.7399876231086044 0
vn 0.6726204855979917 -0.7399876231086044 0
vn 0.6726204855979917 -0.7399876231086044 0
vn 0.4369952569659112 -0.8994638099386196 0
vn 0.4369952569659112 -0.8994638099386196 0
vn 0.4369952569659112 -0.8994638099386196 0
vn 0.43699518463253006 -0.8994638450810465 0
vn 0.43699518463253006 -0.8994638450810465 0
vn 0.43699518463253006 -0.8994638450810465 0
vn 0.1658229868156794 -0.9861555339009801 0
vn 0.1658229868156794 -0.9861555339009801 0
vn 0.1658229868156794 -0.9861555339009801 0
vn 0.16582308825561956 -0.9861555168437527 0
vn 0.16582308825561956 -0.9861555168437527 0
vn 0.16582308825561956 -0.9861555168437527 0
vn -0.11874669896947712 -0.9929245799575375 0
vn -0.11874669896947712 -0.9929245799575375 0
vn -0.11874669896947712 -0.9929245799575375 0
vn -0.11874660347769371 -0.9929245913776693 0
vn -0.11874660347769371 -0.9929245913776693 0
vn -0.11874660347769371 -0.9929245913776693 0
f 1/1/1 2/2/2 3/3/3
f 4/4/4 5/5/5 6/6/6
f 7/7/7 8/8/8 9/9/9
f 10/10/10 11/11/11 12/12/12
f 13/13/13 14/14/14 15/15/15
f 16/16/16 17/17/17 18/18/18
f 19/19/19 20/20/20 21/21/21
f 22/22/22 23/23/23 24/24/24
f 25/25/25 26/26/26 27/27/27
f 28/28/28 29/29/29 30/30/30
f 31/31/31 32/32/32 33/33/33
f 34/34/34 35/35/35 36/36/36
f 37/37/37 38/38/38 39/39/39
f 40/40/40 41/41/41 42/42/42
f 43/43/43 44/44/44 45/45/45
f 46/46/46 47/47/47 48/48/48
f 49/49/49 50/50/50 51/51/51
f 52/52/52 53/53/53 54/54/54
f 55/55/55 56/56/56 57/57/57
f 58/58/58 59/59/59 60/60/60
f 61/61/61 62/62/62 63/63/63
f 64/64/64 65/65/65 66/66/66
f 67/67/67 68/68/68 69/69/69
f 70/70/70 71/71/71 72/72/72
f 73/73/73 74/74/74 75/75/75
f 76/76/76 77/77/77 78/78/78
f 79/79/79 80/80/80 81/81/81
f 82/82/82 83/83/83 84/84/84
f 85/85/85 86/86/86 87/87/87
f 88/88/88 89/89/89 90/90/90
f 91/91/91 92/92/92 93/93/93
f 94/94/94 95/95/95 96/96/96
f 97/97/97 98/98/98 99/99/99
f 100/100/100 101/101/101 102/102/102
f 103/103/103 104/104/104 105/105/105
f 106/106/106 107/107/107 108/108/108
f 109/109/109 110/110/110 111/111/111
f 112/112/112 113/113/113 114/114/114
f 115/115/115 116/116/116 117/117/117
f 118/118/118 119/119/119 120/120/120
f 121/121/121 122/122/122 123/123/123
f 124/124/124 125/125/125 126/126/126
f 127/127/127 128/128/128 129/129/129
f 130/130/130 131/131/131 132/132/132
f 133/133/133 134/134/134 135/135/135
f 136/136/136 137/137/137 138/138/138
f 139/139/139 140/140/140 141/141/141
f 142/142/142 143/143/143 144/144/144
f 145/145/145 146/146/146 147/147/147
f 148/148/148 149/149/149 150/150/150
f 151/151/151 152/152/152 153/153/153
f 154/154/154 155/155/155 156/156/156
f 157/157/157 158/158/158 159/159/159
f 160/160/160 161/161/161 162/162/162
f 163/163/163 164/164/164 165/165/165
f 166/166/166 167/167/167 168/168/168
f 169/169/169 170/170/170 171/171/171
f 172/172/172 173/173/173 174/174/174
f 175/175/175 176/176/176 177/177/177
f 178/178/178 179/179/179 180/180/180
f 181/181/181 182/182/182 183/183/183
f 184/184/184 185/185/185 186/186/186
f 187/187/187 188/188/188 189/189/189
f 190/190/190 191/191/191 192/192/192
f 193/193/193 194/194/194 195/195/195
f 196/196/196 197/197/197 198/198/198
f 199/199/199 200/200/200 201/201/201
f 202/202/202 203/203/203 204/204/204
f 205/205/205 206/206/206 207/207/207
f 208/208/208 209/209/209 210/210/210
f 211/211/211 212/212/212 213/213/213
f 214/214/214 215/215/215 216/216/216
f 217/217/217 218/218/218 219/219/219
f 220/220/220 221/221/221 222/222/222
f 223/223/223 224/224/224 225/225/225
f 226/226/226 227/227/227 228/228/228
f 229/229/229 230/230/230 231/231/231
f 232/232/232 233/233/233 234/234/234
f 235/235/235 236/236/236 237/237/237
f 238/238/238 239/239/239 240/240/240
f 241/241/241 242/242/242 243/243/243
f 244/244/244 245/245/245 246/246/246
f 247/247/247 248/248/248 249/249/249
f 250/250/250 251/251/251 252/252/252
f 253/253/253 254/254/254 255/255/255
f 256/256/256 257/257/257 258/258/258
f 259/259/259 260/260/260 261/261/261
f 262/262/262 263/263/263 264/264/264
f 265/265/265 266/266/266 267/267/267
f 268/268/268 269/269/269 270/270/270
f 271/271/271 272/272/272 273/273/273
f 274/274/274 275/275/275 276/276/276
f 277/277/277 278/278/278 279/279/279
f 280/280/280 281/281/281 282/282/282
f 283/283/283 284/284/284 285/285/285
f 286/286/286 287/287/287 288/288/288
f 289/289/289 290/290/290 291/291/291
f 292/292/292 293/293/293 294/294/294
f 295/295/295 296/296/296 297/297/297
f 298/298/298 299/299/299 300/300/300
f 301/301/301 302/302/302 303/303/303
f 304/304/304 305/305/305 306/306/306
f 307/307/307 308/308/308 309/309/309
f 310/310/310 311/311/311 312/312/312
f 313/313/313 314/314/314 315/315/315
f 316/316/316 317/317/317 318/318/318
f 319/319/319 320/320/320 321/321/321
f 322/322/322 323/323/323 324/324/324
f 325/325/325 326/326/326 327/327/327
f 328/328/328 329/329/329 330/330/330
f 331/331/331 332/332/332 333/333/333
f 334/334/334 335/335/335 336/336/336
f 337/337/337 338/338/338 339/339/339
f 340/340/340 341/341/341 342/342/342
f 343/343/343 344/344/344 345/345/345
f 346/346/346 347/347/347 348/348/348
f 349/349/349 350/350/350 351/351/351
f 352/352/352 353/353/353 354/354/354
f 355/355/355 356/356/356 357/357/357
f 358/358/358 359/359/359 360/360/360
f 361/361/361 362/362/362 363/363/363
f 364/364/364 365/365/365 366/366/366
f 367/367/367 368/368/368 369/369/369
f 370/370/370 371/371/371 372/372/372
f 373/373/373 374/374/374 375/375/375
f 376/376/376 377/377/377 378/378/378
f 379/379/379 380/380/380 381/381/381
f 382/382/382 383/383/383 384/384/384
f 385/385/385 386/386/386 387/387/387
f 388/388/388 389/389/389 390/390/390
f 391/391/391 392/392/392 393/393/393
f 394/394/394 395/395/395 396/396/396
f 397/397/397 398/398/398 399/399/399
f 400/400/400 401/401/401 402/402/402
f 403/403/403 404/404/404 405/405/405
f 406/406/406 407/407/407 408/408/408
f 409/409/409 410/410/410 411/411/411
f 412/412/412 413/413/413 414/414/414
f 415/415/415 416/416/416 417/417/417
f 418/418/418 419/419/419 420/420/420
f 421/421/421 422/422/422 423/423/423
f 424/424/424 425/425/425 426/426/426
f 427/427/427 428/428/428 429/429/429
f 430/430/430 431/431/431 432/432/432
f 433/433/433 434/434/434 435/435/435
f 436/436/436 437/437/437 438/438/438
f 439/439/439 440/440/440 441/441/441
f 442/442/442 443/443/443 444/444/444
f 445/445/445 446/446/446 447/447/447
f 448/448/448 449/449/449 450/450/450
f 451/451/451 452/452/452 453/453/453
f 454/454/454 455/455/455 456/456/456
f 457/457/457 458/458/458 459/459/459
f 460/460/460 461/461/461 462/462/462
f 463/463/463 464/464/464 465/465/465
f 466/466/466 467/467/467 468/468/468
f 469/469/469 470/470/470 471/471/471
f 472/472/472 473/473/473 474/474/474
f 475/475/475 476/476/476 477/477/477
f 478/478/478 479/479/479 480/480/480
f 481/481/481 482/482/482 483/483/483
f 484/484/484 485/485/485 486/486/486
f 487/487/487 488/488/488 489/489/489
f 490/490/490 491/491/491 492/492/492
f 493/493/493 494/494/494 495/495/495
f 496/496/496 497/497/497 498/498/498
f 499/499/499 500/500/500 501/501/501
f 502/502/502 503/503/503 504/504/504
f 505/505/505 506/506/506 507/507/507
f 508/508/508 509/509/509 510/510/510
f 511/511/511 512/512/512 513/513/513
f 514/514/514 515/515/515 516/516/516
f 517/517/517 518/518/518 519/519/519
f 520/520/520 521/521/521 522/522/522
f 523/523/523 524/524/524 525/525/525
f 526/526/526 527/527/527 528/528/528
f 529/529/529 530/530/530 531/531/531
f 532/532/532 533/533/533 534/534/534
f 535/535/535 536/536/536 537/537/537
f 538/538/538 539/539/539 540/540/540
f 541/541/541 542/542/542 543/543/543
f 544/544/544 545/545/545 546/546/546
f 547/547/547 548/548/548 549/549/549
f 550/550/550 551/551/551 552/552/552
f 553/553/553 554/554/554 555/555/555
f 556/556/556 557/557/557 558/558/558
f 559/559/559 560/560/560 561/561/561
f 562/562/562 563/563/563 564/564/564
f 565/565/565 566/566/566 567/567/567
f 568/568/568 569/569/569 570/570/570
f 571/571/571 572/572/572 573/573/573
f 574/574/574 575/575/575 576/576/576
f 577/577/577 578/578/578 579/579/579
f 580/580/580 581/581/581 582/582/582
f 583/583/583 584/584/584 585/585/585
f 586/586/586 587/587/587 588/588/588
