o torso
usemtl toeRight:phongE1SG
v 0.05613335222005844 0.0074324398301541805 0.25702616572380066
v 0.0589003823697567 0.01193240750581026 0.2539691627025604
v 0.05683835223317146 0.0074324398301541805 0.25768616795539856
v 0.06322581321001053 0.010807948186993599 0.24382519721984863
v 0.06390286237001419 0.011500968597829342 0.24467910826206207
v 0.058014824986457825 0.01141698844730854 0.2535822093486786
v 0.058005739003419876 0.011410614475607872 0.2535761296749115
v 0.06389378011226654 0.011494594626128674 0.24467304348945618
v 0.05888776853680611 0.01191057451069355 0.25404712557792664
v 0.06585820019245148 0.00841860007494688 0.24096423387527466
v 0.06385523825883865 0.01150659378618002 0.244712233543396
v 0.06317818909883499 0.010813573375344276 0.24385832250118256
v 0.06589799374341965 0.00844610296189785 0.24097828567028046
v 0.06321798264980316 0.010841076262295246 0.24387237429618835
v 0.06525799632072449 0.00651109404861927 0.24005338549613953
v 0.06322794407606125 -0.01085866242647171 0.24387596547603607
v 0.06635695695877075 -0.006035693921148777 0.24005897343158722
v 0.06555497646331787 -0.00346768693998456 0.23951996862888336
v 0.06322581321001053 -0.010807948186993599 0.24382519721984863
v 0.058014824986457825 -0.01141698844730854 0.2535822093486786
v 0.06390286237001419 -0.011500968597829342 0.24467910826206207
v 0.06389378011226654 -0.011494594626128674 0.24467304348945618
v 0.058005739003419876 -0.011410614475607872 0.2535761296749115
v 0.05888776853680611 -0.01191057451069355 0.25404712557792664
v 0.05614374205470085 -0.007433313876390457 0.25703686475753784
v 0.05679075047373772 -0.007433313876390457 0.2579488754272461
v 0.05802874267101288 -0.011433321982622147 0.25350886583328247
v 0.058028772473335266 -0.011433335021138191 0.25350889563560486
v 0.056790780276060104 -0.007433327380567789 0.2579489052295685
v 0.0589108020067215 -0.01193329505622387 0.25397989153862
v 0.05615130066871643 -0.007499991916120052 0.257006973028183
v 0.05615130066871643 0.007499991916120052 0.257006973028183
v 0.05685630068182945 0.007499991916120052 0.2576669752597809
v 0.056164540350437164 -0.007501283194869757 0.2570221722126007
v 0.056869540363550186 0.007498700637370348 0.2576821744441986
v 0.05681154876947403 -0.007501283194869757 0.25793418288230896
v 0.05805616080760956 -0.011500000022351742 0.2535991072654724
v 0.05617116019129753 0.007499991916120052 0.2571271061897278
v 0.05617116019129753 -0.007499991916120052 0.2571271061897278
v 0.06326715648174286 -0.01089096162468195 0.24384211003780365
v 0.06559418886899948 -0.0034999859053641558 0.23948611319065094
v 0.05617116391658783 0.007499990053474903 0.2571271061897278
v 0.05617116764187813 0.007499993313103914 0.2571271061897278
v 0.06559418886899948 -0.0034999826457351446 0.23948611319065094
v 0.06530718505382538 0.006560982204973698 0.24002312123775482
v 0.06530718505382538 0.006560983136296272 0.24002312123775482
v 0.06326715648174286 0.01089096162468195 0.24384211003780365
v 0.05617116764187813 0.007499994244426489 0.2571271061897278
v 0.05617116764187813 0.007499975617974997 0.2571271061897278
v 0.06326715648174286 0.010890943929553032 0.24384211003780365
v 0.058056168258190155 0.011499984189867973 0.2535991072654724
v 0.05614376813173294 0.007433322723954916 0.25703689455986023
v 0.05802876874804497 0.011433330364525318 0.25350889563560486
v 0.0589107982814312 0.011933290399610996 0.25397989153862
v 0.06326715648174286 -0.010890956036746502 0.24384211003780365
v 0.05617116764187813 0.007499995641410351 0.2571271061897278
v 0.058056168258190155 -0.011499996297061443 0.2535991072654724
vt 0.21281899511814117 0.98021000623703
vt 0.2557229995727539 0.9390929937362671
vt 0.21289800107479095 0.9828429818153381
vt 0.24974389374256134 0.8208749890327454
vt 0.2563439905643463 0.8250510096549988
vt 0.25078898668289185 0.9391469955444336
vt 0.25078898668289185 0.9391469955444336
vt 0.2563439905643463 0.8250510096549988
vt 0.2557229995727539 0.9390929937362671
vt 0.22936299443244934 0.7780219912528992
vt 0.2563439905643463 0.8250510096549988
vt 0.24974389374256134 0.8208749890327454
vt 0.22936299443244934 0.7780219912528992
vt 0.24974389374256134 0.8208749890327454
vt 0.21134600043296814 0.7728599905967712
vt 0.048768989741802216 0.8159419894218445
vt 0.09404098242521286 0.7635340094566345
vt 0.118197001516819 0.7639579772949219
vt 0.048768989741802216 0.8159419894218445
vt 0.04119294136762619 0.9338020086288452
vt 0.041738979518413544 0.8197770118713379
vt 0.041738979518413544 0.8197770118713379
vt 0.04119294136762619 0.9338020086288452
vt 0.036056991666555405 0.9334920048713684
vt 0.07673299312591553 0.9766939878463745
vt 0.07621496170759201 0.9819309711456299
vt 0.04119294136762619 0.9338020086288452
vt 0.04119294136762619 0.9338020086288452
vt 0.07621496170759201 0.9819309711456299
vt 0.036056991666555405 0.9334920048713684
vt 0.07673299312591553 0.9766939878463745
vt 0.21281899511814117 0.98021000623703
vt 0.21289800107479095 0.9828429818153381
vt 0.07673299312591553 0.9766939878463745
vt 0.21289800107479095 0.9828429818153381
vt 0.07621496170759201 0.9819309711456299
vt 0.04119294136762619 0.9338020086288452
vt 0.21281899511814117 0.98021000623703
vt 0.07673299312591553 0.9766939878463745
vt 0.048768989741802216 0.8159419894218445
vt 0.118197001516819 0.7639579772949219
vt 0.21281899511814117 0.98021000623703
vt 0.21281899511814117 0.98021000623703
vt 0.118197001516819 0.7639579772949219
vt 0.21134600043296814 0.7728599905967712
vt 0.21134600043296814 0.7728599905967712
vt 0.24974389374256134 0.8208749890327454
vt 0.21281899511814117 0.98021000623703
vt 0.21281899511814117 0.98021000623703
vt 0.24974389374256134 0.8208749890327454
vt 0.25078898668289185 0.9391469955444336
vt 0.21281899511814117 0.98021000623703
vt 0.25078898668289185 0.9391469955444336
vt 0.2557229995727539 0.9390929937362671
vt 0.048768989741802216 0.8159419894218445
vt 0.21281899511814117 0.98021000623703
vt 0.04119294136762619 0.9338020086288452
vn 0.5039152932498073 -0.6755213514203882 -0.5382752836645326
vn 0.5039152932498073 -0.6755213514203882 -0.5382752836645326
vn 0.5039152932498073 -0.6755213514203882 -0.5382752836645326
vn 0.46865381811867546 -0.8301160162186195 0.3021109041066147
vn 0.46865381811867546 -0.8301160162186195 0.3021109041066147
vn 0.46865381811867546 -0.8301160162186195 0.3021109041066147
vn 0.37779932680992534 -0.8938581817360125 0.2414233203432445
vn 0.37779932680992534 -0.8938581817360125 0.2414233203432445
vn 0.37779932680992534 -0.8938581817360125 0.2414233203432445
vn -0.00760334554587283 -0.7738670815688806 0.6333023994906175
vn -0.007603346942775949 -0.7738670815606606 0.6333023994838906
vn -0.007603346942775949 -0.7738670815606606 0.6333023994838906
vn 0.39034929363075377 -0.49883490151056314 0.7738159794143038
vn 0.39034929363075377 -0.49883490151056314 0.7738159794143038
vn 0.3902169822597403 -0.4988672808166323 0.7738618370786359
vn 0.48993456972113564 0.3229704837376685 0.8097247581903508
vn 0.48993456972113564 0.3229704837376685 0.8097247581903508
vn 0.48993456972113564 0.3229704837376685 0.8097247581903508
vn 0.46865381811867546 0.8301160162186195 0.3021109041066147
vn 0.46865381811867546 0.8301160162186195 0.3021109041066147
vn 0.46865381811867546 0.8301160162186195 0.3021109041066147
vn 0.3777995913088404 0.8938579941160257 0.2414236010868611
vn 0.3777995913088404 0.8938579941160257 0.2414236010868611
vn 0.3777995913088404 0.8938579941160257 0.2414236010868611
vn 0.6078319021342172 0.6667801216145007 -0.43121299628797266
vn 0.6078319021342172 0.6667801216145007 -0.43121299628797266
vn 0.6078319021342172 0.6667801216145007 -0.43121299628797266
vn 0.6081098991050126 0.6666457141305553 -0.43102881857464403
vn 0.6081098991050126 0.6666457141305553 -0.43102881857464403
vn 0.6081098991050126 0.6666457141305553 -0.43102881857464403
vn 0.6834228039024961 0 -0.7300227880731193
vn 0.6834228039024961 0 -0.7300227880731193
vn 0.6834228039024961 0 -0.7300227880731193
vn 0.8158159701567838 -0.012912328116873656 -0.5781674278440009
vn 0.8158159227262027 -0.012912269636236665 -0.5781674960763841
vn 0.8158159707944732 -0.012912267591000406 -0.5781674282959304
vn 0.882001690785892 0 0.4712462386596076
vn 0.882001690785892 0 0.4712462386596076
vn 0.882001690785892 0 0.4712462386596076
vn 0.8820486584206608 -0.000019580602205092324 0.47115832136863756
vn 0.8820486584206608 -0.000019580602205092324 0.47115832136863756
vn 0.8820486584206608 -0.000019580602205092324 0.47115832136863756
vn 0.8820560203216201 0.00001398919847987228 0.4711445392007507
vn 0.8820560203216201 0.00001398919847987228 0.4711445392007507
vn 0.8820560203216201 0.00001398919847987228 0.4711445392007507
vn 0.8820562217421742 0.00002185579760797172 0.4711441618106334
vn 0.8820562217421742 0.00002185579760797172 0.4711441618106334
vn 0.8820562217421742 0.00002185579760797172 0.4711441618106334
vn 0.8820756451008523 -0.00016209897466804116 0.4711077690336233
vn 0.8820756451008523 -0.00016209897466804116 0.4711077690336233
vn 0.8820756451008523 -0.00016209897466804116 0.4711077690336233
vn 0.6080903525428104 -0.6666922694827452 -0.43098438597738953
vn 0.6080903525428104 -0.6666922694827452 -0.43098438597738953
vn 0.6080903525428104 -0.6666922694827452 -0.43098438597738953
vn 0.88207770350272 0.00003531879740060787 0.47110394154151414
vn 0.88207770350272 0.00003531879740060787 0.47110394154151414
vn 0.88207770350272 0.00003531879740060787 0.47110394154151414
f 1/1/1 2/2/2 3/3/3
f 4/4/4 5/5/5 6/6/6
f 7/7/7 8/8/8 9/9/9
f 10/10/10 11/11/11 12/12/12
f 13/13/13 14/14/14 15/15/15
f 16/16/16 17/17/17 18/18/18
f 19/19/19 20/20/20 21/21/21
f 22/22/22 23/23/23 24/24/24
f 25/25/25 26/26/26 27/27/27
f 28/28/28 29/29/29 30/30/30
f 31/31/31 32/32/32 33/33/33
f 34/34/34 35/35/35 36/36/36
f 37/37/37 38/38/38 39/39/39
f 40/40/40 41/41/41 42/42/42
f 43/43/43 44/44/44 45/45/45
f 46/46/46 47/47/47 48/48/48
f 49/49/49 50/50/50 51/51/51
f 52/52/52 53/53/53 54/54/54
f 55/55/55 56/56/56 57/57/57
